<?xml version="1.0" encoding="UTF-8" standalone="no"?><svg xmlns="http://www.w3.org/2000/svg" xmlns:xlink="http://www.w3.org/1999/xlink" contentScriptType="application/ecmascript" contentStyleType="text/css" height="2175px" preserveAspectRatio="none" style="width:1970px;height:2175px;" version="1.1" viewBox="0 0 1970 2175" width="1970px" zoomAndPan="magnify"><defs><filter height="300%" id="fe1hi1unj8xv6" width="300%" x="-1" y="-1"><feGaussianBlur result="blurOut" stdDeviation="2.0"/><feColorMatrix in="blurOut" result="blurOut2" type="matrix" values="0 0 0 0 0 0 0 0 0 0 0 0 0 0 0 0 0 0 .4 0"/><feOffset dx="4.0" dy="4.0" in="blurOut2" result="blurOut3"/><feBlend in="SourceGraphic" in2="blurOut3" mode="normal"/></filter></defs><g><!--cluster wrapper--><rect fill="#FEFECE" filter="url(#fe1hi1unj8xv6)" height="2148" rx="12.5" ry="12.5" style="stroke: #A80036; stroke-width: 1.5;" width="1490" x="14" y="16"/><rect fill="#FFFFFF" height="2115.7031" rx="12.5" ry="12.5" style="stroke: #FFFFFF; stroke-width: 1.0;" width="1484" x="17" y="45.2969"/><line style="stroke: #A80036; stroke-width: 1.5;" x1="14" x2="1504" y1="42.2969" y2="42.2969"/><text fill="#000000" font-family="sans-serif" font-size="14" lengthAdjust="spacingAndGlyphs" textLength="56" x="731" y="32.9951">wrapper</text><!--cluster on--><rect fill="#FEFECE" filter="url(#fe1hi1unj8xv6)" height="1966" rx="12.5" ry="12.5" style="stroke: #A80036; stroke-width: 1.5;" width="1474" x="22" y="190"/><rect fill="#FFFFFF" height="1933.7031" rx="12.5" ry="12.5" style="stroke: #FFFFFF; stroke-width: 1.0;" width="1468" x="25" y="219.2969"/><line style="stroke: #A80036; stroke-width: 1.5;" x1="22" x2="1496" y1="216.2969" y2="216.2969"/><text fill="#000000" font-family="sans-serif" font-size="14" lengthAdjust="spacingAndGlyphs" textLength="18" x="750" y="206.9951">on</text><!--cluster ready--><rect fill="#FEFECE" filter="url(#fe1hi1unj8xv6)" height="770" rx="12.5" ry="12.5" style="stroke: #A80036; stroke-width: 1.5;" width="166" x="30" y="488"/><rect fill="#FFFFFF" height="737.7031" rx="12.5" ry="12.5" style="stroke: #FFFFFF; stroke-width: 1.0;" width="160" x="33" y="517.2969"/><line style="stroke: #A80036; stroke-width: 1.5;" x1="30" x2="196" y1="514.2969" y2="514.2969"/><text fill="#000000" font-family="sans-serif" font-size="14" lengthAdjust="spacingAndGlyphs" textLength="38" x="94" y="504.9951">ready</text><!--cluster operand1--><rect fill="#FEFECE" filter="url(#fe1hi1unj8xv6)" height="1307" rx="12.5" ry="12.5" style="stroke: #A80036; stroke-width: 1.5;" width="310" x="492" y="841"/><rect fill="#FFFFFF" height="1274.7031" rx="12.5" ry="12.5" style="stroke: #FFFFFF; stroke-width: 1.0;" width="304" x="495" y="870.2969"/><line style="stroke: #A80036; stroke-width: 1.5;" x1="492" x2="802" y1="867.2969" y2="867.2969"/><text fill="#000000" font-family="sans-serif" font-size="14" lengthAdjust="spacingAndGlyphs" textLength="67" x="613.5" y="857.9951">operand1</text><!--cluster operand2--><rect fill="#FEFECE" filter="url(#fe1hi1unj8xv6)" height="1307" rx="12.5" ry="12.5" style="stroke: #A80036; stroke-width: 1.5;" width="310" x="1178" y="841"/><rect fill="#FFFFFF" height="1274.7031" rx="12.5" ry="12.5" style="stroke: #FFFFFF; stroke-width: 1.0;" width="304" x="1181" y="870.2969"/><line style="stroke: #A80036; stroke-width: 1.5;" x1="1178" x2="1488" y1="867.2969" y2="867.2969"/><text fill="#000000" font-family="sans-serif" font-size="14" lengthAdjust="spacingAndGlyphs" textLength="67" x="1299.5" y="857.9951">operand2</text><ellipse cx="343" cy="75.5" fill="#000000" filter="url(#fe1hi1unj8xv6)" rx="10" ry="10" style="stroke: none; stroke-width: 1.0;"/><ellipse cx="93" cy="249.5" fill="#000000" filter="url(#fe1hi1unj8xv6)" rx="10" ry="10" style="stroke: none; stroke-width: 1.0;"/><rect fill="#FEFECE" filter="url(#fe1hi1unj8xv6)" height="50" rx="12.5" ry="12.5" style="stroke: #A80036; stroke-width: 1.5;" width="87" x="377.5" y="1200"/><line style="stroke: #A80036; stroke-width: 1.5;" x1="377.5" x2="464.5" y1="1226.2969" y2="1226.2969"/><text fill="#000000" font-family="sans-serif" font-size="14" lengthAdjust="spacingAndGlyphs" textLength="67" x="387.5" y="1217.9951">negated1</text><rect fill="#FEFECE" filter="url(#fe1hi1unj8xv6)" height="50" rx="12.5" ry="12.5" style="stroke: #A80036; stroke-width: 1.5;" width="93" x="903.5" y="887"/><line style="stroke: #A80036; stroke-width: 1.5;" x1="903.5" x2="996.5" y1="913.2969" y2="913.2969"/><text fill="#000000" font-family="sans-serif" font-size="14" lengthAdjust="spacingAndGlyphs" textLength="73" x="913.5" y="904.9951">opEntered</text><rect fill="#FEFECE" filter="url(#fe1hi1unj8xv6)" height="50" rx="12.5" ry="12.5" style="stroke: #A80036; stroke-width: 1.5;" width="87" x="940.5" y="1200"/><line style="stroke: #A80036; stroke-width: 1.5;" x1="940.5" x2="1027.5" y1="1226.2969" y2="1226.2969"/><text fill="#000000" font-family="sans-serif" font-size="14" lengthAdjust="spacingAndGlyphs" textLength="67" x="950.5" y="1217.9951">negated2</text><ellipse cx="48" cy="559" fill="#000000" filter="url(#fe1hi1unj8xv6)" rx="10" ry="10" style="stroke: none; stroke-width: 1.0;"/><rect fill="#FEFECE" filter="url(#fe1hi1unj8xv6)" height="50" rx="12.5" ry="12.5" style="stroke: #A80036; stroke-width: 1.5;" width="59" x="38.5" y="1200"/><line style="stroke: #A80036; stroke-width: 1.5;" x1="38.5" x2="97.5" y1="1226.2969" y2="1226.2969"/><text fill="#000000" font-family="sans-serif" font-size="14" lengthAdjust="spacingAndGlyphs" textLength="39" x="48.5" y="1217.9951">begin</text><rect fill="#FEFECE" filter="url(#fe1hi1unj8xv6)" height="50" rx="12.5" ry="12.5" style="stroke: #A80036; stroke-width: 1.5;" width="59" x="128.5" y="534"/><line style="stroke: #A80036; stroke-width: 1.5;" x1="128.5" x2="187.5" y1="560.2969" y2="560.2969"/><text fill="#000000" font-family="sans-serif" font-size="14" lengthAdjust="spacingAndGlyphs" textLength="39" x="138.5" y="551.9951">result</text><rect fill="#FEFECE" filter="url(#fe1hi1unj8xv6)" height="50" rx="12.5" ry="12.5" style="stroke: #A80036; stroke-width: 1.5;" width="60" x="503" y="887"/><line style="stroke: #A80036; stroke-width: 1.5;" x1="503" x2="563" y1="913.2969" y2="913.2969"/><text fill="#000000" font-family="sans-serif" font-size="14" lengthAdjust="spacingAndGlyphs" textLength="40" x="513" y="904.9951">zero1</text><rect fill="#FEFECE" filter="url(#fe1hi1unj8xv6)" height="50" rx="12.5" ry="12.5" style="stroke: #A80036; stroke-width: 1.5;" width="50" x="522" y="1513"/><line style="stroke: #A80036; stroke-width: 1.5;" x1="522" x2="572" y1="1539.2969" y2="1539.2969"/><text fill="#000000" font-family="sans-serif" font-size="14" lengthAdjust="spacingAndGlyphs" textLength="26" x="534" y="1530.9951">int1</text><rect fill="#FEFECE" filter="url(#fe1hi1unj8xv6)" height="50" rx="12.5" ry="12.5" style="stroke: #A80036; stroke-width: 1.5;" width="54" x="611" y="2090"/><line style="stroke: #A80036; stroke-width: 1.5;" x1="611" x2="665" y1="2116.2969" y2="2116.2969"/><text fill="#000000" font-family="sans-serif" font-size="14" lengthAdjust="spacingAndGlyphs" textLength="34" x="621" y="2107.9951">frac1</text><rect fill="#FEFECE" filter="url(#fe1hi1unj8xv6)" height="50" rx="12.5" ry="12.5" style="stroke: #A80036; stroke-width: 1.5;" width="60" x="1276" y="887"/><line style="stroke: #A80036; stroke-width: 1.5;" x1="1276" x2="1336" y1="913.2969" y2="913.2969"/><text fill="#000000" font-family="sans-serif" font-size="14" lengthAdjust="spacingAndGlyphs" textLength="40" x="1286" y="904.9951">zero2</text><rect fill="#FEFECE" filter="url(#fe1hi1unj8xv6)" height="50" rx="12.5" ry="12.5" style="stroke: #A80036; stroke-width: 1.5;" width="50" x="1191" y="1513"/><line style="stroke: #A80036; stroke-width: 1.5;" x1="1191" x2="1241" y1="1539.2969" y2="1539.2969"/><text fill="#000000" font-family="sans-serif" font-size="14" lengthAdjust="spacingAndGlyphs" textLength="26" x="1203" y="1530.9951">int2</text><rect fill="#FEFECE" filter="url(#fe1hi1unj8xv6)" height="50" rx="12.5" ry="12.5" style="stroke: #A80036; stroke-width: 1.5;" width="54" x="1190" y="2090"/><line style="stroke: #A80036; stroke-width: 1.5;" x1="1190" x2="1244" y1="2116.2969" y2="2116.2969"/><text fill="#000000" font-family="sans-serif" font-size="14" lengthAdjust="spacingAndGlyphs" textLength="34" x="1200" y="2107.9951">frac2</text><!--link wrapper to wrapper--><path d="M1510,75.3731 C1521.9566,72.7507 1544.799,72.793 1544.799,75.5 C1544.799,78.207 1521.9566,78.2493 1510,75.6269 " fill="none" id="wrapper-wrapper" style="stroke: #A80036; stroke-width: 1.0;"/><polygon fill="#A80036" points="1510,75.6269,1517.9341,81.4621,1514.8839,76.6981,1519.648,73.6479,1510,75.6269" style="stroke: #A80036; stroke-width: 1.0;"/><text fill="#000000" font-family="sans-serif" font-size="13" lengthAdjust="spacingAndGlyphs" textLength="76" x="1550.799" y="80.0669">(1)CALC.DO</text><!--link wrapper to wrapper--><path d="M1510,75.3721 C1534.4447,70.0003 1632.7964,70.043 1632.7964,75.5 C1632.7964,80.957 1534.4447,80.9997 1510,75.6279 " fill="none" id="wrapper-wrapper" style="stroke: #A80036; stroke-width: 1.0;"/><polygon fill="#A80036" points="1510,75.6279,1517.9317,81.4664,1514.8835,76.7011,1519.6488,73.6528,1510,75.6279" style="stroke: #A80036; stroke-width: 1.0;"/><text fill="#000000" font-family="sans-serif" font-size="13" lengthAdjust="spacingAndGlyphs" textLength="84" x="1638.7964" y="80.0669">(2)CALC.SUB</text><!--link wrapper to wrapper--><path d="M1510,75.4037 C1546.1382,67.2501 1728.9416,67.2822 1728.9416,75.5 C1728.9416,83.7178 1546.1382,83.7499 1510,75.5963 " fill="none" id="wrapper-wrapper" style="stroke: #A80036; stroke-width: 1.0;"/><polygon fill="#A80036" points="1510,75.5963,1517.899,81.479,1514.8774,76.6968,1519.6597,73.6752,1510,75.5963" style="stroke: #A80036; stroke-width: 1.0;"/><text fill="#000000" font-family="sans-serif" font-size="13" lengthAdjust="spacingAndGlyphs" textLength="127" x="1734.9416" y="80.0669">(3)DISPLAY.UPDATE</text><!--link wrapper to wrapper--><path d="M1510,75.3716 C1558.6557,64.5002 1867.7996,64.543 1867.7996,75.5 C1867.7996,86.457 1558.6557,86.4998 1510,75.6284 " fill="none" id="wrapper-wrapper" style="stroke: #A80036; stroke-width: 1.0;"/><polygon fill="#A80036" points="1510,75.6284,1517.9112,81.4947,1514.8797,76.7187,1519.6557,73.6872,1510,75.6284" style="stroke: #A80036; stroke-width: 1.0;"/><text fill="#000000" font-family="sans-serif" font-size="13" lengthAdjust="spacingAndGlyphs" textLength="85" x="1873.7996" y="80.0669">(4)OP.INSERT</text><!--link on to on--><path d="M1502,249.2442 C1513.8752,238.5007 1537.0816,238.5859 1537.0816,249.5 C1537.0816,260.4141 1513.8752,260.4993 1502,249.7558 " fill="none" id="on-on" style="stroke: #A80036; stroke-width: 1.0;"/><polygon fill="#A80036" points="1502,249.7558,1505.9905,258.76,1505.7078,253.1102,1511.3576,252.8276,1502,249.7558" style="stroke: #A80036; stroke-width: 1.0;"/><text fill="#000000" font-family="sans-serif" font-size="13" lengthAdjust="spacingAndGlyphs" textLength="27" x="1543.0816" y="254.0669">(1)C</text><!--link *start*wrapper to on--><path d="M343,85.6071 C343,103.5947 343,142.6093 343,178.0606 C343,180.2763 343,182.4781 343,184.66 C343,185.7509 343,186.8369 343,187.9171 C343,188.4572 343,188.9959 343,189.5331 " fill="none" id="*start*wrapper-on" style="stroke: #A80036; stroke-width: 1.0;"/><polygon fill="#A80036" points="343,189.5331,347,180.5331,343,184.5331,339,180.5331,343,189.5331" style="stroke: #A80036; stroke-width: 1.0;"/><!--link ready to opEntered--><path d="M199.0884,601.8609 C200.2231,601.9696 201.366,602.0771 202.517,602.1834 C204.8188,602.3959 207.1529,602.6034 209.5184,602.806 C218.9803,603.6163 228.9456,604.3479 239.3689,605.0067 C260.2155,606.3244 282.8941,607.3512 307.0424,608.1348 C403.6354,611.2694 523.7424,610.5143 644.1687,608.9316 C885.0213,605.7662 1127.151,599.2902 1185,614 C1214.9548,621.6169 1247,614.5919 1247,645.5 C1247,645.5 1247,645.5 1247,785.5 C1247,813.6802 1229.2319,818.6146 1205,833 C1191.279,841.1456 1185.3852,836.7678 1170,841 C1111.7553,857.0221 1045.9495,878.7476 1001.6083,893.9311 " fill="none" id="ready-opEntered" style="stroke: #A80036; stroke-width: 1.0;"/><polygon fill="#A80036" points="996.8481,895.5642,1006.6591,896.4268,1001.5775,893.9415,1004.0628,888.8599,996.8481,895.5642" style="stroke: #A80036; stroke-width: 1.0;"/><text fill="#000000" font-family="sans-serif" font-size="13" lengthAdjust="spacingAndGlyphs" textLength="52" x="1248" y="720.0669">(1)OPER</text><!--link ready to zero1--><path d="M197.0046,603.7453 C197.3952,603.729 197.7858,603.7118 198.1764,603.6939 C198.9574,603.6581 199.7382,603.6194 200.5186,603.5778 C206.7619,603.2452 212.9815,602.733 219.13,602.1298 C231.4271,600.9235 243.4402,599.3536 254.791,598.1298 C300.194,593.235 335,593.8802 335,645.5 C335,645.5 335,645.5 335,785.5 C335,861.9215 441.0407,894.2378 497.9169,906.0747 " fill="none" id="ready-zero1" style="stroke: #A80036; stroke-width: 1.0;"/><polygon fill="#A80036" points="502.9281,907.0912,494.9031,901.3816,498.0279,906.0971,493.3125,909.2219,502.9281,907.0912" style="stroke: #A80036; stroke-width: 1.0;"/><text fill="#000000" font-family="sans-serif" font-size="13" lengthAdjust="spacingAndGlyphs" textLength="63" x="336" y="720.0669">(2)DIGIT.0</text><!--link ready to int1--><path d="M196.5469,597.0147 C210.6841,597.7527 226.0868,598.3063 242.4768,598.727 C308.0367,600.4096 389.3926,599.9654 468.7294,600.6926 C627.4029,602.147 778,608.2873 778,645.5 C778,645.5 778,645.5 778,1029.5 C778,1131.6142 818.5421,1157.2346 802,1258 C789.6142,1333.4475 795.2809,1361.7152 747,1421 C701.1379,1477.3148 620.4903,1512.3903 576.9318,1528.1752 " fill="none" id="ready-int1" style="stroke: #A80036; stroke-width: 1.0;"/><polygon fill="#A80036" points="572.065,1529.9143,581.8862,1530.6521,576.7733,1528.2316,579.1938,1523.1187,572.065,1529.9143" style="stroke: #A80036; stroke-width: 1.0;"/><text fill="#000000" font-family="sans-serif" font-size="13" lengthAdjust="spacingAndGlyphs" textLength="51" x="782" y="1073.0669">(3)DIGIT</text><!--link ready to frac1--><path d="M196.036,607.6977 C197.5269,607.8957 199.0273,608.0882 200.537,608.2754 C212.6149,609.7724 225.2885,610.9248 238.4437,611.7883 C291.0646,615.2421 351.3917,614.0719 412.1251,611.8323 C533.592,607.3532 656.6837,598.5967 723,614 C943.6737,665.2561 1066.531,626.7079 1191,816 C1195.1511,822.313 1196.2752,827.5909 1191,833 C1178.6227,845.6916 884.6256,828.5553 872,841 C831.9278,880.498 867,911.2339 867,967.5 C867,967.5 867,967.5 867,1169.5 C867,1264.1794 818.1592,1279.3853 804,1373 C802.8701,1380.4706 800.362,1383.378 804,1390 C816.1704,1412.1528 852,1395.2242 852,1420.5 C852,1420.5 852,1420.5 852,2028.5 C852,2067.2045 730.1536,2096.7495 670.344,2108.9206 " fill="none" id="ready-frac1" style="stroke: #A80036; stroke-width: 1.0;"/><polygon fill="#A80036" points="665.1032,2109.9749,674.7153,2112.1212,670.005,2108.9887,673.1375,2104.2784,665.1032,2109.9749" style="stroke: #A80036; stroke-width: 1.0;"/><text fill="#000000" font-family="sans-serif" font-size="13" lengthAdjust="spacingAndGlyphs" textLength="56" x="805" y="1386.0669">(4)POINT</text><!--link negated1 to zero1--><path d="M423.6841,1199.6728 C425.2816,1182.4461 427,1159.1232 427,1138.5 C427,998.5 427,998.5 427,998.5 C427,961.073 467.1582,936.9487 498.0392,923.9305 " fill="none" id="negated1-zero1" style="stroke: #A80036; stroke-width: 1.0;"/><polygon fill="#A80036" points="502.9082,921.9361,493.0636,921.6461,498.2813,923.8314,496.0961,929.0491,502.9082,921.9361" style="stroke: #A80036; stroke-width: 1.0;"/><text fill="#000000" font-family="sans-serif" font-size="13" lengthAdjust="spacingAndGlyphs" textLength="63" x="428" y="1073.0669">(1)DIGIT.0</text><!--link negated1 to int1--><path d="M432.3297,1250.1868 C438.9443,1267.1566 446,1290.2405 446,1311.5 C446,1311.5 446,1311.5 446,1451.5 C446,1491.9406 482.9935,1486.1418 517.506,1512.765 " fill="none" id="negated1-int1" style="stroke: #A80036; stroke-width: 1.0;"/><polygon fill="#A80036" points="521.6999,1516.1777,517.2437,1507.3946,517.8217,1513.0219,512.1944,1513.5998,521.6999,1516.1777" style="stroke: #A80036; stroke-width: 1.0;"/><text fill="#000000" font-family="sans-serif" font-size="13" lengthAdjust="spacingAndGlyphs" textLength="51" x="447" y="1386.0669">(2)DIGIT</text><!--link negated1 to frac1--><path d="M399.347,1250.0504 C387.416,1266.4145 375,1288.8783 375,1311.5 C375,1311.5 375,1311.5 375,2028.5 C375,2076.5166 535.1934,2102.2714 605.5347,2111.2658 " fill="none" id="negated1-frac1" style="stroke: #A80036; stroke-width: 1.0;"/><polygon fill="#A80036" points="610.845,2111.9348,602.4156,2106.8412,605.8842,2111.3098,601.4156,2114.7784,610.845,2111.9348" style="stroke: #A80036; stroke-width: 1.0;"/><text fill="#000000" font-family="sans-serif" font-size="13" lengthAdjust="spacingAndGlyphs" textLength="56" x="376" y="1699.0669">(3)POINT</text><!--link operand1 to opEntered--><path d="M802.1174,912 C802.5007,912 802.884,912 803.2673,912 C806.3344,912 809.4057,912 812.4755,912 C818.615,912 824.7481,912 830.8277,912 C855.1459,912 878.6066,912 898.1858,912 " fill="none" id="operand1-opEntered" style="stroke: #A80036; stroke-width: 1.0;"/><polygon fill="#A80036" points="903.2525,912,894.2525,908,898.2525,912,894.2525,916,903.2525,912" style="stroke: #A80036; stroke-width: 1.0;"/><text fill="#000000" font-family="sans-serif" font-size="13" lengthAdjust="spacingAndGlyphs" textLength="52" x="760.93" y="905.0669">(1)OPER</text><!--link opEntered to negated2--><path d="M961.3297,937.1868 C967.9443,954.1566 975,977.2405 975,998.5 C975,998.5 975,998.5 975,1138.5 C975,1157.2456 977.1169,1178.1543 979.2974,1194.7187 " fill="none" id="opEntered-negated2" style="stroke: #A80036; stroke-width: 1.0;"/><polygon fill="#A80036" points="979.9738,1199.7127,982.7293,1190.2572,979.3025,1194.758,974.8017,1191.3312,979.9738,1199.7127" style="stroke: #A80036; stroke-width: 1.0;"/><text fill="#000000" font-family="sans-serif" font-size="13" lengthAdjust="spacingAndGlyphs" textLength="99" x="976" y="1073.0669">(1)OPER.MINUS</text><!--link opEntered to frac2--><path d="M928.347,937.0504 C916.416,953.4145 904,975.8783 904,998.5 C904,998.5 904,998.5 904,1169.5 C904,1282.6065 946,1307.3935 946,1420.5 C946,1420.5 946,1420.5 946,2028.5 C946,2078.1163 1112.9434,2103.1338 1184.7711,2111.6015 " fill="none" id="opEntered-frac2" style="stroke: #A80036; stroke-width: 1.0;"/><polygon fill="#A80036" points="1189.7747,2112.1827,1181.2964,2107.1708,1184.8081,2111.6057,1180.3732,2115.1174,1189.7747,2112.1827" style="stroke: #A80036; stroke-width: 1.0;"/><text fill="#000000" font-family="sans-serif" font-size="13" lengthAdjust="spacingAndGlyphs" textLength="56" x="947" y="1542.5669">(2)POINT</text><!--link opEntered to zero2--><path d="M996.5408,912 C1068.5852,912 1205.5458,912 1270.3337,912 " fill="none" id="opEntered-zero2" style="stroke: #A80036; stroke-width: 1.0;"/><polygon fill="#A80036" points="1275.6236,912,1266.6236,908,1270.6236,912,1266.6236,916,1275.6236,912" style="stroke: #A80036; stroke-width: 1.0;"/><text fill="#000000" font-family="sans-serif" font-size="13" lengthAdjust="spacingAndGlyphs" textLength="63" x="1104.75" y="905.0669">(3)DIGIT.0</text><!--link opEntered to int2--><path d="M979.7099,937.0537 C1010.1882,964.3116 1056.8673,1010.6411 1084,1060 C1128.0098,1140.0611 1189.7741,1415.9156 1209.6048,1507.889 " fill="none" id="opEntered-int2" style="stroke: #A80036; stroke-width: 1.0;"/><polygon fill="#A80036" points="1210.6842,1512.9056,1212.7016,1503.2656,1209.6325,1508.0175,1204.8806,1504.9483,1210.6842,1512.9056" style="stroke: #A80036; stroke-width: 1.0;"/><text fill="#000000" font-family="sans-serif" font-size="13" lengthAdjust="spacingAndGlyphs" textLength="51" x="1151" y="1229.5669">(4)DIGIT</text><!--link negated2 to zero2--><path d="M1027.6714,1208.3282 C1086.2503,1185.6437 1183,1146.9054 1183,1138.5 C1183,998.5 1183,998.5 1183,998.5 C1183,952.0157 1229.5945,964.0176 1271.6817,937.0525 " fill="none" id="negated2-zero2" style="stroke: #A80036; stroke-width: 1.0;"/><polygon fill="#A80036" points="1275.9999,934.1325,1266.3038,935.8606,1271.858,936.9334,1270.7852,942.4876,1275.9999,934.1325" style="stroke: #A80036; stroke-width: 1.0;"/><text fill="#000000" font-family="sans-serif" font-size="13" lengthAdjust="spacingAndGlyphs" textLength="63" x="1184" y="1073.0669">(1)DIGIT.0</text><!--link negated2 to int2--><path d="M1023.8533,1250.0276 C1042.6418,1265.1561 1061,1286.3683 1061,1311.5 C1061,1311.5 1061,1311.5 1061,1451.5 C1061,1512.2324 1131.2623,1480.426 1186.6978,1513.0939 " fill="none" id="negated2-int2" style="stroke: #A80036; stroke-width: 1.0;"/><polygon fill="#A80036" points="1190.9988,1515.7812,1185.4856,1507.62,1186.7584,1513.1318,1181.2466,1514.4046,1190.9988,1515.7812" style="stroke: #A80036; stroke-width: 1.0;"/><text fill="#000000" font-family="sans-serif" font-size="13" lengthAdjust="spacingAndGlyphs" textLength="51" x="1062" y="1386.0669">(2)DIGIT</text><!--link negated2 to frac2--><path d="M988.823,1250.0918 C1002.4066,1321.6003 1040,1525.6352 1040,1593.5 C1040,1593.5 1040,1593.5 1040,2028.5 C1040,2060.3268 1133.546,2091.5943 1184.6248,2106.295 " fill="none" id="negated2-frac2" style="stroke: #A80036; stroke-width: 1.0;"/><polygon fill="#A80036" points="1189.7317,2107.7503,1182.1725,2101.4369,1184.9231,2106.38,1179.9801,2109.1306,1189.7317,2107.7503" style="stroke: #A80036; stroke-width: 1.0;"/><text fill="#000000" font-family="sans-serif" font-size="13" lengthAdjust="spacingAndGlyphs" textLength="56" x="1041" y="1699.0669">(3)POINT</text><!--link operand2 to opEntered--><path d="M1353.6023,840.6858 C1353.4683,840.5817 1353.3328,840.4781 1353.1958,840.3753 C1352.9219,840.1695 1352.6422,839.9661 1352.3567,839.7652 C1351.7857,839.3635 1351.1917,838.9714 1350.5754,838.589 C1349.3427,837.8241 1348.0207,837.0974 1346.6146,836.4078 C1343.8025,835.0286 1340.6541,833.7972 1337.2117,832.703 C1330.3271,830.5146 1322.2668,828.8749 1313.3696,827.6982 C1295.5752,825.3447 1274.4332,824.8431 1252.6533,825.5076 C1209.0937,826.8365 1162.983,832.8295 1136,838 C1088.6345,847.0762 1037.9658,868.0566 1001.4928,885.3685 " fill="none" id="operand2-opEntered" style="stroke: #A80036; stroke-width: 1.0;"/><polygon fill="#A80036" points="996.6675,887.6767,1006.5125,887.4014,1001.178,885.5191,1003.0603,880.1846,996.6675,887.6767" style="stroke: #A80036; stroke-width: 1.0;"/><text fill="#000000" font-family="sans-serif" font-size="13" lengthAdjust="spacingAndGlyphs" textLength="52" x="1137" y="829.0669">(1)OPER</text><!--link operand2 to result--><path d="M1371,840.4276 C1371,840.2166 1371,840.0054 1371,839.7941 C1371,838.9487 1371,838.1006 1371,837.25 C1371,833.8478 1371,830.4062 1371,826.9433 C1371,813.0914 1371,798.8967 1371,785.5 C1371,645.5 1371,645.5 1371,645.5 C1371,631.3247 1376.5684,623.4471 1366,614 C1321.103,573.8662 386.0479,561.4901 192.7699,559.3564 " fill="none" id="operand2-result" style="stroke: #A80036; stroke-width: 1.0;"/><polygon fill="#A80036" points="187.5367,559.2992,196.4923,563.3977,192.5364,559.3541,196.58,555.3982,187.5367,559.2992" style="stroke: #A80036; stroke-width: 1.0;"/><text fill="#000000" font-family="sans-serif" font-size="13" lengthAdjust="spacingAndGlyphs" textLength="71" x="1372" y="720.0669">(2)EQUALS</text><!--link *start*on to ready--><path d="M93,259.69 C93,274.117 93,301.3229 93,324.5 C93,324.5 93,324.5 93,448.5 C93,460.2023 93,472.6016 93,484.7014 C93,485.4577 93,486.2127 93,486.9664 C93,487.1548 93,487.3431 93,487.5314 " fill="none" id="*start*on-ready" style="stroke: #A80036; stroke-width: 1.0;"/><polygon fill="#A80036" points="93,487.5314,97,478.5314,93,482.5314,89,478.5314,93,487.5314" style="stroke: #A80036; stroke-width: 1.0;"/><!--link begin to negated1--><path d="M97.7924,1225 C158.6632,1225 297.8076,1225 372.1135,1225 " fill="none" id="begin-negated1" style="stroke: #A80036; stroke-width: 1.0;"/><polygon fill="#A80036" points="377.3494,1225,368.3494,1221,372.3494,1225,368.3494,1229,377.3494,1225" style="stroke: #A80036; stroke-width: 1.0;"/><text fill="#000000" font-family="sans-serif" font-size="13" lengthAdjust="spacingAndGlyphs" textLength="99" x="188" y="1218.0669">(1)OPER.MINUS</text><!--link *start*ready to begin--><path d="M49.9281,569.0772 C52.834,585.1675 58,617.684 58,645.5 C58,645.5 58,645.5 58,1138.5 C58,1157.2692 60.3521,1178.1785 62.7748,1194.7374 " fill="none" id="*start*ready-begin" style="stroke: #A80036; stroke-width: 1.0;"/><polygon fill="#A80036" points="63.5265,1199.7296,66.1417,1190.2343,62.7819,1194.7853,58.2309,1191.4256,63.5265,1199.7296" style="stroke: #A80036; stroke-width: 1.0;"/><!--link zero1 to int1--><path d="M533.8947,937.3557 C534.4272,954.5948 535,977.9207 535,998.5 C535,998.5 535,998.5 535,1451.5 C535,1470.3236 537.8225,1491.2345 540.7298,1507.7807 " fill="none" id="zero1-int1" style="stroke: #A80036; stroke-width: 1.0;"/><polygon fill="#A80036" points="541.6318,1512.7685,543.9662,1503.2003,540.7419,1507.8483,536.0939,1504.6241,541.6318,1512.7685" style="stroke: #A80036; stroke-width: 1.0;"/><text fill="#000000" font-family="sans-serif" font-size="13" lengthAdjust="spacingAndGlyphs" textLength="220" x="536" y="1229.5669">(1)DIGIT[_event.name != 'DIGIT.0']</text><!--link zero1 to frac1--><path d="M563.2196,936.6172 C616.2837,982.0375 724.4262,1084.9554 765,1200 C773.5737,1224.3102 766.7384,1232.2809 765,1258 C760.1,1330.4955 749.3606,1347.618 743,1420 C736.2443,1496.8776 736,1516.3262 736,1593.5 C736,1593.5 736,1593.5 736,2028.5 C736,2064.4328 698.509,2089.0072 669.9046,2102.5273 " fill="none" id="zero1-frac1" style="stroke: #A80036; stroke-width: 1.0;"/><polygon fill="#A80036" points="665.0384,2104.7629,674.8865,2104.6406,669.5819,2102.6756,671.5469,2097.371,665.0384,2104.7629" style="stroke: #A80036; stroke-width: 1.0;"/><text fill="#000000" font-family="sans-serif" font-size="13" lengthAdjust="spacingAndGlyphs" textLength="56" x="737" y="1542.5669">(2)POINT</text><!--link int1 to frac1--><path d="M567.36,1563.2731 C573.6116,1572.1998 579.9134,1582.612 584,1593 C589.1894,1606.1912 589,1610.3247 589,1624.5 C589,1624.5 589,1624.5 589,2028.5 C589,2049.3246 599.8847,2069.7342 611.3939,2085.494 " fill="none" id="int1-frac1" style="stroke: #A80036; stroke-width: 1.0;"/><polygon fill="#A80036" points="614.6481,2089.8123,612.426,2080.2174,611.6389,2085.8192,606.0371,2085.0321,614.6481,2089.8123" style="stroke: #A80036; stroke-width: 1.0;"/><text fill="#000000" font-family="sans-serif" font-size="13" lengthAdjust="spacingAndGlyphs" textLength="56" x="590" y="1839.0669">(1)POINT</text><!--link int1 to int1--><path d="M572.2777,1528.8638 C589.7734,1526.0952 607,1529.1406 607,1538 C607,1545.9596 593.0949,1549.2262 577.5823,1547.7999 " fill="none" id="int1-int1" style="stroke: #A80036; stroke-width: 1.0;"/><polygon fill="#A80036" points="572.2777,1547.1362,580.7115,1552.2225,577.239,1547.7569,581.7046,1544.2844,572.2777,1547.1362" style="stroke: #A80036; stroke-width: 1.0;"/><text fill="#000000" font-family="sans-serif" font-size="13" lengthAdjust="spacingAndGlyphs" textLength="51" x="613" y="1542.5669">(2)DIGIT</text><!--link frac1 to frac1--><path d="M665.0884,2105.721 C682.8293,2103.2058 700,2106.2988 700,2115 C700,2122.8175 686.14,2126.1081 670.4588,2124.8718 " fill="none" id="frac1-frac1" style="stroke: #A80036; stroke-width: 1.0;"/><polygon fill="#A80036" points="665.0884,2124.279,673.5951,2129.2425,670.0582,2124.8277,674.473,2121.2908,665.0884,2124.279" style="stroke: #A80036; stroke-width: 1.0;"/><text fill="#000000" font-family="sans-serif" font-size="13" lengthAdjust="spacingAndGlyphs" textLength="51" x="706" y="2119.5669">(1)DIGIT</text><!--link zero2 to int2--><path d="M1302.6257,937.0088 C1298.085,969.4474 1289.3691,1027.7175 1279,1077 C1273.1406,1104.8486 1270.6057,1111.5768 1263,1139 C1245.4677,1202.2145 1221,1214.8993 1221,1280.5 C1221,1280.5 1221,1280.5 1221,1451.5 C1221,1470.1761 1219.8239,1491.0827 1218.6126,1507.6634 " fill="none" id="zero2-int2" style="stroke: #A80036; stroke-width: 1.0;"/><polygon fill="#A80036" points="1218.2368,1512.663,1222.9003,1503.9882,1218.6117,1507.6771,1214.9228,1503.3884,1218.2368,1512.663" style="stroke: #A80036; stroke-width: 1.0;"/><text fill="#000000" font-family="sans-serif" font-size="13" lengthAdjust="spacingAndGlyphs" textLength="220" x="1240" y="1229.5669">(1)DIGIT[_event.name != 'DIGIT.0']</text><!--link zero2 to frac2--><path d="M1336.0062,928.1602 C1341.6348,931.1348 1347.4833,934.1875 1353,937 C1408.5163,965.3028 1479,936.1854 1479,998.5 C1479,998.5 1479,998.5 1479,1169.5 C1479,1359.6396 1422,1403.3604 1422,1593.5 C1422,1593.5 1422,1593.5 1422,2028.5 C1422,2065.5284 1307.0309,2095.6083 1249.2894,2108.3805 " fill="none" id="zero2-frac2" style="stroke: #A80036; stroke-width: 1.0;"/><polygon fill="#A80036" points="1244.2224,2109.4894,1253.8695,2111.4727,1249.1068,2108.4204,1252.1591,2103.6577,1244.2224,2109.4894" style="stroke: #A80036; stroke-width: 1.0;"/><text fill="#000000" font-family="sans-serif" font-size="13" lengthAdjust="spacingAndGlyphs" textLength="56" x="1426" y="1542.5669">(2)POINT</text><!--link int2 to int2--><path d="M1241.2777,1528.8638 C1258.7734,1526.0952 1276,1529.1406 1276,1538 C1276,1545.9596 1262.0949,1549.2262 1246.5823,1547.7999 " fill="none" id="int2-int2" style="stroke: #A80036; stroke-width: 1.0;"/><polygon fill="#A80036" points="1241.2777,1547.1362,1249.7115,1552.2225,1246.239,1547.7569,1250.7046,1544.2844,1241.2777,1547.1362" style="stroke: #A80036; stroke-width: 1.0;"/><text fill="#000000" font-family="sans-serif" font-size="13" lengthAdjust="spacingAndGlyphs" textLength="51" x="1282" y="1542.5669">(1)DIGIT</text><!--link int2 to frac2--><path d="M1218.2368,1563.337 C1219.568,1580.568 1221,1603.8919 1221,1624.5 C1221,1624.5 1221,1624.5 1221,2028.5 C1221,2047.1649 1220.0592,2068.0711 1219.0901,2084.6545 " fill="none" id="int2-frac2" style="stroke: #A80036; stroke-width: 1.0;"/><polygon fill="#A80036" points="1218.7894,2089.655,1223.3227,2080.9115,1219.0897,2084.664,1215.3371,2080.431,1218.7894,2089.655" style="stroke: #A80036; stroke-width: 1.0;"/><text fill="#000000" font-family="sans-serif" font-size="13" lengthAdjust="spacingAndGlyphs" textLength="56" x="1222" y="1839.0669">(2)POINT</text><!--link frac2 to frac2--><path d="M1244.0884,2105.721 C1261.8293,2103.2058 1279,2106.2988 1279,2115 C1279,2122.8175 1265.14,2126.1081 1249.4588,2124.8718 " fill="none" id="frac2-frac2" style="stroke: #A80036; stroke-width: 1.0;"/><polygon fill="#A80036" points="1244.0884,2124.279,1252.5951,2129.2425,1249.0582,2124.8277,1253.473,2121.2908,1244.0884,2124.279" style="stroke: #A80036; stroke-width: 1.0;"/><text fill="#000000" font-family="sans-serif" font-size="13" lengthAdjust="spacingAndGlyphs" textLength="51" x="1285" y="2119.5669">(1)DIGIT</text><!--
@startuml 
state wrapper
wrapper - -> wrapper:(1)CALC.DO
wrapper - -> wrapper:(2)CALC.SUB
wrapper - -> wrapper:(3)DISPLAY.UPDATE
wrapper - -> wrapper:(4)OP.INSERT
state wrapper {
state on
on - -> on:(1)C
[*] - -> on
state on {
state ready
state negated1
state operand1
state opEntered
state negated2
state operand2
ready - -> opEntered:(1)OPER
ready - -> zero1:(2)DIGIT.0
ready - -> int1:(3)DIGIT
ready - -> frac1:(4)POINT
negated1 - -> zero1:(1)DIGIT.0
negated1 - -> int1:(2)DIGIT
negated1 - -> frac1:(3)POINT
operand1 - -> opEntered:(1)OPER
opEntered - -> negated2:(1)OPER.MINUS
opEntered - -> frac2:(2)POINT
opEntered - -> zero2:(3)DIGIT.0
opEntered - -> int2:(4)DIGIT
negated2 - -> zero2:(1)DIGIT.0
negated2 - -> int2:(2)DIGIT
negated2 - -> frac2:(3)POINT
operand2 - -> opEntered:(1)OPER
operand2 - -> result:(2)EQUALS
[*] - -> ready
state ready {
state begin
state result
begin - -> negated1:(1)OPER.MINUS
[*] - -> begin
state begin {
}
state result {
}
}
state negated1 {
}
state operand1 {
state zero1
state int1
state frac1
zero1 - -> int1:(1)DIGIT[_event.name != 'DIGIT.0']
zero1 - -> frac1:(2)POINT
int1 - -> frac1:(1)POINT
int1 - -> int1:(2)DIGIT
frac1 - -> frac1:(1)DIGIT
state zero1 {
}
state int1 {
}
state frac1 {
}
}
state opEntered {
}
state negated2 {
}
state operand2 {
state zero2
state int2
state frac2
zero2 - -> int2:(1)DIGIT[_event.name != 'DIGIT.0']
zero2 - -> frac2:(2)POINT
int2 - -> int2:(1)DIGIT
int2 - -> frac2:(2)POINT
frac2 - -> frac2:(1)DIGIT
state zero2 {
}
state int2 {
}
state frac2 {
}
}
}
}
@enduml

PlantUML version 1.2017.15(Tue Jul 04 01:45:34 JST 2017)
(GPL source distribution)
Java Runtime: OpenJDK Runtime Environment
JVM: OpenJDK 64-Bit Server VM
Java Version: 1.8.0_181-8u181-b13-0ubuntu0.18.04.1-b13
Operating System: Linux
OS Version: 4.15.0-34-generic
Default Encoding: UTF-8
Language: en
Country: US
--></g></svg>