<?xml version="1.0" encoding="UTF-8" standalone="no"?><svg xmlns="http://www.w3.org/2000/svg" xmlns:xlink="http://www.w3.org/1999/xlink" contentScriptType="application/ecmascript" contentStyleType="text/css" height="531px" preserveAspectRatio="none" style="width:787px;height:531px;" version="1.1" viewBox="0 0 787 531" width="787px" zoomAndPan="magnify"><defs><filter height="300%" id="f1bvptjlh7hwvt" width="300%" x="-1" y="-1"><feGaussianBlur result="blurOut" stdDeviation="2.0"/><feColorMatrix in="blurOut" result="blurOut2" type="matrix" values="0 0 0 0 0 0 0 0 0 0 0 0 0 0 0 0 0 0 .4 0"/><feOffset dx="4.0" dy="4.0" in="blurOut2" result="blurOut3"/><feBlend in="SourceGraphic" in2="blurOut3" mode="normal"/></filter></defs><g><rect fill="#FEFECE" filter="url(#f1bvptjlh7hwvt)" height="50" rx="12.5" ry="12.5" style="stroke: #A80036; stroke-width: 1.5;" width="50" x="725" y="343"/><line style="stroke: #A80036; stroke-width: 1.5;" x1="725" x2="775" y1="369.2969" y2="369.2969"/><text fill="#000000" font-family="sans-serif" font-size="14" lengthAdjust="spacingAndGlyphs" textLength="18" x="741" y="360.9951">q8</text><ellipse cx="31" cy="18" fill="#000000" filter="url(#f1bvptjlh7hwvt)" rx="10" ry="10" style="stroke: none; stroke-width: 1.0;"/><ellipse cx="750" cy="495" fill="none" filter="url(#f1bvptjlh7hwvt)" rx="10" ry="10" style="stroke: #000000; stroke-width: 1.0;"/><ellipse cx="750.5" cy="495.5" fill="#000000" rx="6" ry="6" style="stroke: none; stroke-width: 1.0;"/><rect fill="#FEFECE" filter="url(#f1bvptjlh7hwvt)" height="50" rx="12.5" ry="12.5" style="stroke: #A80036; stroke-width: 1.5;" width="50" x="6" y="89"/><line style="stroke: #A80036; stroke-width: 1.5;" x1="6" x2="56" y1="115.2969" y2="115.2969"/><text fill="#000000" font-family="sans-serif" font-size="14" lengthAdjust="spacingAndGlyphs" textLength="18" x="22" y="106.9951">q2</text><rect fill="#FEFECE" filter="url(#f1bvptjlh7hwvt)" height="50" rx="12.5" ry="12.5" style="stroke: #A80036; stroke-width: 1.5;" width="50" x="71" y="343"/><line style="stroke: #A80036; stroke-width: 1.5;" x1="71" x2="121" y1="369.2969" y2="369.2969"/><text fill="#000000" font-family="sans-serif" font-size="14" lengthAdjust="spacingAndGlyphs" textLength="18" x="87" y="360.9951">q5</text><rect fill="#FEFECE" filter="url(#f1bvptjlh7hwvt)" height="50" rx="12.5" ry="12.5" style="stroke: #A80036; stroke-width: 1.5;" width="50" x="439" y="216"/><line style="stroke: #A80036; stroke-width: 1.5;" x1="439" x2="489" y1="242.2969" y2="242.2969"/><text fill="#000000" font-family="sans-serif" font-size="14" lengthAdjust="spacingAndGlyphs" textLength="18" x="455" y="233.9951">q7</text><rect fill="#FEFECE" filter="url(#f1bvptjlh7hwvt)" height="50" rx="12.5" ry="12.5" style="stroke: #A80036; stroke-width: 1.5;" width="50" x="319" y="470"/><line style="stroke: #A80036; stroke-width: 1.5;" x1="319" x2="369" y1="496.2969" y2="496.2969"/><text fill="#000000" font-family="sans-serif" font-size="14" lengthAdjust="spacingAndGlyphs" textLength="18" x="335" y="487.9951">q6</text><rect fill="#FEFECE" filter="url(#f1bvptjlh7hwvt)" height="50" rx="12.5" ry="12.5" style="stroke: #A80036; stroke-width: 1.5;" width="50" x="6" y="216"/><line style="stroke: #A80036; stroke-width: 1.5;" x1="6" x2="56" y1="242.2969" y2="242.2969"/><text fill="#000000" font-family="sans-serif" font-size="14" lengthAdjust="spacingAndGlyphs" textLength="18" x="22" y="233.9951">q4</text><!--link q2 to q4--><path d="M31,139.0911 C31,159.7035 31,188.9647 31,210.8484 " fill="none" id="q2-q4" style="stroke: #A80036; stroke-width: 1.0;"/><polygon fill="#A80036" points="31,215.961,35,206.961,31,210.961,27,206.961,31,215.961" style="stroke: #A80036; stroke-width: 1.0;"/><text fill="#000000" font-family="sans-serif" font-size="13" lengthAdjust="spacingAndGlyphs" textLength="70" x="32" y="182.0669">(1)Propose</text><!--link q5 to q6--><path d="M121.1443,380.8763 C167.1918,404.4571 264.8507,454.4679 314.1705,479.7244 " fill="none" id="q5-q6" style="stroke: #A80036; stroke-width: 1.0;"/><polygon fill="#A80036" points="318.7891,482.0896,312.6018,474.4268,314.3388,479.8104,308.9552,481.5474,318.7891,482.0896" style="stroke: #A80036; stroke-width: 1.0;"/><text fill="#000000" font-family="sans-serif" font-size="13" lengthAdjust="spacingAndGlyphs" textLength="48" x="235" y="436.0669">(1)Vote</text><!--link q5 to q6--><path d="M97.9315,393.2983 C100.4431,408.8407 106.1421,428.0055 119,440 C147.1298,466.2408 258.8908,483.9795 313.5628,491.2673 " fill="none" id="q5-q6" style="stroke: #A80036; stroke-width: 1.0;"/><polygon fill="#A80036" points="318.6707,491.9399,310.2699,486.7993,313.7135,491.2872,309.2255,494.7308,318.6707,491.9399" style="stroke: #A80036; stroke-width: 1.0;"/><text fill="#000000" font-family="sans-serif" font-size="13" lengthAdjust="spacingAndGlyphs" textLength="76" x="120" y="436.0669">(3)Delegate</text><!--link q5 to q5--><path d="M121.2777,357.5103 C138.7734,354.3315 156,357.8281 156,368 C156,377.1388 142.0949,380.8894 126.5823,379.2517 " fill="none" id="q5-q5" style="stroke: #A80036; stroke-width: 1.0;"/><polygon fill="#A80036" points="121.2777,378.4897,129.6174,383.7289,126.2269,379.2007,130.755,375.8102,121.2777,378.4897" style="stroke: #A80036; stroke-width: 1.0;"/><text fill="#000000" font-family="sans-serif" font-size="13" lengthAdjust="spacingAndGlyphs" textLength="123" x="162" y="372.5669">(2)GiveRightToVote</text><!--link q7 to q8--><path d="M489.2734,246.7456 C523.8491,255.1024 587.3784,272.2458 638,296 C667.6238,309.901 698.7329,330.4446 720.6261,346.0337 " fill="none" id="q7-q8" style="stroke: #A80036; stroke-width: 1.0;"/><polygon fill="#A80036" points="724.8787,349.082,719.8942,340.5876,720.8149,346.169,715.2335,347.0897,724.8787,349.082" style="stroke: #A80036; stroke-width: 1.0;"/><text fill="#000000" font-family="sans-serif" font-size="13" lengthAdjust="spacingAndGlyphs" textLength="68" x="668" y="309.0669">(1)_accept</text><!--link q7 to q6--><path d="M438.8154,261.2741 C417.252,280.0972 387.1964,310.1063 371,343 C351.8057,381.9824 346.0939,432.5505 344.4861,464.3963 " fill="none" id="q7-q6" style="stroke: #A80036; stroke-width: 1.0;"/><polygon fill="#A80036" points="344.2464,469.7294,348.6466,460.9181,344.471,464.7344,340.6547,460.5588,344.2464,469.7294" style="stroke: #A80036; stroke-width: 1.0;"/><text fill="#000000" font-family="sans-serif" font-size="13" lengthAdjust="spacingAndGlyphs" textLength="48" x="372" y="372.5669">(2)Vote</text><!--link q7 to q6--><path d="M460.8533,266.073 C456.2282,297.1607 445.7908,351.1578 425,393 C411.5103,420.1486 389.9356,446.8355 372.4432,466.0989 " fill="none" id="q7-q6" style="stroke: #A80036; stroke-width: 1.0;"/><polygon fill="#A80036" points="369.0028,469.8506,378.0337,465.9209,372.3822,466.1655,372.1376,460.514,369.0028,469.8506" style="stroke: #A80036; stroke-width: 1.0;"/><text fill="#000000" font-family="sans-serif" font-size="13" lengthAdjust="spacingAndGlyphs" textLength="76" x="444" y="372.5669">(4)Delegate</text><!--link q6 to q7--><path d="M369.1372,489.7179 C411.0441,479.4053 494.0304,452.2131 529,393 C552.8844,352.5571 519.6687,301.7052 492.5967,270.28 " fill="none" id="q6-q7" style="stroke: #A80036; stroke-width: 1.0;"/><polygon fill="#A80036" points="488.9932,266.1674,491.9158,275.5726,492.2883,269.928,497.9329,270.3005,488.9932,266.1674" style="stroke: #A80036; stroke-width: 1.0;"/><text fill="#000000" font-family="sans-serif" font-size="13" lengthAdjust="spacingAndGlyphs" textLength="76" x="538" y="372.5669">(1)_success</text><!--link q7 to q5--><path d="M438.9813,242.4421 C389.8327,246.045 278.064,258.0756 193,296 C168.0686,307.1153 143.4146,325.5396 125.2007,340.9675 " fill="none" id="q7-q5" style="stroke: #A80036; stroke-width: 1.0;"/><polygon fill="#A80036" points="121.1813,344.4121,130.618,341.5927,124.9778,341.1584,125.4121,335.5183,121.1813,344.4121" style="stroke: #A80036; stroke-width: 1.0;"/><text fill="#000000" font-family="sans-serif" font-size="13" lengthAdjust="spacingAndGlyphs" textLength="123" x="194" y="309.0669">(3)GiveRightToVote</text><!--link q4 to q5--><path d="M24.3262,266.1611 C21.8517,280.5481 21.1017,298.5481 28,313 C36.0022,329.7645 51.8866,343.0669 66.2916,352.3875 " fill="none" id="q4-q5" style="stroke: #A80036; stroke-width: 1.0;"/><polygon fill="#A80036" points="70.7043,355.1517,65.2008,346.984,66.4671,352.4973,60.9538,353.7636,70.7043,355.1517" style="stroke: #A80036; stroke-width: 1.0;"/><text fill="#000000" font-family="sans-serif" font-size="13" lengthAdjust="spacingAndGlyphs" textLength="123" x="29" y="309.0669">(1)GiveRightToVote</text><!--link *start to q2--><path d="M31,28.2737 C31,41.3608 31,64.5555 31,83.5207 " fill="none" id="*start-q2" style="stroke: #A80036; stroke-width: 1.0;"/><polygon fill="#A80036" points="31,88.7458,35,79.7458,31,83.7458,27,79.7458,31,88.7458" style="stroke: #A80036; stroke-width: 1.0;"/><!--link q8 to *end--><path d="M750,393.0911 C750,418.9478 750,458.4141 750,479.855 " fill="none" id="q8-*end" style="stroke: #A80036; stroke-width: 1.0;"/><polygon fill="#A80036" points="750,484.8984,754,475.8984,750,479.8984,746,475.8984,750,484.8984" style="stroke: #A80036; stroke-width: 1.0;"/><!--
@startuml 
state q2
state q5
state q7
state q6
state q4
q2 - -> q4:(1)Propose
q5 - -> q6:(1)Vote
q5 - -> q5:(2)GiveRightToVote
q5 - -> q6:(3)Delegate
q7 - -> q8:(1)_accept
q7 - -> q6:(2)Vote
q7 - -> q5:(3)GiveRightToVote
q7 - -> q6:(4)Delegate
q6 - -> q7:(1)_success
q4 - -> q5:(1)GiveRightToVote
[*] - -> q2
state q8
q8 - -> [*]
state q2 {
}
state q5 {
}
state q7 {
}
state q6 {
}
state q4 {
}
@enduml

PlantUML version 1.2017.15(Tue Jul 04 01:45:34 JST 2017)
(GPL source distribution)
Java Runtime: OpenJDK Runtime Environment
JVM: OpenJDK 64-Bit Server VM
Java Version: 1.8.0_181-8u181-b13-0ubuntu0.18.04.1-b13
Operating System: Linux
OS Version: 4.15.0-34-generic
Default Encoding: UTF-8
Language: en
Country: US
--></g></svg>