<?xml version="1.0" encoding="UTF-8" standalone="no"?><svg xmlns="http://www.w3.org/2000/svg" xmlns:xlink="http://www.w3.org/1999/xlink" contentScriptType="application/ecmascript" contentStyleType="text/css" height="785px" preserveAspectRatio="none" style="width:1120px;height:785px;" version="1.1" viewBox="0 0 1120 785" width="1120px" zoomAndPan="magnify"><defs><filter height="300%" id="f1at0ccdtijnvj" width="300%" x="-1" y="-1"><feGaussianBlur result="blurOut" stdDeviation="2.0"/><feColorMatrix in="blurOut" result="blurOut2" type="matrix" values="0 0 0 0 0 0 0 0 0 0 0 0 0 0 0 0 0 0 .4 0"/><feOffset dx="4.0" dy="4.0" in="blurOut2" result="blurOut3"/><feBlend in="SourceGraphic" in2="blurOut3" mode="normal"/></filter></defs><g><ellipse cx="456.1452" cy="18" fill="#000000" filter="url(#f1at0ccdtijnvj)" rx="10" ry="10" style="stroke: none; stroke-width: 1.0;"/><rect fill="#FEFECE" filter="url(#f1at0ccdtijnvj)" height="50" rx="12.5" ry="12.5" style="stroke: #A80036; stroke-width: 1.5;" width="51" x="430.6452" y="89"/><line style="stroke: #A80036; stroke-width: 1.5;" x1="430.6452" x2="481.6452" y1="115.2969" y2="115.2969"/><text fill="#000000" font-family="sans-serif" font-size="14" lengthAdjust="spacingAndGlyphs" textLength="31" x="440.6452" y="106.9951">Intro</text><rect fill="#FEFECE" filter="url(#f1at0ccdtijnvj)" height="50" rx="12.5" ry="12.5" style="stroke: #A80036; stroke-width: 1.5;" width="73" x="458.6452" y="216"/><line style="stroke: #A80036; stroke-width: 1.5;" x1="458.6452" x2="531.6452" y1="242.2969" y2="242.2969"/><text fill="#000000" font-family="sans-serif" font-size="14" lengthAdjust="spacingAndGlyphs" textLength="53" x="468.6452" y="233.9951">PlayAds</text><rect fill="#FEFECE" filter="url(#f1at0ccdtijnvj)" height="50" rx="12.5" ry="12.5" style="stroke: #A80036; stroke-width: 1.5;" width="84" x="78.1452" y="343"/><line style="stroke: #A80036; stroke-width: 1.5;" x1="78.1452" x2="162.1452" y1="369.2969" y2="369.2969"/><text fill="#000000" font-family="sans-serif" font-size="14" lengthAdjust="spacingAndGlyphs" textLength="64" x="88.1452" y="360.9951">StartOver</text><rect fill="#FEFECE" filter="url(#f1at0ccdtijnvj)" height="50" rx="12.5" ry="12.5" style="stroke: #A80036; stroke-width: 1.5;" width="122" x="314.1452" y="470"/><line style="stroke: #A80036; stroke-width: 1.5;" x1="314.1452" x2="436.1452" y1="496.2969" y2="496.2969"/><text fill="#000000" font-family="sans-serif" font-size="14" lengthAdjust="spacingAndGlyphs" textLength="102" x="324.1452" y="487.9951">ShouldGoBack</text><rect fill="#FEFECE" filter="url(#f1at0ccdtijnvj)" height="50" rx="12.5" ry="12.5" style="stroke: #A80036; stroke-width: 1.5;" width="124" x="286.1452" y="597"/><line style="stroke: #A80036; stroke-width: 1.5;" x1="286.1452" x2="410.1452" y1="623.2969" y2="623.2969"/><text fill="#000000" font-family="sans-serif" font-size="14" lengthAdjust="spacingAndGlyphs" textLength="104" x="296.1452" y="614.9951">HighwayReport</text><rect fill="#FEFECE" filter="url(#f1at0ccdtijnvj)" height="50" rx="12.5" ry="12.5" style="stroke: #A80036; stroke-width: 1.5;" width="90" x="73.1452" y="724"/><line style="stroke: #A80036; stroke-width: 1.5;" x1="73.1452" x2="163.1452" y1="750.2969" y2="750.2969"/><text fill="#000000" font-family="sans-serif" font-size="14" lengthAdjust="spacingAndGlyphs" textLength="70" x="83.1452" y="741.9951">FullReport</text><rect fill="#FEFECE" filter="url(#f1at0ccdtijnvj)" height="50" rx="12.5" ry="12.5" style="stroke: #A80036; stroke-width: 1.5;" width="104" x="352.1452" y="724"/><line style="stroke: #A80036; stroke-width: 1.5;" x1="352.1452" x2="456.1452" y1="750.2969" y2="750.2969"/><text fill="#000000" font-family="sans-serif" font-size="14" lengthAdjust="spacingAndGlyphs" textLength="84" x="362.1452" y="741.9951">PlayHighway</text><!--link Intro to PlayAds--><path d="M430.4014,117.7374 C384.2678,125.5216 295.0115,146.1542 325.1452,186 C354.6783,225.0516 384.7327,200.4078 431.1452,216 C438.4033,218.4384 446.0452,221.2256 453.4222,224.0336 " fill="none" id="Intro-PlayAds" style="stroke: #A80036; stroke-width: 1.0;"/><polygon fill="#A80036" points="458.479,225.9768,451.5131,219.0143,453.8118,224.1831,448.6431,226.4818,458.479,225.9768" style="stroke: #A80036; stroke-width: 1.0;"/><text fill="#000000" font-family="sans-serif" font-size="13" lengthAdjust="spacingAndGlyphs" textLength="232" x="326.1452" y="182.0669">(1)success[sessionChrome.playAds]</text><!--link Intro to ShouldGoBack--><path d="M481.6574,116.0522 C515.8962,120.1736 576.4155,132.4799 611.1452,169 C656.7588,216.965 658.7333,247.5072 649.1452,313 C640.6107,371.2956 654.0724,399.6458 611.1452,440 C586.8837,462.8073 502.3881,478.4386 441.4278,487.0478 " fill="none" id="Intro-ShouldGoBack" style="stroke: #A80036; stroke-width: 1.0;"/><polygon fill="#A80036" points="436.3442,487.7573,445.8107,490.4748,441.2962,487.0662,444.7049,482.5516,436.3442,487.7573" style="stroke: #A80036; stroke-width: 1.0;"/><text fill="#000000" font-family="sans-serif" font-size="13" lengthAdjust="spacingAndGlyphs" textLength="333" x="652.1452" y="309.0669">(2)success[!sessionChrome.playAds &amp;&amp; ANIQuality]</text><!--link ShouldGoBack to Intro--><path d="M436.3658,479.7474 C480.1212,465.2951 535.8932,438.7903 563.1452,393 C575.874,371.6123 576.1118,190.2444 563.1452,169 C546.6188,141.9232 512.0417,127.6159 486.6481,120.4567 " fill="none" id="ShouldGoBack-Intro" style="stroke: #A80036; stroke-width: 1.0;"/><polygon fill="#A80036" points="481.6999,119.1185,489.3434,125.3295,486.5265,120.4239,491.4321,117.607,481.6999,119.1185" style="stroke: #A80036; stroke-width: 1.0;"/><text fill="#000000" font-family="sans-serif" font-size="13" lengthAdjust="spacingAndGlyphs" textLength="61" x="573.1452" y="309.0669">(4)restart</text><!--link Intro to StartOver--><path d="M430.6023,117.3747 C356.1095,127.7902 141.7968,162.0235 101.1452,216 C74.5354,251.3321 90.5216,304.913 104.9874,338.117 " fill="none" id="Intro-StartOver" style="stroke: #A80036; stroke-width: 1.0;"/><polygon fill="#A80036" points="107.1054,342.8636,107.0906,333.0148,105.0678,338.2976,99.785,336.2749,107.1054,342.8636" style="stroke: #A80036; stroke-width: 1.0;"/><text fill="#000000" font-family="sans-serif" font-size="13" lengthAdjust="spacingAndGlyphs" textLength="338" x="102.1452" y="245.5669">(3)success[!sessionChrome.playAds &amp;&amp; !ANIQuality]</text><!--link StartOver to Intro--><path d="M81.4005,342.7653 C40.0981,312.6459 -15.4671,260.7313 15.1452,216 C62.1335,147.3398 333.1023,122.4785 425.3797,115.935 " fill="none" id="StartOver-Intro" style="stroke: #A80036; stroke-width: 1.0;"/><polygon fill="#A80036" points="430.419,115.5834,421.1623,112.2198,425.4311,115.9315,421.7194,120.2004,430.419,115.5834" style="stroke: #A80036; stroke-width: 1.0;"/><text fill="#000000" font-family="sans-serif" font-size="13" lengthAdjust="spacingAndGlyphs" textLength="61" x="16.1452" y="245.5669">(3)restart</text><!--link PlayAds to ShouldGoBack--><path d="M469.0046,266.3924 C450.5244,285.7566 426.5642,313.964 412.1452,343 C392.5615,382.4364 382.9431,432.8835 378.5222,464.5794 " fill="none" id="PlayAds-ShouldGoBack" style="stroke: #A80036; stroke-width: 1.0;"/><polygon fill="#A80036" points="377.8063,469.8864,382.974,461.5022,378.475,464.9313,375.0459,460.4323,377.8063,469.8864" style="stroke: #A80036; stroke-width: 1.0;"/><text fill="#000000" font-family="sans-serif" font-size="13" lengthAdjust="spacingAndGlyphs" textLength="145" x="413.1452" y="372.5669">(1)success[ANIQuality]</text><!--link PlayAds to StartOver--><path d="M458.415,257.0768 C449.6144,260.4433 440.154,263.6731 431.1452,266 C333.8925,291.1196 299.1751,255.756 207.1452,296 C184.4581,305.9209 162.9812,323.5771 147.0422,338.9215 " fill="none" id="PlayAds-StartOver" style="stroke: #A80036; stroke-width: 1.0;"/><polygon fill="#A80036" points="143.1119,342.7668,152.3425,339.3321,146.6859,339.2702,146.7479,333.6137,143.1119,342.7668" style="stroke: #A80036; stroke-width: 1.0;"/><text fill="#000000" font-family="sans-serif" font-size="13" lengthAdjust="spacingAndGlyphs" textLength="150" x="208.1452" y="309.0669">(2)success[!ANIQuality]</text><!--link StartOver to ShouldGoBack--><path d="M133.5927,393.0913 C143.2082,408.7522 157.5405,428.1254 175.1452,440 C215.0221,466.8975 267.7332,480.6998 309.03,487.7495 " fill="none" id="StartOver-ShouldGoBack" style="stroke: #A80036; stroke-width: 1.0;"/><polygon fill="#A80036" points="314.008,488.5762,305.7851,483.1556,309.0756,487.7569,304.4742,491.0474,314.008,488.5762" style="stroke: #A80036; stroke-width: 1.0;"/><text fill="#000000" font-family="sans-serif" font-size="13" lengthAdjust="spacingAndGlyphs" textLength="69" x="176.1452" y="436.0669">(1)success</text><!--link ShouldGoBack to StartOver--><path d="M334.455,469.8729 C310.3433,455.4126 278.9613,437.3276 250.1452,423 C223.1959,409.6005 192.1846,396.3994 167.211,386.2902 " fill="none" id="ShouldGoBack-StartOver" style="stroke: #A80036; stroke-width: 1.0;"/><polygon fill="#A80036" points="162.2997,384.3104,169.1515,391.3852,166.9371,386.1798,172.1425,383.9654,162.2997,384.3104" style="stroke: #A80036; stroke-width: 1.0;"/><text fill="#000000" font-family="sans-serif" font-size="13" lengthAdjust="spacingAndGlyphs" textLength="71" x="282.1452" y="436.0669">(2)go_back</text><!--link StartOver to StartOver--><path d="M162.5139,356.5346 C181.1278,355.52 197.1452,359.3418 197.1452,368 C197.1452,375.8465 183.9903,379.7209 167.6695,379.6232 " fill="none" id="StartOver-StartOver" style="stroke: #A80036; stroke-width: 1.0;"/><polygon fill="#A80036" points="162.5139,379.4654,171.3872,383.7392,167.5116,379.6185,171.6322,375.7429,162.5139,379.4654" style="stroke: #A80036; stroke-width: 1.0;"/><text fill="#000000" font-family="sans-serif" font-size="13" lengthAdjust="spacingAndGlyphs" textLength="64" x="203.1452" y="372.5669">(2)doOver</text><!--link ShouldGoBack to HighwayReport--><path d="M369.8109,520.0911 C365.4287,540.7035 359.2078,569.9647 354.5554,591.8484 " fill="none" id="ShouldGoBack-HighwayReport" style="stroke: #A80036; stroke-width: 1.0;"/><polygon fill="#A80036" points="353.4684,596.961,359.2527,588.9897,354.5082,592.0703,351.4276,587.3259,353.4684,596.961" style="stroke: #A80036; stroke-width: 1.0;"/><text fill="#000000" font-family="sans-serif" font-size="13" lengthAdjust="spacingAndGlyphs" textLength="71" x="364.1452" y="563.0669">(1)highWay</text><!--link ShouldGoBack to ShouldGoBack--><path d="M436.5447,483.3814 C455.8864,483.5588 471.1452,487.4316 471.1452,495 C471.1452,501.8588 458.6133,505.6826 441.8677,506.4713 " fill="none" id="ShouldGoBack-ShouldGoBack" style="stroke: #A80036; stroke-width: 1.0;"/><polygon fill="#A80036" points="436.5447,506.6186,445.652,510.3679,441.5428,506.4802,445.4305,502.371,436.5447,506.6186" style="stroke: #A80036; stroke-width: 1.0;"/><text fill="#000000" font-family="sans-serif" font-size="13" lengthAdjust="spacingAndGlyphs" textLength="64" x="477.1452" y="499.5669">(3)doOver</text><!--link HighwayReport to PlayHighway--><path d="M395.6775,647.1416 C406.3012,655.175 416.1778,665.1297 422.1452,677 C428.6911,690.021 425.9387,705.5914 420.8267,718.9165 " fill="none" id="HighwayReport-PlayHighway" style="stroke: #A80036; stroke-width: 1.0;"/><polygon fill="#A80036" points="418.8494,723.7152,425.9765,716.9178,420.7542,719.0923,418.5797,713.87,418.8494,723.7152" style="stroke: #A80036; stroke-width: 1.0;"/><text fill="#000000" font-family="sans-serif" font-size="13" lengthAdjust="spacingAndGlyphs" textLength="69" x="426.1452" y="690.0669">(1)highway</text><!--link PlayHighway to HighwayReport--><path d="M364.8607,723.7741 C355.3213,715.5355 346.3713,705.4998 341.1452,694 C335.2737,681.08 335.9495,665.5375 338.5366,652.205 " fill="none" id="PlayHighway-HighwayReport" style="stroke: #A80036; stroke-width: 1.0;"/><polygon fill="#A80036" points="339.657,647.0237,333.845,654.9749,338.6001,651.9107,341.6643,656.6658,339.657,647.0237" style="stroke: #A80036; stroke-width: 1.0;"/><text fill="#000000" font-family="sans-serif" font-size="13" lengthAdjust="spacingAndGlyphs" textLength="71" x="342.1452" y="690.0669">(1)go_back</text><!--link HighwayReport to StartOver--><path d="M310.0723,596.9982 C265.066,565.5375 190.8987,507.3925 148.1452,440 C139.9547,427.0892 133.5063,411.3993 128.8728,397.9656 " fill="none" id="HighwayReport-StartOver" style="stroke: #A80036; stroke-width: 1.0;"/><polygon fill="#A80036" points="127.2479,393.1278,126.3217,402.933,128.8399,397.8676,133.9054,400.3858,127.2479,393.1278" style="stroke: #A80036; stroke-width: 1.0;"/><text fill="#000000" font-family="sans-serif" font-size="13" lengthAdjust="spacingAndGlyphs" textLength="71" x="214.1452" y="499.5669">(2)go_back</text><!--link HighwayReport to HighwayReport--><path d="M410.1843,610.3814 C429.7275,610.5588 445.1452,614.4316 445.1452,622 C445.1452,628.8588 432.4828,632.6826 415.5627,633.4713 " fill="none" id="HighwayReport-HighwayReport" style="stroke: #A80036; stroke-width: 1.0;"/><polygon fill="#A80036" points="410.1843,633.6186,419.2905,637.3705,415.1824,633.4816,419.0713,629.3735,410.1843,633.6186" style="stroke: #A80036; stroke-width: 1.0;"/><text fill="#000000" font-family="sans-serif" font-size="13" lengthAdjust="spacingAndGlyphs" textLength="64" x="451.1452" y="626.5669">(3)doOver</text><!--link HighwayReport to FullReport--><path d="M285.9921,628.054 C224.3359,635.496 136.1025,650.5197 115.1452,677 C106.0175,688.5331 105.9059,704.6577 108.4544,718.7245 " fill="none" id="HighwayReport-FullReport" style="stroke: #A80036; stroke-width: 1.0;"/><polygon fill="#A80036" points="109.5019,723.8015,111.6006,714.1788,108.4915,718.9047,103.7657,715.7955,109.5019,723.8015" style="stroke: #A80036; stroke-width: 1.0;"/><text fill="#000000" font-family="sans-serif" font-size="13" lengthAdjust="spacingAndGlyphs" textLength="75" x="116.1452" y="690.0669">(4)fullreport</text><!--link FullReport to HighwayReport--><path d="M163.4914,723.961 C202.211,702.581 257.8324,671.8683 297.8979,649.7453 " fill="none" id="FullReport-HighwayReport" style="stroke: #A80036; stroke-width: 1.0;"/><polygon fill="#A80036" points="302.7046,647.0911,292.8924,647.9401,298.3276,649.5081,296.7596,654.9433,302.7046,647.0911" style="stroke: #A80036; stroke-width: 1.0;"/><text fill="#000000" font-family="sans-serif" font-size="13" lengthAdjust="spacingAndGlyphs" textLength="71" x="247.1452" y="690.0669">(1)go_back</text><!--link HighwayReport to Intro--><path d="M410.3949,617.2122 C581.4711,603.2262 1046.1452,559.3179 1046.1452,495 C1046.1452,241 1046.1452,241 1046.1452,241 C1046.1452,183.2491 608.5419,130.7747 487.081,117.3223 " fill="none" id="HighwayReport-Intro" style="stroke: #A80036; stroke-width: 1.0;"/><polygon fill="#A80036" points="481.8761,116.7483,490.3833,121.7108,486.846,117.2964,491.2604,113.7591,481.8761,116.7483" style="stroke: #A80036; stroke-width: 1.0;"/><text fill="#000000" font-family="sans-serif" font-size="13" lengthAdjust="spacingAndGlyphs" textLength="61" x="1047.1452" y="372.5669">(5)restart</text><!--link FullReport to StartOver--><path d="M108.0973,723.9485 C104.8821,714.6956 101.7433,704.0208 100.1452,694 C98.9553,686.5387 99.9011,684.5516 100.1452,677 C103.4518,574.7199 112.8994,453.6942 117.527,398.3546 " fill="none" id="FullReport-StartOver" style="stroke: #A80036; stroke-width: 1.0;"/><polygon fill="#A80036" points="117.9594,393.207,113.22,401.8405,117.5408,398.1894,121.1919,402.5103,117.9594,393.207" style="stroke: #A80036; stroke-width: 1.0;"/><text fill="#000000" font-family="sans-serif" font-size="13" lengthAdjust="spacingAndGlyphs" textLength="72" x="107.1452" y="563.0669">(2)new_city</text><!--link *start to Intro--><path d="M456.1452,28.2737 C456.1452,41.3608 456.1452,64.5555 456.1452,83.5207 " fill="none" id="*start-Intro" style="stroke: #A80036; stroke-width: 1.0;"/><polygon fill="#A80036" points="456.1452,88.7458,460.1452,79.7458,456.1452,83.7458,452.1452,79.7458,456.1452,88.7458" style="stroke: #A80036; stroke-width: 1.0;"/><!--
@startuml 
state Intro
state PlayAds
state StartOver
state ShouldGoBack
state HighwayReport
state FullReport
state PlayHighway
Intro - -> PlayAds:(1)success[sessionChrome.playAds]
Intro - -> ShouldGoBack:(2)success[!sessionChrome.playAds && ANIQuality]
Intro - -> StartOver:(3)success[!sessionChrome.playAds && !ANIQuality]
PlayAds - -> ShouldGoBack:(1)success[ANIQuality]
PlayAds - -> StartOver:(2)success[!ANIQuality]
StartOver - -> ShouldGoBack:(1)success
StartOver - -> StartOver:(2)doOver
StartOver - -> Intro:(3)restart
ShouldGoBack - -> HighwayReport:(1)highWay
ShouldGoBack - -> StartOver:(2)go_back
ShouldGoBack - -> ShouldGoBack:(3)doOver
ShouldGoBack - -> Intro:(4)restart
HighwayReport - -> PlayHighway:(1)highway
HighwayReport - -> StartOver:(2)go_back
HighwayReport - -> HighwayReport:(3)doOver
HighwayReport - -> FullReport:(4)fullreport
HighwayReport - -> Intro:(5)restart
FullReport - -> HighwayReport:(1)go_back
FullReport - -> StartOver:(2)new_city
PlayHighway - -> HighwayReport:(1)go_back
[*] - -> Intro
state Intro {
}
state PlayAds {
}
state StartOver {
}
state ShouldGoBack {
}
state HighwayReport {
}
state FullReport {
}
state PlayHighway {
}
@enduml

PlantUML version 1.2017.15(Tue Jul 04 01:45:34 JST 2017)
(GPL source distribution)
Java Runtime: OpenJDK Runtime Environment
JVM: OpenJDK 64-Bit Server VM
Java Version: 1.8.0_181-8u181-b13-0ubuntu0.18.04.1-b13
Operating System: Linux
OS Version: 4.15.0-34-generic
Default Encoding: UTF-8
Language: en
Country: US
--></g></svg>