<?xml version="1.0" encoding="UTF-8" standalone="no"?><svg xmlns="http://www.w3.org/2000/svg" xmlns:xlink="http://www.w3.org/1999/xlink" contentScriptType="application/ecmascript" contentStyleType="text/css" height="612px" preserveAspectRatio="none" style="width:409px;height:612px;" version="1.1" viewBox="0 0 409 612" width="409px" zoomAndPan="magnify"><defs><filter height="300%" id="fp9z7octlylnw" width="300%" x="-1" y="-1"><feGaussianBlur result="blurOut" stdDeviation="2.0"/><feColorMatrix in="blurOut" result="blurOut2" type="matrix" values="0 0 0 0 0 0 0 0 0 0 0 0 0 0 0 0 0 0 .4 0"/><feOffset dx="4.0" dy="4.0" in="blurOut2" result="blurOut3"/><feBlend in="SourceGraphic" in2="blurOut3" mode="normal"/></filter></defs><g><rect fill="#FEFECE" filter="url(#fp9z7octlylnw)" height="50" rx="12.5" ry="12.5" style="stroke: #A80036; stroke-width: 1.5;" width="84" x="59" y="470"/><line style="stroke: #A80036; stroke-width: 1.5;" x1="59" x2="143" y1="496.2969" y2="496.2969"/><text fill="#000000" font-family="sans-serif" font-size="14" lengthAdjust="spacingAndGlyphs" textLength="64" x="69" y="487.9951">_rejected</text><rect fill="#FEFECE" filter="url(#fp9z7octlylnw)" height="50" rx="12.5" ry="12.5" style="stroke: #A80036; stroke-width: 1.5;" width="50" x="184" y="470"/><line style="stroke: #A80036; stroke-width: 1.5;" x1="184" x2="234" y1="496.2969" y2="496.2969"/><text fill="#000000" font-family="sans-serif" font-size="14" lengthAdjust="spacingAndGlyphs" textLength="18" x="200" y="487.9951">q6</text><ellipse cx="31" cy="18" fill="#000000" filter="url(#fp9z7octlylnw)" rx="10" ry="10" style="stroke: none; stroke-width: 1.0;"/><ellipse cx="151" cy="591" fill="none" filter="url(#fp9z7octlylnw)" rx="10" ry="10" style="stroke: #000000; stroke-width: 1.0;"/><ellipse cx="151.5" cy="591.5" fill="#000000" rx="6" ry="6" style="stroke: none; stroke-width: 1.0;"/><rect fill="#FEFECE" filter="url(#fp9z7octlylnw)" height="50" rx="12.5" ry="12.5" style="stroke: #A80036; stroke-width: 1.5;" width="50" x="6" y="89"/><line style="stroke: #A80036; stroke-width: 1.5;" x1="6" x2="56" y1="115.2969" y2="115.2969"/><text fill="#000000" font-family="sans-serif" font-size="14" lengthAdjust="spacingAndGlyphs" textLength="18" x="22" y="106.9951">q2</text><rect fill="#FEFECE" filter="url(#fp9z7octlylnw)" height="50" rx="12.5" ry="12.5" style="stroke: #A80036; stroke-width: 1.5;" width="50" x="152" y="343"/><line style="stroke: #A80036; stroke-width: 1.5;" x1="152" x2="202" y1="369.2969" y2="369.2969"/><text fill="#000000" font-family="sans-serif" font-size="14" lengthAdjust="spacingAndGlyphs" textLength="18" x="168" y="360.9951">q5</text><rect fill="#FEFECE" filter="url(#fp9z7octlylnw)" height="50" rx="12.5" ry="12.5" style="stroke: #A80036; stroke-width: 1.5;" width="50" x="65" y="216"/><line style="stroke: #A80036; stroke-width: 1.5;" x1="65" x2="115" y1="242.2969" y2="242.2969"/><text fill="#000000" font-family="sans-serif" font-size="14" lengthAdjust="spacingAndGlyphs" textLength="18" x="81" y="233.9951">q4</text><!--link q2 to q4--><path d="M42.6565,139.0911 C52.3131,159.8774 66.0558,189.4592 76.2492,211.4008 " fill="none" id="q2-q4" style="stroke: #A80036; stroke-width: 1.0;"/><polygon fill="#A80036" points="78.3677,215.961,78.2032,206.1135,76.261,211.4265,70.948,209.4843,78.3677,215.961" style="stroke: #A80036; stroke-width: 1.0;"/><text fill="#000000" font-family="sans-serif" font-size="13" lengthAdjust="spacingAndGlyphs" textLength="93" x="65" y="182.0669">(1)GiveRightTo</text><!--link q2 to _rejected--><path d="M33.203,139.0922 C35.9934,169.2922 41.2612,221.4993 48,266 C58.9427,338.2621 80.5147,421.4969 92.4877,464.9834 " fill="none" id="q2-_rejected" style="stroke: #A80036; stroke-width: 1.0;"/><polygon fill="#A80036" points="93.8281,469.8312,95.2851,460.0907,92.4957,465.012,87.5744,462.2226,93.8281,469.8312" style="stroke: #A80036; stroke-width: 1.0;"/><text fill="#000000" font-family="sans-serif" font-size="13" lengthAdjust="spacingAndGlyphs" textLength="25" x="57" y="309.0669">(2)*</text><!--link q5 to q6--><path d="M183.3222,393.0911 C188.5158,413.7035 195.8887,442.9647 201.4027,464.8484 " fill="none" id="q5-q6" style="stroke: #A80036; stroke-width: 1.0;"/><polygon fill="#A80036" points="202.691,469.961,204.3704,460.2564,201.4691,465.1126,196.6129,462.2113,202.691,469.961" style="stroke: #A80036; stroke-width: 1.0;"/><text fill="#000000" font-family="sans-serif" font-size="13" lengthAdjust="spacingAndGlyphs" textLength="68" x="195" y="436.0669">(1)_accept</text><!--link q5 to _rejected--><path d="M161.9848,393.0911 C149.5458,413.8774 131.8433,443.4592 118.7129,465.4008 " fill="none" id="q5-_rejected" style="stroke: #A80036; stroke-width: 1.0;"/><polygon fill="#A80036" points="115.984,469.961,124.0379,464.2923,118.5516,465.6706,117.1733,460.1842,115.984,469.961" style="stroke: #A80036; stroke-width: 1.0;"/><text fill="#000000" font-family="sans-serif" font-size="13" lengthAdjust="spacingAndGlyphs" textLength="25" x="144" y="436.0669">(2)*</text><!--link q4 to q5--><path d="M107.1884,266.0911 C121.4874,286.9644 141.8622,316.7069 156.9118,338.6758 " fill="none" id="q4-q5" style="stroke: #A80036; stroke-width: 1.0;"/><polygon fill="#A80036" points="159.8473,342.961,158.0608,333.2755,157.0215,338.8361,151.4609,337.7968,159.8473,342.961" style="stroke: #A80036; stroke-width: 1.0;"/><text fill="#000000" font-family="sans-serif" font-size="13" lengthAdjust="spacingAndGlyphs" textLength="102" x="139" y="309.0669">(1)VotingClosed</text><!--link q4 to q4--><path d="M115.2777,237.5034 C132.7734,236.4438 150,237.6094 150,241 C150,244.0463 136.0949,245.2965 120.5823,244.7506 " fill="none" id="q4-q4" style="stroke: #A80036; stroke-width: 1.0;"/><polygon fill="#A80036" points="115.2777,244.4966,124.0761,248.9225,120.272,244.7357,124.4587,240.9316,115.2777,244.4966" style="stroke: #A80036; stroke-width: 1.0;"/><text fill="#000000" font-family="sans-serif" font-size="13" lengthAdjust="spacingAndGlyphs" textLength="93" x="156" y="245.5669">(2)GiveRightTo</text><!--link q4 to q4--><path d="M115.2001,236.4695 C164.8506,230.9931 255,232.5033 255,241 C255,249.2146 170.7377,250.8989 120.275,246.0529 " fill="none" id="q4-q4" style="stroke: #A80036; stroke-width: 1.0;"/><polygon fill="#A80036" points="115.2001,245.5305,123.7431,250.4313,120.1738,246.0426,124.5625,242.4734,115.2001,245.5305" style="stroke: #A80036; stroke-width: 1.0;"/><text fill="#000000" font-family="sans-serif" font-size="13" lengthAdjust="spacingAndGlyphs" textLength="76" x="261" y="245.5669">(3)Delegate</text><!--link q4 to q4--><path d="M115.1867,235.6444 C185.3277,225.7734 343,227.5586 343,241 C343,254.1264 192.632,256.1365 120.2596,247.0304 " fill="none" id="q4-q4" style="stroke: #A80036; stroke-width: 1.0;"/><polygon fill="#A80036" points="115.1867,246.3556,123.5805,251.5076,120.143,247.015,124.6356,243.5775,115.1867,246.3556" style="stroke: #A80036; stroke-width: 1.0;"/><text fill="#000000" font-family="sans-serif" font-size="13" lengthAdjust="spacingAndGlyphs" textLength="48" x="349" y="245.5669">(4)Vote</text><!--link q4 to _rejected--><path d="M91.0949,266.2831 C93.1334,313.3532 97.5017,414.2214 99.6917,464.7911 " fill="none" id="q4-_rejected" style="stroke: #A80036; stroke-width: 1.0;"/><polygon fill="#A80036" points="99.9095,469.8192,103.5162,460.6545,99.6931,464.8239,95.5237,461.0008,99.9095,469.8192" style="stroke: #A80036; stroke-width: 1.0;"/><text fill="#000000" font-family="sans-serif" font-size="13" lengthAdjust="spacingAndGlyphs" textLength="25" x="97" y="372.5669">(5)*</text><!--link *start to q2--><path d="M31,28.2737 C31,41.3608 31,64.5555 31,83.5207 " fill="none" id="*start-q2" style="stroke: #A80036; stroke-width: 1.0;"/><polygon fill="#A80036" points="31,88.7458,35,79.7458,31,83.7458,27,79.7458,31,88.7458" style="stroke: #A80036; stroke-width: 1.0;"/><!--link q6 to *end--><path d="M193.7612,520.2229 C182.6643,538.5901 168.0679,562.7497 159.1189,577.5618 " fill="none" id="q6-*end" style="stroke: #A80036; stroke-width: 1.0;"/><polygon fill="#A80036" points="156.3138,582.2048,164.3916,576.5702,158.8995,577.9253,157.5444,572.4331,156.3138,582.2048" style="stroke: #A80036; stroke-width: 1.0;"/><!--link _rejected to *end--><path d="M114.1369,520.2229 C123.5992,538.3904 136.0131,562.2252 143.7477,577.0755 " fill="none" id="_rejected-*end" style="stroke: #A80036; stroke-width: 1.0;"/><polygon fill="#A80036" points="146.1803,581.7461,145.5705,571.9161,143.8706,577.3115,138.4752,575.6117,146.1803,581.7461" style="stroke: #A80036; stroke-width: 1.0;"/><!--
@startuml 
state q2
state q5
state q4
q2 - -> q4:(1)GiveRightTo
q2 - -> _rejected:(2)*
q5 - -> q6:(1)_accept
q5 - -> _rejected:(2)*
q4 - -> q5:(1)VotingClosed
q4 - -> q4:(2)GiveRightTo
q4 - -> q4:(3)Delegate
q4 - -> q4:(4)Vote
q4 - -> _rejected:(5)*
[*] - -> q2
state q6
q6 - -> [*]
state _rejected
_rejected - -> [*]
state q2 {
}
state q5 {
}
state q4 {
}
@enduml

PlantUML version 1.2017.15(Tue Jul 04 01:45:34 JST 2017)
(GPL source distribution)
Java Runtime: OpenJDK Runtime Environment
JVM: OpenJDK 64-Bit Server VM
Java Version: 1.8.0_181-8u181-b13-0ubuntu0.18.04.1-b13
Operating System: Linux
OS Version: 4.15.0-34-generic
Default Encoding: UTF-8
Language: en
Country: US
--></g></svg>