<?xml version="1.0" encoding="UTF-8" standalone="no"?><svg xmlns="http://www.w3.org/2000/svg" xmlns:xlink="http://www.w3.org/1999/xlink" contentScriptType="application/ecmascript" contentStyleType="text/css" height="612px" preserveAspectRatio="none" style="width:1049px;height:612px;" version="1.1" viewBox="0 0 1049 612" width="1049px" zoomAndPan="magnify"><defs><filter height="300%" id="f1rxxxazezm4vj" width="300%" x="-1" y="-1"><feGaussianBlur result="blurOut" stdDeviation="2.0"/><feColorMatrix in="blurOut" result="blurOut2" type="matrix" values="0 0 0 0 0 0 0 0 0 0 0 0 0 0 0 0 0 0 .4 0"/><feOffset dx="4.0" dy="4.0" in="blurOut2" result="blurOut3"/><feBlend in="SourceGraphic" in2="blurOut3" mode="normal"/></filter></defs><g><rect fill="#FEFECE" filter="url(#f1rxxxazezm4vj)" height="50" rx="12.5" ry="12.5" style="stroke: #A80036; stroke-width: 1.5;" width="84" x="120" y="470"/><line style="stroke: #A80036; stroke-width: 1.5;" x1="120" x2="204" y1="496.2969" y2="496.2969"/><text fill="#000000" font-family="sans-serif" font-size="14" lengthAdjust="spacingAndGlyphs" textLength="64" x="130" y="487.9951">_rejected</text><rect fill="#FEFECE" filter="url(#f1rxxxazezm4vj)" height="50" rx="12.5" ry="12.5" style="stroke: #A80036; stroke-width: 1.5;" width="50" x="271" y="470"/><line style="stroke: #A80036; stroke-width: 1.5;" x1="271" x2="321" y1="496.2969" y2="496.2969"/><text fill="#000000" font-family="sans-serif" font-size="14" lengthAdjust="spacingAndGlyphs" textLength="18" x="287" y="487.9951">q6</text><ellipse cx="31" cy="18" fill="#000000" filter="url(#f1rxxxazezm4vj)" rx="10" ry="10" style="stroke: none; stroke-width: 1.0;"/><ellipse cx="228" cy="591" fill="none" filter="url(#f1rxxxazezm4vj)" rx="10" ry="10" style="stroke: #000000; stroke-width: 1.0;"/><ellipse cx="228.5" cy="591.5" fill="#000000" rx="6" ry="6" style="stroke: none; stroke-width: 1.0;"/><rect fill="#FEFECE" filter="url(#f1rxxxazezm4vj)" height="50" rx="12.5" ry="12.5" style="stroke: #A80036; stroke-width: 1.5;" width="50" x="6" y="89"/><line style="stroke: #A80036; stroke-width: 1.5;" x1="6" x2="56" y1="115.2969" y2="115.2969"/><text fill="#000000" font-family="sans-serif" font-size="14" lengthAdjust="spacingAndGlyphs" textLength="18" x="22" y="106.9951">q1</text><rect fill="#FEFECE" filter="url(#f1rxxxazezm4vj)" height="50" rx="12.5" ry="12.5" style="stroke: #A80036; stroke-width: 1.5;" width="50" x="94" y="216"/><line style="stroke: #A80036; stroke-width: 1.5;" x1="94" x2="144" y1="242.2969" y2="242.2969"/><text fill="#000000" font-family="sans-serif" font-size="14" lengthAdjust="spacingAndGlyphs" textLength="18" x="110" y="233.9951">q2</text><rect fill="#FEFECE" filter="url(#f1rxxxazezm4vj)" height="50" rx="12.5" ry="12.5" style="stroke: #A80036; stroke-width: 1.5;" width="50" x="631" y="343"/><line style="stroke: #A80036; stroke-width: 1.5;" x1="631" x2="681" y1="369.2969" y2="369.2969"/><text fill="#000000" font-family="sans-serif" font-size="14" lengthAdjust="spacingAndGlyphs" textLength="18" x="647" y="360.9951">q5</text><rect fill="#FEFECE" filter="url(#f1rxxxazezm4vj)" height="50" rx="12.5" ry="12.5" style="stroke: #A80036; stroke-width: 1.5;" width="50" x="152" y="343"/><line style="stroke: #A80036; stroke-width: 1.5;" x1="152" x2="202" y1="369.2969" y2="369.2969"/><text fill="#000000" font-family="sans-serif" font-size="14" lengthAdjust="spacingAndGlyphs" textLength="18" x="168" y="360.9951">q4</text><!--link q1 to q2--><path d="M48.386,139.0911 C62.8493,159.9644 83.4583,189.7069 98.6809,211.6758 " fill="none" id="q1-q2" style="stroke: #A80036; stroke-width: 1.0;"/><polygon fill="#A80036" points="101.6501,215.961,99.8121,206.2852,98.8024,211.8512,93.2364,210.8415,101.6501,215.961" style="stroke: #A80036; stroke-width: 1.0;"/><text fill="#000000" font-family="sans-serif" font-size="13" lengthAdjust="spacingAndGlyphs" textLength="44" x="81" y="182.0669">(1)_init</text><!--link q1 to _rejected--><path d="M32.0754,139.255 C35.5602,196.7684 50.1891,340.2271 111,440 C116.5912,449.1735 123.8753,458.1465 131.1805,466.0954 " fill="none" id="q1-_rejected" style="stroke: #A80036; stroke-width: 1.0;"/><polygon fill="#A80036" points="134.7611,469.9117,131.5202,460.6113,131.34,466.2653,125.686,466.0851,134.7611,469.9117" style="stroke: #A80036; stroke-width: 1.0;"/><text fill="#000000" font-family="sans-serif" font-size="13" lengthAdjust="spacingAndGlyphs" textLength="25" x="59" y="309.0669">(2)*</text><!--link q2 to q4--><path d="M130.4589,266.0911 C139.9519,286.8774 153.4617,316.4592 163.4822,338.4008 " fill="none" id="q2-q4" style="stroke: #A80036; stroke-width: 1.0;"/><polygon fill="#A80036" points="165.5649,342.961,165.4643,333.1127,163.4876,338.4129,158.1874,336.4363,165.5649,342.961" style="stroke: #A80036; stroke-width: 1.0;"/><text fill="#000000" font-family="sans-serif" font-size="13" lengthAdjust="spacingAndGlyphs" textLength="76" x="152" y="309.0669">(1)knockout</text><!--link q2 to q2--><path d="M144.2777,237.5034 C161.7734,236.4438 179,237.6094 179,241 C179,244.0463 165.0949,245.2965 149.5823,244.7506 " fill="none" id="q2-q2" style="stroke: #A80036; stroke-width: 1.0;"/><polygon fill="#A80036" points="144.2777,244.4966,153.0761,248.9225,149.272,244.7357,153.4587,240.9316,144.2777,244.4966" style="stroke: #A80036; stroke-width: 1.0;"/><text fill="#000000" font-family="sans-serif" font-size="13" lengthAdjust="spacingAndGlyphs" textLength="80" x="185" y="245.5669">(2)day_open</text><!--link q2 to q2--><path d="M144.114,236.3535 C190.7955,231.015 271,232.5638 271,241 C271,249.1396 196.3358,250.8676 149.1568,246.184 " fill="none" id="q2-q2" style="stroke: #A80036; stroke-width: 1.0;"/><polygon fill="#A80036" points="144.114,245.6465,152.6392,250.5782,149.0858,246.1766,153.4874,242.6233,144.114,245.6465" style="stroke: #A80036; stroke-width: 1.0;"/><text fill="#000000" font-family="sans-serif" font-size="13" lengthAdjust="spacingAndGlyphs" textLength="81" x="277" y="245.5669">(3)day_close</text><!--link q2 to q2--><path d="M144.2652,235.5779 C213.0262,225.7815 364,227.5889 364,241 C364,254.0968 220.0201,256.1274 149.2325,247.0918 " fill="none" id="q2-q2" style="stroke: #A80036; stroke-width: 1.0;"/><polygon fill="#A80036" points="144.2652,246.4221,152.65,251.5889,149.2204,247.0902,153.719,243.6606,144.2652,246.4221" style="stroke: #A80036; stroke-width: 1.0;"/><text fill="#000000" font-family="sans-serif" font-size="13" lengthAdjust="spacingAndGlyphs" textLength="37" x="370" y="245.5669">(5)init</text><!--link q2 to q5--><path d="M144.0333,243.1904 C218.11,250.29 441.8042,276.199 614,343 C618.1831,344.6228 622.4299,346.6417 626.5357,348.8239 " fill="none" id="q2-q5" style="stroke: #A80036; stroke-width: 1.0;"/><polygon fill="#A80036" points="630.9258,351.2449,624.9764,343.3961,626.5474,348.8304,621.1131,350.4014,630.9258,351.2449" style="stroke: #A80036; stroke-width: 1.0;"/><text fill="#000000" font-family="sans-serif" font-size="13" lengthAdjust="spacingAndGlyphs" textLength="81" x="523" y="309.0669">(4)terminate</text><!--link q2 to _rejected--><path d="M112.4391,266.1573 C105.5662,296.6424 97.1579,349.3479 108,393 C114.4661,419.0334 128.937,445.733 141.2722,465.2826 " fill="none" id="q2-_rejected" style="stroke: #A80036; stroke-width: 1.0;"/><polygon fill="#A80036" points="144.0299,469.5921,142.5482,459.8553,141.3349,465.3806,135.8097,464.1673,144.0299,469.5921" style="stroke: #A80036; stroke-width: 1.0;"/><text fill="#000000" font-family="sans-serif" font-size="13" lengthAdjust="spacingAndGlyphs" textLength="25" x="109" y="372.5669">(6)*</text><!--link q5 to q6--><path d="M630.7297,384.2872 C625.3285,387.412 619.5695,390.4884 614,393 C512.16,438.9254 383.4718,473.5019 326.0456,487.796 " fill="none" id="q5-q6" style="stroke: #A80036; stroke-width: 1.0;"/><polygon fill="#A80036" points="321.0434,489.0346,330.741,490.754,325.8968,487.8327,328.8181,482.9885,321.0434,489.0346" style="stroke: #A80036; stroke-width: 1.0;"/><text fill="#000000" font-family="sans-serif" font-size="13" lengthAdjust="spacingAndGlyphs" textLength="68" x="538" y="436.0669">(1)_accept</text><!--link q5 to q5--><path d="M681.2777,365.3776 C698.7734,364.5829 716,365.457 716,368 C716,370.2847 702.0949,371.2223 686.5823,370.8129 " fill="none" id="q5-q5" style="stroke: #A80036; stroke-width: 1.0;"/><polygon fill="#A80036" points="681.2777,370.6224,690.1284,374.9428,686.2745,370.8018,690.4154,366.948,681.2777,370.6224" style="stroke: #A80036; stroke-width: 1.0;"/><text fill="#000000" font-family="sans-serif" font-size="13" lengthAdjust="spacingAndGlyphs" textLength="80" x="722" y="372.5669">(2)day_open</text><!--link q5 to q5--><path d="M681.114,364.5151 C727.7955,360.5112 808,361.6729 808,368 C808,374.1047 733.3358,375.4007 686.1568,371.888 " fill="none" id="q5-q5" style="stroke: #A80036; stroke-width: 1.0;"/><polygon fill="#A80036" points="681.114,371.4849,689.7665,376.1896,686.0981,371.8835,690.4042,368.2151,681.114,371.4849" style="stroke: #A80036; stroke-width: 1.0;"/><text fill="#000000" font-family="sans-serif" font-size="13" lengthAdjust="spacingAndGlyphs" textLength="81" x="814" y="372.5669">(3)day_close</text><!--link q5 to q5--><path d="M681.2652,363.9334 C750.0262,356.5861 901,357.9417 901,368 C901,377.803 757.5955,379.3394 686.6581,372.6094 " fill="none" id="q5-q5" style="stroke: #A80036; stroke-width: 1.0;"/><polygon fill="#A80036" points="681.2652,372.0666,689.8192,376.948,686.2401,372.5675,690.6206,368.9883,681.2652,372.0666" style="stroke: #A80036; stroke-width: 1.0;"/><text fill="#000000" font-family="sans-serif" font-size="13" lengthAdjust="spacingAndGlyphs" textLength="81" x="907" y="372.5669">(4)terminate</text><!--link q5 to q5--><path d="M681.272,363.5059 C769.0282,352.6821 994,354.1802 994,368 C994,381.5634 777.2993,383.258 686.2963,373.0839 " fill="none" id="q5-q5" style="stroke: #A80036; stroke-width: 1.0;"/><polygon fill="#A80036" points="681.272,372.4941,689.7442,377.5162,686.2379,373.0771,690.677,369.5708,681.272,372.4941" style="stroke: #A80036; stroke-width: 1.0;"/><text fill="#000000" font-family="sans-serif" font-size="13" lengthAdjust="spacingAndGlyphs" textLength="37" x="1000" y="372.5669">(5)init</text><!--link q5 to _rejected--><path d="M630.6716,385.575 C625.3691,388.5253 619.6629,391.2069 614,393 C530.7097,419.3725 299.645,382.9495 222,423 C203.7589,432.409 188.9266,450.0266 178.5725,465.4789 " fill="none" id="q5-_rejected" style="stroke: #A80036; stroke-width: 1.0;"/><polygon fill="#A80036" points="175.7717,469.7712,184.0398,464.4197,178.504,465.5838,177.3399,460.048,175.7717,469.7712" style="stroke: #A80036; stroke-width: 1.0;"/><text fill="#000000" font-family="sans-serif" font-size="13" lengthAdjust="spacingAndGlyphs" textLength="25" x="223" y="436.0669">(6)*</text><!--link q4 to q6--><path d="M202.0394,381.0483 C219.0948,390.8629 241.3337,405.5807 257,423 C268.1031,435.3454 277.1928,451.4129 283.7952,465.2365 " fill="none" id="q4-q6" style="stroke: #A80036; stroke-width: 1.0;"/><polygon fill="#A80036" points="285.9383,469.8299,285.7578,459.9827,283.8242,465.2988,278.5081,463.3653,285.9383,469.8299" style="stroke: #A80036; stroke-width: 1.0;"/><text fill="#000000" font-family="sans-serif" font-size="13" lengthAdjust="spacingAndGlyphs" textLength="68" x="270" y="436.0669">(1)_accept</text><!--link q4 to q4--><path d="M202.2777,365.3776 C219.7734,364.5829 237,365.457 237,368 C237,370.2847 223.0949,371.2223 207.5823,370.8129 " fill="none" id="q4-q4" style="stroke: #A80036; stroke-width: 1.0;"/><polygon fill="#A80036" points="202.2777,370.6224,211.1284,374.9428,207.2745,370.8018,211.4154,366.948,202.2777,370.6224" style="stroke: #A80036; stroke-width: 1.0;"/><text fill="#000000" font-family="sans-serif" font-size="13" lengthAdjust="spacingAndGlyphs" textLength="76" x="243" y="372.5669">(2)knockout</text><!--link q4 to q4--><path d="M202.0876,364.4865 C247.8322,360.5168 325,361.688 325,368 C325,374.0778 253.4532,375.3892 207.3045,371.9342 " fill="none" id="q4-q4" style="stroke: #A80036; stroke-width: 1.0;"/><polygon fill="#A80036" points="202.0876,371.5135,210.7369,376.2242,207.0714,371.9155,211.3801,368.2501,202.0876,371.5135" style="stroke: #A80036; stroke-width: 1.0;"/><text fill="#000000" font-family="sans-serif" font-size="13" lengthAdjust="spacingAndGlyphs" textLength="80" x="331" y="372.5669">(3)day_open</text><!--link q4 to q4--><path d="M202.0173,363.9334 C269.7693,356.5861 417,357.9417 417,368 C417,377.803 277.151,379.3394 207.3281,372.6094 " fill="none" id="q4-q4" style="stroke: #A80036; stroke-width: 1.0;"/><polygon fill="#A80036" points="202.0173,372.0666,210.5638,376.9613,206.9914,372.5752,211.3775,369.0028,202.0173,372.0666" style="stroke: #A80036; stroke-width: 1.0;"/><text fill="#000000" font-family="sans-serif" font-size="13" lengthAdjust="spacingAndGlyphs" textLength="81" x="423" y="372.5669">(4)day_close</text><!--link q4 to q4--><path d="M202.1085,363.5059 C289.003,352.6821 510,354.1802 510,368 C510,381.5634 297.1279,383.258 207.0816,373.0839 " fill="none" id="q4-q4" style="stroke: #A80036; stroke-width: 1.0;"/><polygon fill="#A80036" points="202.1085,372.4941,210.5748,377.5262,207.0737,373.0829,211.5169,369.5819,202.1085,372.4941" style="stroke: #A80036; stroke-width: 1.0;"/><text fill="#000000" font-family="sans-serif" font-size="13" lengthAdjust="spacingAndGlyphs" textLength="37" x="516" y="372.5669">(5)init</text><!--link q4 to _rejected--><path d="M166.9521,393.0515 C163.7369,402.3044 160.5981,412.9792 159,423 C156.8258,436.6336 157.0834,451.892 158.0804,464.841 " fill="none" id="q4-_rejected" style="stroke: #A80036; stroke-width: 1.0;"/><polygon fill="#A80036" points="158.5126,469.8665,161.7267,460.5569,158.0842,464.8849,153.7561,461.2423,158.5126,469.8665" style="stroke: #A80036; stroke-width: 1.0;"/><text fill="#000000" font-family="sans-serif" font-size="13" lengthAdjust="spacingAndGlyphs" textLength="25" x="160" y="436.0669">(6)*</text><!--link *start to q1--><path d="M31,28.2737 C31,41.3608 31,64.5555 31,83.5207 " fill="none" id="*start-q1" style="stroke: #A80036; stroke-width: 1.0;"/><polygon fill="#A80036" points="31,88.7458,35,79.7458,31,83.7458,27,79.7458,31,88.7458" style="stroke: #A80036; stroke-width: 1.0;"/><!--link q6 to *end--><path d="M278.1338,520.2229 C264.8679,538.9512 247.3362,563.7019 236.9077,578.4244 " fill="none" id="q6-*end" style="stroke: #A80036; stroke-width: 1.0;"/><polygon fill="#A80036" points="233.9119,582.6538,242.3782,577.6217,236.802,578.5737,235.85,572.9975,233.9119,582.6538" style="stroke: #A80036; stroke-width: 1.0;"/><!--link _rejected to *end--><path d="M179.3407,520.2229 C192.2164,538.9512 209.2326,563.7019 219.3543,578.4244 " fill="none" id="_rejected-*end" style="stroke: #A80036; stroke-width: 1.0;"/><polygon fill="#A80036" points="222.262,582.6538,220.4594,572.9713,219.4293,578.5336,213.8671,577.5036,222.262,582.6538" style="stroke: #A80036; stroke-width: 1.0;"/><!--
@startuml 
state q1
state q2
state q5
state q4
q1 - -> q2:(1)_init
q1 - -> _rejected:(2)*
q2 - -> q4:(1)knockout
q2 - -> q2:(2)day_open
q2 - -> q2:(3)day_close
q2 - -> q5:(4)terminate
q2 - -> q2:(5)init
q2 - -> _rejected:(6)*
q5 - -> q6:(1)_accept
q5 - -> q5:(2)day_open
q5 - -> q5:(3)day_close
q5 - -> q5:(4)terminate
q5 - -> q5:(5)init
q5 - -> _rejected:(6)*
q4 - -> q6:(1)_accept
q4 - -> q4:(2)knockout
q4 - -> q4:(3)day_open
q4 - -> q4:(4)day_close
q4 - -> q4:(5)init
q4 - -> _rejected:(6)*
[*] - -> q1
state q6
q6 - -> [*]
state _rejected
_rejected - -> [*]
state q1 {
}
state q2 {
}
state q5 {
}
state q4 {
}
@enduml

PlantUML version 1.2017.15(Tue Jul 04 01:45:34 JST 2017)
(GPL source distribution)
Java Runtime: OpenJDK Runtime Environment
JVM: OpenJDK 64-Bit Server VM
Java Version: 1.8.0_181-8u181-b13-0ubuntu0.18.04.1-b13
Operating System: Linux
OS Version: 4.15.0-34-generic
Default Encoding: UTF-8
Language: en
Country: US
--></g></svg>