<?xml version="1.0" encoding="UTF-8" standalone="no"?><svg xmlns="http://www.w3.org/2000/svg" xmlns:xlink="http://www.w3.org/1999/xlink" contentScriptType="application/ecmascript" contentStyleType="text/css" height="612px" preserveAspectRatio="none" style="width:1103px;height:612px;" version="1.1" viewBox="0 0 1103 612" width="1103px" zoomAndPan="magnify"><defs><filter height="300%" id="f13pq3e85lgzq8" width="300%" x="-1" y="-1"><feGaussianBlur result="blurOut" stdDeviation="2.0"/><feColorMatrix in="blurOut" result="blurOut2" type="matrix" values="0 0 0 0 0 0 0 0 0 0 0 0 0 0 0 0 0 0 .4 0"/><feOffset dx="4.0" dy="4.0" in="blurOut2" result="blurOut3"/><feBlend in="SourceGraphic" in2="blurOut3" mode="normal"/></filter></defs><g><rect fill="#FEFECE" filter="url(#f13pq3e85lgzq8)" height="50" rx="12.5" ry="12.5" style="stroke: #A80036; stroke-width: 1.5;" width="50" x="315.9713" y="470"/><line style="stroke: #A80036; stroke-width: 1.5;" x1="315.9713" x2="365.9713" y1="496.2969" y2="496.2969"/><text fill="#000000" font-family="sans-serif" font-size="14" lengthAdjust="spacingAndGlyphs" textLength="18" x="331.9713" y="487.9951">q7</text><ellipse cx="1046.9713" cy="18" fill="#000000" filter="url(#f13pq3e85lgzq8)" rx="10" ry="10" style="stroke: none; stroke-width: 1.0;"/><ellipse cx="340.9713" cy="591" fill="none" filter="url(#f13pq3e85lgzq8)" rx="10" ry="10" style="stroke: #000000; stroke-width: 1.0;"/><ellipse cx="341.4713" cy="591.5" fill="#000000" rx="6" ry="6" style="stroke: none; stroke-width: 1.0;"/><rect fill="#FEFECE" filter="url(#f13pq3e85lgzq8)" height="50" rx="12.5" ry="12.5" style="stroke: #A80036; stroke-width: 1.5;" width="50" x="1021.9713" y="89"/><line style="stroke: #A80036; stroke-width: 1.5;" x1="1021.9713" x2="1071.9713" y1="115.2969" y2="115.2969"/><text fill="#000000" font-family="sans-serif" font-size="14" lengthAdjust="spacingAndGlyphs" textLength="18" x="1037.9713" y="106.9951">q1</text><rect fill="#FEFECE" filter="url(#f13pq3e85lgzq8)" height="50" rx="12.5" ry="12.5" style="stroke: #A80036; stroke-width: 1.5;" width="50" x="1021.9713" y="216"/><line style="stroke: #A80036; stroke-width: 1.5;" x1="1021.9713" x2="1071.9713" y1="242.2969" y2="242.2969"/><text fill="#000000" font-family="sans-serif" font-size="14" lengthAdjust="spacingAndGlyphs" textLength="18" x="1037.9713" y="233.9951">q2</text><rect fill="#FEFECE" filter="url(#f13pq3e85lgzq8)" height="50" rx="12.5" ry="12.5" style="stroke: #A80036; stroke-width: 1.5;" width="50" x="653.9713" y="216"/><line style="stroke: #A80036; stroke-width: 1.5;" x1="653.9713" x2="703.9713" y1="242.2969" y2="242.2969"/><text fill="#000000" font-family="sans-serif" font-size="14" lengthAdjust="spacingAndGlyphs" textLength="18" x="669.9713" y="233.9951">q5</text><rect fill="#FEFECE" filter="url(#f13pq3e85lgzq8)" height="50" rx="12.5" ry="12.5" style="stroke: #A80036; stroke-width: 1.5;" width="50" x="315.9713" y="343"/><line style="stroke: #A80036; stroke-width: 1.5;" x1="315.9713" x2="365.9713" y1="369.2969" y2="369.2969"/><text fill="#000000" font-family="sans-serif" font-size="14" lengthAdjust="spacingAndGlyphs" textLength="18" x="331.9713" y="360.9951">q6</text><rect fill="#FEFECE" filter="url(#f13pq3e85lgzq8)" height="50" rx="12.5" ry="12.5" style="stroke: #A80036; stroke-width: 1.5;" width="50" x="898.9713" y="343"/><line style="stroke: #A80036; stroke-width: 1.5;" x1="898.9713" x2="948.9713" y1="369.2969" y2="369.2969"/><text fill="#000000" font-family="sans-serif" font-size="14" lengthAdjust="spacingAndGlyphs" textLength="18" x="914.9713" y="360.9951">q4</text><!--link q1 to q2--><path d="M1046.9713,139.0911 C1046.9713,159.7035 1046.9713,188.9647 1046.9713,210.8484 " fill="none" id="q1-q2" style="stroke: #A80036; stroke-width: 1.0;"/><polygon fill="#A80036" points="1046.9713,215.961,1050.9713,206.961,1046.9713,210.961,1042.9713,206.961,1046.9713,215.961" style="stroke: #A80036; stroke-width: 1.0;"/><text fill="#000000" font-family="sans-serif" font-size="13" lengthAdjust="spacingAndGlyphs" textLength="44" x="1047.9713" y="182.0669">(1)_init</text><!--link q2 to q4--><path d="M1037.0217,266.2721 C1030.3454,281.045 1020.4838,299.3994 1007.9713,313 C992.6528,329.6507 971.2741,343.5557 953.9184,353.2189 " fill="none" id="q2-q4" style="stroke: #A80036; stroke-width: 1.0;"/><polygon fill="#A80036" points="949.1382,355.8307,958.9541,355.0256,953.526,353.4333,955.1183,348.0052,949.1382,355.8307" style="stroke: #A80036; stroke-width: 1.0;"/><text fill="#000000" font-family="sans-serif" font-size="13" lengthAdjust="spacingAndGlyphs" textLength="37" x="1020.9713" y="309.0669">(1)init</text><!--link q5 to q6--><path d="M653.9083,241.1062 C537.725,241.8536 55.3155,247.8547 10.9713,296 C-31.0469,341.6199 221.6971,361.0083 310.7613,366.3671 " fill="none" id="q5-q6" style="stroke: #A80036; stroke-width: 1.0;"/><polygon fill="#A80036" points="315.8854,366.6707,307.1379,362.1452,310.8942,366.3748,306.6645,370.1312,315.8854,366.6707" style="stroke: #A80036; stroke-width: 1.0;"/><text fill="#000000" font-family="sans-serif" font-size="13" lengthAdjust="spacingAndGlyphs" textLength="285" x="11.9713" y="309.0669">(1)knockout[ _data.price &gt; _data.KO_PRICE ]</text><!--link q5 to q6--><path d="M653.7734,243.1955 C578.3902,250.0154 358.5537,271.8319 337.9713,296 C328.3628,307.2825 328.2885,323.539 330.9824,337.751 " fill="none" id="q5-q6" style="stroke: #A80036; stroke-width: 1.0;"/><polygon fill="#A80036" points="332.0876,342.8815,334.1025,333.2409,331.0346,337.9936,326.2819,334.9258,332.0876,342.8815" style="stroke: #A80036; stroke-width: 1.0;"/><text fill="#000000" font-family="sans-serif" font-size="13" lengthAdjust="spacingAndGlyphs" textLength="296" x="338.9713" y="309.0669">(2)knockout[ _data.price &lt;= _data.KO_PRICE ]</text><!--link q5 to q6--><path d="M671.6088,266.1402 C665.6438,282.0284 655.6146,301.6387 639.9713,313 C597.2052,344.06 438.3449,360.1844 371.2196,365.732 " fill="none" id="q5-q6" style="stroke: #A80036; stroke-width: 1.0;"/><polygon fill="#A80036" points="366.1638,366.1441,375.4591,369.3996,371.1473,365.7378,374.809,361.426,366.1638,366.1441" style="stroke: #A80036; stroke-width: 1.0;"/><text fill="#000000" font-family="sans-serif" font-size="13" lengthAdjust="spacingAndGlyphs" textLength="81" x="656.9713" y="309.0669">(4)terminate</text><!--link q5 to q4--><path d="M704.1884,257.4032 C728.112,272.6569 765.3089,295.5834 798.9713,313 C830.6894,329.4106 868.3567,345.5504 893.992,356.0568 " fill="none" id="q5-q4" style="stroke: #A80036; stroke-width: 1.0;"/><polygon fill="#A80036" points="898.6345,357.9518,891.8135,350.8473,894.0053,356.0623,888.7903,358.254,898.6345,357.9518" style="stroke: #A80036; stroke-width: 1.0;"/><text fill="#000000" font-family="sans-serif" font-size="13" lengthAdjust="spacingAndGlyphs" textLength="80" x="799.9713" y="309.0669">(3)day_open</text><!--link q4 to q5--><path d="M916.17,342.9137 C910.0636,327.2549 900.0422,307.8822 884.9713,296 C857.6407,274.452 759.3141,254.8846 709.0363,246.0143 " fill="none" id="q4-q5" style="stroke: #A80036; stroke-width: 1.0;"/><polygon fill="#A80036" points="704.031,245.1386,712.207,250.6298,708.9562,246.0003,713.5857,242.7495,704.031,245.1386" style="stroke: #A80036; stroke-width: 1.0;"/><text fill="#000000" font-family="sans-serif" font-size="13" lengthAdjust="spacingAndGlyphs" textLength="81" x="901.9713" y="309.0669">(1)day_close</text><!--link q6 to q7--><path d="M340.9713,393.0911 C340.9713,413.7035 340.9713,442.9647 340.9713,464.8484 " fill="none" id="q6-q7" style="stroke: #A80036; stroke-width: 1.0;"/><polygon fill="#A80036" points="340.9713,469.961,344.9713,460.961,340.9713,464.961,336.9713,460.961,340.9713,469.961" style="stroke: #A80036; stroke-width: 1.0;"/><text fill="#000000" font-family="sans-serif" font-size="13" lengthAdjust="spacingAndGlyphs" textLength="68" x="341.9713" y="436.0669">(1)_accept</text><!--link *start to q1--><path d="M1046.9713,28.2737 C1046.9713,41.3608 1046.9713,64.5555 1046.9713,83.5207 " fill="none" id="*start-q1" style="stroke: #A80036; stroke-width: 1.0;"/><polygon fill="#A80036" points="1046.9713,88.7458,1050.9713,79.7458,1046.9713,83.7458,1042.9713,79.7458,1046.9713,88.7458" style="stroke: #A80036; stroke-width: 1.0;"/><!--link q7 to *end--><path d="M340.9713,520.2229 C340.9713,537.8366 340.9713,560.7774 340.9713,575.6928 " fill="none" id="q7-*end" style="stroke: #A80036; stroke-width: 1.0;"/><polygon fill="#A80036" points="340.9713,580.8002,344.9713,571.8002,340.9713,575.8002,336.9713,571.8002,340.9713,580.8002" style="stroke: #A80036; stroke-width: 1.0;"/><!--
@startuml 
state q1
state q2
state q5
state q6
state q4
q1 - -> q2:(1)_init
q2 - -> q4:(1)init
q5 - -> q6:(1)knockout[ _data.price > _data.KO_PRICE ]
q5 - -> q6:(2)knockout[ _data.price <= _data.KO_PRICE ]
q5 - -> q4:(3)day_open
q5 - -> q6:(4)terminate
q6 - -> q7:(1)_accept
q4 - -> q5:(1)day_close
[*] - -> q1
state q7
q7 - -> [*]
state q1 {
}
state q2 {
}
state q5 {
}
state q6 {
}
state q4 {
}
@enduml

PlantUML version 1.2017.15(Tue Jul 04 01:45:34 JST 2017)
(GPL source distribution)
Java Runtime: OpenJDK Runtime Environment
JVM: OpenJDK 64-Bit Server VM
Java Version: 1.8.0_181-8u181-b13-0ubuntu0.18.04.1-b13
Operating System: Linux
OS Version: 4.15.0-34-generic
Default Encoding: UTF-8
Language: en
Country: US
--></g></svg>