<?xml version="1.0" encoding="UTF-8" standalone="no"?><svg xmlns="http://www.w3.org/2000/svg" xmlns:xlink="http://www.w3.org/1999/xlink" contentScriptType="application/ecmascript" contentStyleType="text/css" height="485px" preserveAspectRatio="none" style="width:1130px;height:485px;" version="1.1" viewBox="0 0 1130 485" width="1130px" zoomAndPan="magnify"><defs><filter height="300%" id="f1ibzplpm5gyn2" width="300%" x="-1" y="-1"><feGaussianBlur result="blurOut" stdDeviation="2.0"/><feColorMatrix in="blurOut" result="blurOut2" type="matrix" values="0 0 0 0 0 0 0 0 0 0 0 0 0 0 0 0 0 0 .4 0"/><feOffset dx="4.0" dy="4.0" in="blurOut2" result="blurOut3"/><feBlend in="SourceGraphic" in2="blurOut3" mode="normal"/></filter></defs><g><rect fill="#FEFECE" filter="url(#f1ibzplpm5gyn2)" height="50" rx="12.5" ry="12.5" style="stroke: #A80036; stroke-width: 1.5;" width="50" x="603.2171" y="343"/><line style="stroke: #A80036; stroke-width: 1.5;" x1="603.2171" x2="653.2171" y1="369.2969" y2="369.2969"/><text fill="#000000" font-family="sans-serif" font-size="14" lengthAdjust="spacingAndGlyphs" textLength="18" x="619.2171" y="360.9951">q7</text><rect fill="#FEFECE" filter="url(#f1ibzplpm5gyn2)" height="50" rx="12.5" ry="12.5" style="stroke: #A80036; stroke-width: 1.5;" width="84" x="717.2171" y="343"/><line style="stroke: #A80036; stroke-width: 1.5;" x1="717.2171" x2="801.2171" y1="369.2969" y2="369.2969"/><text fill="#000000" font-family="sans-serif" font-size="14" lengthAdjust="spacingAndGlyphs" textLength="64" x="727.2171" y="360.9951">_rejected</text><ellipse cx="1093.2171" cy="18" fill="#000000" filter="url(#f1ibzplpm5gyn2)" rx="10" ry="10" style="stroke: none; stroke-width: 1.0;"/><ellipse cx="678.2171" cy="464" fill="none" filter="url(#f1ibzplpm5gyn2)" rx="10" ry="10" style="stroke: #000000; stroke-width: 1.0;"/><ellipse cx="678.7171" cy="464.5" fill="#000000" rx="6" ry="6" style="stroke: none; stroke-width: 1.0;"/><rect fill="#FEFECE" filter="url(#f1ibzplpm5gyn2)" height="50" rx="12.5" ry="12.5" style="stroke: #A80036; stroke-width: 1.5;" width="50" x="413.2171" y="216"/><line style="stroke: #A80036; stroke-width: 1.5;" x1="413.2171" x2="463.2171" y1="242.2969" y2="242.2969"/><text fill="#000000" font-family="sans-serif" font-size="14" lengthAdjust="spacingAndGlyphs" textLength="18" x="429.2171" y="233.9951">q6</text><rect fill="#FEFECE" filter="url(#f1ibzplpm5gyn2)" height="50" rx="12.5" ry="12.5" style="stroke: #A80036; stroke-width: 1.5;" width="50" x="868.2171" y="216"/><line style="stroke: #A80036; stroke-width: 1.5;" x1="868.2171" x2="918.2171" y1="242.2969" y2="242.2969"/><text fill="#000000" font-family="sans-serif" font-size="14" lengthAdjust="spacingAndGlyphs" textLength="18" x="884.2171" y="233.9951">q4</text><rect fill="#FEFECE" filter="url(#f1ibzplpm5gyn2)" height="50" rx="12.5" ry="12.5" style="stroke: #A80036; stroke-width: 1.5;" width="50" x="1068.2171" y="89"/><line style="stroke: #A80036; stroke-width: 1.5;" x1="1068.2171" x2="1118.2171" y1="115.2969" y2="115.2969"/><text fill="#000000" font-family="sans-serif" font-size="14" lengthAdjust="spacingAndGlyphs" textLength="18" x="1084.2171" y="106.9951">q2</text><rect fill="#FEFECE" filter="url(#f1ibzplpm5gyn2)" height="50" rx="12.5" ry="12.5" style="stroke: #A80036; stroke-width: 1.5;" width="50" x="574.2171" y="89"/><line style="stroke: #A80036; stroke-width: 1.5;" x1="574.2171" x2="624.2171" y1="115.2969" y2="115.2969"/><text fill="#000000" font-family="sans-serif" font-size="14" lengthAdjust="spacingAndGlyphs" textLength="18" x="590.2171" y="106.9951">q5</text><!--link q6 to q7--><path d="M463.4476,257.8646 C498.4652,281.2711 561.6697,323.5183 598.7908,348.3309 " fill="none" id="q6-q7" style="stroke: #A80036; stroke-width: 1.0;"/><polygon fill="#A80036" points="603.1848,351.2679,597.9253,342.941,599.0279,348.4893,593.4796,349.592,603.1848,351.2679" style="stroke: #A80036; stroke-width: 1.0;"/><text fill="#000000" font-family="sans-serif" font-size="13" lengthAdjust="spacingAndGlyphs" textLength="68" x="545.2171" y="309.0669">(1)_accept</text><!--link q6 to _rejected--><path d="M463.4448,246.8919 C499.3935,255.655 567.1084,273.5296 622.2171,296 C653.2633,308.6591 686.5932,326.0835 712.6043,340.6202 " fill="none" id="q6-_rejected" style="stroke: #A80036; stroke-width: 1.0;"/><polygon fill="#A80036" points="717.0433,343.1126,711.1542,335.2184,712.6836,340.6646,707.2374,342.194,717.0433,343.1126" style="stroke: #A80036; stroke-width: 1.0;"/><text fill="#000000" font-family="sans-serif" font-size="13" lengthAdjust="spacingAndGlyphs" textLength="25" x="657.2171" y="309.0669">(2)*</text><!--link q4 to q5--><path d="M903.9203,215.9929 C908.6069,200.7613 910.9141,181.8287 900.2171,169 C865.9833,127.9441 699.5439,117.4486 629.9263,114.8373 " fill="none" id="q4-q5" style="stroke: #A80036; stroke-width: 1.0;"/><polygon fill="#A80036" points="624.6865,114.6488,633.5369,118.9697,629.6833,114.8285,633.8245,110.9749,624.6865,114.6488" style="stroke: #A80036; stroke-width: 1.0;"/><text fill="#000000" font-family="sans-serif" font-size="13" lengthAdjust="spacingAndGlyphs" textLength="81" x="908.2171" y="182.0669">(1)day_close</text><!--link q5 to q4--><path d="M624.2852,119.5062 C659.6061,127.7497 725.5865,144.9425 778.2171,169 C795.299,176.8081 835.7234,202.8271 863.7808,221.339 " fill="none" id="q5-q4" style="stroke: #A80036; stroke-width: 1.0;"/><polygon fill="#A80036" points="868.1722,224.2417,862.8698,215.9421,864.001,221.4846,858.4585,222.6159,868.1722,224.2417" style="stroke: #A80036; stroke-width: 1.0;"/><text fill="#000000" font-family="sans-serif" font-size="13" lengthAdjust="spacingAndGlyphs" textLength="80" x="807.2171" y="182.0669">(3)day_open</text><!--link q4 to _rejected--><path d="M868.0127,264.8877 C845.704,286.0311 813.1021,316.9299 789.4071,339.387 " fill="none" id="q4-_rejected" style="stroke: #A80036; stroke-width: 1.0;"/><polygon fill="#A80036" points="785.6837,342.916,794.9676,339.6282,789.3127,339.4765,789.4644,333.8217,785.6837,342.916" style="stroke: #A80036; stroke-width: 1.0;"/><text fill="#000000" font-family="sans-serif" font-size="13" lengthAdjust="spacingAndGlyphs" textLength="25" x="835.2171" y="309.0669">(2)*</text><!--link q2 to q4--><path d="M1073.227,139.169 C1060.2293,154.2721 1042.2121,173.0087 1023.2171,186 C991.9873,207.3591 951.1431,222.9597 923.64,231.9789 " fill="none" id="q2-q4" style="stroke: #A80036; stroke-width: 1.0;"/><polygon fill="#A80036" points="918.6651,233.5864,928.459,234.6252,923.4229,232.049,925.9991,227.0128,918.6651,233.5864" style="stroke: #A80036; stroke-width: 1.0;"/><text fill="#000000" font-family="sans-serif" font-size="13" lengthAdjust="spacingAndGlyphs" textLength="37" x="1043.2171" y="182.0669">(1)init</text><!--link q2 to _rejected--><path d="M1097.4601,139.0813 C1098.6412,153.7866 1097.7429,172.1368 1089.2171,186 C1025.7887,289.1353 881.6174,338.2671 806.5842,357.5774 " fill="none" id="q2-_rejected" style="stroke: #A80036; stroke-width: 1.0;"/><polygon fill="#A80036" points="801.3034,358.9165,811.0105,360.5813,806.15,357.6874,809.0439,352.8268,801.3034,358.9165" style="stroke: #A80036; stroke-width: 1.0;"/><text fill="#000000" font-family="sans-serif" font-size="13" lengthAdjust="spacingAndGlyphs" textLength="25" x="1066.2171" y="245.5669">(2)*</text><!--link q5 to q6--><path d="M574.0329,114.8956 C478.1338,118.5603 139.5932,133.913 108.2171,169 C66.8741,215.2327 319.1773,234.2211 408.0681,239.4225 " fill="none" id="q5-q6" style="stroke: #A80036; stroke-width: 1.0;"/><polygon fill="#A80036" points="413.1822,239.7171,404.4272,235.2061,408.1905,239.4295,403.967,243.1928,413.1822,239.7171" style="stroke: #A80036; stroke-width: 1.0;"/><text fill="#000000" font-family="sans-serif" font-size="13" lengthAdjust="spacingAndGlyphs" textLength="285" x="109.2171" y="182.0669">(1)knockout[ _data.price &gt; _data.KO_PRICE ]</text><!--link q5 to q6--><path d="M574.1398,118.7297 C532.4209,127.1643 451.7018,146.0845 435.2171,169 C426.6931,180.8492 426.5618,196.8528 428.9438,210.7629 " fill="none" id="q5-q6" style="stroke: #A80036; stroke-width: 1.0;"/><polygon fill="#A80036" points="429.9242,215.7814,432.1243,206.1814,428.9655,210.8742,424.2727,207.7154,429.9242,215.7814" style="stroke: #A80036; stroke-width: 1.0;"/><text fill="#000000" font-family="sans-serif" font-size="13" lengthAdjust="spacingAndGlyphs" textLength="296" x="436.2171" y="182.0669">(2)knockout[ _data.price &lt;= _data.KO_PRICE ]</text><!--link q5 to q6--><path d="M574.0244,114.4097 C466.6066,116.412 50.5958,126.8572 12.2171,169 C-42.6009,229.1943 301.8816,239.0746 407.8785,240.6874 " fill="none" id="q5-q6" style="stroke: #A80036; stroke-width: 1.0;"/><polygon fill="#A80036" points="413.0398,240.7622,404.0988,236.632,408.0403,240.6896,403.9827,244.6311,413.0398,240.7622" style="stroke: #A80036; stroke-width: 1.0;"/><text fill="#000000" font-family="sans-serif" font-size="13" lengthAdjust="spacingAndGlyphs" textLength="81" x="13.2171" y="182.0669">(4)terminate</text><!--link q5 to _rejected--><path d="M624.2546,116.3246 C656.0472,120.7191 710.0291,133.297 737.2171,169 C774.7547,218.294 770.6836,295.4239 764.7487,337.7254 " fill="none" id="q5-_rejected" style="stroke: #A80036; stroke-width: 1.0;"/><polygon fill="#A80036" points="764.0183,342.7073,769.2815,334.3827,764.7436,337.7602,761.3661,333.2223,764.0183,342.7073" style="stroke: #A80036; stroke-width: 1.0;"/><text fill="#000000" font-family="sans-serif" font-size="13" lengthAdjust="spacingAndGlyphs" textLength="25" x="768.2171" y="245.5669">(5)*</text><!--link *start to q2--><path d="M1093.2171,28.2737 C1093.2171,41.3608 1093.2171,64.5555 1093.2171,83.5207 " fill="none" id="*start-q2" style="stroke: #A80036; stroke-width: 1.0;"/><polygon fill="#A80036" points="1093.2171,88.7458,1097.2171,79.7458,1093.2171,83.7458,1089.2171,79.7458,1093.2171,88.7458" style="stroke: #A80036; stroke-width: 1.0;"/><!--link q7 to *end--><path d="M641.354,393.2229 C650.8163,411.3904 663.2302,435.2252 670.9647,450.0755 " fill="none" id="q7-*end" style="stroke: #A80036; stroke-width: 1.0;"/><polygon fill="#A80036" points="673.3973,454.7461,672.7875,444.9161,671.0876,450.3115,665.6922,448.6117,673.3973,454.7461" style="stroke: #A80036; stroke-width: 1.0;"/><!--link _rejected to *end--><path d="M737.9353,393.2229 C721.9634,412.1526 700.8001,437.2349 688.4299,451.8959 " fill="none" id="_rejected-*end" style="stroke: #A80036; stroke-width: 1.0;"/><polygon fill="#A80036" points="684.8887,456.0929,693.7498,451.7939,688.1131,452.2715,687.6355,446.6348,684.8887,456.0929" style="stroke: #A80036; stroke-width: 1.0;"/><!--
@startuml 
state q6
state q4
state q2
state q5
q6 - -> q7:(1)_accept
q6 - -> _rejected:(2)*
q4 - -> q5:(1)day_close
q4 - -> _rejected:(2)*
q2 - -> q4:(1)init
q2 - -> _rejected:(2)*
q5 - -> q6:(1)knockout[ _data.price > _data.KO_PRICE ]
q5 - -> q6:(2)knockout[ _data.price <= _data.KO_PRICE ]
q5 - -> q4:(3)day_open
q5 - -> q6:(4)terminate
q5 - -> _rejected:(5)*
[*] - -> q2
state q7
q7 - -> [*]
state _rejected
_rejected - -> [*]
state q6 {
}
state q4 {
}
state q2 {
}
state q5 {
}
@enduml

PlantUML version 1.2017.15(Tue Jul 04 01:45:34 JST 2017)
(GPL source distribution)
Java Runtime: OpenJDK Runtime Environment
JVM: OpenJDK 64-Bit Server VM
Java Version: 1.8.0_191-8u191-b12-0ubuntu0.18.04.1-b12
Operating System: Linux
OS Version: 4.15.0-39-generic
Default Encoding: UTF-8
Language: en
Country: US
--></g></svg>