<?xml version="1.0" encoding="UTF-8" standalone="no"?><svg xmlns="http://www.w3.org/2000/svg" xmlns:xlink="http://www.w3.org/1999/xlink" contentScriptType="application/ecmascript" contentStyleType="text/css" height="1039px" preserveAspectRatio="none" style="width:1713px;height:1039px;" version="1.1" viewBox="0 0 1713 1039" width="1713px" zoomAndPan="magnify"><defs><filter height="300%" id="f1smdjx8ioy8zf" width="300%" x="-1" y="-1"><feGaussianBlur result="blurOut" stdDeviation="2.0"/><feColorMatrix in="blurOut" result="blurOut2" type="matrix" values="0 0 0 0 0 0 0 0 0 0 0 0 0 0 0 0 0 0 .4 0"/><feOffset dx="4.0" dy="4.0" in="blurOut2" result="blurOut3"/><feBlend in="SourceGraphic" in2="blurOut3" mode="normal"/></filter></defs><g><rect fill="#FEFECE" filter="url(#f1smdjx8ioy8zf)" height="50" rx="12.5" ry="12.5" style="stroke: #A80036; stroke-width: 1.5;" width="84" x="915.0542" y="897"/><line style="stroke: #A80036; stroke-width: 1.5;" x1="915.0542" x2="999.0542" y1="923.2969" y2="923.2969"/><text fill="#000000" font-family="sans-serif" font-size="14" lengthAdjust="spacingAndGlyphs" textLength="64" x="925.0542" y="914.9951">_rejected</text><rect fill="#FEFECE" filter="url(#f1smdjx8ioy8zf)" height="50" rx="12.5" ry="12.5" style="stroke: #A80036; stroke-width: 1.5;" width="50" x="101.0542" y="897"/><line style="stroke: #A80036; stroke-width: 1.5;" x1="101.0542" x2="151.0542" y1="923.2969" y2="923.2969"/><text fill="#000000" font-family="sans-serif" font-size="14" lengthAdjust="spacingAndGlyphs" textLength="27" x="112.5542" y="914.9951">q12</text><ellipse cx="1452.0542" cy="287" fill="#000000" filter="url(#f1smdjx8ioy8zf)" rx="10" ry="10" style="stroke: none; stroke-width: 1.0;"/><ellipse cx="417.0542" cy="1018" fill="none" filter="url(#f1smdjx8ioy8zf)" rx="10" ry="10" style="stroke: #000000; stroke-width: 1.0;"/><ellipse cx="417.5542" cy="1018.5" fill="#000000" rx="6" ry="6" style="stroke: none; stroke-width: 1.0;"/><rect fill="#FEFECE" filter="url(#f1smdjx8ioy8zf)" height="50" rx="12.5" ry="12.5" style="stroke: #A80036; stroke-width: 1.5;" width="50" x="1310.0542" y="516"/><line style="stroke: #A80036; stroke-width: 1.5;" x1="1310.0542" x2="1360.0542" y1="542.2969" y2="542.2969"/><text fill="#000000" font-family="sans-serif" font-size="14" lengthAdjust="spacingAndGlyphs" textLength="18" x="1326.0542" y="533.9951">q3</text><rect fill="#FEFECE" filter="url(#f1smdjx8ioy8zf)" height="50" rx="12.5" ry="12.5" style="stroke: #A80036; stroke-width: 1.5;" width="50" x="606.0542" y="643"/><line style="stroke: #A80036; stroke-width: 1.5;" x1="606.0542" x2="656.0542" y1="669.2969" y2="669.2969"/><text fill="#000000" font-family="sans-serif" font-size="14" lengthAdjust="spacingAndGlyphs" textLength="27" x="617.5542" y="660.9951">q14</text><rect fill="#FEFECE" filter="url(#f1smdjx8ioy8zf)" height="50" rx="12.5" ry="12.5" style="stroke: #A80036; stroke-width: 1.5;" width="50" x="1427.0542" y="389"/><line style="stroke: #A80036; stroke-width: 1.5;" x1="1427.0542" x2="1477.0542" y1="415.2969" y2="415.2969"/><text fill="#000000" font-family="sans-serif" font-size="14" lengthAdjust="spacingAndGlyphs" textLength="18" x="1443.0542" y="406.9951">q1</text><rect fill="#FEFECE" filter="url(#f1smdjx8ioy8zf)" height="50" rx="12.5" ry="12.5" style="stroke: #A80036; stroke-width: 1.5;" width="50" x="1196.0542" y="770"/><line style="stroke: #A80036; stroke-width: 1.5;" x1="1196.0542" x2="1246.0542" y1="796.2969" y2="796.2969"/><text fill="#000000" font-family="sans-serif" font-size="14" lengthAdjust="spacingAndGlyphs" textLength="18" x="1212.0542" y="787.9951">q5</text><rect fill="#FEFECE" filter="url(#f1smdjx8ioy8zf)" height="50" rx="12.5" ry="12.5" style="stroke: #A80036; stroke-width: 1.5;" width="50" x="792.0542" y="643"/><line style="stroke: #A80036; stroke-width: 1.5;" x1="792.0542" x2="842.0542" y1="669.2969" y2="669.2969"/><text fill="#000000" font-family="sans-serif" font-size="14" lengthAdjust="spacingAndGlyphs" textLength="27" x="803.5542" y="660.9951">q19</text><rect fill="#FEFECE" filter="url(#f1smdjx8ioy8zf)" height="50" rx="12.5" ry="12.5" style="stroke: #A80036; stroke-width: 1.5;" width="50" x="854.0542" y="262"/><line style="stroke: #A80036; stroke-width: 1.5;" x1="854.0542" x2="904.0542" y1="288.2969" y2="288.2969"/><text fill="#000000" font-family="sans-serif" font-size="14" lengthAdjust="spacingAndGlyphs" textLength="18" x="870.0542" y="279.9951">q7</text><rect fill="#FEFECE" filter="url(#f1smdjx8ioy8zf)" height="50" rx="12.5" ry="12.5" style="stroke: #A80036; stroke-width: 1.5;" width="50" x="370.0542" y="770"/><line style="stroke: #A80036; stroke-width: 1.5;" x1="370.0542" x2="420.0542" y1="796.2969" y2="796.2969"/><text fill="#000000" font-family="sans-serif" font-size="14" lengthAdjust="spacingAndGlyphs" textLength="27" x="381.5542" y="787.9951">q17</text><rect fill="#FEFECE" filter="url(#f1smdjx8ioy8zf)" height="50" rx="12.5" ry="12.5" style="stroke: #A80036; stroke-width: 1.5;" width="50" x="125.0542" y="770"/><line style="stroke: #A80036; stroke-width: 1.5;" x1="125.0542" x2="175.0542" y1="796.2969" y2="796.2969"/><text fill="#000000" font-family="sans-serif" font-size="14" lengthAdjust="spacingAndGlyphs" textLength="27" x="136.5542" y="787.9951">q16</text><rect fill="#FEFECE" filter="url(#f1smdjx8ioy8zf)" height="50" rx="12.5" ry="12.5" style="stroke: #A80036; stroke-width: 1.5;" width="50" x="531.0542" y="770"/><line style="stroke: #A80036; stroke-width: 1.5;" x1="531.0542" x2="581.0542" y1="796.2969" y2="796.2969"/><text fill="#000000" font-family="sans-serif" font-size="14" lengthAdjust="spacingAndGlyphs" textLength="27" x="542.5542" y="787.9951">q10</text><rect fill="#FEFECE" filter="url(#f1smdjx8ioy8zf)" height="50" rx="12.5" ry="12.5" style="stroke: #A80036; stroke-width: 1.5;" width="50" x="1567.0542" y="516"/><line style="stroke: #A80036; stroke-width: 1.5;" x1="1567.0542" x2="1617.0542" y1="542.2969" y2="542.2969"/><text fill="#000000" font-family="sans-serif" font-size="14" lengthAdjust="spacingAndGlyphs" textLength="18" x="1583.0542" y="533.9951">q8</text><rect fill="#FEFECE" filter="url(#f1smdjx8ioy8zf)" height="50" rx="12.5" ry="12.5" style="stroke: #A80036; stroke-width: 1.5;" width="50" x="854.0542" y="389"/><line style="stroke: #A80036; stroke-width: 1.5;" x1="854.0542" x2="904.0542" y1="415.2969" y2="415.2969"/><text fill="#000000" font-family="sans-serif" font-size="14" lengthAdjust="spacingAndGlyphs" textLength="18" x="870.0542" y="406.9951">q9</text><rect fill="#FEFECE" filter="url(#f1smdjx8ioy8zf)" height="50" rx="12.5" ry="12.5" style="stroke: #A80036; stroke-width: 1.5;" width="50" x="578.0542" y="135"/><line style="stroke: #A80036; stroke-width: 1.5;" x1="578.0542" x2="628.0542" y1="161.2969" y2="161.2969"/><text fill="#000000" font-family="sans-serif" font-size="14" lengthAdjust="spacingAndGlyphs" textLength="27" x="589.5542" y="152.9951">q13</text><rect fill="#FEFECE" filter="url(#f1smdjx8ioy8zf)" height="50" rx="12.5" ry="12.5" style="stroke: #A80036; stroke-width: 1.5;" width="50" x="233.0542" y="643"/><line style="stroke: #A80036; stroke-width: 1.5;" x1="233.0542" x2="283.0542" y1="669.2969" y2="669.2969"/><text fill="#000000" font-family="sans-serif" font-size="14" lengthAdjust="spacingAndGlyphs" textLength="27" x="244.5542" y="660.9951">q15</text><rect fill="#FEFECE" filter="url(#f1smdjx8ioy8zf)" height="50" rx="12.5" ry="12.5" style="stroke: #A80036; stroke-width: 1.5;" width="50" x="621.0542" y="516"/><line style="stroke: #A80036; stroke-width: 1.5;" x1="621.0542" x2="671.0542" y1="542.2969" y2="542.2969"/><text fill="#000000" font-family="sans-serif" font-size="14" lengthAdjust="spacingAndGlyphs" textLength="27" x="632.5542" y="533.9951">q11</text><rect fill="#FEFECE" filter="url(#f1smdjx8ioy8zf)" height="50" rx="12.5" ry="12.5" style="stroke: #A80036; stroke-width: 1.5;" width="50" x="1184.0542" y="135"/><line style="stroke: #A80036; stroke-width: 1.5;" x1="1184.0542" x2="1234.0542" y1="161.2969" y2="161.2969"/><text fill="#000000" font-family="sans-serif" font-size="14" lengthAdjust="spacingAndGlyphs" textLength="18" x="1200.0542" y="152.9951">q6</text><rect fill="#FEFECE" filter="url(#f1smdjx8ioy8zf)" height="50" rx="12.5" ry="12.5" style="stroke: #A80036; stroke-width: 1.5;" width="50" x="646.0542" y="8"/><line style="stroke: #A80036; stroke-width: 1.5;" x1="646.0542" x2="696.0542" y1="34.2969" y2="34.2969"/><text fill="#000000" font-family="sans-serif" font-size="14" lengthAdjust="spacingAndGlyphs" textLength="27" x="657.5542" y="25.9951">q18</text><rect fill="#FEFECE" filter="url(#f1smdjx8ioy8zf)" height="50" rx="12.5" ry="12.5" style="stroke: #A80036; stroke-width: 1.5;" width="50" x="1378.0542" y="643"/><line style="stroke: #A80036; stroke-width: 1.5;" x1="1378.0542" x2="1428.0542" y1="669.2969" y2="669.2969"/><text fill="#000000" font-family="sans-serif" font-size="14" lengthAdjust="spacingAndGlyphs" textLength="18" x="1394.0542" y="660.9951">q4</text><!--link q3 to q4--><path d="M1328.2668,566.216 C1325.7544,580.6214 1325.0044,598.6214 1332.0542,613 C1340.6386,630.5087 1357.7802,644.0367 1373.0695,653.2947 " fill="none" id="q3-q4" style="stroke: #A80036; stroke-width: 1.0;"/><polygon fill="#A80036" points="1377.7435,656.0305,1371.997,648.0319,1373.4284,653.5047,1367.9556,654.9361,1377.7435,656.0305" style="stroke: #A80036; stroke-width: 1.0;"/><text fill="#000000" font-family="sans-serif" font-size="13" lengthAdjust="spacingAndGlyphs" textLength="37" x="1333.0542" y="609.0669">(1)init</text><!--link q3 to _rejected--><path d="M1326.1188,566.1366 C1323.2605,575.3981 1320.4711,586.0566 1319.0542,596 C1310.0146,659.4347 1346.7965,679.3746 1326.0542,740 C1302.3459,809.2941 1284.6982,830.762 1221.0542,867 C1184.5746,887.7709 1069.6579,906.4303 1004.0951,915.7441 " fill="none" id="q3-_rejected" style="stroke: #A80036; stroke-width: 1.0;"/><polygon fill="#A80036" points="999.0737,916.4529,1008.5445,919.1554,1004.0246,915.7539,1007.4261,911.234,999.0737,916.4529" style="stroke: #A80036; stroke-width: 1.0;"/><text fill="#000000" font-family="sans-serif" font-size="13" lengthAdjust="spacingAndGlyphs" textLength="25" x="1331.0542" y="736.0669">(2)*</text><!--link q14 to q10--><path d="M611.9647,693.1964 C605.3426,702.3731 598.0747,712.9614 592.0542,723 C583.9879,736.4497 576.0759,751.943 569.7328,765.1039 " fill="none" id="q14-q10" style="stroke: #A80036; stroke-width: 1.0;"/><polygon fill="#A80036" points="567.4694,769.8391,574.9596,763.4441,569.6257,765.328,567.7418,759.994,567.4694,769.8391" style="stroke: #A80036; stroke-width: 1.0;"/><text fill="#000000" font-family="sans-serif" font-size="13" lengthAdjust="spacingAndGlyphs" textLength="76" x="593.0542" y="736.0669">(1)knockout</text><!--link q14 to _rejected--><path d="M654.0802,693.149 C661.2989,702.0666 668.7557,712.5048 674.0542,723 C704.8584,784.0172 673.333,826.0416 728.0542,867 C756.4131,888.2265 851.2903,905.9152 909.6501,915.1311 " fill="none" id="q14-_rejected" style="stroke: #A80036; stroke-width: 1.0;"/><polygon fill="#A80036" points="914.8316,915.9422,906.5587,910.5982,909.8918,915.1688,905.3212,918.5019,914.8316,915.9422" style="stroke: #A80036; stroke-width: 1.0;"/><text fill="#000000" font-family="sans-serif" font-size="13" lengthAdjust="spacingAndGlyphs" textLength="25" x="696.0542" y="799.5669">(2)*</text><!--link q1 to q3--><path d="M1428.9387,439.0911 C1409.5487,460.1383 1381.8512,490.2032 1361.5649,512.2234 " fill="none" id="q1-q3" style="stroke: #A80036; stroke-width: 1.0;"/><polygon fill="#A80036" points="1358.1216,515.961,1367.1615,512.052,1361.5094,512.2836,1361.2777,506.6315,1358.1216,515.961" style="stroke: #A80036; stroke-width: 1.0;"/><text fill="#000000" font-family="sans-serif" font-size="13" lengthAdjust="spacingAndGlyphs" textLength="44" x="1401.0542" y="482.0669">(1)_init</text><!--link q1 to _rejected--><path d="M1460.3686,439.2555 C1471.3498,474.0679 1490.1087,538.9729 1497.0542,596 C1512.3643,721.7066 1520.5864,807.0241 1409.0542,867 C1339.8168,904.232 1105.3321,916.8097 1004.1614,920.5685 " fill="none" id="q1-_rejected" style="stroke: #A80036; stroke-width: 1.0;"/><polygon fill="#A80036" points="999.153,920.7514,1008.2931,924.4201,1004.1497,920.5688,1008.0009,916.4254,999.153,920.7514" style="stroke: #A80036; stroke-width: 1.0;"/><text fill="#000000" font-family="sans-serif" font-size="13" lengthAdjust="spacingAndGlyphs" textLength="25" x="1506.0542" y="672.5669">(2)*</text><!--link q5 to q6--><path d="M1219.8153,769.9891 C1219.3529,756.1313 1219.136,738.5995 1220.0542,723 C1226.5097,613.3201 1249.0542,587.3697 1249.0542,477.5 C1249.0542,287 1249.0542,287 1249.0542,287 C1249.0542,252.3986 1235.3791,214.8419 1224.0207,189.6153 " fill="none" id="q5-q6" style="stroke: #A80036; stroke-width: 1.0;"/><polygon fill="#A80036" points="1221.9306,185.0519,1222.0418,194.9001,1224.0127,189.5977,1229.3151,191.5687,1221.9306,185.0519" style="stroke: #A80036; stroke-width: 1.0;"/><text fill="#000000" font-family="sans-serif" font-size="13" lengthAdjust="spacingAndGlyphs" textLength="111" x="1250.0542" y="482.0669">(1)_not_knockout</text><!--link q5 to _rejected--><path d="M1208.7025,820.1774 C1199.7602,835.8736 1186.2392,855.2538 1169.0542,867 C1119.3311,900.9863 1049.9787,913.9714 1004.323,918.9326 " fill="none" id="q5-_rejected" style="stroke: #A80036; stroke-width: 1.0;"/><polygon fill="#A80036" points="999.1524,919.4712,1008.5185,922.517,1004.1255,918.953,1007.6894,914.5601,999.1524,919.4712" style="stroke: #A80036; stroke-width: 1.0;"/><text fill="#000000" font-family="sans-serif" font-size="13" lengthAdjust="spacingAndGlyphs" textLength="25" x="1187.0542" y="863.0669">(2)*</text><!--link q19 to q17--><path d="M791.8248,672.3968 C763.0776,677.4027 714.6868,685.8176 673.0542,693 C595.2905,706.4157 571.0431,693.0038 498.0542,723 C471.0381,734.1027 444.1101,753.2834 424.5663,769.057 " fill="none" id="q19-q17" style="stroke: #A80036; stroke-width: 1.0;"/><polygon fill="#A80036" points="420.2618,772.5724,429.7627,769.9777,424.1345,769.4097,424.7025,763.7815,420.2618,772.5724" style="stroke: #A80036; stroke-width: 1.0;"/><text fill="#000000" font-family="sans-serif" font-size="13" lengthAdjust="spacingAndGlyphs" textLength="76" x="499.0542" y="736.0669">(1)knockout</text><!--link q19 to _rejected--><path d="M821.9446,693.0839 C830.8351,733.398 852.8537,813.4964 896.0542,867 C903.5788,876.3193 912.7331,885.4444 921.6373,893.4994 " fill="none" id="q19-_rejected" style="stroke: #A80036; stroke-width: 1.0;"/><polygon fill="#A80036" points="925.4326,896.8835,921.3771,887.9084,921.7006,893.556,916.053,893.8795,925.4326,896.8835" style="stroke: #A80036; stroke-width: 1.0;"/><text fill="#000000" font-family="sans-serif" font-size="13" lengthAdjust="spacingAndGlyphs" textLength="25" x="865.0542" y="799.5669">(2)*</text><!--link q7 to q9--><path d="M877.1468,312.3179 C876.3222,326.1151 875.6315,343.4923 876.0542,359 C876.2701,366.9222 876.6606,375.4792 877.09,383.4297 " fill="none" id="q7-q9" style="stroke: #A80036; stroke-width: 1.0;"/><polygon fill="#A80036" points="877.3919,388.8217,880.8824,379.6121,877.1123,383.8295,872.8949,380.0594,877.3919,388.8217" style="stroke: #A80036; stroke-width: 1.0;"/><text fill="#000000" font-family="sans-serif" font-size="13" lengthAdjust="spacingAndGlyphs" textLength="80" x="877.0542" y="355.0669">(1)day_open</text><!--link q7 to q10--><path d="M853.9959,288.4425 C758.0042,294.6403 419.0542,322.9698 419.0542,414 C419.0542,414 419.0542,414 419.0542,668 C419.0542,725.9677 485.8357,764.8985 526.1476,783.1181 " fill="none" id="q7-q10" style="stroke: #A80036; stroke-width: 1.0;"/><polygon fill="#A80036" points="530.9262,785.2372,524.3203,777.9323,526.3554,783.2104,521.0773,785.2455,530.9262,785.2372" style="stroke: #A80036; stroke-width: 1.0;"/><text fill="#000000" font-family="sans-serif" font-size="13" lengthAdjust="spacingAndGlyphs" textLength="81" x="420.0542" y="545.5669">(2)terminate</text><!--link q7 to _rejected--><path d="M904.338,296.1301 C923.933,304.6908 949.7517,319.5684 962.0542,342 C1064.2314,528.3042 994.5702,801.5373 966.9302,891.8189 " fill="none" id="q7-_rejected" style="stroke: #A80036; stroke-width: 1.0;"/><polygon fill="#A80036" points="965.409,896.7414,971.888,889.3236,966.8853,891.9643,964.2446,886.9616,965.409,896.7414" style="stroke: #A80036; stroke-width: 1.0;"/><text fill="#000000" font-family="sans-serif" font-size="13" lengthAdjust="spacingAndGlyphs" textLength="25" x="1016.0542" y="609.0669">(3)*</text><!--link q17 to q12--><path d="M369.7203,803.2713 C351.8336,808.8059 327.2037,815.8168 305.0542,820 C240.9568,832.1056 56.7585,801.5754 13.0542,850 C-15.2518,881.3631 53.479,904.4638 95.8092,915.2401 " fill="none" id="q17-q12" style="stroke: #A80036; stroke-width: 1.0;"/><polygon fill="#A80036" points="100.8322,916.493,93.0679,910.4337,95.9808,915.2829,91.1317,918.1959,100.8322,916.493" style="stroke: #A80036; stroke-width: 1.0;"/><text fill="#000000" font-family="sans-serif" font-size="13" lengthAdjust="spacingAndGlyphs" textLength="68" x="14.0542" y="863.0669">(1)_accept</text><!--link q17 to _rejected--><path d="M420.224,808.1335 C452.7656,824.5282 511.6135,852.2093 565.0542,867 C686.4907,900.6099 835.058,914.2889 909.6018,919.346 " fill="none" id="q17-_rejected" style="stroke: #A80036; stroke-width: 1.0;"/><polygon fill="#A80036" points="914.8397,919.6954,906.1259,915.1051,909.8508,919.3625,905.5934,923.0874,914.8397,919.6954" style="stroke: #A80036; stroke-width: 1.0;"/><text fill="#000000" font-family="sans-serif" font-size="13" lengthAdjust="spacingAndGlyphs" textLength="25" x="566.0542" y="863.0669">(2)*</text><!--link q16 to q18--><path d="M130.741,769.7846 C113.8688,745.2 92.0542,706.0554 92.0542,668 C92.0542,160 92.0542,160 92.0542,160 C92.0542,103.2777 521.4987,50.0602 640.6951,36.3817 " fill="none" id="q16-q18" style="stroke: #A80036; stroke-width: 1.0;"/><polygon fill="#A80036" points="645.8029,35.798,636.4068,32.846,640.8353,36.3659,637.3154,40.7943,645.8029,35.798" style="stroke: #A80036; stroke-width: 1.0;"/><text fill="#000000" font-family="sans-serif" font-size="13" lengthAdjust="spacingAndGlyphs" textLength="81" x="93.0542" y="418.5669">(1)day_close</text><!--link q16 to _rejected--><path d="M171.2149,820.3302 C186.5376,836.7349 208.7584,856.8655 233.0542,867 C295.2498,892.9436 758.7059,913.9212 909.6722,920.1271 " fill="none" id="q16-_rejected" style="stroke: #A80036; stroke-width: 1.0;"/><polygon fill="#A80036" points="914.9095,920.3416,906.0808,915.9765,909.9137,920.1369,905.7533,923.9698,914.9095,920.3416" style="stroke: #A80036; stroke-width: 1.0;"/><text fill="#000000" font-family="sans-serif" font-size="13" lengthAdjust="spacingAndGlyphs" textLength="25" x="234.0542" y="863.0669">(2)*</text><!--link q10 to q12--><path d="M530.6697,801.1937 C506.6786,806.8421 469.6113,815.0407 437.0542,820 C402.406,825.2778 146.6287,824.0657 123.0542,850 C113.011,861.0484 112.9838,877.4433 115.8166,891.7987 " fill="none" id="q10-q12" style="stroke: #A80036; stroke-width: 1.0;"/><polygon fill="#A80036" points="116.9765,896.9815,118.9143,887.3252,115.8845,892.1022,111.1075,889.0724,116.9765,896.9815" style="stroke: #A80036; stroke-width: 1.0;"/><text fill="#000000" font-family="sans-serif" font-size="13" lengthAdjust="spacingAndGlyphs" textLength="68" x="124.0542" y="863.0669">(1)_accept</text><!--link q10 to _rejected--><path d="M572.0026,820.0478 C583.6087,836.1088 600.8001,855.9522 621.0542,867 C669.9906,893.6928 829.2016,910.9079 909.6338,918.1217 " fill="none" id="q10-_rejected" style="stroke: #A80036; stroke-width: 1.0;"/><polygon fill="#A80036" points="914.8158,918.5824,906.2055,913.801,909.8355,918.1395,905.4969,921.7695,914.8158,918.5824" style="stroke: #A80036; stroke-width: 1.0;"/><text fill="#000000" font-family="sans-serif" font-size="13" lengthAdjust="spacingAndGlyphs" textLength="25" x="622.0542" y="863.0669">(2)*</text><!--link q8 to q4--><path d="M1566.8069,553.0903 C1545.9029,563.487 1515.7378,579.3945 1491.0542,596 C1470.5196,609.8143 1448.9916,627.3669 1432.3684,641.6828 " fill="none" id="q8-q4" style="stroke: #A80036; stroke-width: 1.0;"/><polygon fill="#A80036" points="1428.2514,645.2484,1437.6733,642.3799,1432.0309,641.975,1432.4358,636.3327,1428.2514,645.2484" style="stroke: #A80036; stroke-width: 1.0;"/><text fill="#000000" font-family="sans-serif" font-size="13" lengthAdjust="spacingAndGlyphs" textLength="80" x="1492.0542" y="609.0669">(1)day_open</text><!--link q8 to _rejected--><path d="M1597.5725,566.3889 C1609.3343,628.1041 1629.3654,786.7959 1545.0542,867 C1506.1367,904.0216 1136.934,917.2869 1004.2503,920.8816 " fill="none" id="q8-_rejected" style="stroke: #A80036; stroke-width: 1.0;"/><polygon fill="#A80036" points="999.2505,921.0155,1008.3545,924.7729,1004.2487,920.8815,1008.1401,916.7757,999.2505,921.0155" style="stroke: #A80036; stroke-width: 1.0;"/><text fill="#000000" font-family="sans-serif" font-size="13" lengthAdjust="spacingAndGlyphs" textLength="25" x="1606.0542" y="736.0669">(2)*</text><!--link q9 to q11--><path d="M853.6755,427.833 C810.3441,451.4514 722.2991,499.4416 676.0185,524.6675 " fill="none" id="q9-q11" style="stroke: #A80036; stroke-width: 1.0;"/><polygon fill="#A80036" points="671.4015,527.1841,681.2182,526.3892,675.7918,524.7913,677.3897,519.3648,671.4015,527.1841" style="stroke: #A80036; stroke-width: 1.0;"/><text fill="#000000" font-family="sans-serif" font-size="13" lengthAdjust="spacingAndGlyphs" textLength="81" x="778.0542" y="482.0669">(1)day_close</text><!--link q9 to _rejected--><path d="M882.9222,439.1918 C895.9705,524.173 938.3363,800.0943 952.4397,891.9468 " fill="none" id="q9-_rejected" style="stroke: #A80036; stroke-width: 1.0;"/><polygon fill="#A80036" points="953.2089,896.9565,955.7966,887.4537,952.4501,892.0144,947.8893,888.6678,953.2089,896.9565" style="stroke: #A80036; stroke-width: 1.0;"/><text fill="#000000" font-family="sans-serif" font-size="13" lengthAdjust="spacingAndGlyphs" textLength="25" x="922.0542" y="672.5669">(2)*</text><!--link q13 to q7--><path d="M628.5249,171.7202 C679.6931,195.265 794.7264,248.197 849.2735,273.2966 " fill="none" id="q13-q7" style="stroke: #A80036; stroke-width: 1.0;"/><polygon fill="#A80036" points="854.0436,275.4915,847.5397,268.0956,849.5014,273.4014,844.1956,275.3631,854.0436,275.4915" style="stroke: #A80036; stroke-width: 1.0;"/><text fill="#000000" font-family="sans-serif" font-size="13" lengthAdjust="spacingAndGlyphs" textLength="104" x="759.0542" y="228.0669">(1)_under_strike</text><!--link q13 to q15--><path d="M577.9796,163.7626 C499.2299,176.2761 262.0542,219.5618 262.0542,287 C262.0542,287 262.0542,287 262.0542,541 C262.0542,573.9514 260.6923,611.6882 259.5578,637.407 " fill="none" id="q13-q15" style="stroke: #A80036; stroke-width: 1.0;"/><polygon fill="#A80036" points="259.3198,642.7066,263.7197,633.8952,259.5442,637.7116,255.7278,633.5361,259.3198,642.7066" style="stroke: #A80036; stroke-width: 1.0;"/><text fill="#000000" font-family="sans-serif" font-size="13" lengthAdjust="spacingAndGlyphs" textLength="95" x="263.0542" y="418.5669">(2)_over_strike</text><!--link q13 to _rejected--><path d="M628.1336,161.503 C717.5991,167.0771 1017.4911,187.6648 1050.0542,215 C1075.6819,236.5133 1072.0542,253.5395 1072.0542,287 C1072.0542,287 1072.0542,287 1072.0542,795 C1072.0542,837.9847 1035.4084,872.9095 1003.4898,895.1765 " fill="none" id="q13-_rejected" style="stroke: #A80036; stroke-width: 1.0;"/><polygon fill="#A80036" points="999.2229,898.0988,1008.9086,896.3135,1003.3482,895.2735,1004.3882,889.7131,999.2229,898.0988" style="stroke: #A80036; stroke-width: 1.0;"/><text fill="#000000" font-family="sans-serif" font-size="13" lengthAdjust="spacingAndGlyphs" textLength="25" x="1073.0542" y="545.5669">(3)*</text><!--link q15 to q16--><path d="M233.0411,672.4782 C206.4679,678.7152 165.7648,692.8474 147.0542,723 C139.4166,735.3081 139.3012,751.2105 141.466,764.9384 " fill="none" id="q15-q16" style="stroke: #A80036; stroke-width: 1.0;"/><polygon fill="#A80036" points="142.3571,769.887,144.6987,760.3206,141.471,764.9662,136.8254,761.7384,142.3571,769.887" style="stroke: #A80036; stroke-width: 1.0;"/><text fill="#000000" font-family="sans-serif" font-size="13" lengthAdjust="spacingAndGlyphs" textLength="80" x="148.0542" y="736.0669">(1)day_open</text><!--link q15 to q17--><path d="M272.8838,693.1224 C282.3399,707.8422 295.5222,726.1934 310.0542,740 C326.4772,755.6033 347.908,769.436 365.1418,779.3261 " fill="none" id="q15-q17" style="stroke: #A80036; stroke-width: 1.0;"/><polygon fill="#A80036" points="369.8836,782.0093,364.0207,774.0956,365.532,779.5469,360.0808,781.0582,369.8836,782.0093" style="stroke: #A80036; stroke-width: 1.0;"/><text fill="#000000" font-family="sans-serif" font-size="13" lengthAdjust="spacingAndGlyphs" textLength="81" x="311.0542" y="736.0669">(2)terminate</text><!--link q15 to _rejected--><path d="M262.0462,693.1654 C268.8051,727.1908 285.8113,787.3572 325.0542,820 C414.2827,894.2216 778.5746,915.228 909.7246,920.4478 " fill="none" id="q15-_rejected" style="stroke: #A80036; stroke-width: 1.0;"/><polygon fill="#A80036" points="915.0426,920.6559,906.2059,916.3069,910.0464,920.4603,905.893,924.3008,915.0426,920.6559" style="stroke: #A80036; stroke-width: 1.0;"/><text fill="#000000" font-family="sans-serif" font-size="13" lengthAdjust="spacingAndGlyphs" textLength="25" x="326.0542" y="799.5669">(3)*</text><!--link q11 to q13--><path d="M637.1875,515.7937 C625.4766,481.0378 605.4699,416.1973 598.0542,359 C590.357,299.632 595.3657,229.4934 599.4096,190.3421 " fill="none" id="q11-q13" style="stroke: #A80036; stroke-width: 1.0;"/><polygon fill="#A80036" points="599.9472,185.2598,595.0224,193.7889,599.4211,190.232,602.9779,194.6307,599.9472,185.2598" style="stroke: #A80036; stroke-width: 1.0;"/><text fill="#000000" font-family="sans-serif" font-size="13" lengthAdjust="spacingAndGlyphs" textLength="111" x="599.0542" y="355.0669">(1)_not_knockout</text><!--link q11 to q14--><path d="M636.0062,566.0515 C632.7911,575.3044 629.6522,585.9792 628.0542,596 C625.8799,609.6336 626.1376,624.892 627.1346,637.841 " fill="none" id="q11-q14" style="stroke: #A80036; stroke-width: 1.0;"/><polygon fill="#A80036" points="627.5667,642.8665,630.7808,633.5569,627.1383,637.8849,622.8102,634.2423,627.5667,642.8665" style="stroke: #A80036; stroke-width: 1.0;"/><text fill="#000000" font-family="sans-serif" font-size="13" lengthAdjust="spacingAndGlyphs" textLength="83" x="629.0542" y="609.0669">(2)_knockout</text><!--link q11 to _rejected--><path d="M671.2124,556.6053 C685.8642,566.5786 703.9687,580.5198 717.0542,596 C753.5094,639.1272 805.5317,773.1462 837.0542,820 C852.2061,842.5213 855.9604,848.7508 876.0542,867 C886.7006,876.6691 899.1575,885.9547 911.0653,894.054 " fill="none" id="q11-_rejected" style="stroke: #A80036; stroke-width: 1.0;"/><polygon fill="#A80036" points="915.4231,896.9829,910.1846,888.6427,911.2733,894.1939,905.7221,895.2825,915.4231,896.9829" style="stroke: #A80036; stroke-width: 1.0;"/><text fill="#000000" font-family="sans-serif" font-size="13" lengthAdjust="spacingAndGlyphs" textLength="25" x="796.0542" y="736.0669">(3)*</text><!--link q6 to q7--><path d="M1183.9533,167.0153 C1150.169,176.6858 1088.3802,195.1789 1037.0542,215 C991.5436,232.5753 940.4283,256.7048 908.9839,272.0771 " fill="none" id="q6-q7" style="stroke: #A80036; stroke-width: 1.0;"/><polygon fill="#A80036" points="904.1101,274.4668,913.952,274.0963,908.5995,272.2657,910.4302,266.9132,904.1101,274.4668" style="stroke: #A80036; stroke-width: 1.0;"/><text fill="#000000" font-family="sans-serif" font-size="13" lengthAdjust="spacingAndGlyphs" textLength="104" x="1038.0542" y="228.0669">(1)_under_strike</text><!--link q6 to q8--><path d="M1234.323,162.7196 C1286.9464,169.6727 1409.2692,192.7387 1480.0542,262 C1551.6127,332.0182 1578.8152,453.7428 1587.9577,510.3816 " fill="none" id="q6-q8" style="stroke: #A80036; stroke-width: 1.0;"/><polygon fill="#A80036" points="1588.787,515.6557,1591.3404,506.1436,1588.0103,510.7164,1583.4375,507.3863,1588.787,515.6557" style="stroke: #A80036; stroke-width: 1.0;"/><text fill="#000000" font-family="sans-serif" font-size="13" lengthAdjust="spacingAndGlyphs" textLength="95" x="1544.0542" y="355.0669">(2)_over_strike</text><!--link q6 to _rejected--><path d="M1196.1777,185.0519 C1184.4844,210.1554 1169.0542,250.245 1169.0542,287 C1169.0542,287 1169.0542,287 1169.0542,477.5 C1169.0542,653.4637 1210.0062,731.243 1098.0542,867 C1074.8866,895.0938 1035.481,908.8887 1004.2078,915.633 " fill="none" id="q6-_rejected" style="stroke: #A80036; stroke-width: 1.0;"/><polygon fill="#A80036" points="999.2622,916.656,1008.8859,918.7497,1004.1585,915.643,1007.2652,910.9156,999.2622,916.656" style="stroke: #A80036; stroke-width: 1.0;"/><text fill="#000000" font-family="sans-serif" font-size="13" lengthAdjust="spacingAndGlyphs" textLength="25" x="1172.0542" y="545.5669">(3)*</text><!--link q18 to q13--><path d="M645.7435,44.9695 C629.4184,54.207 609.5266,68.68 600.0542,88 C593.8305,100.6936 593.6857,116.2096 595.4659,129.5831 " fill="none" id="q18-q13" style="stroke: #A80036; stroke-width: 1.0;"/><polygon fill="#A80036" points="596.2668,134.784,598.8501,125.28,595.5057,129.8423,590.9434,126.4978,596.2668,134.784" style="stroke: #A80036; stroke-width: 1.0;"/><text fill="#000000" font-family="sans-serif" font-size="13" lengthAdjust="spacingAndGlyphs" textLength="111" x="601.0542" y="101.0669">(1)_not_knockout</text><!--link q18 to q19--><path d="M696.1346,57.3406 C703.9861,66.2754 711.9285,76.93 717.0542,88 C763.4961,188.302 802.8619,533.3124 813.9426,637.7846 " fill="none" id="q18-q19" style="stroke: #A80036; stroke-width: 1.0;"/><polygon fill="#A80036" points="814.4795,642.8677,817.5119,633.4973,813.9542,637.8954,809.5561,634.3377,814.4795,642.8677" style="stroke: #A80036; stroke-width: 1.0;"/><text fill="#000000" font-family="sans-serif" font-size="13" lengthAdjust="spacingAndGlyphs" textLength="83" x="780.0542" y="355.0669">(2)_knockout</text><!--link q18 to _rejected--><path d="M696.1228,33.4575 C851.3682,36.6127 1675.0542,58.1521 1675.0542,160 C1675.0542,160 1675.0542,160 1675.0542,795 C1675.0542,849.0471 1627.6165,847.9072 1577.0542,867 C1472.2318,906.5818 1130.3916,918.1272 1004.3153,921.085 " fill="none" id="q18-_rejected" style="stroke: #A80036; stroke-width: 1.0;"/><polygon fill="#A80036" points="999.1981,921.2031,1008.288,924.9943,1004.1968,921.0877,1008.1034,916.9964,999.1981,921.2031" style="stroke: #A80036; stroke-width: 1.0;"/><text fill="#000000" font-family="sans-serif" font-size="13" lengthAdjust="spacingAndGlyphs" textLength="25" x="1676.0542" y="482.0669">(3)*</text><!--link q4 to q5--><path d="M1377.888,673.3391 C1336.8361,682.5377 1258.1134,702.3806 1239.0542,723 C1228.6944,734.2078 1224.068,750.4588 1222.0871,764.6864 " fill="none" id="q4-q5" style="stroke: #A80036; stroke-width: 1.0;"/><polygon fill="#A80036" points="1221.4713,769.8235,1226.5141,761.3636,1222.0664,764.859,1218.571,760.4114,1221.4713,769.8235" style="stroke: #A80036; stroke-width: 1.0;"/><text fill="#000000" font-family="sans-serif" font-size="13" lengthAdjust="spacingAndGlyphs" textLength="81" x="1240.0542" y="736.0669">(1)day_close</text><!--link q4 to _rejected--><path d="M1408.5664,693.1019 C1416.2773,735.6811 1424.4917,821.8295 1377.0542,867 C1350.4094,892.3714 1108.763,911.686 1004.5416,918.9091 " fill="none" id="q4-_rejected" style="stroke: #A80036; stroke-width: 1.0;"/><polygon fill="#A80036" points="999.3825,919.2645,1008.6363,922.6361,1004.3707,918.9206,1008.0861,914.655,999.3825,919.2645" style="stroke: #A80036; stroke-width: 1.0;"/><text fill="#000000" font-family="sans-serif" font-size="13" lengthAdjust="spacingAndGlyphs" textLength="25" x="1415.0542" y="799.5669">(2)*</text><!--link *start to q1--><path d="M1452.0542,297.3929 C1452.0542,316.0758 1452.0542,355.9843 1452.0542,383.8818 " fill="none" id="*start-q1" style="stroke: #A80036; stroke-width: 1.0;"/><polygon fill="#A80036" points="1452.0542,388.9432,1456.0542,379.9432,1452.0542,383.9432,1448.0542,379.9432,1452.0542,388.9432" style="stroke: #A80036; stroke-width: 1.0;"/><!--link q12 to *end--><path d="M151.1165,930.268 C210.0563,949.7121 355.9872,997.8542 402.5379,1013.2111 " fill="none" id="q12-*end" style="stroke: #A80036; stroke-width: 1.0;"/><polygon fill="#A80036" points="407.4666,1014.8371,400.173,1008.2187,402.7183,1013.2705,397.6665,1015.8159,407.4666,1014.8371" style="stroke: #A80036; stroke-width: 1.0;"/><!--link _rejected to *end--><path d="M914.6813,929.533 C802.7295,949.4355 502.8201,1002.7527 432.1289,1015.32 " fill="none" id="_rejected-*end" style="stroke: #A80036; stroke-width: 1.0;"/><polygon fill="#A80036" points="427.0781,1016.218,436.6393,1018.5807,432.0009,1015.3427,435.2389,1010.7043,427.0781,1016.218" style="stroke: #A80036; stroke-width: 1.0;"/><!--
@startuml 
state q3
state q14
state q1
state q5
state q19
state q7
state q17
state q16
state q10
state q8
state q9
state q13
state q15
state q11
state q6
state q18
state q4
q3 - -> q4:(1)init
q3 - -> _rejected:(2)*
q14 - -> q10:(1)knockout
q14 - -> _rejected:(2)*
q1 - -> q3:(1)_init
q1 - -> _rejected:(2)*
q5 - -> q6:(1)_not_knockout
q5 - -> _rejected:(2)*
q19 - -> q17:(1)knockout
q19 - -> _rejected:(2)*
q7 - -> q9:(1)day_open
q7 - -> q10:(2)terminate
q7 - -> _rejected:(3)*
q17 - -> q12:(1)_accept
q17 - -> _rejected:(2)*
q16 - -> q18:(1)day_close
q16 - -> _rejected:(2)*
q10 - -> q12:(1)_accept
q10 - -> _rejected:(2)*
q8 - -> q4:(1)day_open
q8 - -> _rejected:(2)*
q9 - -> q11:(1)day_close
q9 - -> _rejected:(2)*
q13 - -> q7:(1)_under_strike
q13 - -> q15:(2)_over_strike
q13 - -> _rejected:(3)*
q15 - -> q16:(1)day_open
q15 - -> q17:(2)terminate
q15 - -> _rejected:(3)*
q11 - -> q13:(1)_not_knockout
q11 - -> q14:(2)_knockout
q11 - -> _rejected:(3)*
q6 - -> q7:(1)_under_strike
q6 - -> q8:(2)_over_strike
q6 - -> _rejected:(3)*
q18 - -> q13:(1)_not_knockout
q18 - -> q19:(2)_knockout
q18 - -> _rejected:(3)*
q4 - -> q5:(1)day_close
q4 - -> _rejected:(2)*
[*] - -> q1
state q12
q12 - -> [*]
state _rejected
_rejected - -> [*]
state q3 {
}
state q14 {
}
state q1 {
}
state q5 {
}
state q19 {
}
state q7 {
}
state q17 {
}
state q16 {
}
state q10 {
}
state q8 {
}
state q9 {
}
state q13 {
}
state q15 {
}
state q11 {
}
state q6 {
}
state q18 {
}
state q4 {
}
@enduml

PlantUML version 1.2017.15(Tue Jul 04 01:45:34 JST 2017)
(GPL source distribution)
Java Runtime: OpenJDK Runtime Environment
JVM: OpenJDK 64-Bit Server VM
Java Version: 1.8.0_181-8u181-b13-0ubuntu0.18.04.1-b13
Operating System: Linux
OS Version: 4.15.0-34-generic
Default Encoding: UTF-8
Language: en
Country: US
--></g></svg>