<?xml version="1.0" encoding="UTF-8" standalone="no"?><svg xmlns="http://www.w3.org/2000/svg" xmlns:xlink="http://www.w3.org/1999/xlink" contentScriptType="application/ecmascript" contentStyleType="text/css" height="485px" preserveAspectRatio="none" style="width:1000px;height:485px;" version="1.1" viewBox="0 0 1000 485" width="1000px" zoomAndPan="magnify"><defs><filter height="300%" id="f1azlnlxabohan" width="300%" x="-1" y="-1"><feGaussianBlur result="blurOut" stdDeviation="2.0"/><feColorMatrix in="blurOut" result="blurOut2" type="matrix" values="0 0 0 0 0 0 0 0 0 0 0 0 0 0 0 0 0 0 .4 0"/><feOffset dx="4.0" dy="4.0" in="blurOut2" result="blurOut3"/><feBlend in="SourceGraphic" in2="blurOut3" mode="normal"/></filter></defs><g><rect fill="#FEFECE" filter="url(#f1azlnlxabohan)" height="50" rx="12.5" ry="12.5" style="stroke: #A80036; stroke-width: 1.5;" width="50" x="308" y="343"/><line style="stroke: #A80036; stroke-width: 1.5;" x1="308" x2="358" y1="369.2969" y2="369.2969"/><text fill="#000000" font-family="sans-serif" font-size="14" lengthAdjust="spacingAndGlyphs" textLength="18" x="324" y="360.9951">q6</text><rect fill="#FEFECE" filter="url(#f1azlnlxabohan)" height="50" rx="12.5" ry="12.5" style="stroke: #A80036; stroke-width: 1.5;" width="84" x="434" y="343"/><line style="stroke: #A80036; stroke-width: 1.5;" x1="434" x2="518" y1="369.2969" y2="369.2969"/><text fill="#000000" font-family="sans-serif" font-size="14" lengthAdjust="spacingAndGlyphs" textLength="64" x="444" y="360.9951">_rejected</text><ellipse cx="510" cy="18" fill="#000000" filter="url(#f1azlnlxabohan)" rx="10" ry="10" style="stroke: none; stroke-width: 1.0;"/><ellipse cx="387" cy="464" fill="none" filter="url(#f1azlnlxabohan)" rx="10" ry="10" style="stroke: #000000; stroke-width: 1.0;"/><ellipse cx="387.5" cy="464.5" fill="#000000" rx="6" ry="6" style="stroke: none; stroke-width: 1.0;"/><rect fill="#FEFECE" filter="url(#f1azlnlxabohan)" height="50" rx="12.5" ry="12.5" style="stroke: #A80036; stroke-width: 1.5;" width="50" x="6" y="216"/><line style="stroke: #A80036; stroke-width: 1.5;" x1="6" x2="56" y1="242.2969" y2="242.2969"/><text fill="#000000" font-family="sans-serif" font-size="14" lengthAdjust="spacingAndGlyphs" textLength="18" x="22" y="233.9951">q4</text><rect fill="#FEFECE" filter="url(#f1azlnlxabohan)" height="50" rx="12.5" ry="12.5" style="stroke: #A80036; stroke-width: 1.5;" width="50" x="485" y="89"/><line style="stroke: #A80036; stroke-width: 1.5;" x1="485" x2="535" y1="115.2969" y2="115.2969"/><text fill="#000000" font-family="sans-serif" font-size="14" lengthAdjust="spacingAndGlyphs" textLength="18" x="501" y="106.9951">q2</text><rect fill="#FEFECE" filter="url(#f1azlnlxabohan)" height="50" rx="12.5" ry="12.5" style="stroke: #A80036; stroke-width: 1.5;" width="50" x="485" y="216"/><line style="stroke: #A80036; stroke-width: 1.5;" x1="485" x2="535" y1="242.2969" y2="242.2969"/><text fill="#000000" font-family="sans-serif" font-size="14" lengthAdjust="spacingAndGlyphs" textLength="18" x="501" y="233.9951">q5</text><!--link q4 to q6--><path d="M56.2289,251.6095 C111.5214,274.8617 243.1875,330.2312 302.7789,355.2911 " fill="none" id="q4-q6" style="stroke: #A80036; stroke-width: 1.0;"/><polygon fill="#A80036" points="307.6305,357.3314,300.8849,350.1553,303.0215,355.3931,297.7836,357.5297,307.6305,357.3314" style="stroke: #A80036; stroke-width: 1.0;"/><text fill="#000000" font-family="sans-serif" font-size="13" lengthAdjust="spacingAndGlyphs" textLength="68" x="202" y="309.0669">(1)_accept</text><!--link q4 to q4--><path d="M56.2777,238.3776 C73.7734,237.5829 91,238.457 91,241 C91,243.2847 77.0949,244.2223 61.5823,243.8129 " fill="none" id="q4-q4" style="stroke: #A80036; stroke-width: 1.0;"/><polygon fill="#A80036" points="56.2777,243.6224,65.1284,247.9428,61.2745,243.8018,65.4154,239.948,56.2777,243.6224" style="stroke: #A80036; stroke-width: 1.0;"/><text fill="#000000" font-family="sans-serif" font-size="13" lengthAdjust="spacingAndGlyphs" textLength="76" x="97" y="245.5669">(2)knockout</text><!--link q4 to q4--><path d="M56.0876,237.4865 C101.8322,233.5168 179,234.688 179,241 C179,247.0778 107.4532,248.3892 61.3045,244.9342 " fill="none" id="q4-q4" style="stroke: #A80036; stroke-width: 1.0;"/><polygon fill="#A80036" points="56.0876,244.5135,64.7369,249.2242,61.0714,244.9155,65.3801,241.2501,56.0876,244.5135" style="stroke: #A80036; stroke-width: 1.0;"/><text fill="#000000" font-family="sans-serif" font-size="13" lengthAdjust="spacingAndGlyphs" textLength="80" x="185" y="245.5669">(3)day_open</text><!--link q4 to q4--><path d="M56.0173,236.9334 C123.7693,229.5861 271,230.9417 271,241 C271,250.803 131.151,252.3394 61.3281,245.6094 " fill="none" id="q4-q4" style="stroke: #A80036; stroke-width: 1.0;"/><polygon fill="#A80036" points="56.0173,245.0666,64.5638,249.9613,60.9914,245.5752,65.3775,242.0028,56.0173,245.0666" style="stroke: #A80036; stroke-width: 1.0;"/><text fill="#000000" font-family="sans-serif" font-size="13" lengthAdjust="spacingAndGlyphs" textLength="81" x="277" y="245.5669">(4)day_close</text><!--link q4 to q4--><path d="M56.1085,236.5059 C143.003,225.6821 364,227.1802 364,241 C364,254.5634 151.1279,256.258 61.0816,246.0839 " fill="none" id="q4-q4" style="stroke: #A80036; stroke-width: 1.0;"/><polygon fill="#A80036" points="56.1085,245.4941,64.5748,250.5262,61.0737,246.0829,65.5169,242.5819,56.1085,245.4941" style="stroke: #A80036; stroke-width: 1.0;"/><text fill="#000000" font-family="sans-serif" font-size="13" lengthAdjust="spacingAndGlyphs" textLength="37" x="370" y="245.5669">(5)init</text><!--link q4 to _rejected--><path d="M56.0655,242.6434 C129.4225,247.7711 342.376,265.0145 404,296 C423.7777,305.9446 441.4347,323.3885 454.3132,338.6153 " fill="none" id="q4-_rejected" style="stroke: #A80036; stroke-width: 1.0;"/><polygon fill="#A80036" points="457.8167,342.8432,455.154,333.3611,454.6264,338.9933,448.9942,338.4656,457.8167,342.8432" style="stroke: #A80036; stroke-width: 1.0;"/><text fill="#000000" font-family="sans-serif" font-size="13" lengthAdjust="spacingAndGlyphs" textLength="25" x="429" y="309.0669">(6)*</text><!--link q2 to q4--><path d="M484.9213,120.6493 C403.8591,142.1417 149.0735,209.6945 61.1705,233.0007 " fill="none" id="q2-q4" style="stroke: #A80036; stroke-width: 1.0;"/><polygon fill="#A80036" points="56.1187,234.3401,65.8433,235.8999,60.9517,233.0587,63.793,228.1671,56.1187,234.3401" style="stroke: #A80036; stroke-width: 1.0;"/><text fill="#000000" font-family="sans-serif" font-size="13" lengthAdjust="spacingAndGlyphs" textLength="76" x="301" y="182.0669">(1)knockout</text><!--link q2 to q2--><path d="M535.2777,110.9546 C552.7734,110.0317 570,111.0469 570,114 C570,116.6532 556.0949,117.7421 540.5823,117.2666 " fill="none" id="q2-q2" style="stroke: #A80036; stroke-width: 1.0;"/><polygon fill="#A80036" points="535.2777,117.0454,544.1031,121.4171,540.2734,117.2538,544.4366,113.424,535.2777,117.0454" style="stroke: #A80036; stroke-width: 1.0;"/><text fill="#000000" font-family="sans-serif" font-size="13" lengthAdjust="spacingAndGlyphs" textLength="80" x="576" y="118.5669">(2)day_open</text><!--link q2 to q2--><path d="M535.114,109.953 C581.7955,105.3034 662,106.6523 662,114 C662,121.0893 587.3358,122.5944 540.1568,118.5151 " fill="none" id="q2-q2" style="stroke: #A80036; stroke-width: 1.0;"/><polygon fill="#A80036" points="535.114,118.047,543.7056,122.862,540.0926,118.5093,544.4453,114.8962,535.114,118.047" style="stroke: #A80036; stroke-width: 1.0;"/><text fill="#000000" font-family="sans-serif" font-size="13" lengthAdjust="spacingAndGlyphs" textLength="81" x="668" y="118.5669">(3)day_close</text><!--link q2 to q2--><path d="M535.2652,109.2775 C604.0262,100.7452 755,102.3193 755,114 C755,125.4069 611.0201,127.1755 540.2325,119.3057 " fill="none" id="q2-q2" style="stroke: #A80036; stroke-width: 1.0;"/><polygon fill="#A80036" points="535.2652,118.7225,543.7373,123.7449,540.2311,119.3056,544.6703,115.7995,535.2652,118.7225" style="stroke: #A80036; stroke-width: 1.0;"/><text fill="#000000" font-family="sans-serif" font-size="13" lengthAdjust="spacingAndGlyphs" textLength="37" x="761" y="118.5669">(5)init</text><!--link q2 to q5--><path d="M510,139.0911 C510,159.7035 510,188.9647 510,210.8484 " fill="none" id="q2-q5" style="stroke: #A80036; stroke-width: 1.0;"/><polygon fill="#A80036" points="510,215.961,514,206.961,510,210.961,506,206.961,510,215.961" style="stroke: #A80036; stroke-width: 1.0;"/><text fill="#000000" font-family="sans-serif" font-size="13" lengthAdjust="spacingAndGlyphs" textLength="81" x="511" y="182.0669">(4)terminate</text><!--link q2 to _rejected--><path d="M535.1227,115.8174 C620.7871,122.5845 899.0501,149.4392 952,216 C965.8345,233.3906 965.9706,248.7185 952,266 C898.3246,332.3957 632.8807,357.5226 523.3701,365.1651 " fill="none" id="q2-_rejected" style="stroke: #A80036; stroke-width: 1.0;"/><polygon fill="#A80036" points="518.2746,365.5159,527.5282,368.888,523.2628,365.1723,526.9785,360.9069,518.2746,365.5159" style="stroke: #A80036; stroke-width: 1.0;"/><text fill="#000000" font-family="sans-serif" font-size="13" lengthAdjust="spacingAndGlyphs" textLength="25" x="963" y="245.5669">(6)*</text><!--link q5 to q6--><path d="M484.7314,257.4271 C479.0604,260.6161 472.9551,263.6827 467,266 C408.9114,288.6041 369.0778,247.4391 330,296 C320.779,307.4587 320.6598,323.5772 323.2274,337.6591 " fill="none" id="q5-q6" style="stroke: #A80036; stroke-width: 1.0;"/><polygon fill="#A80036" points="324.283,342.7427,326.3696,333.1174,323.2664,337.8471,318.5367,334.7439,324.283,342.7427" style="stroke: #A80036; stroke-width: 1.0;"/><text fill="#000000" font-family="sans-serif" font-size="13" lengthAdjust="spacingAndGlyphs" textLength="68" x="331" y="309.0669">(1)_accept</text><!--link q5 to q5--><path d="M535.2777,238.3776 C552.7734,237.5829 570,238.457 570,241 C570,243.2847 556.0949,244.2223 540.5823,243.8129 " fill="none" id="q5-q5" style="stroke: #A80036; stroke-width: 1.0;"/><polygon fill="#A80036" points="535.2777,243.6224,544.1284,247.9428,540.2745,243.8018,544.4154,239.948,535.2777,243.6224" style="stroke: #A80036; stroke-width: 1.0;"/><text fill="#000000" font-family="sans-serif" font-size="13" lengthAdjust="spacingAndGlyphs" textLength="80" x="576" y="245.5669">(2)day_open</text><!--link q5 to q5--><path d="M535.114,237.5151 C581.7955,233.5112 662,234.6729 662,241 C662,247.1047 587.3358,248.4007 540.1568,244.888 " fill="none" id="q5-q5" style="stroke: #A80036; stroke-width: 1.0;"/><polygon fill="#A80036" points="535.114,244.4849,543.7665,249.1896,540.0981,244.8835,544.4042,241.2151,535.114,244.4849" style="stroke: #A80036; stroke-width: 1.0;"/><text fill="#000000" font-family="sans-serif" font-size="13" lengthAdjust="spacingAndGlyphs" textLength="81" x="668" y="245.5669">(3)day_close</text><!--link q5 to q5--><path d="M535.2652,236.9334 C604.0262,229.5861 755,230.9417 755,241 C755,250.803 611.5955,252.3394 540.6581,245.6094 " fill="none" id="q5-q5" style="stroke: #A80036; stroke-width: 1.0;"/><polygon fill="#A80036" points="535.2652,245.0666,543.8192,249.948,540.2401,245.5675,544.6206,241.9883,535.2652,245.0666" style="stroke: #A80036; stroke-width: 1.0;"/><text fill="#000000" font-family="sans-serif" font-size="13" lengthAdjust="spacingAndGlyphs" textLength="81" x="761" y="245.5669">(4)terminate</text><!--link q5 to q5--><path d="M535.272,236.5059 C623.0282,225.6821 848,227.1802 848,241 C848,254.5634 631.2993,256.258 540.2963,246.0839 " fill="none" id="q5-q5" style="stroke: #A80036; stroke-width: 1.0;"/><polygon fill="#A80036" points="535.272,245.4941,543.7442,250.5162,540.2379,246.0771,544.677,242.5708,535.272,245.4941" style="stroke: #A80036; stroke-width: 1.0;"/><text fill="#000000" font-family="sans-serif" font-size="13" lengthAdjust="spacingAndGlyphs" textLength="37" x="854" y="245.5669">(5)init</text><!--link q5 to _rejected--><path d="M503.2827,266.0911 C497.7411,286.7905 489.8646,316.2118 483.998,338.125 " fill="none" id="q5-_rejected" style="stroke: #A80036; stroke-width: 1.0;"/><polygon fill="#A80036" points="482.7034,342.961,488.895,335.3017,483.9965,338.1311,481.1672,333.2327,482.7034,342.961" style="stroke: #A80036; stroke-width: 1.0;"/><text fill="#000000" font-family="sans-serif" font-size="13" lengthAdjust="spacingAndGlyphs" textLength="25" x="497" y="309.0669">(6)*</text><!--link *start to q2--><path d="M510,28.2737 C510,41.3608 510,64.5555 510,83.5207 " fill="none" id="*start-q2" style="stroke: #A80036; stroke-width: 1.0;"/><polygon fill="#A80036" points="510,88.7458,514,79.7458,510,83.7458,506,79.7458,510,88.7458" style="stroke: #A80036; stroke-width: 1.0;"/><!--link q6 to *end--><path d="M347.1879,393.2229 C357.5194,411.5901 371.1092,435.7497 379.441,450.5618 " fill="none" id="q6-*end" style="stroke: #A80036; stroke-width: 1.0;"/><polygon fill="#A80036" points="382.0527,455.2048,381.1264,445.3996,379.6013,450.847,374.1539,449.3218,382.0527,455.2048" style="stroke: #A80036; stroke-width: 1.0;"/><!--link _rejected to *end--><path d="M452.6163,393.2229 C434.7273,412.5189 410.9114,438.2079 397.4435,452.7351 " fill="none" id="_rejected-*end" style="stroke: #A80036; stroke-width: 1.0;"/><polygon fill="#A80036" points="393.9327,456.522,402.9849,452.6415,397.3321,452.8554,397.1182,447.2025,393.9327,456.522" style="stroke: #A80036; stroke-width: 1.0;"/><!--
@startuml 
state q4
state q2
state q5
q4 - -> q6:(1)_accept
q4 - -> q4:(2)knockout
q4 - -> q4:(3)day_open
q4 - -> q4:(4)day_close
q4 - -> q4:(5)init
q4 - -> _rejected:(6)*
q2 - -> q4:(1)knockout
q2 - -> q2:(2)day_open
q2 - -> q2:(3)day_close
q2 - -> q5:(4)terminate
q2 - -> q2:(5)init
q2 - -> _rejected:(6)*
q5 - -> q6:(1)_accept
q5 - -> q5:(2)day_open
q5 - -> q5:(3)day_close
q5 - -> q5:(4)terminate
q5 - -> q5:(5)init
q5 - -> _rejected:(6)*
[*] - -> q2
state q6
q6 - -> [*]
state _rejected
_rejected - -> [*]
state q4 {
}
state q2 {
}
state q5 {
}
@enduml

PlantUML version 1.2017.15(Tue Jul 04 01:45:34 JST 2017)
(GPL source distribution)
Java Runtime: OpenJDK Runtime Environment
JVM: OpenJDK 64-Bit Server VM
Java Version: 1.8.0_191-8u191-b12-0ubuntu0.18.04.1-b12
Operating System: Linux
OS Version: 4.15.0-39-generic
Default Encoding: UTF-8
Language: en
Country: US
--></g></svg>