<?xml version="1.0" encoding="UTF-8" standalone="no"?><svg xmlns="http://www.w3.org/2000/svg" xmlns:xlink="http://www.w3.org/1999/xlink" contentScriptType="application/ecmascript" contentStyleType="text/css" height="485px" preserveAspectRatio="none" style="width:1129px;height:485px;" version="1.1" viewBox="0 0 1129 485" width="1129px" zoomAndPan="magnify"><defs><filter height="300%" id="f168metofwp4ui" width="300%" x="-1" y="-1"><feGaussianBlur result="blurOut" stdDeviation="2.0"/><feColorMatrix in="blurOut" result="blurOut2" type="matrix" values="0 0 0 0 0 0 0 0 0 0 0 0 0 0 0 0 0 0 .4 0"/><feOffset dx="4.0" dy="4.0" in="blurOut2" result="blurOut3"/><feBlend in="SourceGraphic" in2="blurOut3" mode="normal"/></filter></defs><g><rect fill="#FEFECE" filter="url(#f168metofwp4ui)" height="50" rx="12.5" ry="12.5" style="stroke: #A80036; stroke-width: 1.5;" width="84" x="716.2022" y="343"/><line style="stroke: #A80036; stroke-width: 1.5;" x1="716.2022" x2="800.2022" y1="369.2969" y2="369.2969"/><text fill="#000000" font-family="sans-serif" font-size="14" lengthAdjust="spacingAndGlyphs" textLength="64" x="726.2022" y="360.9951">_rejected</text><rect fill="#FEFECE" filter="url(#f168metofwp4ui)" height="50" rx="12.5" ry="12.5" style="stroke: #A80036; stroke-width: 1.5;" width="50" x="602.2022" y="343"/><line style="stroke: #A80036; stroke-width: 1.5;" x1="602.2022" x2="652.2022" y1="369.2969" y2="369.2969"/><text fill="#000000" font-family="sans-serif" font-size="14" lengthAdjust="spacingAndGlyphs" textLength="18" x="618.2022" y="360.9951">q7</text><ellipse cx="1092.2022" cy="18" fill="#000000" filter="url(#f168metofwp4ui)" rx="10" ry="10" style="stroke: none; stroke-width: 1.0;"/><ellipse cx="677.2022" cy="464" fill="none" filter="url(#f168metofwp4ui)" rx="10" ry="10" style="stroke: #000000; stroke-width: 1.0;"/><ellipse cx="677.7022" cy="464.5" fill="#000000" rx="6" ry="6" style="stroke: none; stroke-width: 1.0;"/><rect fill="#FEFECE" filter="url(#f168metofwp4ui)" height="50" rx="12.5" ry="12.5" style="stroke: #A80036; stroke-width: 1.5;" width="50" x="1067.2022" y="89"/><line style="stroke: #A80036; stroke-width: 1.5;" x1="1067.2022" x2="1117.2022" y1="115.2969" y2="115.2969"/><text fill="#000000" font-family="sans-serif" font-size="14" lengthAdjust="spacingAndGlyphs" textLength="18" x="1083.2022" y="106.9951">q2</text><rect fill="#FEFECE" filter="url(#f168metofwp4ui)" height="50" rx="12.5" ry="12.5" style="stroke: #A80036; stroke-width: 1.5;" width="50" x="573.2022" y="89"/><line style="stroke: #A80036; stroke-width: 1.5;" x1="573.2022" x2="623.2022" y1="115.2969" y2="115.2969"/><text fill="#000000" font-family="sans-serif" font-size="14" lengthAdjust="spacingAndGlyphs" textLength="18" x="589.2022" y="106.9951">q5</text><rect fill="#FEFECE" filter="url(#f168metofwp4ui)" height="50" rx="12.5" ry="12.5" style="stroke: #A80036; stroke-width: 1.5;" width="50" x="412.2022" y="216"/><line style="stroke: #A80036; stroke-width: 1.5;" x1="412.2022" x2="462.2022" y1="242.2969" y2="242.2969"/><text fill="#000000" font-family="sans-serif" font-size="14" lengthAdjust="spacingAndGlyphs" textLength="18" x="428.2022" y="233.9951">q6</text><rect fill="#FEFECE" filter="url(#f168metofwp4ui)" height="50" rx="12.5" ry="12.5" style="stroke: #A80036; stroke-width: 1.5;" width="50" x="867.2022" y="216"/><line style="stroke: #A80036; stroke-width: 1.5;" x1="867.2022" x2="917.2022" y1="242.2969" y2="242.2969"/><text fill="#000000" font-family="sans-serif" font-size="14" lengthAdjust="spacingAndGlyphs" textLength="18" x="883.2022" y="233.9951">q4</text><!--link q2 to q4--><path d="M1072.2121,139.169 C1059.2145,154.2721 1041.1972,173.0087 1022.2022,186 C990.9724,207.3591 950.1282,222.9597 922.6251,231.9789 " fill="none" id="q2-q4" style="stroke: #A80036; stroke-width: 1.0;"/><polygon fill="#A80036" points="917.6502,233.5864,927.4441,234.6255,922.408,232.0491,924.9844,227.013,917.6502,233.5864" style="stroke: #A80036; stroke-width: 1.0;"/><text fill="#000000" font-family="sans-serif" font-size="13" lengthAdjust="spacingAndGlyphs" textLength="37" x="1042.2022" y="182.0669">(1)init</text><!--link q2 to _rejected--><path d="M1096.4452,139.0813 C1097.6264,153.7866 1096.7281,172.1368 1088.2022,186 C1024.7739,289.1353 880.6026,338.2671 805.5694,357.5774 " fill="none" id="q2-_rejected" style="stroke: #A80036; stroke-width: 1.0;"/><polygon fill="#A80036" points="800.2886,358.9165,809.9957,360.5816,805.1352,357.6875,808.0293,352.827,800.2886,358.9165" style="stroke: #A80036; stroke-width: 1.0;"/><text fill="#000000" font-family="sans-serif" font-size="13" lengthAdjust="spacingAndGlyphs" textLength="25" x="1065.2022" y="245.5669">(2)*</text><!--link q5 to q6--><path d="M573.018,114.8956 C477.1189,118.5603 138.5783,133.913 107.2022,169 C65.8592,215.2327 318.1625,234.2211 407.0533,239.4225 " fill="none" id="q5-q6" style="stroke: #A80036; stroke-width: 1.0;"/><polygon fill="#A80036" points="412.1673,239.7171,403.4123,235.2061,407.1756,239.4295,402.9521,243.1928,412.1673,239.7171" style="stroke: #A80036; stroke-width: 1.0;"/><text fill="#000000" font-family="sans-serif" font-size="13" lengthAdjust="spacingAndGlyphs" textLength="285" x="108.2022" y="182.0669">(1)knockout[ _data.price &gt; _data.KO_PRICE ]</text><!--link q5 to q6--><path d="M573.1249,118.7297 C531.406,127.1643 450.687,146.0845 434.2022,169 C425.6782,180.8492 425.547,196.8528 427.929,210.7629 " fill="none" id="q5-q6" style="stroke: #A80036; stroke-width: 1.0;"/><polygon fill="#A80036" points="428.9094,215.7814,431.1095,206.1814,427.9507,210.8742,423.258,207.7154,428.9094,215.7814" style="stroke: #A80036; stroke-width: 1.0;"/><text fill="#000000" font-family="sans-serif" font-size="13" lengthAdjust="spacingAndGlyphs" textLength="296" x="435.2022" y="182.0669">(2)knockout[ _data.price &lt;= _data.KO_PRICE ]</text><!--link q5 to q6--><path d="M573.0523,114.4131 C465.8169,116.4297 50.5128,126.9253 12.2022,169 C-42.4859,229.0613 301.1872,239.0341 406.935,240.6782 " fill="none" id="q5-q6" style="stroke: #A80036; stroke-width: 1.0;"/><polygon fill="#A80036" points="412.0841,240.7545,403.1445,236.6212,407.0847,240.6802,403.0257,244.6203,412.0841,240.7545" style="stroke: #A80036; stroke-width: 1.0;"/><text fill="#000000" font-family="sans-serif" font-size="13" lengthAdjust="spacingAndGlyphs" textLength="81" x="13.2022" y="182.0669">(4)terminate</text><!--link q5 to q4--><path d="M623.2703,119.5062 C658.5912,127.7497 724.5717,144.9425 777.2022,169 C807.7307,182.9546 839.905,203.6829 862.4336,219.3201 " fill="none" id="q5-q4" style="stroke: #A80036; stroke-width: 1.0;"/><polygon fill="#A80036" points="866.8074,222.3761,861.7211,213.9423,862.7088,219.5122,857.1389,220.5,866.8074,222.3761" style="stroke: #A80036; stroke-width: 1.0;"/><text fill="#000000" font-family="sans-serif" font-size="13" lengthAdjust="spacingAndGlyphs" textLength="80" x="807.2022" y="182.0669">(3)day_open</text><!--link q4 to q5--><path d="M901.4621,215.9714 C905.3583,200.7315 906.8541,181.7977 896.2022,169 C862.3347,128.3098 697.5398,117.605 628.6088,114.8874 " fill="none" id="q4-q5" style="stroke: #A80036; stroke-width: 1.0;"/><polygon fill="#A80036" points="623.4206,114.6909,632.2627,119.0287,628.417,114.8802,632.5656,111.0345,623.4206,114.6909" style="stroke: #A80036; stroke-width: 1.0;"/><text fill="#000000" font-family="sans-serif" font-size="13" lengthAdjust="spacingAndGlyphs" textLength="81" x="904.2022" y="182.0669">(1)day_close</text><!--link q5 to _rejected--><path d="M623.2397,116.3246 C655.0324,120.7191 709.0142,133.297 736.2022,169 C773.7398,218.294 769.6687,295.4239 763.7338,337.7254 " fill="none" id="q5-_rejected" style="stroke: #A80036; stroke-width: 1.0;"/><polygon fill="#A80036" points="763.0035,342.7073,768.2667,334.3827,763.7288,337.7602,760.3513,333.2223,763.0035,342.7073" style="stroke: #A80036; stroke-width: 1.0;"/><text fill="#000000" font-family="sans-serif" font-size="13" lengthAdjust="spacingAndGlyphs" textLength="25" x="768.2022" y="245.5669">(5)*</text><!--link q6 to q7--><path d="M462.4328,257.8646 C497.4503,281.2711 560.6548,323.5183 597.7759,348.3309 " fill="none" id="q6-q7" style="stroke: #A80036; stroke-width: 1.0;"/><polygon fill="#A80036" points="602.17,351.2679,596.9105,342.941,598.0131,348.4893,592.4648,349.592,602.17,351.2679" style="stroke: #A80036; stroke-width: 1.0;"/><text fill="#000000" font-family="sans-serif" font-size="13" lengthAdjust="spacingAndGlyphs" textLength="68" x="545.2022" y="309.0669">(1)_accept</text><!--link q6 to _rejected--><path d="M462.2755,246.7763 C498.3549,255.4615 566.6809,273.3114 622.2022,296 C652.9445,308.5627 685.8983,325.9018 711.6672,340.4164 " fill="none" id="q6-_rejected" style="stroke: #A80036; stroke-width: 1.0;"/><polygon fill="#A80036" points="716.0655,342.9057,710.2031,334.9917,711.7141,340.443,706.2627,341.954,716.0655,342.9057" style="stroke: #A80036; stroke-width: 1.0;"/><text fill="#000000" font-family="sans-serif" font-size="13" lengthAdjust="spacingAndGlyphs" textLength="25" x="658.2022" y="309.0669">(2)*</text><!--link q4 to _rejected--><path d="M866.9978,264.8877 C844.6891,286.0311 812.0872,316.9299 788.3923,339.387 " fill="none" id="q4-_rejected" style="stroke: #A80036; stroke-width: 1.0;"/><polygon fill="#A80036" points="784.6688,342.916,793.9527,339.6284,788.2979,339.4766,788.4497,333.8218,784.6688,342.916" style="stroke: #A80036; stroke-width: 1.0;"/><text fill="#000000" font-family="sans-serif" font-size="13" lengthAdjust="spacingAndGlyphs" textLength="25" x="834.2022" y="309.0669">(2)*</text><!--link *start to q2--><path d="M1092.2022,28.2737 C1092.2022,41.3608 1092.2022,64.5555 1092.2022,83.5207 " fill="none" id="*start-q2" style="stroke: #A80036; stroke-width: 1.0;"/><polygon fill="#A80036" points="1092.2022,88.7458,1096.2022,79.7458,1092.2022,83.7458,1088.2022,79.7458,1092.2022,88.7458" style="stroke: #A80036; stroke-width: 1.0;"/><!--link q7 to *end--><path d="M640.3391,393.2229 C649.8014,411.3904 662.2153,435.2252 669.9499,450.0755 " fill="none" id="q7-*end" style="stroke: #A80036; stroke-width: 1.0;"/><polygon fill="#A80036" points="672.3825,454.7461,671.7727,444.9161,670.0728,450.3115,664.6774,448.6117,672.3825,454.7461" style="stroke: #A80036; stroke-width: 1.0;"/><!--link _rejected to *end--><path d="M736.9204,393.2229 C720.9485,412.1526 699.7853,437.2349 687.4151,451.8959 " fill="none" id="_rejected-*end" style="stroke: #A80036; stroke-width: 1.0;"/><polygon fill="#A80036" points="683.8738,456.0929,692.7349,451.7939,687.0982,452.2715,686.6206,446.6348,683.8738,456.0929" style="stroke: #A80036; stroke-width: 1.0;"/><!--
@startuml 
state q2
state q5
state q6
state q4
q2 - -> q4:(1)init
q2 - -> _rejected:(2)*
q5 - -> q6:(1)knockout[ _data.price > _data.KO_PRICE ]
q5 - -> q6:(2)knockout[ _data.price <= _data.KO_PRICE ]
q5 - -> q4:(3)day_open
q5 - -> q6:(4)terminate
q5 - -> _rejected:(5)*
q6 - -> q7:(1)_accept
q6 - -> _rejected:(2)*
q4 - -> q5:(1)day_close
q4 - -> _rejected:(2)*
[*] - -> q2
state q7
q7 - -> [*]
state _rejected
_rejected - -> [*]
state q2 {
}
state q5 {
}
state q6 {
}
state q4 {
}
@enduml

PlantUML version 1.2017.15(Tue Jul 04 01:45:34 JST 2017)
(GPL source distribution)
Java Runtime: OpenJDK Runtime Environment
JVM: OpenJDK 64-Bit Server VM
Java Version: 1.8.0_181-8u181-b13-0ubuntu0.18.04.1-b13
Operating System: Linux
OS Version: 4.15.0-34-generic
Default Encoding: UTF-8
Language: en
Country: US
--></g></svg>