<?xml version="1.0" encoding="UTF-8" standalone="no"?><svg xmlns="http://www.w3.org/2000/svg" xmlns:xlink="http://www.w3.org/1999/xlink" contentScriptType="application/ecmascript" contentStyleType="text/css" height="612px" preserveAspectRatio="none" style="width:903px;height:612px;" version="1.1" viewBox="0 0 903 612" width="903px" zoomAndPan="magnify"><defs><filter height="300%" id="f1apjbb8dfnom0" width="300%" x="-1" y="-1"><feGaussianBlur result="blurOut" stdDeviation="2.0"/><feColorMatrix in="blurOut" result="blurOut2" type="matrix" values="0 0 0 0 0 0 0 0 0 0 0 0 0 0 0 0 0 0 .4 0"/><feOffset dx="4.0" dy="4.0" in="blurOut2" result="blurOut3"/><feBlend in="SourceGraphic" in2="blurOut3" mode="normal"/></filter></defs><g><rect fill="#FEFECE" filter="url(#f1apjbb8dfnom0)" height="50" rx="12.5" ry="12.5" style="stroke: #A80036; stroke-width: 1.5;" width="50" x="248" y="470"/><line style="stroke: #A80036; stroke-width: 1.5;" x1="248" x2="298" y1="496.2969" y2="496.2969"/><text fill="#000000" font-family="sans-serif" font-size="14" lengthAdjust="spacingAndGlyphs" textLength="18" x="264" y="487.9951">q6</text><ellipse cx="272" cy="18" fill="#000000" filter="url(#f1apjbb8dfnom0)" rx="10" ry="10" style="stroke: none; stroke-width: 1.0;"/><ellipse cx="273" cy="591" fill="none" filter="url(#f1apjbb8dfnom0)" rx="10" ry="10" style="stroke: #000000; stroke-width: 1.0;"/><ellipse cx="273.5" cy="591.5" fill="#000000" rx="6" ry="6" style="stroke: none; stroke-width: 1.0;"/><rect fill="#FEFECE" filter="url(#f1apjbb8dfnom0)" height="50" rx="12.5" ry="12.5" style="stroke: #A80036; stroke-width: 1.5;" width="50" x="247" y="89"/><line style="stroke: #A80036; stroke-width: 1.5;" x1="247" x2="297" y1="115.2969" y2="115.2969"/><text fill="#000000" font-family="sans-serif" font-size="14" lengthAdjust="spacingAndGlyphs" textLength="18" x="263" y="106.9951">q1</text><rect fill="#FEFECE" filter="url(#f1apjbb8dfnom0)" height="50" rx="12.5" ry="12.5" style="stroke: #A80036; stroke-width: 1.5;" width="50" x="247" y="216"/><line style="stroke: #A80036; stroke-width: 1.5;" x1="247" x2="297" y1="242.2969" y2="242.2969"/><text fill="#000000" font-family="sans-serif" font-size="14" lengthAdjust="spacingAndGlyphs" textLength="18" x="263" y="233.9951">q2</text><rect fill="#FEFECE" filter="url(#f1apjbb8dfnom0)" height="50" rx="12.5" ry="12.5" style="stroke: #A80036; stroke-width: 1.5;" width="50" x="6" y="343"/><line style="stroke: #A80036; stroke-width: 1.5;" x1="6" x2="56" y1="369.2969" y2="369.2969"/><text fill="#000000" font-family="sans-serif" font-size="14" lengthAdjust="spacingAndGlyphs" textLength="18" x="22" y="360.9951">q5</text><rect fill="#FEFECE" filter="url(#f1apjbb8dfnom0)" height="50" rx="12.5" ry="12.5" style="stroke: #A80036; stroke-width: 1.5;" width="50" x="490" y="343"/><line style="stroke: #A80036; stroke-width: 1.5;" x1="490" x2="540" y1="369.2969" y2="369.2969"/><text fill="#000000" font-family="sans-serif" font-size="14" lengthAdjust="spacingAndGlyphs" textLength="18" x="506" y="360.9951">q4</text><!--link q1 to q2--><path d="M272,139.0911 C272,159.7035 272,188.9647 272,210.8484 " fill="none" id="q1-q2" style="stroke: #A80036; stroke-width: 1.0;"/><polygon fill="#A80036" points="272,215.961,276,206.961,272,210.961,268,206.961,272,215.961" style="stroke: #A80036; stroke-width: 1.0;"/><text fill="#000000" font-family="sans-serif" font-size="13" lengthAdjust="spacingAndGlyphs" textLength="44" x="273" y="182.0669">(1)_init</text><!--link q2 to q4--><path d="M297.036,253.0312 C335.3389,271.5885 410.61,308.652 473,343 C477.0397,345.224 481.2569,347.6303 485.3943,350.0414 " fill="none" id="q2-q4" style="stroke: #A80036; stroke-width: 1.0;"/><polygon fill="#A80036" points="489.8402,352.6511,484.1035,344.6454,485.5282,350.12,480.0537,351.5446,489.8402,352.6511" style="stroke: #A80036; stroke-width: 1.0;"/><text fill="#000000" font-family="sans-serif" font-size="13" lengthAdjust="spacingAndGlyphs" textLength="76" x="413" y="309.0669">(1)knockout</text><!--link q2 to q2--><path d="M297.2777,237.5034 C314.7734,236.4438 332,237.6094 332,241 C332,244.0463 318.0949,245.2965 302.5823,244.7506 " fill="none" id="q2-q2" style="stroke: #A80036; stroke-width: 1.0;"/><polygon fill="#A80036" points="297.2777,244.4966,306.0761,248.9225,302.272,244.7357,306.4587,240.9316,297.2777,244.4966" style="stroke: #A80036; stroke-width: 1.0;"/><text fill="#000000" font-family="sans-serif" font-size="13" lengthAdjust="spacingAndGlyphs" textLength="80" x="338" y="245.5669">(2)day_open</text><!--link q2 to q2--><path d="M297.114,236.3535 C343.7955,231.015 424,232.5638 424,241 C424,249.1396 349.3358,250.8676 302.1568,246.184 " fill="none" id="q2-q2" style="stroke: #A80036; stroke-width: 1.0;"/><polygon fill="#A80036" points="297.114,245.6465,305.6392,250.5782,302.0858,246.1766,306.4874,242.6233,297.114,245.6465" style="stroke: #A80036; stroke-width: 1.0;"/><text fill="#000000" font-family="sans-serif" font-size="13" lengthAdjust="spacingAndGlyphs" textLength="81" x="430" y="245.5669">(3)day_close</text><!--link q2 to q2--><path d="M297.2652,235.5779 C366.0262,225.7815 517,227.5889 517,241 C517,254.0968 373.0201,256.1274 302.2325,247.0918 " fill="none" id="q2-q2" style="stroke: #A80036; stroke-width: 1.0;"/><polygon fill="#A80036" points="297.2652,246.4221,305.65,251.5889,302.2204,247.0902,306.719,243.6606,297.2652,246.4221" style="stroke: #A80036; stroke-width: 1.0;"/><text fill="#000000" font-family="sans-serif" font-size="13" lengthAdjust="spacingAndGlyphs" textLength="37" x="523" y="245.5669">(5)init</text><!--link q2 to q5--><path d="M246.6643,254.3512 C201.8247,277.9803 108.7175,327.0452 60.8462,352.2719 " fill="none" id="q2-q5" style="stroke: #A80036; stroke-width: 1.0;"/><polygon fill="#A80036" points="56.3579,354.6371,66.1848,353.9798,60.7812,352.306,62.455,346.9024,56.3579,354.6371" style="stroke: #A80036; stroke-width: 1.0;"/><text fill="#000000" font-family="sans-serif" font-size="13" lengthAdjust="spacingAndGlyphs" textLength="81" x="167" y="309.0669">(4)terminate</text><!--link q5 to q6--><path d="M56.4408,381.3512 C101.584,405.042 195.4486,454.3015 243.4055,479.469 " fill="none" id="q5-q6" style="stroke: #A80036; stroke-width: 1.0;"/><polygon fill="#A80036" points="247.9,481.8277,241.7896,474.1035,243.4727,479.5042,238.072,481.1872,247.9,481.8277" style="stroke: #A80036; stroke-width: 1.0;"/><text fill="#000000" font-family="sans-serif" font-size="13" lengthAdjust="spacingAndGlyphs" textLength="68" x="168" y="436.0669">(1)_accept</text><!--link q5 to q5--><path d="M56.2777,365.3776 C73.7734,364.5829 91,365.457 91,368 C91,370.2847 77.0949,371.2223 61.5823,370.8129 " fill="none" id="q5-q5" style="stroke: #A80036; stroke-width: 1.0;"/><polygon fill="#A80036" points="56.2777,370.6224,65.1284,374.9428,61.2745,370.8018,65.4154,366.948,56.2777,370.6224" style="stroke: #A80036; stroke-width: 1.0;"/><text fill="#000000" font-family="sans-serif" font-size="13" lengthAdjust="spacingAndGlyphs" textLength="80" x="97" y="372.5669">(2)day_open</text><!--link q5 to q5--><path d="M56.114,364.5151 C102.7955,360.5112 183,361.6729 183,368 C183,374.1047 108.3358,375.4007 61.1568,371.888 " fill="none" id="q5-q5" style="stroke: #A80036; stroke-width: 1.0;"/><polygon fill="#A80036" points="56.114,371.4849,64.7665,376.1896,61.0981,371.8835,65.4042,368.2151,56.114,371.4849" style="stroke: #A80036; stroke-width: 1.0;"/><text fill="#000000" font-family="sans-serif" font-size="13" lengthAdjust="spacingAndGlyphs" textLength="81" x="189" y="372.5669">(3)day_close</text><!--link q5 to q5--><path d="M56.2652,363.9334 C125.0262,356.5861 276,357.9417 276,368 C276,377.803 132.5955,379.3394 61.6581,372.6094 " fill="none" id="q5-q5" style="stroke: #A80036; stroke-width: 1.0;"/><polygon fill="#A80036" points="56.2652,372.0666,64.8192,376.948,61.2401,372.5675,65.6206,368.9883,56.2652,372.0666" style="stroke: #A80036; stroke-width: 1.0;"/><text fill="#000000" font-family="sans-serif" font-size="13" lengthAdjust="spacingAndGlyphs" textLength="81" x="282" y="372.5669">(4)terminate</text><!--link q5 to q5--><path d="M56.272,363.5059 C144.0282,352.6821 369,354.1802 369,368 C369,381.5634 152.2993,383.258 61.2963,373.0839 " fill="none" id="q5-q5" style="stroke: #A80036; stroke-width: 1.0;"/><polygon fill="#A80036" points="56.272,372.4941,64.7442,377.5162,61.2379,373.0771,65.677,369.5708,56.272,372.4941" style="stroke: #A80036; stroke-width: 1.0;"/><text fill="#000000" font-family="sans-serif" font-size="13" lengthAdjust="spacingAndGlyphs" textLength="37" x="375" y="372.5669">(5)init</text><!--link q4 to q6--><path d="M489.8356,383.3405 C484.3266,386.5972 478.4978,389.966 473,393 C413.4813,425.8454 342.2304,461.2802 302.8593,480.5308 " fill="none" id="q4-q6" style="stroke: #A80036; stroke-width: 1.0;"/><polygon fill="#A80036" points="298.219,482.7969,308.0615,482.4417,302.7119,480.6028,304.5508,475.2532,298.219,482.7969" style="stroke: #A80036; stroke-width: 1.0;"/><text fill="#000000" font-family="sans-serif" font-size="13" lengthAdjust="spacingAndGlyphs" textLength="68" x="414" y="436.0669">(1)_accept</text><!--link q4 to q4--><path d="M540.2777,365.3776 C557.7734,364.5829 575,365.457 575,368 C575,370.2847 561.0949,371.2223 545.5823,370.8129 " fill="none" id="q4-q4" style="stroke: #A80036; stroke-width: 1.0;"/><polygon fill="#A80036" points="540.2777,370.6224,549.1284,374.9428,545.2745,370.8018,549.4154,366.948,540.2777,370.6224" style="stroke: #A80036; stroke-width: 1.0;"/><text fill="#000000" font-family="sans-serif" font-size="13" lengthAdjust="spacingAndGlyphs" textLength="76" x="581" y="372.5669">(2)knockout</text><!--link q4 to q4--><path d="M540.0876,364.4865 C585.8322,360.5168 663,361.688 663,368 C663,374.0778 591.4532,375.3892 545.3045,371.9342 " fill="none" id="q4-q4" style="stroke: #A80036; stroke-width: 1.0;"/><polygon fill="#A80036" points="540.0876,371.5135,548.7369,376.2242,545.0714,371.9155,549.3801,368.2501,540.0876,371.5135" style="stroke: #A80036; stroke-width: 1.0;"/><text fill="#000000" font-family="sans-serif" font-size="13" lengthAdjust="spacingAndGlyphs" textLength="80" x="669" y="372.5669">(3)day_open</text><!--link q4 to q4--><path d="M540.0173,363.9334 C607.7693,356.5861 755,357.9417 755,368 C755,377.803 615.151,379.3394 545.3281,372.6094 " fill="none" id="q4-q4" style="stroke: #A80036; stroke-width: 1.0;"/><polygon fill="#A80036" points="540.0173,372.0666,548.5638,376.9613,544.9914,372.5752,549.3775,369.0028,540.0173,372.0666" style="stroke: #A80036; stroke-width: 1.0;"/><text fill="#000000" font-family="sans-serif" font-size="13" lengthAdjust="spacingAndGlyphs" textLength="81" x="761" y="372.5669">(4)day_close</text><!--link q4 to q4--><path d="M540.1085,363.5059 C627.003,352.6821 848,354.1802 848,368 C848,381.5634 635.1279,383.258 545.0816,373.0839 " fill="none" id="q4-q4" style="stroke: #A80036; stroke-width: 1.0;"/><polygon fill="#A80036" points="540.1085,372.4941,548.5748,377.5262,545.0737,373.0829,549.5169,369.5819,540.1085,372.4941" style="stroke: #A80036; stroke-width: 1.0;"/><text fill="#000000" font-family="sans-serif" font-size="13" lengthAdjust="spacingAndGlyphs" textLength="37" x="854" y="372.5669">(5)init</text><!--link *start to q1--><path d="M272,28.2737 C272,41.3608 272,64.5555 272,83.5207 " fill="none" id="*start-q1" style="stroke: #A80036; stroke-width: 1.0;"/><polygon fill="#A80036" points="272,88.7458,276,79.7458,272,83.7458,268,79.7458,272,88.7458" style="stroke: #A80036; stroke-width: 1.0;"/><!--link q6 to *end--><path d="M273,520.2229 C273,537.8366 273,560.7774 273,575.6928 " fill="none" id="q6-*end" style="stroke: #A80036; stroke-width: 1.0;"/><polygon fill="#A80036" points="273,580.8002,277,571.8002,273,575.8002,269,571.8002,273,580.8002" style="stroke: #A80036; stroke-width: 1.0;"/><!--
@startuml 
state q1
state q2
state q5
state q4
q1 - -> q2:(1)_init
q2 - -> q4:(1)knockout
q2 - -> q2:(2)day_open
q2 - -> q2:(3)day_close
q2 - -> q5:(4)terminate
q2 - -> q2:(5)init
q5 - -> q6:(1)_accept
q5 - -> q5:(2)day_open
q5 - -> q5:(3)day_close
q5 - -> q5:(4)terminate
q5 - -> q5:(5)init
q4 - -> q6:(1)_accept
q4 - -> q4:(2)knockout
q4 - -> q4:(3)day_open
q4 - -> q4:(4)day_close
q4 - -> q4:(5)init
[*] - -> q1
state q6
q6 - -> [*]
state q1 {
}
state q2 {
}
state q5 {
}
state q4 {
}
@enduml

PlantUML version 1.2017.15(Tue Jul 04 01:45:34 JST 2017)
(GPL source distribution)
Java Runtime: OpenJDK Runtime Environment
JVM: OpenJDK 64-Bit Server VM
Java Version: 1.8.0_181-8u181-b13-0ubuntu0.18.04.1-b13
Operating System: Linux
OS Version: 4.15.0-34-generic
Default Encoding: UTF-8
Language: en
Country: US
--></g></svg>