<?xml version="1.0" encoding="UTF-8" standalone="no"?><svg xmlns="http://www.w3.org/2000/svg" xmlns:xlink="http://www.w3.org/1999/xlink" contentScriptType="application/ecmascript" contentStyleType="text/css" height="1039px" preserveAspectRatio="none" style="width:1572px;height:1039px;" version="1.1" viewBox="0 0 1572 1039" width="1572px" zoomAndPan="magnify"><defs><filter height="300%" id="f3w662htt2a6j" width="300%" x="-1" y="-1"><feGaussianBlur result="blurOut" stdDeviation="2.0"/><feColorMatrix in="blurOut" result="blurOut2" type="matrix" values="0 0 0 0 0 0 0 0 0 0 0 0 0 0 0 0 0 0 .4 0"/><feOffset dx="4.0" dy="4.0" in="blurOut2" result="blurOut3"/><feBlend in="SourceGraphic" in2="blurOut3" mode="normal"/></filter></defs><g><rect fill="#FEFECE" filter="url(#f3w662htt2a6j)" height="50" rx="12.5" ry="12.5" style="stroke: #A80036; stroke-width: 1.5;" width="84" x="789" y="897"/><line style="stroke: #A80036; stroke-width: 1.5;" x1="789" x2="873" y1="923.2969" y2="923.2969"/><text fill="#000000" font-family="sans-serif" font-size="14" lengthAdjust="spacingAndGlyphs" textLength="64" x="799" y="914.9951">_rejected</text><rect fill="#FEFECE" filter="url(#f3w662htt2a6j)" height="50" rx="12.5" ry="12.5" style="stroke: #A80036; stroke-width: 1.5;" width="50" x="154" y="897"/><line style="stroke: #A80036; stroke-width: 1.5;" x1="154" x2="204" y1="923.2969" y2="923.2969"/><text fill="#000000" font-family="sans-serif" font-size="14" lengthAdjust="spacingAndGlyphs" textLength="27" x="165.5" y="914.9951">q12</text><ellipse cx="1391" cy="414" fill="#000000" filter="url(#f3w662htt2a6j)" rx="10" ry="10" style="stroke: none; stroke-width: 1.0;"/><ellipse cx="504" cy="1018" fill="none" filter="url(#f3w662htt2a6j)" rx="10" ry="10" style="stroke: #000000; stroke-width: 1.0;"/><ellipse cx="504.5" cy="1018.5" fill="#000000" rx="6" ry="6" style="stroke: none; stroke-width: 1.0;"/><rect fill="#FEFECE" filter="url(#f3w662htt2a6j)" height="50" rx="12.5" ry="12.5" style="stroke: #A80036; stroke-width: 1.5;" width="50" x="1334" y="516"/><line style="stroke: #A80036; stroke-width: 1.5;" x1="1334" x2="1384" y1="542.2969" y2="542.2969"/><text fill="#000000" font-family="sans-serif" font-size="14" lengthAdjust="spacingAndGlyphs" textLength="18" x="1350" y="533.9951">q3</text><rect fill="#FEFECE" filter="url(#f3w662htt2a6j)" height="50" rx="12.5" ry="12.5" style="stroke: #A80036; stroke-width: 1.5;" width="50" x="580" y="643"/><line style="stroke: #A80036; stroke-width: 1.5;" x1="580" x2="630" y1="669.2969" y2="669.2969"/><text fill="#000000" font-family="sans-serif" font-size="14" lengthAdjust="spacingAndGlyphs" textLength="27" x="591.5" y="660.9951">q14</text><rect fill="#FEFECE" filter="url(#f3w662htt2a6j)" height="50" rx="12.5" ry="12.5" style="stroke: #A80036; stroke-width: 1.5;" width="50" x="1220" y="770"/><line style="stroke: #A80036; stroke-width: 1.5;" x1="1220" x2="1270" y1="796.2969" y2="796.2969"/><text fill="#000000" font-family="sans-serif" font-size="14" lengthAdjust="spacingAndGlyphs" textLength="18" x="1236" y="787.9951">q5</text><rect fill="#FEFECE" filter="url(#f3w662htt2a6j)" height="50" rx="12.5" ry="12.5" style="stroke: #A80036; stroke-width: 1.5;" width="50" x="964" y="643"/><line style="stroke: #A80036; stroke-width: 1.5;" x1="964" x2="1014" y1="669.2969" y2="669.2969"/><text fill="#000000" font-family="sans-serif" font-size="14" lengthAdjust="spacingAndGlyphs" textLength="27" x="975.5" y="660.9951">q19</text><rect fill="#FEFECE" filter="url(#f3w662htt2a6j)" height="50" rx="12.5" ry="12.5" style="stroke: #A80036; stroke-width: 1.5;" width="50" x="781" y="262"/><line style="stroke: #A80036; stroke-width: 1.5;" x1="781" x2="831" y1="288.2969" y2="288.2969"/><text fill="#000000" font-family="sans-serif" font-size="14" lengthAdjust="spacingAndGlyphs" textLength="18" x="797" y="279.9951">q7</text><rect fill="#FEFECE" filter="url(#f3w662htt2a6j)" height="50" rx="12.5" ry="12.5" style="stroke: #A80036; stroke-width: 1.5;" width="50" x="344" y="770"/><line style="stroke: #A80036; stroke-width: 1.5;" x1="344" x2="394" y1="796.2969" y2="796.2969"/><text fill="#000000" font-family="sans-serif" font-size="14" lengthAdjust="spacingAndGlyphs" textLength="27" x="355.5" y="787.9951">q17</text><rect fill="#FEFECE" filter="url(#f3w662htt2a6j)" height="50" rx="12.5" ry="12.5" style="stroke: #A80036; stroke-width: 1.5;" width="50" x="6" y="770"/><line style="stroke: #A80036; stroke-width: 1.5;" x1="6" x2="56" y1="796.2969" y2="796.2969"/><text fill="#000000" font-family="sans-serif" font-size="14" lengthAdjust="spacingAndGlyphs" textLength="27" x="17.5" y="787.9951">q16</text><rect fill="#FEFECE" filter="url(#f3w662htt2a6j)" height="50" rx="12.5" ry="12.5" style="stroke: #A80036; stroke-width: 1.5;" width="50" x="128" y="770"/><line style="stroke: #A80036; stroke-width: 1.5;" x1="128" x2="178" y1="796.2969" y2="796.2969"/><text fill="#000000" font-family="sans-serif" font-size="14" lengthAdjust="spacingAndGlyphs" textLength="27" x="139.5" y="787.9951">q10</text><rect fill="#FEFECE" filter="url(#f3w662htt2a6j)" height="50" rx="12.5" ry="12.5" style="stroke: #A80036; stroke-width: 1.5;" width="50" x="1103" y="516"/><line style="stroke: #A80036; stroke-width: 1.5;" x1="1103" x2="1153" y1="542.2969" y2="542.2969"/><text fill="#000000" font-family="sans-serif" font-size="14" lengthAdjust="spacingAndGlyphs" textLength="18" x="1119" y="533.9951">q8</text><rect fill="#FEFECE" filter="url(#f3w662htt2a6j)" height="50" rx="12.5" ry="12.5" style="stroke: #A80036; stroke-width: 1.5;" width="50" x="781" y="389"/><line style="stroke: #A80036; stroke-width: 1.5;" x1="781" x2="831" y1="415.2969" y2="415.2969"/><text fill="#000000" font-family="sans-serif" font-size="14" lengthAdjust="spacingAndGlyphs" textLength="18" x="797" y="406.9951">q9</text><rect fill="#FEFECE" filter="url(#f3w662htt2a6j)" height="50" rx="12.5" ry="12.5" style="stroke: #A80036; stroke-width: 1.5;" width="50" x="628" y="135"/><line style="stroke: #A80036; stroke-width: 1.5;" x1="628" x2="678" y1="161.2969" y2="161.2969"/><text fill="#000000" font-family="sans-serif" font-size="14" lengthAdjust="spacingAndGlyphs" textLength="27" x="639.5" y="152.9951">q13</text><rect fill="#FEFECE" filter="url(#f3w662htt2a6j)" height="50" rx="12.5" ry="12.5" style="stroke: #A80036; stroke-width: 1.5;" width="50" x="244" y="643"/><line style="stroke: #A80036; stroke-width: 1.5;" x1="244" x2="294" y1="669.2969" y2="669.2969"/><text fill="#000000" font-family="sans-serif" font-size="14" lengthAdjust="spacingAndGlyphs" textLength="27" x="255.5" y="660.9951">q15</text><rect fill="#FEFECE" filter="url(#f3w662htt2a6j)" height="50" rx="12.5" ry="12.5" style="stroke: #A80036; stroke-width: 1.5;" width="50" x="661" y="516"/><line style="stroke: #A80036; stroke-width: 1.5;" x1="661" x2="711" y1="542.2969" y2="542.2969"/><text fill="#000000" font-family="sans-serif" font-size="14" lengthAdjust="spacingAndGlyphs" textLength="27" x="672.5" y="533.9951">q11</text><rect fill="#FEFECE" filter="url(#f3w662htt2a6j)" height="50" rx="12.5" ry="12.5" style="stroke: #A80036; stroke-width: 1.5;" width="50" x="1185" y="135"/><line style="stroke: #A80036; stroke-width: 1.5;" x1="1185" x2="1235" y1="161.2969" y2="161.2969"/><text fill="#000000" font-family="sans-serif" font-size="14" lengthAdjust="spacingAndGlyphs" textLength="18" x="1201" y="152.9951">q6</text><rect fill="#FEFECE" filter="url(#f3w662htt2a6j)" height="50" rx="12.5" ry="12.5" style="stroke: #A80036; stroke-width: 1.5;" width="50" x="877" y="8"/><line style="stroke: #A80036; stroke-width: 1.5;" x1="877" x2="927" y1="34.2969" y2="34.2969"/><text fill="#000000" font-family="sans-serif" font-size="14" lengthAdjust="spacingAndGlyphs" textLength="27" x="888.5" y="25.9951">q18</text><rect fill="#FEFECE" filter="url(#f3w662htt2a6j)" height="50" rx="12.5" ry="12.5" style="stroke: #A80036; stroke-width: 1.5;" width="50" x="1157" y="643"/><line style="stroke: #A80036; stroke-width: 1.5;" x1="1157" x2="1207" y1="669.2969" y2="669.2969"/><text fill="#000000" font-family="sans-serif" font-size="14" lengthAdjust="spacingAndGlyphs" textLength="18" x="1173" y="660.9951">q4</text><!--link q3 to q4--><path d="M1333.6402,559.196 C1301.3469,582.3669 1245.6495,622.3306 1211.4931,646.8383 " fill="none" id="q3-q4" style="stroke: #A80036; stroke-width: 1.0;"/><polygon fill="#A80036" points="1207.0268,650.0429,1216.6711,648.0459,1211.0892,647.1279,1212.0071,641.5461,1207.0268,650.0429" style="stroke: #A80036; stroke-width: 1.0;"/><text fill="#000000" font-family="sans-serif" font-size="13" lengthAdjust="spacingAndGlyphs" textLength="37" x="1282" y="609.0669">(1)init</text><!--link q3 to _rejected--><path d="M1361.0358,566.0518 C1363.2874,604.6381 1364.1696,680.3929 1343,740 C1318.5838,808.7482 1304.7151,835.3142 1239,867 C1176.1296,897.3142 971.714,913.3864 878.3223,919.3033 " fill="none" id="q3-_rejected" style="stroke: #A80036; stroke-width: 1.0;"/><polygon fill="#A80036" points="873.1462,919.628,882.379,923.0565,878.1364,919.3149,881.878,915.0722,873.1462,919.628" style="stroke: #A80036; stroke-width: 1.0;"/><text fill="#000000" font-family="sans-serif" font-size="13" lengthAdjust="spacingAndGlyphs" textLength="25" x="1349" y="736.0669">(2)*</text><!--link q14 to q10--><path d="M579.8496,679.4044 C544.1214,695.1813 476.3037,723.5739 416,740 C339.0162,760.9696 316.7704,752.1677 239,770 C220.1837,774.3145 199.3906,780.3243 182.9638,785.3702 " fill="none" id="q14-q10" style="stroke: #A80036; stroke-width: 1.0;"/><polygon fill="#A80036" points="178.0131,786.9023,187.7934,788.0626,182.7896,785.424,185.4282,780.4203,178.0131,786.9023" style="stroke: #A80036; stroke-width: 1.0;"/><text fill="#000000" font-family="sans-serif" font-size="13" lengthAdjust="spacingAndGlyphs" textLength="76" x="470" y="736.0669">(1)knockout</text><!--link q14 to _rejected--><path d="M610.085,693.3148 C613.5896,707.5856 619.0659,725.4193 627,740 C662.2775,804.8306 677.2288,819.8351 734,867 C749.1082,879.5517 767.4773,890.7935 784.1493,899.792 " fill="none" id="q14-_rejected" style="stroke: #A80036; stroke-width: 1.0;"/><polygon fill="#A80036" points="788.8026,902.2698,782.7388,894.509,784.3893,899.9197,778.9786,901.5702,788.8026,902.2698" style="stroke: #A80036; stroke-width: 1.0;"/><text fill="#000000" font-family="sans-serif" font-size="13" lengthAdjust="spacingAndGlyphs" textLength="25" x="681" y="799.5669">(2)*</text><!--link q5 to q6--><path d="M1270.244,774.6567 C1279.9299,765.2566 1289.8813,753.24 1295,740 C1297.7245,732.9528 1295.1486,730.5541 1295,723 C1293.8887,666.5228 1297.8838,651.9353 1290,596 C1282.9742,546.1526 1271.628,535.5952 1263,486 C1251.9714,422.6059 1257.9219,405.5767 1248,342 C1239.6033,288.1963 1225.7709,226.2672 1217.3135,190.2876 " fill="none" id="q5-q6" style="stroke: #A80036; stroke-width: 1.0;"/><polygon fill="#A80036" points="1216.1059,185.1714,1214.2806,194.8496,1217.2546,190.0377,1222.0666,193.0117,1216.1059,185.1714" style="stroke: #A80036; stroke-width: 1.0;"/><text fill="#000000" font-family="sans-serif" font-size="13" lengthAdjust="spacingAndGlyphs" textLength="111" x="1264" y="482.0669">(1)_not_knockout</text><!--link q5 to _rejected--><path d="M1230.4007,820.0909 C1219.6685,836.1706 1203.5749,856.0187 1184,867 C1132.4728,895.9062 962.142,912.2489 878.3674,918.7186 " fill="none" id="q5-_rejected" style="stroke: #A80036; stroke-width: 1.0;"/><polygon fill="#A80036" points="873.2211,919.1121,882.4998,922.4144,878.2066,918.731,881.89,914.4377,873.2211,919.1121" style="stroke: #A80036; stroke-width: 1.0;"/><text fill="#000000" font-family="sans-serif" font-size="13" lengthAdjust="spacingAndGlyphs" textLength="25" x="1205" y="863.0669">(2)*</text><!--link q19 to q17--><path d="M963.6368,673.5868 C938.8217,678.9506 899.9181,687.088 866,693 C774.8529,708.887 750.7932,705.2011 660,723 C563.7689,741.8649 451.551,771.9644 399.0109,786.5409 " fill="none" id="q19-q17" style="stroke: #A80036; stroke-width: 1.0;"/><polygon fill="#A80036" points="394.1152,787.9022,403.8578,789.3448,398.9324,786.5626,401.7146,781.6372,394.1152,787.9022" style="stroke: #A80036; stroke-width: 1.0;"/><text fill="#000000" font-family="sans-serif" font-size="13" lengthAdjust="spacingAndGlyphs" textLength="76" x="661" y="736.0669">(1)knockout</text><!--link q19 to _rejected--><path d="M987.214,693.0691 C983.1344,733.7181 969.951,814.7193 928,867 C914.9321,883.2857 895.6569,895.6116 877.7247,904.4234 " fill="none" id="q19-_rejected" style="stroke: #A80036; stroke-width: 1.0;"/><polygon fill="#A80036" points="873.1992,906.5883,883.0442,906.3128,877.7097,904.4306,879.5918,899.096,873.1992,906.5883" style="stroke: #A80036; stroke-width: 1.0;"/><text fill="#000000" font-family="sans-serif" font-size="13" lengthAdjust="spacingAndGlyphs" textLength="25" x="973" y="799.5669">(2)*</text><!--link q7 to q9--><path d="M804.0926,312.3179 C803.268,326.1151 802.5774,343.4923 803,359 C803.2159,366.9222 803.6064,375.4792 804.0359,383.4297 " fill="none" id="q7-q9" style="stroke: #A80036; stroke-width: 1.0;"/><polygon fill="#A80036" points="804.3377,388.8217,807.8282,379.6121,804.0581,383.8295,799.8407,380.0594,804.3377,388.8217" style="stroke: #A80036; stroke-width: 1.0;"/><text fill="#000000" font-family="sans-serif" font-size="13" lengthAdjust="spacingAndGlyphs" textLength="80" x="804" y="355.0669">(1)day_open</text><!--link q7 to q10--><path d="M780.856,294.403 C705.156,317.566 475.0748,394.4441 320,516 C224.2761,591.0335 183.4465,609.0203 141,723 C136.0806,736.2098 137.7018,751.5335 141.1085,764.6401 " fill="none" id="q7-q10" style="stroke: #A80036; stroke-width: 1.0;"/><polygon fill="#A80036" points="142.5485,769.7323,143.9485,759.9835,141.1879,764.921,136.2504,762.1604,142.5485,769.7323" style="stroke: #A80036; stroke-width: 1.0;"/><text fill="#000000" font-family="sans-serif" font-size="13" lengthAdjust="spacingAndGlyphs" textLength="81" x="321" y="545.5669">(2)terminate</text><!--link q7 to _rejected--><path d="M831.211,297.9148 C849.7124,307.1413 874.1132,322.0498 889,342 C909.011,368.8173 911,380.5395 911,414 C911,414 911,414 911,604.5 C911,723.6097 894.7209,754.021 857,867 C854.2301,875.2963 850.5315,883.9805 846.7949,891.9335 " fill="none" id="q7-_rejected" style="stroke: #A80036; stroke-width: 1.0;"/><polygon fill="#A80036" points="844.4714,896.7809,851.9687,890.3941,846.6326,892.2721,844.7546,886.9361,844.4714,896.7809" style="stroke: #A80036; stroke-width: 1.0;"/><text fill="#000000" font-family="sans-serif" font-size="13" lengthAdjust="spacingAndGlyphs" textLength="25" x="912" y="609.0669">(3)*</text><!--link q17 to q12--><path d="M343.8544,808.5798 C335.4888,812.6912 326.006,816.9264 317,820 C256.3647,840.6941 216.3152,800.2047 176,850 C166.7451,861.4312 166.6231,877.5475 169.1976,891.6351 " fill="none" id="q17-q12" style="stroke: #A80036; stroke-width: 1.0;"/><polygon fill="#A80036" points="170.2561,896.721,172.3383,887.0948,169.2373,891.8259,164.5061,888.7249,170.2561,896.721" style="stroke: #A80036; stroke-width: 1.0;"/><text fill="#000000" font-family="sans-serif" font-size="13" lengthAdjust="spacingAndGlyphs" textLength="68" x="177" y="863.0669">(1)_accept</text><!--link q17 to _rejected--><path d="M371.1125,820.1621 C373.8355,836.0596 380.0173,855.6719 394,867 C423.8717,891.2005 676.49,911.3201 783.4562,918.836 " fill="none" id="q17-_rejected" style="stroke: #A80036; stroke-width: 1.0;"/><polygon fill="#A80036" points="788.7473,919.2058,780.0482,914.5879,783.7595,918.8571,779.4902,922.5684,788.7473,919.2058" style="stroke: #A80036; stroke-width: 1.0;"/><text fill="#000000" font-family="sans-serif" font-size="13" lengthAdjust="spacingAndGlyphs" textLength="25" x="395" y="863.0669">(2)*</text><!--link q16 to q18--><path d="M31,769.6992 C31,744.0677 31,703.2778 31,668 C31,160 31,160 31,160 C31,73.1615 717.681,40.4078 871.6226,34.1561 " fill="none" id="q16-q18" style="stroke: #A80036; stroke-width: 1.0;"/><polygon fill="#A80036" points="876.872,33.9448,867.7184,30.3101,871.876,34.1459,868.0402,38.3036,876.872,33.9448" style="stroke: #A80036; stroke-width: 1.0;"/><text fill="#000000" font-family="sans-serif" font-size="13" lengthAdjust="spacingAndGlyphs" textLength="81" x="32" y="418.5669">(1)day_close</text><!--link q16 to _rejected--><path d="M21.339,820.1171 C17.1823,835.5872 15.5496,854.7396 27,867 C52.9496,894.7854 614.5937,915.042 783.4207,920.5202 " fill="none" id="q16-_rejected" style="stroke: #A80036; stroke-width: 1.0;"/><polygon fill="#A80036" points="788.7804,920.6934,779.9145,916.4044,783.783,920.5317,779.6557,924.4002,788.7804,920.6934" style="stroke: #A80036; stroke-width: 1.0;"/><text fill="#000000" font-family="sans-serif" font-size="13" lengthAdjust="spacingAndGlyphs" textLength="25" x="28" y="863.0669">(2)*</text><!--link q10 to q12--><path d="M127.7316,803.0301 C95.9584,814.5531 47.6506,837.6615 66,867 C83.9712,895.7339 121.7364,909.8474 148.6586,916.5039 " fill="none" id="q10-q12" style="stroke: #A80036; stroke-width: 1.0;"/><polygon fill="#A80036" points="153.5521,917.6619,145.7151,911.6969,148.6865,916.5105,143.8729,919.4819,153.5521,917.6619" style="stroke: #A80036; stroke-width: 1.0;"/><text fill="#000000" font-family="sans-serif" font-size="13" lengthAdjust="spacingAndGlyphs" textLength="68" x="67" y="863.0669">(1)_accept</text><!--link q10 to _rejected--><path d="M178.2199,809.351 C213.5414,829.342 274.7066,863.5266 286,867 C378.588,895.4764 668.9512,913.4607 783.6819,919.6185 " fill="none" id="q10-_rejected" style="stroke: #A80036; stroke-width: 1.0;"/><polygon fill="#A80036" points="788.6811,919.8852,779.9072,915.4111,783.6882,919.6186,779.4806,923.3997,788.6811,919.8852" style="stroke: #A80036; stroke-width: 1.0;"/><text fill="#000000" font-family="sans-serif" font-size="13" lengthAdjust="spacingAndGlyphs" textLength="25" x="287" y="863.0669">(2)*</text><!--link q8 to q4--><path d="M1121.751,566.2815 C1119.4786,580.5415 1118.7888,598.3756 1125,613 C1130.841,626.7529 1141.9922,638.7394 1152.8935,647.9814 " fill="none" id="q8-q4" style="stroke: #A80036; stroke-width: 1.0;"/><polygon fill="#A80036" points="1156.8882,651.2604,1152.4697,642.4583,1153.0235,648.088,1147.3938,648.6418,1156.8882,651.2604" style="stroke: #A80036; stroke-width: 1.0;"/><text fill="#000000" font-family="sans-serif" font-size="13" lengthAdjust="spacingAndGlyphs" textLength="80" x="1126" y="609.0669">(1)day_open</text><!--link q8 to _rejected--><path d="M1120.722,566.1336 C1105.2167,617.0944 1065.4994,734.9609 1007,820 C990.0781,844.5989 983.8038,850.3798 959,867 C934.0406,883.7245 903.166,897.1681 877.9933,906.5772 " fill="none" id="q8-_rejected" style="stroke: #A80036; stroke-width: 1.0;"/><polygon fill="#A80036" points="873.0382,908.4049,882.8664,909.043,877.7292,906.6745,880.0977,901.5374,873.0382,908.4049" style="stroke: #A80036; stroke-width: 1.0;"/><text fill="#000000" font-family="sans-serif" font-size="13" lengthAdjust="spacingAndGlyphs" textLength="25" x="1061" y="736.0669">(2)*</text><!--link q9 to q11--><path d="M780.6541,426.0074 C762.5028,435.6115 738.458,450.5117 722,469 C711.2413,481.086 702.8505,496.9672 696.8864,510.7386 " fill="none" id="q9-q11" style="stroke: #A80036; stroke-width: 1.0;"/><polygon fill="#A80036" points="694.7991,515.7058,701.9733,508.9582,696.7361,511.0962,694.598,505.859,694.7991,515.7058" style="stroke: #A80036; stroke-width: 1.0;"/><text fill="#000000" font-family="sans-serif" font-size="13" lengthAdjust="spacingAndGlyphs" textLength="81" x="723" y="482.0669">(1)day_close</text><!--link q9 to _rejected--><path d="M813.9102,439.0152 C821.2344,464.4245 831,505.0452 831,541 C831,541 831,541 831,795 C831,827.9351 831,865.6746 831,891.3985 " fill="none" id="q9-_rejected" style="stroke: #A80036; stroke-width: 1.0;"/><polygon fill="#A80036" points="831,896.6992,835,887.6992,831,891.6992,827,887.6992,831,896.6992" style="stroke: #A80036; stroke-width: 1.0;"/><text fill="#000000" font-family="sans-serif" font-size="13" lengthAdjust="spacingAndGlyphs" textLength="25" x="832" y="672.5669">(2)*</text><!--link q13 to q7--><path d="M668.7903,185.0315 C679.0095,199.8984 693.3056,218.4341 709,232 C729.2029,249.4629 755.7969,264.0754 776.0288,273.8391 " fill="none" id="q13-q7" style="stroke: #A80036; stroke-width: 1.0;"/><polygon fill="#A80036" points="780.7655,276.0928,774.3572,268.6139,776.2505,273.9445,770.9199,275.8379,780.7655,276.0928" style="stroke: #A80036; stroke-width: 1.0;"/><text fill="#000000" font-family="sans-serif" font-size="13" lengthAdjust="spacingAndGlyphs" textLength="104" x="710" y="228.0669">(1)_under_strike</text><!--link q13 to q15--><path d="M627.9978,163.3141 C574.8722,170.7617 452.9138,190.1331 420,215 C282.1392,319.156 268.6684,553.9844 268.423,637.6701 " fill="none" id="q13-q15" style="stroke: #A80036; stroke-width: 1.0;"/><polygon fill="#A80036" points="268.4247,642.9607,272.4247,633.9607,268.4247,637.9607,264.4247,633.9607,268.4247,642.9607" style="stroke: #A80036; stroke-width: 1.0;"/><text fill="#000000" font-family="sans-serif" font-size="13" lengthAdjust="spacingAndGlyphs" textLength="95" x="307" y="418.5669">(2)_over_strike</text><!--link q13 to _rejected--><path d="M627.6177,163.4676 C572.3428,172.5935 446,202.6757 446,287 C446,287 446,287 446,668 C446,828.0528 680.6934,893.0152 783.5997,913.8065 " fill="none" id="q13-_rejected" style="stroke: #A80036; stroke-width: 1.0;"/><polygon fill="#A80036" points="788.697,914.822,780.6519,909.1408,783.7934,913.8452,779.089,916.9866,788.697,914.822" style="stroke: #A80036; stroke-width: 1.0;"/><text fill="#000000" font-family="sans-serif" font-size="13" lengthAdjust="spacingAndGlyphs" textLength="25" x="447" y="545.5669">(3)*</text><!--link q15 to q16--><path d="M243.9797,681.3512 C199.6983,704.9803 107.75,754.0452 60.4747,779.2719 " fill="none" id="q15-q16" style="stroke: #A80036; stroke-width: 1.0;"/><polygon fill="#A80036" points="56.0422,781.6371,65.8656,780.9289,60.4534,779.2831,62.0992,773.871,56.0422,781.6371" style="stroke: #A80036; stroke-width: 1.0;"/><text fill="#000000" font-family="sans-serif" font-size="13" lengthAdjust="spacingAndGlyphs" textLength="80" x="166" y="736.0669">(1)day_open</text><!--link q15 to q17--><path d="M288.7568,693.0911 C305.2609,714.0514 328.807,743.9549 346.126,765.95 " fill="none" id="q15-q17" style="stroke: #A80036; stroke-width: 1.0;"/><polygon fill="#A80036" points="349.2843,769.961,346.8592,760.4154,346.1911,766.0326,340.5738,765.3645,349.2843,769.961" style="stroke: #A80036; stroke-width: 1.0;"/><text fill="#000000" font-family="sans-serif" font-size="13" lengthAdjust="spacingAndGlyphs" textLength="81" x="326" y="736.0669">(2)terminate</text><!--link q15 to _rejected--><path d="M268.0937,693.207 C268.1637,725.4074 272.5365,781.5607 299,820 C321.3068,852.4016 336.9114,853.8893 374,867 C448.834,893.4535 682.6993,911.9696 783.7322,918.9385 " fill="none" id="q15-_rejected" style="stroke: #A80036; stroke-width: 1.0;"/><polygon fill="#A80036" points="788.7341,919.2815,780.0289,914.675,783.7458,918.9394,779.4815,922.6563,788.7341,919.2815" style="stroke: #A80036; stroke-width: 1.0;"/><text fill="#000000" font-family="sans-serif" font-size="13" lengthAdjust="spacingAndGlyphs" textLength="25" x="300" y="799.5669">(3)*</text><!--link q11 to q13--><path d="M683.8315,515.9641 C677.9953,448.5818 661.9688,263.5486 655.6301,190.3662 " fill="none" id="q11-q13" style="stroke: #A80036; stroke-width: 1.0;"/><polygon fill="#A80036" points="655.1908,185.2935,651.9826,194.6052,655.6224,190.2748,659.9527,193.9147,655.1908,185.2935" style="stroke: #A80036; stroke-width: 1.0;"/><text fill="#000000" font-family="sans-serif" font-size="13" lengthAdjust="spacingAndGlyphs" textLength="111" x="670" y="355.0669">(1)_not_knockout</text><!--link q11 to q14--><path d="M660.7879,562.4116 C650.7937,571.9038 639.8403,583.7004 632,596 C623.8194,608.8334 617.5705,624.5149 613.1551,637.963 " fill="none" id="q11-q14" style="stroke: #A80036; stroke-width: 1.0;"/><polygon fill="#A80036" points="611.6111,642.8071,618.1556,635.4471,613.1297,638.0433,610.5335,633.0174,611.6111,642.8071" style="stroke: #A80036; stroke-width: 1.0;"/><text fill="#000000" font-family="sans-serif" font-size="13" lengthAdjust="spacingAndGlyphs" textLength="83" x="633" y="609.0669">(2)_knockout</text><!--link q11 to _rejected--><path d="M704.0331,566.2131 C709.9909,575.3033 716.2919,585.8323 721,596 C773.9845,710.4259 759.2739,749.485 805,867 C808.2034,875.2327 812.089,883.9568 815.869,891.9725 " fill="none" id="q11-_rejected" style="stroke: #A80036; stroke-width: 1.0;"/><polygon fill="#A80036" points="818.2019,896.8611,817.9357,887.0158,816.0484,892.3486,810.7157,890.4614,818.2019,896.8611" style="stroke: #A80036; stroke-width: 1.0;"/><text fill="#000000" font-family="sans-serif" font-size="13" lengthAdjust="spacingAndGlyphs" textLength="25" x="768" y="736.0669">(3)*</text><!--link q6 to q7--><path d="M1184.7438,165.9837 C1145.695,175.4054 1068.4408,194.724 1004,215 C943.7282,233.9642 874.6416,260.1188 836.0799,275.1249 " fill="none" id="q6-q7" style="stroke: #A80036; stroke-width: 1.0;"/><polygon fill="#A80036" points="831.074,277.0771,840.9123,277.5336,835.7323,275.2604,838.0055,270.0804,831.074,277.0771" style="stroke: #A80036; stroke-width: 1.0;"/><text fill="#000000" font-family="sans-serif" font-size="13" lengthAdjust="spacingAndGlyphs" textLength="104" x="1005" y="228.0669">(1)_under_strike</text><!--link q6 to q8--><path d="M1199.1762,185.0704 C1184.7388,219.6706 1159.5457,284.3331 1147,342 C1134.1847,400.9063 1130.0128,471.4919 1128.655,510.7877 " fill="none" id="q6-q8" style="stroke: #A80036; stroke-width: 1.0;"/><polygon fill="#A80036" points="1128.4886,515.8875,1132.7804,507.0229,1128.6519,510.8902,1124.7847,506.7617,1128.4886,515.8875" style="stroke: #A80036; stroke-width: 1.0;"/><text fill="#000000" font-family="sans-serif" font-size="13" lengthAdjust="spacingAndGlyphs" textLength="95" x="1148" y="355.0669">(2)_over_strike</text><!--link q6 to _rejected--><path d="M1235.1933,161.4566 C1297.5349,166.5545 1454,189.1009 1454,287 C1454,287 1454,287 1454,795 C1454,878.6926 1360.9414,845.7178 1280,867 C1136.9327,904.6172 961.3147,916.654 878.5039,920.3885 " fill="none" id="q6-_rejected" style="stroke: #A80036; stroke-width: 1.0;"/><polygon fill="#A80036" points="873.1848,920.6227,882.3521,924.2228,878.18,920.4027,882.0001,916.2306,873.1848,920.6227" style="stroke: #A80036; stroke-width: 1.0;"/><text fill="#000000" font-family="sans-serif" font-size="13" lengthAdjust="spacingAndGlyphs" textLength="25" x="1455" y="545.5669">(3)*</text><!--link q18 to q13--><path d="M876.7543,45.8763 C830.5211,69.4571 732.4685,119.4679 682.9498,144.7244 " fill="none" id="q18-q13" style="stroke: #A80036; stroke-width: 1.0;"/><polygon fill="#A80036" points="678.3126,147.0896,688.1474,146.5636,682.7667,144.8178,684.5125,139.4371,678.3126,147.0896" style="stroke: #A80036; stroke-width: 1.0;"/><text fill="#000000" font-family="sans-serif" font-size="13" lengthAdjust="spacingAndGlyphs" textLength="111" x="793" y="101.0669">(1)_not_knockout</text><!--link q18 to q19--><path d="M927.3377,53.4972 C952.7056,76.4911 988,116.3297 988,160 C988,160 988,160 988,541 C988,573.9361 988.3405,611.6755 988.6241,637.399 " fill="none" id="q18-q19" style="stroke: #A80036; stroke-width: 1.0;"/><polygon fill="#A80036" points="988.6836,642.6997,992.582,633.6552,988.6273,637.7,984.5825,633.7453,988.6836,642.6997" style="stroke: #A80036; stroke-width: 1.0;"/><text fill="#000000" font-family="sans-serif" font-size="13" lengthAdjust="spacingAndGlyphs" textLength="83" x="989" y="355.0669">(2)_knockout</text><!--link q18 to _rejected--><path d="M927.1652,35.329 C1044.7095,46.5372 1534,96.9775 1534,160 C1534,160 1534,160 1534,795 C1534,803.3547 1439.9138,849.5257 1374,867 C1280.799,891.7084 992.5992,911.8917 878.3531,919.1286 " fill="none" id="q18-_rejected" style="stroke: #A80036; stroke-width: 1.0;"/><polygon fill="#A80036" points="873.0458,919.4634,882.2798,922.8887,878.0359,919.1485,881.7761,914.9046,873.0458,919.4634" style="stroke: #A80036; stroke-width: 1.0;"/><text fill="#000000" font-family="sans-serif" font-size="13" lengthAdjust="spacingAndGlyphs" textLength="25" x="1535" y="482.0669">(3)*</text><!--link q4 to q5--><path d="M1189.4451,693.29 C1194.0089,707.3902 1200.4257,725.0655 1208,740 C1212.3481,748.5734 1217.798,757.4076 1223.1677,765.4196 " fill="none" id="q4-q5" style="stroke: #A80036; stroke-width: 1.0;"/><polygon fill="#A80036" points="1226.1352,769.7793,1224.3778,760.0885,1223.3218,765.6459,1217.7644,764.5899,1226.1352,769.7793" style="stroke: #A80036; stroke-width: 1.0;"/><text fill="#000000" font-family="sans-serif" font-size="13" lengthAdjust="spacingAndGlyphs" textLength="81" x="1209" y="736.0669">(1)day_close</text><!--link q4 to _rejected--><path d="M1178.6303,693.2019 C1171.5201,735.9321 1150.8512,822.3019 1096,867 C1063.1625,893.7592 945.1274,910.1077 878.1943,917.4363 " fill="none" id="q4-_rejected" style="stroke: #A80036; stroke-width: 1.0;"/><polygon fill="#A80036" points="873.0695,917.9907,882.4476,920.9993,878.0405,917.4528,881.587,913.0458,873.0695,917.9907" style="stroke: #A80036; stroke-width: 1.0;"/><text fill="#000000" font-family="sans-serif" font-size="13" lengthAdjust="spacingAndGlyphs" textLength="25" x="1159" y="799.5669">(2)*</text><!--link *start to q3--><path d="M1391.0523,424.4441 C1390.8838,438.6246 1389.7203,464.6493 1384,486 C1381.7521,494.3901 1378.3425,503.1074 1374.7579,511.0623 " fill="none" id="*start-q3" style="stroke: #A80036; stroke-width: 1.0;"/><polygon fill="#A80036" points="1372.5122,515.907,1379.9262,509.4238,1374.6149,511.3707,1372.6681,506.0594,1372.5122,515.907" style="stroke: #A80036; stroke-width: 1.0;"/><!--link q12 to *end--><path d="M204.2318,929.4531 C268.8285,948.5339 438.6565,998.6985 489.4485,1013.7017 " fill="none" id="q12-*end" style="stroke: #A80036; stroke-width: 1.0;"/><polygon fill="#A80036" points="494.2513,1015.1204,486.7533,1008.7345,489.4562,1013.7038,484.4868,1016.4067,494.2513,1015.1204" style="stroke: #A80036; stroke-width: 1.0;"/><!--link _rejected to *end--><path d="M788.9199,934.3538 C715.1742,956.0039 565.9283,999.8192 518.6868,1013.6883 " fill="none" id="_rejected-*end" style="stroke: #A80036; stroke-width: 1.0;"/><polygon fill="#A80036" points="513.6894,1015.1554,523.4517,1016.458,518.4869,1013.7469,521.1981,1008.782,513.6894,1015.1554" style="stroke: #A80036; stroke-width: 1.0;"/><!--
@startuml 
state q3
state q14
state q5
state q19
state q7
state q17
state q16
state q10
state q8
state q9
state q13
state q15
state q11
state q6
state q18
state q4
q3 - -> q4:(1)init
q3 - -> _rejected:(2)*
q14 - -> q10:(1)knockout
q14 - -> _rejected:(2)*
q5 - -> q6:(1)_not_knockout
q5 - -> _rejected:(2)*
q19 - -> q17:(1)knockout
q19 - -> _rejected:(2)*
q7 - -> q9:(1)day_open
q7 - -> q10:(2)terminate
q7 - -> _rejected:(3)*
q17 - -> q12:(1)_accept
q17 - -> _rejected:(2)*
q16 - -> q18:(1)day_close
q16 - -> _rejected:(2)*
q10 - -> q12:(1)_accept
q10 - -> _rejected:(2)*
q8 - -> q4:(1)day_open
q8 - -> _rejected:(2)*
q9 - -> q11:(1)day_close
q9 - -> _rejected:(2)*
q13 - -> q7:(1)_under_strike
q13 - -> q15:(2)_over_strike
q13 - -> _rejected:(3)*
q15 - -> q16:(1)day_open
q15 - -> q17:(2)terminate
q15 - -> _rejected:(3)*
q11 - -> q13:(1)_not_knockout
q11 - -> q14:(2)_knockout
q11 - -> _rejected:(3)*
q6 - -> q7:(1)_under_strike
q6 - -> q8:(2)_over_strike
q6 - -> _rejected:(3)*
q18 - -> q13:(1)_not_knockout
q18 - -> q19:(2)_knockout
q18 - -> _rejected:(3)*
q4 - -> q5:(1)day_close
q4 - -> _rejected:(2)*
[*] - -> q3
state q12
q12 - -> [*]
state _rejected
_rejected - -> [*]
state q3 {
}
state q14 {
}
state q5 {
}
state q19 {
}
state q7 {
}
state q17 {
}
state q16 {
}
state q10 {
}
state q8 {
}
state q9 {
}
state q13 {
}
state q15 {
}
state q11 {
}
state q6 {
}
state q18 {
}
state q4 {
}
@enduml

PlantUML version 1.2017.15(Tue Jul 04 01:45:34 JST 2017)
(GPL source distribution)
Java Runtime: OpenJDK Runtime Environment
JVM: OpenJDK 64-Bit Server VM
Java Version: 1.8.0_181-8u181-b13-0ubuntu0.18.04.1-b13
Operating System: Linux
OS Version: 4.15.0-34-generic
Default Encoding: UTF-8
Language: en
Country: US
--></g></svg>