<?xml version="1.0" encoding="UTF-8" standalone="no"?><svg xmlns="http://www.w3.org/2000/svg" xmlns:xlink="http://www.w3.org/1999/xlink" contentScriptType="application/ecmascript" contentStyleType="text/css" height="485px" preserveAspectRatio="none" style="width:583px;height:485px;" version="1.1" viewBox="0 0 583 485" width="583px" zoomAndPan="magnify"><defs><filter height="300%" id="f163go27cucr1v" width="300%" x="-1" y="-1"><feGaussianBlur result="blurOut" stdDeviation="2.0"/><feColorMatrix in="blurOut" result="blurOut2" type="matrix" values="0 0 0 0 0 0 0 0 0 0 0 0 0 0 0 0 0 0 .4 0"/><feOffset dx="4.0" dy="4.0" in="blurOut2" result="blurOut3"/><feBlend in="SourceGraphic" in2="blurOut3" mode="normal"/></filter></defs><g><rect fill="#FEFECE" filter="url(#f163go27cucr1v)" height="50" rx="12.5" ry="12.5" style="stroke: #A80036; stroke-width: 1.5;" width="84" x="240" y="343"/><line style="stroke: #A80036; stroke-width: 1.5;" x1="240" x2="324" y1="369.2969" y2="369.2969"/><text fill="#000000" font-family="sans-serif" font-size="14" lengthAdjust="spacingAndGlyphs" textLength="64" x="250" y="360.9951">_rejected</text><rect fill="#FEFECE" filter="url(#f163go27cucr1v)" height="50" rx="12.5" ry="12.5" style="stroke: #A80036; stroke-width: 1.5;" width="50" x="359" y="343"/><line style="stroke: #A80036; stroke-width: 1.5;" x1="359" x2="409" y1="369.2969" y2="369.2969"/><text fill="#000000" font-family="sans-serif" font-size="14" lengthAdjust="spacingAndGlyphs" textLength="18" x="375" y="360.9951">q7</text><ellipse cx="31" cy="18" fill="#000000" filter="url(#f163go27cucr1v)" rx="10" ry="10" style="stroke: none; stroke-width: 1.0;"/><ellipse cx="332" cy="464" fill="none" filter="url(#f163go27cucr1v)" rx="10" ry="10" style="stroke: #000000; stroke-width: 1.0;"/><ellipse cx="332.5" cy="464.5" fill="#000000" rx="6" ry="6" style="stroke: none; stroke-width: 1.0;"/><rect fill="#FEFECE" filter="url(#f163go27cucr1v)" height="50" rx="12.5" ry="12.5" style="stroke: #A80036; stroke-width: 1.5;" width="50" x="6" y="89"/><line style="stroke: #A80036; stroke-width: 1.5;" x1="6" x2="56" y1="115.2969" y2="115.2969"/><text fill="#000000" font-family="sans-serif" font-size="14" lengthAdjust="spacingAndGlyphs" textLength="18" x="22" y="106.9951">q2</text><rect fill="#FEFECE" filter="url(#f163go27cucr1v)" height="50" rx="12.5" ry="12.5" style="stroke: #A80036; stroke-width: 1.5;" width="50" x="359" y="89"/><line style="stroke: #A80036; stroke-width: 1.5;" x1="359" x2="409" y1="115.2969" y2="115.2969"/><text fill="#000000" font-family="sans-serif" font-size="14" lengthAdjust="spacingAndGlyphs" textLength="18" x="375" y="106.9951">q5</text><rect fill="#FEFECE" filter="url(#f163go27cucr1v)" height="50" rx="12.5" ry="12.5" style="stroke: #A80036; stroke-width: 1.5;" width="50" x="359" y="216"/><line style="stroke: #A80036; stroke-width: 1.5;" x1="359" x2="409" y1="242.2969" y2="242.2969"/><text fill="#000000" font-family="sans-serif" font-size="14" lengthAdjust="spacingAndGlyphs" textLength="18" x="375" y="233.9951">q6</text><rect fill="#FEFECE" filter="url(#f163go27cucr1v)" height="50" rx="12.5" ry="12.5" style="stroke: #A80036; stroke-width: 1.5;" width="50" x="133" y="216"/><line style="stroke: #A80036; stroke-width: 1.5;" x1="133" x2="183" y1="242.2969" y2="242.2969"/><text fill="#000000" font-family="sans-serif" font-size="14" lengthAdjust="spacingAndGlyphs" textLength="18" x="149" y="233.9951">q4</text><!--link q2 to q4--><path d="M35.4323,139.2857 C39.1178,154.2455 45.6603,172.7895 57,186 C75.7398,207.8315 105.3846,222.5121 127.7198,231.1749 " fill="none" id="q2-q4" style="stroke: #A80036; stroke-width: 1.0;"/><polygon fill="#A80036" points="132.6542,233.0377,125.6471,226.1167,127.9765,231.2717,122.8215,233.6011,132.6542,233.0377" style="stroke: #A80036; stroke-width: 1.0;"/><text fill="#000000" font-family="sans-serif" font-size="13" lengthAdjust="spacingAndGlyphs" textLength="37" x="58" y="182.0669">(1)init</text><!--link q2 to _rejected--><path d="M31.0675,139.2642 C31.7763,153.3563 33.7956,171.0321 39,186 C52.7702,225.6031 58.298,237.4445 89,266 C131.7536,305.7646 192.9475,334.6094 234.9025,351.2761 " fill="none" id="q2-_rejected" style="stroke: #A80036; stroke-width: 1.0;"/><polygon fill="#A80036" points="239.6654,353.1488,232.7532,346.133,235.0122,351.3192,229.8259,353.5782,239.6654,353.1488" style="stroke: #A80036; stroke-width: 1.0;"/><text fill="#000000" font-family="sans-serif" font-size="13" lengthAdjust="spacingAndGlyphs" textLength="25" x="90" y="245.5669">(2)*</text><!--link q5 to q6--><path d="M382.0926,139.3179 C381.268,153.1151 380.5774,170.4923 381,186 C381.2159,193.9222 381.6064,202.4792 382.0359,210.4297 " fill="none" id="q5-q6" style="stroke: #A80036; stroke-width: 1.0;"/><polygon fill="#A80036" points="382.3377,215.8217,385.8282,206.6121,382.0581,210.8295,377.8407,207.0594,382.3377,215.8217" style="stroke: #A80036; stroke-width: 1.0;"/><text fill="#000000" font-family="sans-serif" font-size="13" lengthAdjust="spacingAndGlyphs" textLength="76" x="382" y="182.0669">(1)knockout</text><!--link q5 to q6--><path d="M409.35,123.9393 C427.9274,132.7287 451.7819,147.5209 463,169 C476.8869,195.589 441.7378,217.3068 413.9423,229.7037 " fill="none" id="q5-q6" style="stroke: #A80036; stroke-width: 1.0;"/><polygon fill="#A80036" points="409.203,231.7608,419.0515,231.8466,413.7896,229.77,415.8662,224.5081,409.203,231.7608" style="stroke: #A80036; stroke-width: 1.0;"/><text fill="#000000" font-family="sans-serif" font-size="13" lengthAdjust="spacingAndGlyphs" textLength="81" x="467" y="182.0669">(3)terminate</text><!--link q5 to q4--><path d="M358.8471,115.7051 C301.4872,120.1705 163.81,134.3468 136,169 C126.3716,180.9976 130.2466,197.182 137.2438,211.1674 " fill="none" id="q5-q4" style="stroke: #A80036; stroke-width: 1.0;"/><polygon fill="#A80036" points="139.7214,215.8168,139.0186,205.993,137.3699,211.4043,131.9586,209.7555,139.7214,215.8168" style="stroke: #A80036; stroke-width: 1.0;"/><text fill="#000000" font-family="sans-serif" font-size="13" lengthAdjust="spacingAndGlyphs" textLength="80" x="137" y="182.0669">(2)day_open</text><!--link q4 to q5--><path d="M183.1616,226.8605 C225.2365,203.2167 309.66,155.7752 354.4765,130.5906 " fill="none" id="q4-q5" style="stroke: #A80036; stroke-width: 1.0;"/><polygon fill="#A80036" points="358.9505,128.0765,349.1449,128.9986,354.5916,130.5261,353.0642,135.9728,358.9505,128.0765" style="stroke: #A80036; stroke-width: 1.0;"/><text fill="#000000" font-family="sans-serif" font-size="13" lengthAdjust="spacingAndGlyphs" textLength="81" x="285" y="182.0669">(1)day_close</text><!--link q5 to _rejected--><path d="M409.043,118.2633 C452.5905,126.243 539.3248,144.8338 557,169 C561.4604,175.0985 559.3848,178.8307 557,186 C534.7516,252.8857 520.6986,273.9722 462,313 C416.2206,343.438 394.186,325.7128 342,343 C337.7519,344.4072 333.3802,345.9784 329.025,347.6289 " fill="none" id="q5-_rejected" style="stroke: #A80036; stroke-width: 1.0;"/><polygon fill="#A80036" points="324.3124,349.4471,334.149,349.9392,328.9772,347.6473,331.2692,342.4755,324.3124,349.4471" style="stroke: #A80036; stroke-width: 1.0;"/><text fill="#000000" font-family="sans-serif" font-size="13" lengthAdjust="spacingAndGlyphs" textLength="25" x="546" y="245.5669">(4)*</text><!--link q6 to q7--><path d="M384,266.0911 C384,286.7035 384,315.9647 384,337.8484 " fill="none" id="q6-q7" style="stroke: #A80036; stroke-width: 1.0;"/><polygon fill="#A80036" points="384,342.961,388,333.961,384,337.961,380,333.961,384,342.961" style="stroke: #A80036; stroke-width: 1.0;"/><text fill="#000000" font-family="sans-serif" font-size="13" lengthAdjust="spacingAndGlyphs" textLength="68" x="385" y="309.0669">(1)_accept</text><!--link q6 to _rejected--><path d="M363.8481,266.0911 C347.0139,287.0514 322.9969,316.9549 305.3315,338.95 " fill="none" id="q6-_rejected" style="stroke: #A80036; stroke-width: 1.0;"/><polygon fill="#A80036" points="302.1101,342.961,310.8645,338.4487,305.241,339.0626,304.6271,333.4392,302.1101,342.961" style="stroke: #A80036; stroke-width: 1.0;"/><text fill="#000000" font-family="sans-serif" font-size="13" lengthAdjust="spacingAndGlyphs" textLength="25" x="340" y="309.0669">(2)*</text><!--link q4 to _rejected--><path d="M182.4984,266.0911 C203.0485,287.1383 232.4031,317.2032 253.9032,339.2234 " fill="none" id="q4-_rejected" style="stroke: #A80036; stroke-width: 1.0;"/><polygon fill="#A80036" points="257.5525,342.961,254.1272,333.727,254.0595,339.3834,248.4031,339.3158,257.5525,342.961" style="stroke: #A80036; stroke-width: 1.0;"/><text fill="#000000" font-family="sans-serif" font-size="13" lengthAdjust="spacingAndGlyphs" textLength="25" x="228" y="309.0669">(2)*</text><!--link *start to q2--><path d="M31,28.2737 C31,41.3608 31,64.5555 31,83.5207 " fill="none" id="*start-q2" style="stroke: #A80036; stroke-width: 1.0;"/><polygon fill="#A80036" points="31,88.7458,35,79.7458,31,83.7458,27,79.7458,31,88.7458" style="stroke: #A80036; stroke-width: 1.0;"/><!--link q7 to *end--><path d="M370.3376,393.2229 C360.3887,411.5901 347.3022,435.7497 339.279,450.5618 " fill="none" id="q7-*end" style="stroke: #A80036; stroke-width: 1.0;"/><polygon fill="#A80036" points="336.7641,455.2048,344.5678,449.1963,339.1455,450.8084,337.5335,445.386,336.7641,455.2048" style="stroke: #A80036; stroke-width: 1.0;"/><!--link _rejected to *end--><path d="M295.1369,393.2229 C304.5992,411.3904 317.0131,435.2252 324.7477,450.0755 " fill="none" id="_rejected-*end" style="stroke: #A80036; stroke-width: 1.0;"/><polygon fill="#A80036" points="327.1803,454.7461,326.5705,444.9161,324.8706,450.3115,319.4752,448.6117,327.1803,454.7461" style="stroke: #A80036; stroke-width: 1.0;"/><!--
@startuml 
state q2
state q5
state q6
state q4
q2 - -> q4:(1)init
q2 - -> _rejected:(2)*
q5 - -> q6:(1)knockout
q5 - -> q4:(2)day_open
q5 - -> q6:(3)terminate
q5 - -> _rejected:(4)*
q6 - -> q7:(1)_accept
q6 - -> _rejected:(2)*
q4 - -> q5:(1)day_close
q4 - -> _rejected:(2)*
[*] - -> q2
state q7
q7 - -> [*]
state _rejected
_rejected - -> [*]
state q2 {
}
state q5 {
}
state q6 {
}
state q4 {
}
@enduml

PlantUML version 1.2017.15(Tue Jul 04 01:45:34 JST 2017)
(GPL source distribution)
Java Runtime: OpenJDK Runtime Environment
JVM: OpenJDK 64-Bit Server VM
Java Version: 1.8.0_181-8u181-b13-0ubuntu0.18.04.1-b13
Operating System: Linux
OS Version: 4.15.0-34-generic
Default Encoding: UTF-8
Language: en
Country: US
--></g></svg>