<?xml version="1.0" encoding="UTF-8" standalone="no"?><svg xmlns="http://www.w3.org/2000/svg" xmlns:xlink="http://www.w3.org/1999/xlink" contentScriptType="application/ecmascript" contentStyleType="text/css" height="485px" preserveAspectRatio="none" style="width:588px;height:485px;" version="1.1" viewBox="0 0 588 485" width="588px" zoomAndPan="magnify"><defs><filter height="300%" id="f19t96d2b942n9" width="300%" x="-1" y="-1"><feGaussianBlur result="blurOut" stdDeviation="2.0"/><feColorMatrix in="blurOut" result="blurOut2" type="matrix" values="0 0 0 0 0 0 0 0 0 0 0 0 0 0 0 0 0 0 .4 0"/><feOffset dx="4.0" dy="4.0" in="blurOut2" result="blurOut3"/><feBlend in="SourceGraphic" in2="blurOut3" mode="normal"/></filter></defs><g><rect fill="#FEFECE" filter="url(#f19t96d2b942n9)" height="50" rx="12.5" ry="12.5" style="stroke: #A80036; stroke-width: 1.5;" width="50" x="61.0351" y="343"/><line style="stroke: #A80036; stroke-width: 1.5;" x1="61.0351" x2="111.0351" y1="369.2969" y2="369.2969"/><text fill="#000000" font-family="sans-serif" font-size="14" lengthAdjust="spacingAndGlyphs" textLength="18" x="77.0351" y="360.9951">q7</text><rect fill="#FEFECE" filter="url(#f19t96d2b942n9)" height="50" rx="12.5" ry="12.5" style="stroke: #A80036; stroke-width: 1.5;" width="84" x="175.0351" y="343"/><line style="stroke: #A80036; stroke-width: 1.5;" x1="175.0351" x2="259.0351" y1="369.2969" y2="369.2969"/><text fill="#000000" font-family="sans-serif" font-size="14" lengthAdjust="spacingAndGlyphs" textLength="64" x="185.0351" y="360.9951">_rejected</text><ellipse cx="551.0351" cy="18" fill="#000000" filter="url(#f19t96d2b942n9)" rx="10" ry="10" style="stroke: none; stroke-width: 1.0;"/><ellipse cx="136.0351" cy="464" fill="none" filter="url(#f19t96d2b942n9)" rx="10" ry="10" style="stroke: #000000; stroke-width: 1.0;"/><ellipse cx="136.5351" cy="464.5" fill="#000000" rx="6" ry="6" style="stroke: none; stroke-width: 1.0;"/><rect fill="#FEFECE" filter="url(#f19t96d2b942n9)" height="50" rx="12.5" ry="12.5" style="stroke: #A80036; stroke-width: 1.5;" width="50" x="61.0351" y="216"/><line style="stroke: #A80036; stroke-width: 1.5;" x1="61.0351" x2="111.0351" y1="242.2969" y2="242.2969"/><text fill="#000000" font-family="sans-serif" font-size="14" lengthAdjust="spacingAndGlyphs" textLength="18" x="77.0351" y="233.9951">q6</text><rect fill="#FEFECE" filter="url(#f19t96d2b942n9)" height="50" rx="12.5" ry="12.5" style="stroke: #A80036; stroke-width: 1.5;" width="50" x="326.0351" y="216"/><line style="stroke: #A80036; stroke-width: 1.5;" x1="326.0351" x2="376.0351" y1="242.2969" y2="242.2969"/><text fill="#000000" font-family="sans-serif" font-size="14" lengthAdjust="spacingAndGlyphs" textLength="18" x="342.0351" y="233.9951">q4</text><rect fill="#FEFECE" filter="url(#f19t96d2b942n9)" height="50" rx="12.5" ry="12.5" style="stroke: #A80036; stroke-width: 1.5;" width="50" x="526.0351" y="89"/><line style="stroke: #A80036; stroke-width: 1.5;" x1="526.0351" x2="576.0351" y1="115.2969" y2="115.2969"/><text fill="#000000" font-family="sans-serif" font-size="14" lengthAdjust="spacingAndGlyphs" textLength="18" x="542.0351" y="106.9951">q2</text><rect fill="#FEFECE" filter="url(#f19t96d2b942n9)" height="50" rx="12.5" ry="12.5" style="stroke: #A80036; stroke-width: 1.5;" width="50" x="192.0351" y="89"/><line style="stroke: #A80036; stroke-width: 1.5;" x1="192.0351" x2="242.0351" y1="115.2969" y2="115.2969"/><text fill="#000000" font-family="sans-serif" font-size="14" lengthAdjust="spacingAndGlyphs" textLength="18" x="208.0351" y="106.9951">q5</text><!--link q6 to q7--><path d="M67.7351,266.0461 C62.2049,275.0375 56.8546,285.5474 54.0351,296 C50.1642,310.3502 55.344,325.4895 62.5888,338.1629 " fill="none" id="q6-q7" style="stroke: #A80036; stroke-width: 1.0;"/><polygon fill="#A80036" points="65.3385,342.7144,64.1085,332.9426,62.7531,338.4347,57.261,337.0793,65.3385,342.7144" style="stroke: #A80036; stroke-width: 1.0;"/><text fill="#000000" font-family="sans-serif" font-size="13" lengthAdjust="spacingAndGlyphs" textLength="68" x="55.0351" y="309.0669">(1)_accept</text><!--link q6 to _rejected--><path d="M111.2932,265.4869 C133.03,286.56 164.4207,316.9922 187.3528,339.2241 " fill="none" id="q6-_rejected" style="stroke: #A80036; stroke-width: 1.0;"/><polygon fill="#A80036" points="190.9578,342.719,187.2801,333.5826,187.3678,339.2387,181.7117,339.3265,190.9578,342.719" style="stroke: #A80036; stroke-width: 1.0;"/><text fill="#000000" font-family="sans-serif" font-size="13" lengthAdjust="spacingAndGlyphs" textLength="25" x="160.0351" y="309.0669">(2)*</text><!--link q4 to q5--><path d="M325.6974,226.2068 C309.4141,216.039 288.3364,201.5969 272.0351,186 C258.7481,173.2872 246.1267,157.1703 236.3338,143.4095 " fill="none" id="q4-q5" style="stroke: #A80036; stroke-width: 1.0;"/><polygon fill="#A80036" points="233.3878,139.2209,235.2937,148.8836,236.2643,143.3106,241.8372,144.2812,233.3878,139.2209" style="stroke: #A80036; stroke-width: 1.0;"/><text fill="#000000" font-family="sans-serif" font-size="13" lengthAdjust="spacingAndGlyphs" textLength="81" x="273.0351" y="182.0669">(1)day_close</text><!--link q5 to q4--><path d="M242.0579,120.0762 C279.0399,129.6203 345.401,149.0981 359.0351,169 C367.3281,181.1055 366.4004,197.1318 362.9341,210.9907 " fill="none" id="q5-q4" style="stroke: #A80036; stroke-width: 1.0;"/><polygon fill="#A80036" points="361.5546,215.9873,367.8059,208.3767,362.8855,211.1677,360.0945,206.2473,361.5546,215.9873" style="stroke: #A80036; stroke-width: 1.0;"/><text fill="#000000" font-family="sans-serif" font-size="13" lengthAdjust="spacingAndGlyphs" textLength="80" x="365.0351" y="182.0669">(2)day_open</text><!--link q4 to _rejected--><path d="M325.8307,264.8877 C303.522,286.0311 270.9201,316.9299 247.2251,339.387 " fill="none" id="q4-_rejected" style="stroke: #A80036; stroke-width: 1.0;"/><polygon fill="#A80036" points="243.5016,342.916,252.7855,339.6282,247.1306,339.4765,247.2823,333.8217,243.5016,342.916" style="stroke: #A80036; stroke-width: 1.0;"/><text fill="#000000" font-family="sans-serif" font-size="13" lengthAdjust="spacingAndGlyphs" textLength="25" x="293.0351" y="309.0669">(2)*</text><!--link q2 to q4--><path d="M525.8319,134.3224 C506.6702,149.3696 479.3729,169.9553 454.0351,186 C430.1514,201.1239 401.7242,216.0914 380.7908,226.585 " fill="none" id="q2-q4" style="stroke: #A80036; stroke-width: 1.0;"/><polygon fill="#A80036" points="376.175,228.8872,386.0141,228.4495,380.6493,226.6555,382.4434,221.2907,376.175,228.8872" style="stroke: #A80036; stroke-width: 1.0;"/><text fill="#000000" font-family="sans-serif" font-size="13" lengthAdjust="spacingAndGlyphs" textLength="37" x="479.0351" y="182.0669">(1)init</text><!--link q2 to _rejected--><path d="M546.2591,139.0012 C542.448,153.857 535.8942,172.3917 525.0351,186 C455.3293,273.3524 331.4552,327.8219 263.9933,352.4795 " fill="none" id="q2-_rejected" style="stroke: #A80036; stroke-width: 1.0;"/><polygon fill="#A80036" points="259.2351,354.2034,269.0594,354.8982,263.936,352.5001,266.3341,347.3767,259.2351,354.2034" style="stroke: #A80036; stroke-width: 1.0;"/><text fill="#000000" font-family="sans-serif" font-size="13" lengthAdjust="spacingAndGlyphs" textLength="25" x="497.0351" y="245.5669">(2)*</text><!--link q5 to q6--><path d="M191.908,121.5127 C168.5339,129.6929 134.2171,144.9246 113.0351,169 C102.668,180.7832 96.1285,196.9282 92.0876,210.9438 " fill="none" id="q5-q6" style="stroke: #A80036; stroke-width: 1.0;"/><polygon fill="#A80036" points="90.7094,215.9992,96.9358,208.3682,92.0246,211.1753,89.2175,206.264,90.7094,215.9992" style="stroke: #A80036; stroke-width: 1.0;"/><text fill="#000000" font-family="sans-serif" font-size="13" lengthAdjust="spacingAndGlyphs" textLength="76" x="114.0351" y="182.0669">(1)knockout</text><!--link q5 to q6--><path d="M192.033,116.9064 C142.1462,123.2741 33.1316,140.23 11.0351,169 C-6.8411,192.2751 28.2446,215.0289 56.2278,228.5347 " fill="none" id="q5-q6" style="stroke: #A80036; stroke-width: 1.0;"/><polygon fill="#A80036" points="61.0014,230.7841,54.5652,223.3292,56.4784,228.6527,51.155,230.5659,61.0014,230.7841" style="stroke: #A80036; stroke-width: 1.0;"/><text fill="#000000" font-family="sans-serif" font-size="13" lengthAdjust="spacingAndGlyphs" textLength="81" x="12.0351" y="182.0669">(3)terminate</text><!--link q5 to _rejected--><path d="M217.0351,139.2831 C217.0351,186.3532 217.0351,287.2214 217.0351,337.7911 " fill="none" id="q5-_rejected" style="stroke: #A80036; stroke-width: 1.0;"/><polygon fill="#A80036" points="217.0351,342.8192,221.0351,333.8192,217.0351,337.8192,213.0351,333.8192,217.0351,342.8192" style="stroke: #A80036; stroke-width: 1.0;"/><text fill="#000000" font-family="sans-serif" font-size="13" lengthAdjust="spacingAndGlyphs" textLength="25" x="218.0351" y="245.5669">(4)*</text><!--link *start to q2--><path d="M551.0351,28.2737 C551.0351,41.3608 551.0351,64.5555 551.0351,83.5207 " fill="none" id="*start-q2" style="stroke: #A80036; stroke-width: 1.0;"/><polygon fill="#A80036" points="551.0351,88.7458,555.0351,79.7458,551.0351,83.7458,547.0351,79.7458,551.0351,88.7458" style="stroke: #A80036; stroke-width: 1.0;"/><!--link q7 to *end--><path d="M99.172,393.2229 C108.6343,411.3904 121.0482,435.2252 128.7827,450.0755 " fill="none" id="q7-*end" style="stroke: #A80036; stroke-width: 1.0;"/><polygon fill="#A80036" points="131.2153,454.7461,130.6055,444.9161,128.9056,450.3115,123.5102,448.6117,131.2153,454.7461" style="stroke: #A80036; stroke-width: 1.0;"/><!--link _rejected to *end--><path d="M195.7533,393.2229 C179.7813,412.1526 158.6181,437.2349 146.2479,451.8959 " fill="none" id="_rejected-*end" style="stroke: #A80036; stroke-width: 1.0;"/><polygon fill="#A80036" points="142.7067,456.0929,151.5677,451.7937,145.931,452.2714,145.4533,446.6348,142.7067,456.0929" style="stroke: #A80036; stroke-width: 1.0;"/><!--
@startuml 
state q6
state q4
state q2
state q5
q6 - -> q7:(1)_accept
q6 - -> _rejected:(2)*
q4 - -> q5:(1)day_close
q4 - -> _rejected:(2)*
q2 - -> q4:(1)init
q2 - -> _rejected:(2)*
q5 - -> q6:(1)knockout
q5 - -> q4:(2)day_open
q5 - -> q6:(3)terminate
q5 - -> _rejected:(4)*
[*] - -> q2
state q7
q7 - -> [*]
state _rejected
_rejected - -> [*]
state q6 {
}
state q4 {
}
state q2 {
}
state q5 {
}
@enduml

PlantUML version 1.2017.15(Tue Jul 04 01:45:34 JST 2017)
(GPL source distribution)
Java Runtime: OpenJDK Runtime Environment
JVM: OpenJDK 64-Bit Server VM
Java Version: 1.8.0_191-8u191-b12-0ubuntu0.18.04.1-b12
Operating System: Linux
OS Version: 4.15.0-39-generic
Default Encoding: UTF-8
Language: en
Country: US
--></g></svg>