<?xml version="1.0" encoding="UTF-8" standalone="no"?><svg xmlns="http://www.w3.org/2000/svg" xmlns:xlink="http://www.w3.org/1999/xlink" contentScriptType="application/ecmascript" contentStyleType="text/css" height="485px" preserveAspectRatio="none" style="width:952px;height:485px;" version="1.1" viewBox="0 0 952 485" width="952px" zoomAndPan="magnify"><defs><filter height="300%" id="f1fvk7r3v69xvt" width="300%" x="-1" y="-1"><feGaussianBlur result="blurOut" stdDeviation="2.0"/><feColorMatrix in="blurOut" result="blurOut2" type="matrix" values="0 0 0 0 0 0 0 0 0 0 0 0 0 0 0 0 0 0 .4 0"/><feOffset dx="4.0" dy="4.0" in="blurOut2" result="blurOut3"/><feBlend in="SourceGraphic" in2="blurOut3" mode="normal"/></filter></defs><g><rect fill="#FEFECE" filter="url(#f1fvk7r3v69xvt)" height="50" rx="12.5" ry="12.5" style="stroke: #A80036; stroke-width: 1.5;" width="84" x="38.9369" y="343"/><line style="stroke: #A80036; stroke-width: 1.5;" x1="38.9369" x2="122.9369" y1="369.2969" y2="369.2969"/><text fill="#000000" font-family="sans-serif" font-size="14" lengthAdjust="spacingAndGlyphs" textLength="64" x="48.9369" y="360.9951">_rejected</text><rect fill="#FEFECE" filter="url(#f1fvk7r3v69xvt)" height="50" rx="12.5" ry="12.5" style="stroke: #A80036; stroke-width: 1.5;" width="50" x="157.9369" y="343"/><line style="stroke: #A80036; stroke-width: 1.5;" x1="157.9369" x2="207.9369" y1="369.2969" y2="369.2969"/><text fill="#000000" font-family="sans-serif" font-size="14" lengthAdjust="spacingAndGlyphs" textLength="18" x="173.9369" y="360.9951">q6</text><ellipse cx="80.9369" cy="18" fill="#000000" filter="url(#f1fvk7r3v69xvt)" rx="10" ry="10" style="stroke: none; stroke-width: 1.0;"/><ellipse cx="130.9369" cy="464" fill="none" filter="url(#f1fvk7r3v69xvt)" rx="10" ry="10" style="stroke: #000000; stroke-width: 1.0;"/><ellipse cx="131.4369" cy="464.5" fill="#000000" rx="6" ry="6" style="stroke: none; stroke-width: 1.0;"/><rect fill="#FEFECE" filter="url(#f1fvk7r3v69xvt)" height="50" rx="12.5" ry="12.5" style="stroke: #A80036; stroke-width: 1.5;" width="50" x="55.9369" y="89"/><line style="stroke: #A80036; stroke-width: 1.5;" x1="55.9369" x2="105.9369" y1="115.2969" y2="115.2969"/><text fill="#000000" font-family="sans-serif" font-size="14" lengthAdjust="spacingAndGlyphs" textLength="18" x="71.9369" y="106.9951">q2</text><rect fill="#FEFECE" filter="url(#f1fvk7r3v69xvt)" height="50" rx="12.5" ry="12.5" style="stroke: #A80036; stroke-width: 1.5;" width="50" x="534.9369" y="216"/><line style="stroke: #A80036; stroke-width: 1.5;" x1="534.9369" x2="584.9369" y1="242.2969" y2="242.2969"/><text fill="#000000" font-family="sans-serif" font-size="14" lengthAdjust="spacingAndGlyphs" textLength="18" x="550.9369" y="233.9951">q5</text><rect fill="#FEFECE" filter="url(#f1fvk7r3v69xvt)" height="50" rx="12.5" ry="12.5" style="stroke: #A80036; stroke-width: 1.5;" width="50" x="55.9369" y="216"/><line style="stroke: #A80036; stroke-width: 1.5;" x1="55.9369" x2="105.9369" y1="242.2969" y2="242.2969"/><text fill="#000000" font-family="sans-serif" font-size="14" lengthAdjust="spacingAndGlyphs" textLength="18" x="71.9369" y="233.9951">q4</text><!--link q2 to q4--><path d="M80.9369,139.0911 C80.9369,159.7035 80.9369,188.9647 80.9369,210.8484 " fill="none" id="q2-q4" style="stroke: #A80036; stroke-width: 1.0;"/><polygon fill="#A80036" points="80.9369,215.961,84.9369,206.961,80.9369,210.961,76.9369,206.961,80.9369,215.961" style="stroke: #A80036; stroke-width: 1.0;"/><text fill="#000000" font-family="sans-serif" font-size="13" lengthAdjust="spacingAndGlyphs" textLength="76" x="81.9369" y="182.0669">(1)knockout</text><!--link q2 to q2--><path d="M106.2146,110.9546 C123.7104,110.0317 140.9369,111.0469 140.9369,114 C140.9369,116.6532 127.0318,117.7421 111.5193,117.2666 " fill="none" id="q2-q2" style="stroke: #A80036; stroke-width: 1.0;"/><polygon fill="#A80036" points="106.2146,117.0454,115.04,121.4171,111.2103,117.2538,115.3735,113.424,106.2146,117.0454" style="stroke: #A80036; stroke-width: 1.0;"/><text fill="#000000" font-family="sans-serif" font-size="13" lengthAdjust="spacingAndGlyphs" textLength="80" x="146.9369" y="118.5669">(2)day_open</text><!--link q2 to q2--><path d="M106.0509,109.953 C152.7324,105.3034 232.9369,106.6523 232.9369,114 C232.9369,121.0893 158.2727,122.5944 111.0937,118.5151 " fill="none" id="q2-q2" style="stroke: #A80036; stroke-width: 1.0;"/><polygon fill="#A80036" points="106.0509,118.047,114.6425,122.862,111.0295,118.5093,115.3822,114.8962,106.0509,118.047" style="stroke: #A80036; stroke-width: 1.0;"/><text fill="#000000" font-family="sans-serif" font-size="13" lengthAdjust="spacingAndGlyphs" textLength="81" x="238.9369" y="118.5669">(3)day_close</text><!--link q2 to q2--><path d="M106.2022,109.2775 C174.9631,100.7452 325.9369,102.3193 325.9369,114 C325.9369,125.4069 181.9571,127.1755 111.1694,119.3057 " fill="none" id="q2-q2" style="stroke: #A80036; stroke-width: 1.0;"/><polygon fill="#A80036" points="106.2022,118.7225,114.6741,123.7451,111.1681,119.3058,115.6074,115.7997,106.2022,118.7225" style="stroke: #A80036; stroke-width: 1.0;"/><text fill="#000000" font-family="sans-serif" font-size="13" lengthAdjust="spacingAndGlyphs" textLength="37" x="331.9369" y="118.5669">(5)init</text><!--link q2 to q5--><path d="M106.3984,117.1546 C174.9558,126.233 368.3595,155.7173 517.9369,216 C522.0985,217.6772 526.3326,219.728 530.4319,221.9267 " fill="none" id="q2-q5" style="stroke: #A80036; stroke-width: 1.0;"/><polygon fill="#A80036" points="534.8173,224.3597,528.8882,216.4955,530.4452,221.9339,525.0068,223.4909,534.8173,224.3597" style="stroke: #A80036; stroke-width: 1.0;"/><text fill="#000000" font-family="sans-serif" font-size="13" lengthAdjust="spacingAndGlyphs" textLength="81" x="425.9369" y="182.0669">(4)terminate</text><!--link q2 to _rejected--><path d="M57.0306,139.337 C40.5202,158.6737 19.9708,186.8709 10.9369,216 C4.3544,237.2249 4.3544,244.7751 10.9369,266 C19.3356,293.0809 37.6874,319.3564 53.4934,338.4555 " fill="none" id="q2-_rejected" style="stroke: #A80036; stroke-width: 1.0;"/><polygon fill="#A80036" points="57.0306,342.663,54.3008,333.2,53.8131,338.8358,48.1773,338.348,57.0306,342.663" style="stroke: #A80036; stroke-width: 1.0;"/><text fill="#000000" font-family="sans-serif" font-size="13" lengthAdjust="spacingAndGlyphs" textLength="25" x="11.9369" y="245.5669">(6)*</text><!--link q5 to q6--><path d="M534.837,256.4592 C529.3239,259.7085 523.4772,263.0443 517.9369,266 C474.9631,288.9259 464.9184,296.936 418.9369,313 C347.0413,338.1174 258.8184,355.2138 213.3084,363.0737 " fill="none" id="q5-q6" style="stroke: #A80036; stroke-width: 1.0;"/><polygon fill="#A80036" points="208.2403,363.9412,217.7861,366.3655,213.1686,363.0976,216.4364,358.4801,208.2403,363.9412" style="stroke: #A80036; stroke-width: 1.0;"/><text fill="#000000" font-family="sans-serif" font-size="13" lengthAdjust="spacingAndGlyphs" textLength="68" x="461.9369" y="309.0669">(1)_accept</text><!--link q5 to q5--><path d="M585.2146,238.3776 C602.7104,237.5829 619.9369,238.457 619.9369,241 C619.9369,243.2847 606.0318,244.2223 590.5193,243.8129 " fill="none" id="q5-q5" style="stroke: #A80036; stroke-width: 1.0;"/><polygon fill="#A80036" points="585.2146,243.6224,594.0653,247.9428,590.2114,243.8018,594.3523,239.948,585.2146,243.6224" style="stroke: #A80036; stroke-width: 1.0;"/><text fill="#000000" font-family="sans-serif" font-size="13" lengthAdjust="spacingAndGlyphs" textLength="80" x="625.9369" y="245.5669">(2)day_open</text><!--link q5 to q5--><path d="M585.0509,237.5151 C631.7324,233.5112 711.9369,234.6729 711.9369,241 C711.9369,247.1047 637.2727,248.4007 590.0937,244.888 " fill="none" id="q5-q5" style="stroke: #A80036; stroke-width: 1.0;"/><polygon fill="#A80036" points="585.0509,244.4849,593.7034,249.1896,590.035,244.8835,594.3411,241.2151,585.0509,244.4849" style="stroke: #A80036; stroke-width: 1.0;"/><text fill="#000000" font-family="sans-serif" font-size="13" lengthAdjust="spacingAndGlyphs" textLength="81" x="717.9369" y="245.5669">(3)day_close</text><!--link q5 to q5--><path d="M585.2022,236.9334 C653.9631,229.5861 804.9369,230.9417 804.9369,241 C804.9369,250.803 661.5324,252.3394 590.595,245.6094 " fill="none" id="q5-q5" style="stroke: #A80036; stroke-width: 1.0;"/><polygon fill="#A80036" points="585.2022,245.0666,593.7562,249.948,590.1771,245.5675,594.5576,241.9883,585.2022,245.0666" style="stroke: #A80036; stroke-width: 1.0;"/><text fill="#000000" font-family="sans-serif" font-size="13" lengthAdjust="spacingAndGlyphs" textLength="81" x="810.9369" y="245.5669">(4)terminate</text><!--link q5 to q5--><path d="M585.2089,236.5059 C672.9651,225.6821 897.9369,227.1802 897.9369,241 C897.9369,254.5634 681.2362,256.258 590.2332,246.0839 " fill="none" id="q5-q5" style="stroke: #A80036; stroke-width: 1.0;"/><polygon fill="#A80036" points="585.2089,245.4941,593.6811,250.5162,590.1748,246.0771,594.6139,242.5708,585.2089,245.4941" style="stroke: #A80036; stroke-width: 1.0;"/><text fill="#000000" font-family="sans-serif" font-size="13" lengthAdjust="spacingAndGlyphs" textLength="37" x="903.9369" y="245.5669">(5)init</text><!--link q5 to _rejected--><path d="M534.8657,257.7628 C529.4501,260.8531 523.6349,263.7953 517.9369,266 C478.064,281.4282 181.8046,330.4417 140.9369,343 C136.6592,344.3145 132.2671,345.8216 127.8985,347.4302 " fill="none" id="q5-_rejected" style="stroke: #A80036; stroke-width: 1.0;"/><polygon fill="#A80036" points="123.174,349.2112,133.0064,349.7795,127.8526,347.4475,130.1846,342.2937,123.174,349.2112" style="stroke: #A80036; stroke-width: 1.0;"/><text fill="#000000" font-family="sans-serif" font-size="13" lengthAdjust="spacingAndGlyphs" textLength="25" x="379.9369" y="309.0669">(6)*</text><!--link q4 to q6--><path d="M101.0888,266.0911 C117.9231,287.0514 141.94,316.9549 159.6054,338.95 " fill="none" id="q4-q6" style="stroke: #A80036; stroke-width: 1.0;"/><polygon fill="#A80036" points="162.8269,342.961,160.3099,333.4392,159.696,339.0626,154.0725,338.4487,162.8269,342.961" style="stroke: #A80036; stroke-width: 1.0;"/><text fill="#000000" font-family="sans-serif" font-size="13" lengthAdjust="spacingAndGlyphs" textLength="68" x="138.9369" y="309.0669">(1)_accept</text><!--link q4 to q4--><path d="M106.2146,238.3776 C123.7104,237.5829 140.9369,238.457 140.9369,241 C140.9369,243.2847 127.0318,244.2223 111.5193,243.8129 " fill="none" id="q4-q4" style="stroke: #A80036; stroke-width: 1.0;"/><polygon fill="#A80036" points="106.2146,243.6224,115.0653,247.9428,111.2114,243.8018,115.3523,239.948,106.2146,243.6224" style="stroke: #A80036; stroke-width: 1.0;"/><text fill="#000000" font-family="sans-serif" font-size="13" lengthAdjust="spacingAndGlyphs" textLength="76" x="146.9369" y="245.5669">(2)knockout</text><!--link q4 to q4--><path d="M106.0245,237.4865 C151.7691,233.5168 228.9369,234.688 228.9369,241 C228.9369,247.0778 157.3901,248.3892 111.2414,244.9342 " fill="none" id="q4-q4" style="stroke: #A80036; stroke-width: 1.0;"/><polygon fill="#A80036" points="106.0245,244.5135,114.6738,249.2242,111.0083,244.9155,115.317,241.2501,106.0245,244.5135" style="stroke: #A80036; stroke-width: 1.0;"/><text fill="#000000" font-family="sans-serif" font-size="13" lengthAdjust="spacingAndGlyphs" textLength="80" x="234.9369" y="245.5669">(3)day_open</text><!--link q4 to q4--><path d="M105.9542,236.9334 C173.7062,229.5861 320.9369,230.9417 320.9369,241 C320.9369,250.803 181.0879,252.3394 111.265,245.6094 " fill="none" id="q4-q4" style="stroke: #A80036; stroke-width: 1.0;"/><polygon fill="#A80036" points="105.9542,245.0666,114.5007,249.9613,110.9283,245.5752,115.3144,242.0028,105.9542,245.0666" style="stroke: #A80036; stroke-width: 1.0;"/><text fill="#000000" font-family="sans-serif" font-size="13" lengthAdjust="spacingAndGlyphs" textLength="81" x="326.9369" y="245.5669">(4)day_close</text><!--link q4 to q4--><path d="M106.0454,236.5059 C192.9399,225.6821 413.9369,227.1802 413.9369,241 C413.9369,254.5634 201.0649,256.258 111.0186,246.0839 " fill="none" id="q4-q4" style="stroke: #A80036; stroke-width: 1.0;"/><polygon fill="#A80036" points="106.0454,245.4941,114.5115,250.5264,111.0106,246.0831,115.4539,242.5821,106.0454,245.4941" style="stroke: #A80036; stroke-width: 1.0;"/><text fill="#000000" font-family="sans-serif" font-size="13" lengthAdjust="spacingAndGlyphs" textLength="37" x="419.9369" y="245.5669">(5)init</text><!--link q4 to _rejected--><path d="M80.9369,266.0911 C80.9369,286.7035 80.9369,315.9647 80.9369,337.8484 " fill="none" id="q4-_rejected" style="stroke: #A80036; stroke-width: 1.0;"/><polygon fill="#A80036" points="80.9369,342.961,84.9369,333.961,80.9369,337.961,76.9369,333.961,80.9369,342.961" style="stroke: #A80036; stroke-width: 1.0;"/><text fill="#000000" font-family="sans-serif" font-size="13" lengthAdjust="spacingAndGlyphs" textLength="25" x="81.9369" y="309.0669">(6)*</text><!--link *start to q2--><path d="M80.9369,28.2737 C80.9369,41.3608 80.9369,64.5555 80.9369,83.5207 " fill="none" id="*start-q2" style="stroke: #A80036; stroke-width: 1.0;"/><polygon fill="#A80036" points="80.9369,88.7458,84.9369,79.7458,80.9369,83.7458,76.9369,79.7458,80.9369,88.7458" style="stroke: #A80036; stroke-width: 1.0;"/><!--link q6 to *end--><path d="M169.2745,393.2229 C159.3256,411.5901 146.2392,435.7497 138.2159,450.5618 " fill="none" id="q6-*end" style="stroke: #A80036; stroke-width: 1.0;"/><polygon fill="#A80036" points="135.701,455.2048,143.5047,449.1963,138.0824,450.8084,136.4704,445.386,135.701,455.2048" style="stroke: #A80036; stroke-width: 1.0;"/><!--link _rejected to *end--><path d="M94.0738,393.2229 C103.5361,411.3904 115.95,435.2252 123.6846,450.0755 " fill="none" id="_rejected-*end" style="stroke: #A80036; stroke-width: 1.0;"/><polygon fill="#A80036" points="126.1172,454.7461,125.5075,444.9161,123.8076,450.3115,118.4122,448.6116,126.1172,454.7461" style="stroke: #A80036; stroke-width: 1.0;"/><!--
@startuml 
state q2
state q5
state q4
q2 - -> q4:(1)knockout
q2 - -> q2:(2)day_open
q2 - -> q2:(3)day_close
q2 - -> q5:(4)terminate
q2 - -> q2:(5)init
q2 - -> _rejected:(6)*
q5 - -> q6:(1)_accept
q5 - -> q5:(2)day_open
q5 - -> q5:(3)day_close
q5 - -> q5:(4)terminate
q5 - -> q5:(5)init
q5 - -> _rejected:(6)*
q4 - -> q6:(1)_accept
q4 - -> q4:(2)knockout
q4 - -> q4:(3)day_open
q4 - -> q4:(4)day_close
q4 - -> q4:(5)init
q4 - -> _rejected:(6)*
[*] - -> q2
state q6
q6 - -> [*]
state _rejected
_rejected - -> [*]
state q2 {
}
state q5 {
}
state q4 {
}
@enduml

PlantUML version 1.2017.15(Tue Jul 04 01:45:34 JST 2017)
(GPL source distribution)
Java Runtime: OpenJDK Runtime Environment
JVM: OpenJDK 64-Bit Server VM
Java Version: 1.8.0_181-8u181-b13-0ubuntu0.18.04.1-b13
Operating System: Linux
OS Version: 4.15.0-34-generic
Default Encoding: UTF-8
Language: en
Country: US
--></g></svg>