<?xml version="1.0" encoding="UTF-8" standalone="no"?><svg xmlns="http://www.w3.org/2000/svg" xmlns:xlink="http://www.w3.org/1999/xlink" contentScriptType="application/ecmascript" contentStyleType="text/css" height="612px" preserveAspectRatio="none" style="width:690px;height:612px;" version="1.1" viewBox="0 0 690 612" width="690px" zoomAndPan="magnify"><defs><filter height="300%" id="fxb1q4zpdji1j" width="300%" x="-1" y="-1"><feGaussianBlur result="blurOut" stdDeviation="2.0"/><feColorMatrix in="blurOut" result="blurOut2" type="matrix" values="0 0 0 0 0 0 0 0 0 0 0 0 0 0 0 0 0 0 .4 0"/><feOffset dx="4.0" dy="4.0" in="blurOut2" result="blurOut3"/><feBlend in="SourceGraphic" in2="blurOut3" mode="normal"/></filter></defs><g><rect fill="#FEFECE" filter="url(#fxb1q4zpdji1j)" height="50" rx="12.5" ry="12.5" style="stroke: #A80036; stroke-width: 1.5;" width="84" x="350" y="470"/><line style="stroke: #A80036; stroke-width: 1.5;" x1="350" x2="434" y1="496.2969" y2="496.2969"/><text fill="#000000" font-family="sans-serif" font-size="14" lengthAdjust="spacingAndGlyphs" textLength="64" x="360" y="487.9951">_rejected</text><rect fill="#FEFECE" filter="url(#fxb1q4zpdji1j)" height="50" rx="12.5" ry="12.5" style="stroke: #A80036; stroke-width: 1.5;" width="50" x="537" y="470"/><line style="stroke: #A80036; stroke-width: 1.5;" x1="537" x2="587" y1="496.2969" y2="496.2969"/><text fill="#000000" font-family="sans-serif" font-size="14" lengthAdjust="spacingAndGlyphs" textLength="18" x="553" y="487.9951">q7</text><ellipse cx="31" cy="18" fill="#000000" filter="url(#fxb1q4zpdji1j)" rx="10" ry="10" style="stroke: none; stroke-width: 1.0;"/><ellipse cx="442" cy="591" fill="none" filter="url(#fxb1q4zpdji1j)" rx="10" ry="10" style="stroke: #000000; stroke-width: 1.0;"/><ellipse cx="442.5" cy="591.5" fill="#000000" rx="6" ry="6" style="stroke: none; stroke-width: 1.0;"/><rect fill="#FEFECE" filter="url(#fxb1q4zpdji1j)" height="50" rx="12.5" ry="12.5" style="stroke: #A80036; stroke-width: 1.5;" width="50" x="6" y="89"/><line style="stroke: #A80036; stroke-width: 1.5;" x1="6" x2="56" y1="115.2969" y2="115.2969"/><text fill="#000000" font-family="sans-serif" font-size="14" lengthAdjust="spacingAndGlyphs" textLength="18" x="22" y="106.9951">q1</text><rect fill="#FEFECE" filter="url(#fxb1q4zpdji1j)" height="50" rx="12.5" ry="12.5" style="stroke: #A80036; stroke-width: 1.5;" width="50" x="65" y="216"/><line style="stroke: #A80036; stroke-width: 1.5;" x1="65" x2="115" y1="242.2969" y2="242.2969"/><text fill="#000000" font-family="sans-serif" font-size="14" lengthAdjust="spacingAndGlyphs" textLength="18" x="81" y="233.9951">q2</text><rect fill="#FEFECE" filter="url(#fxb1q4zpdji1j)" height="50" rx="12.5" ry="12.5" style="stroke: #A80036; stroke-width: 1.5;" width="50" x="430" y="216"/><line style="stroke: #A80036; stroke-width: 1.5;" x1="430" x2="480" y1="242.2969" y2="242.2969"/><text fill="#000000" font-family="sans-serif" font-size="14" lengthAdjust="spacingAndGlyphs" textLength="18" x="446" y="233.9951">q5</text><rect fill="#FEFECE" filter="url(#fxb1q4zpdji1j)" height="50" rx="12.5" ry="12.5" style="stroke: #A80036; stroke-width: 1.5;" width="50" x="536" y="343"/><line style="stroke: #A80036; stroke-width: 1.5;" x1="536" x2="586" y1="369.2969" y2="369.2969"/><text fill="#000000" font-family="sans-serif" font-size="14" lengthAdjust="spacingAndGlyphs" textLength="18" x="552" y="360.9951">q6</text><rect fill="#FEFECE" filter="url(#fxb1q4zpdji1j)" height="50" rx="12.5" ry="12.5" style="stroke: #A80036; stroke-width: 1.5;" width="50" x="219" y="343"/><line style="stroke: #A80036; stroke-width: 1.5;" x1="219" x2="269" y1="369.2969" y2="369.2969"/><text fill="#000000" font-family="sans-serif" font-size="14" lengthAdjust="spacingAndGlyphs" textLength="18" x="235" y="360.9951">q4</text><!--link q1 to q2--><path d="M42.6565,139.0911 C52.3131,159.8774 66.0558,189.4592 76.2492,211.4008 " fill="none" id="q1-q2" style="stroke: #A80036; stroke-width: 1.0;"/><polygon fill="#A80036" points="78.3677,215.961,78.2032,206.1135,76.261,211.4265,70.948,209.4843,78.3677,215.961" style="stroke: #A80036; stroke-width: 1.0;"/><text fill="#000000" font-family="sans-serif" font-size="13" lengthAdjust="spacingAndGlyphs" textLength="44" x="66" y="182.0669">(1)_init</text><!--link q1 to _rejected--><path d="M30.4981,139.1362 C30.5931,169.826 33.0628,222.9586 47,266 C55.2506,291.4798 122.4302,389.676 126,393 C188.1916,450.9096 286.7211,477.0323 344.7984,487.9507 " fill="none" id="q1-_rejected" style="stroke: #A80036; stroke-width: 1.0;"/><polygon fill="#A80036" points="349.9443,488.8982,341.8176,483.3343,345.027,487.9926,340.3687,491.202,349.9443,488.8982" style="stroke: #A80036; stroke-width: 1.0;"/><text fill="#000000" font-family="sans-serif" font-size="13" lengthAdjust="spacingAndGlyphs" textLength="25" x="73" y="309.0669">(2)*</text><!--link q2 to q4--><path d="M105.383,266.0965 C115.3739,280.9871 129.4106,299.5249 145,313 C165.7437,330.9304 193.2649,345.6467 214.0242,355.33 " fill="none" id="q2-q4" style="stroke: #A80036; stroke-width: 1.0;"/><polygon fill="#A80036" points="218.6124,357.4399,212.1067,350.0456,214.0697,355.3509,208.7643,357.3139,218.6124,357.4399" style="stroke: #A80036; stroke-width: 1.0;"/><text fill="#000000" font-family="sans-serif" font-size="13" lengthAdjust="spacingAndGlyphs" textLength="37" x="146" y="309.0669">(1)init</text><!--link q2 to _rejected--><path d="M97.8736,266.113 C109.5639,299.5223 134.5836,358.3856 175,393 C225.6394,436.3698 297.8542,465.3973 344.8259,481.0526 " fill="none" id="q2-_rejected" style="stroke: #A80036; stroke-width: 1.0;"/><polygon fill="#A80036" points="349.8576,482.7107,342.5618,476.0947,345.1088,481.1457,340.0578,483.6928,349.8576,482.7107" style="stroke: #A80036; stroke-width: 1.0;"/><text fill="#000000" font-family="sans-serif" font-size="13" lengthAdjust="spacingAndGlyphs" textLength="25" x="176" y="372.5669">(2)*</text><!--link q5 to q6--><path d="M473.2668,266.1166 C483.7087,280.1625 497.2318,297.8413 510,313 C517.2814,321.6447 525.488,330.75 533.1554,339.0097 " fill="none" id="q5-q6" style="stroke: #A80036; stroke-width: 1.0;"/><polygon fill="#A80036" points="536.8697,342.9909,533.655,333.6815,533.4589,339.3349,527.8054,339.1388,536.8697,342.9909" style="stroke: #A80036; stroke-width: 1.0;"/><text fill="#000000" font-family="sans-serif" font-size="13" lengthAdjust="spacingAndGlyphs" textLength="76" x="511" y="309.0669">(1)knockout</text><!--link q5 to q6--><path d="M480.1982,242.9084 C512.3951,246.8545 566.9497,258.9497 592,296 C600.7661,308.9654 595.4007,324.8116 586.8311,338.3341 " fill="none" id="q5-q6" style="stroke: #A80036; stroke-width: 1.0;"/><polygon fill="#A80036" points="583.8178,342.8233,592.1548,337.5798,586.6043,338.6718,585.5124,333.1213,583.8178,342.8233" style="stroke: #A80036; stroke-width: 1.0;"/><text fill="#000000" font-family="sans-serif" font-size="13" lengthAdjust="spacingAndGlyphs" textLength="81" x="597" y="309.0669">(3)terminate</text><!--link q5 to q4--><path d="M429.9354,243.139 C375.538,248.3541 249.4888,263.73 224,296 C214.5358,307.9821 218.0013,324.1652 224.508,338.1539 " fill="none" id="q5-q4" style="stroke: #A80036; stroke-width: 1.0;"/><polygon fill="#A80036" points="226.817,342.8045,226.3973,332.9646,224.5935,338.3261,219.2319,336.5223,226.817,342.8045" style="stroke: #A80036; stroke-width: 1.0;"/><text fill="#000000" font-family="sans-serif" font-size="13" lengthAdjust="spacingAndGlyphs" textLength="80" x="225" y="309.0669">(2)day_open</text><!--link q4 to q5--><path d="M269.2874,348.5707 C289.5112,333.424 318.8726,312.2974 346,296 C371.9531,280.4081 402.879,265.0927 425.1485,254.5994 " fill="none" id="q4-q5" style="stroke: #A80036; stroke-width: 1.0;"/><polygon fill="#A80036" points="429.7642,252.4351,419.9174,252.6343,425.2371,254.5578,423.3136,259.8776,429.7642,252.4351" style="stroke: #A80036; stroke-width: 1.0;"/><text fill="#000000" font-family="sans-serif" font-size="13" lengthAdjust="spacingAndGlyphs" textLength="81" x="347" y="309.0669">(1)day_close</text><!--link q5 to _rejected--><path d="M448.729,266.2831 C437.0541,313.3532 412.0356,414.2214 399.4928,464.7911 " fill="none" id="q5-_rejected" style="stroke: #A80036; stroke-width: 1.0;"/><polygon fill="#A80036" points="398.2456,469.8192,404.2947,462.0469,399.4493,464.9663,396.53,460.1209,398.2456,469.8192" style="stroke: #A80036; stroke-width: 1.0;"/><text fill="#000000" font-family="sans-serif" font-size="13" lengthAdjust="spacingAndGlyphs" textLength="25" x="429" y="372.5669">(4)*</text><!--link q6 to q7--><path d="M561.1976,393.0911 C561.3599,413.7035 561.5903,442.9647 561.7626,464.8484 " fill="none" id="q6-q7" style="stroke: #A80036; stroke-width: 1.0;"/><polygon fill="#A80036" points="561.8028,469.961,565.7317,460.9297,561.7634,464.9612,557.732,460.9928,561.8028,469.961" style="stroke: #A80036; stroke-width: 1.0;"/><text fill="#000000" font-family="sans-serif" font-size="13" lengthAdjust="spacingAndGlyphs" textLength="68" x="562" y="436.0669">(1)_accept</text><!--link q6 to _rejected--><path d="M535.6594,390.1178 C518.5879,404.7299 495.3698,424.0535 474,440 C461.7803,449.1185 448.1532,458.5401 435.5717,466.9534 " fill="none" id="q6-_rejected" style="stroke: #A80036; stroke-width: 1.0;"/><polygon fill="#A80036" points="431.3486,469.7661,441.0566,468.1062,435.51,466.9944,436.6218,461.4479,431.3486,469.7661" style="stroke: #A80036; stroke-width: 1.0;"/><text fill="#000000" font-family="sans-serif" font-size="13" lengthAdjust="spacingAndGlyphs" textLength="25" x="494" y="436.0669">(2)*</text><!--link q4 to _rejected--><path d="M269.1062,389.5438 C293.7881,410.7236 331.6055,443.175 358.7688,466.4841 " fill="none" id="q4-_rejected" style="stroke: #A80036; stroke-width: 1.0;"/><polygon fill="#A80036" points="362.6964,469.8544,358.4714,460.9578,358.902,466.5983,353.2615,467.0289,362.6964,469.8544" style="stroke: #A80036; stroke-width: 1.0;"/><text fill="#000000" font-family="sans-serif" font-size="13" lengthAdjust="spacingAndGlyphs" textLength="25" x="327" y="436.0669">(2)*</text><!--link *start to q1--><path d="M31,28.2737 C31,41.3608 31,64.5555 31,83.5207 " fill="none" id="*start-q1" style="stroke: #A80036; stroke-width: 1.0;"/><polygon fill="#A80036" points="31,88.7458,35,79.7458,31,83.7458,27,79.7458,31,88.7458" style="stroke: #A80036; stroke-width: 1.0;"/><!--link q7 to *end--><path d="M536.8441,515.1247 C511.4143,535.4686 473.2052,566.0358 453.9691,581.4247 " fill="none" id="q7-*end" style="stroke: #A80036; stroke-width: 1.0;"/><polygon fill="#A80036" points="449.9439,584.6449,459.4705,582.1463,453.8483,581.5215,454.4731,575.8993,449.9439,584.6449" style="stroke: #A80036; stroke-width: 1.0;"/><!--link _rejected to *end--><path d="M405.1369,520.2229 C414.5992,538.3904 427.0131,562.2252 434.7477,577.0755 " fill="none" id="_rejected-*end" style="stroke: #A80036; stroke-width: 1.0;"/><polygon fill="#A80036" points="437.1803,581.7461,436.5705,571.9161,434.8706,577.3115,429.4752,575.6117,437.1803,581.7461" style="stroke: #A80036; stroke-width: 1.0;"/><!--
@startuml 
state q1
state q2
state q5
state q6
state q4
q1 - -> q2:(1)_init
q1 - -> _rejected:(2)*
q2 - -> q4:(1)init
q2 - -> _rejected:(2)*
q5 - -> q6:(1)knockout
q5 - -> q4:(2)day_open
q5 - -> q6:(3)terminate
q5 - -> _rejected:(4)*
q6 - -> q7:(1)_accept
q6 - -> _rejected:(2)*
q4 - -> q5:(1)day_close
q4 - -> _rejected:(2)*
[*] - -> q1
state q7
q7 - -> [*]
state _rejected
_rejected - -> [*]
state q1 {
}
state q2 {
}
state q5 {
}
state q6 {
}
state q4 {
}
@enduml

PlantUML version 1.2017.15(Tue Jul 04 01:45:34 JST 2017)
(GPL source distribution)
Java Runtime: OpenJDK Runtime Environment
JVM: OpenJDK 64-Bit Server VM
Java Version: 1.8.0_181-8u181-b13-0ubuntu0.18.04.1-b13
Operating System: Linux
OS Version: 4.15.0-34-generic
Default Encoding: UTF-8
Language: en
Country: US
--></g></svg>