<?xml version="1.0" encoding="UTF-8" standalone="no"?><svg xmlns="http://www.w3.org/2000/svg" xmlns:xlink="http://www.w3.org/1999/xlink" contentScriptType="application/ecmascript" contentStyleType="text/css" height="612px" preserveAspectRatio="none" style="width:1209px;height:612px;" version="1.1" viewBox="0 0 1209 612" width="1209px" zoomAndPan="magnify"><defs><filter height="300%" id="fvembw1mx9pyy" width="300%" x="-1" y="-1"><feGaussianBlur result="blurOut" stdDeviation="2.0"/><feColorMatrix in="blurOut" result="blurOut2" type="matrix" values="0 0 0 0 0 0 0 0 0 0 0 0 0 0 0 0 0 0 .4 0"/><feOffset dx="4.0" dy="4.0" in="blurOut2" result="blurOut3"/><feBlend in="SourceGraphic" in2="blurOut3" mode="normal"/></filter></defs><g><rect fill="#FEFECE" filter="url(#fvembw1mx9pyy)" height="50" rx="12.5" ry="12.5" style="stroke: #A80036; stroke-width: 1.5;" width="84" x="350" y="470"/><line style="stroke: #A80036; stroke-width: 1.5;" x1="350" x2="434" y1="496.2969" y2="496.2969"/><text fill="#000000" font-family="sans-serif" font-size="14" lengthAdjust="spacingAndGlyphs" textLength="64" x="360" y="487.9951">_rejected</text><rect fill="#FEFECE" filter="url(#fvembw1mx9pyy)" height="50" rx="12.5" ry="12.5" style="stroke: #A80036; stroke-width: 1.5;" width="50" x="537" y="470"/><line style="stroke: #A80036; stroke-width: 1.5;" x1="537" x2="587" y1="496.2969" y2="496.2969"/><text fill="#000000" font-family="sans-serif" font-size="14" lengthAdjust="spacingAndGlyphs" textLength="18" x="553" y="487.9951">q7</text><ellipse cx="31" cy="18" fill="#000000" filter="url(#fvembw1mx9pyy)" rx="10" ry="10" style="stroke: none; stroke-width: 1.0;"/><ellipse cx="442" cy="591" fill="none" filter="url(#fvembw1mx9pyy)" rx="10" ry="10" style="stroke: #000000; stroke-width: 1.0;"/><ellipse cx="442.5" cy="591.5" fill="#000000" rx="6" ry="6" style="stroke: none; stroke-width: 1.0;"/><rect fill="#FEFECE" filter="url(#fvembw1mx9pyy)" height="50" rx="12.5" ry="12.5" style="stroke: #A80036; stroke-width: 1.5;" width="50" x="6" y="89"/><line style="stroke: #A80036; stroke-width: 1.5;" x1="6" x2="56" y1="115.2969" y2="115.2969"/><text fill="#000000" font-family="sans-serif" font-size="14" lengthAdjust="spacingAndGlyphs" textLength="18" x="22" y="106.9951">q1</text><rect fill="#FEFECE" filter="url(#fvembw1mx9pyy)" height="50" rx="12.5" ry="12.5" style="stroke: #A80036; stroke-width: 1.5;" width="50" x="65" y="216"/><line style="stroke: #A80036; stroke-width: 1.5;" x1="65" x2="115" y1="242.2969" y2="242.2969"/><text fill="#000000" font-family="sans-serif" font-size="14" lengthAdjust="spacingAndGlyphs" textLength="18" x="81" y="233.9951">q2</text><rect fill="#FEFECE" filter="url(#fvembw1mx9pyy)" height="50" rx="12.5" ry="12.5" style="stroke: #A80036; stroke-width: 1.5;" width="50" x="459" y="216"/><line style="stroke: #A80036; stroke-width: 1.5;" x1="459" x2="509" y1="242.2969" y2="242.2969"/><text fill="#000000" font-family="sans-serif" font-size="14" lengthAdjust="spacingAndGlyphs" textLength="18" x="475" y="233.9951">q5</text><rect fill="#FEFECE" filter="url(#fvembw1mx9pyy)" height="50" rx="12.5" ry="12.5" style="stroke: #A80036; stroke-width: 1.5;" width="50" x="555" y="343"/><line style="stroke: #A80036; stroke-width: 1.5;" x1="555" x2="605" y1="369.2969" y2="369.2969"/><text fill="#000000" font-family="sans-serif" font-size="14" lengthAdjust="spacingAndGlyphs" textLength="18" x="571" y="360.9951">q6</text><rect fill="#FEFECE" filter="url(#fvembw1mx9pyy)" height="50" rx="12.5" ry="12.5" style="stroke: #A80036; stroke-width: 1.5;" width="50" x="219" y="343"/><line style="stroke: #A80036; stroke-width: 1.5;" x1="219" x2="269" y1="369.2969" y2="369.2969"/><text fill="#000000" font-family="sans-serif" font-size="14" lengthAdjust="spacingAndGlyphs" textLength="18" x="235" y="360.9951">q4</text><!--link q1 to q2--><path d="M42.6565,139.0911 C52.3131,159.8774 66.0558,189.4592 76.2492,211.4008 " fill="none" id="q1-q2" style="stroke: #A80036; stroke-width: 1.0;"/><polygon fill="#A80036" points="78.3677,215.961,78.2032,206.1135,76.261,211.4265,70.948,209.4843,78.3677,215.961" style="stroke: #A80036; stroke-width: 1.0;"/><text fill="#000000" font-family="sans-serif" font-size="13" lengthAdjust="spacingAndGlyphs" textLength="44" x="66" y="182.0669">(1)_init</text><!--link q1 to _rejected--><path d="M30.4981,139.1362 C30.5931,169.826 33.0628,222.9586 47,266 C55.2506,291.4798 122.4302,389.676 126,393 C188.1916,450.9096 286.7211,477.0323 344.7984,487.9507 " fill="none" id="q1-_rejected" style="stroke: #A80036; stroke-width: 1.0;"/><polygon fill="#A80036" points="349.9443,488.8982,341.8176,483.3343,345.027,487.9926,340.3687,491.202,349.9443,488.8982" style="stroke: #A80036; stroke-width: 1.0;"/><text fill="#000000" font-family="sans-serif" font-size="13" lengthAdjust="spacingAndGlyphs" textLength="25" x="73" y="309.0669">(2)*</text><!--link q2 to q4--><path d="M105.383,266.0965 C115.3739,280.9871 129.4106,299.5249 145,313 C165.7437,330.9304 193.2649,345.6467 214.0242,355.33 " fill="none" id="q2-q4" style="stroke: #A80036; stroke-width: 1.0;"/><polygon fill="#A80036" points="218.6124,357.4399,212.1067,350.0456,214.0697,355.3509,208.7643,357.3139,218.6124,357.4399" style="stroke: #A80036; stroke-width: 1.0;"/><text fill="#000000" font-family="sans-serif" font-size="13" lengthAdjust="spacingAndGlyphs" textLength="37" x="146" y="309.0669">(1)init</text><!--link q2 to _rejected--><path d="M97.8736,266.113 C109.5639,299.5223 134.5836,358.3856 175,393 C225.6394,436.3698 297.8542,465.3973 344.8259,481.0526 " fill="none" id="q2-_rejected" style="stroke: #A80036; stroke-width: 1.0;"/><polygon fill="#A80036" points="349.8576,482.7107,342.5618,476.0947,345.1088,481.1457,340.0578,483.6928,349.8576,482.7107" style="stroke: #A80036; stroke-width: 1.0;"/><text fill="#000000" font-family="sans-serif" font-size="13" lengthAdjust="spacingAndGlyphs" textLength="25" x="176" y="372.5669">(2)*</text><!--link q5 to q6--><path d="M509.4479,245.3381 C536.4859,251.4524 577.9103,265.4777 597,296 C604.8247,308.5108 602.202,324.2939 596.9334,337.8923 " fill="none" id="q5-q6" style="stroke: #A80036; stroke-width: 1.0;"/><polygon fill="#A80036" points="594.8871,342.7933,602.046,336.0294,596.8136,338.1794,594.6637,332.947,594.8871,342.7933" style="stroke: #A80036; stroke-width: 1.0;"/><text fill="#000000" font-family="sans-serif" font-size="13" lengthAdjust="spacingAndGlyphs" textLength="285" x="602" y="309.0669">(1)knockout[ _data.price &gt; _data.KO_PRICE ]</text><!--link q5 to q6--><path d="M509.1526,242.4612 C594.6706,247.682 870.3334,266.6793 896,296 C934.9784,340.5276 696.5609,360.4912 610.2844,366.1956 " fill="none" id="q5-q6" style="stroke: #A80036; stroke-width: 1.0;"/><polygon fill="#A80036" points="605.0693,366.5352,614.3104,369.9415,610.0587,366.2101,613.7901,361.9584,605.0693,366.5352" style="stroke: #A80036; stroke-width: 1.0;"/><text fill="#000000" font-family="sans-serif" font-size="13" lengthAdjust="spacingAndGlyphs" textLength="296" x="901" y="309.0669">(2)knockout[ _data.price &lt;= _data.KO_PRICE ]</text><!--link q5 to q6--><path d="M487.6268,266.0638 C490.6889,280.7628 496.2092,299.1127 506,313 C517.368,329.1243 534.9423,342.4711 550.1119,351.9773 " fill="none" id="q5-q6" style="stroke: #A80036; stroke-width: 1.0;"/><polygon fill="#A80036" points="554.733,354.8031,549.1415,346.6954,550.4673,352.1947,544.968,353.5205,554.733,354.8031" style="stroke: #A80036; stroke-width: 1.0;"/><text fill="#000000" font-family="sans-serif" font-size="13" lengthAdjust="spacingAndGlyphs" textLength="81" x="507" y="309.0669">(4)terminate</text><!--link q5 to q4--><path d="M458.9739,242.4182 C399.698,246.3527 253.4887,259.6207 224,296 C214.3852,307.8615 217.8385,324.0349 224.3761,338.0483 " fill="none" id="q5-q4" style="stroke: #A80036; stroke-width: 1.0;"/><polygon fill="#A80036" points="226.697,342.7085,226.265,332.8691,224.4678,338.2329,219.1041,336.4358,226.697,342.7085" style="stroke: #A80036; stroke-width: 1.0;"/><text fill="#000000" font-family="sans-serif" font-size="13" lengthAdjust="spacingAndGlyphs" textLength="80" x="225" y="309.0669">(3)day_open</text><!--link q4 to q5--><path d="M269.3172,347.581 C289.3182,332.0929 318.3721,310.9843 346,296 C381.5762,276.7049 425.3897,260.399 453.9747,250.6676 " fill="none" id="q4-q5" style="stroke: #A80036; stroke-width: 1.0;"/><polygon fill="#A80036" points="458.7782,249.0454,448.9715,248.1354,454.0411,250.6453,451.5312,255.7148,458.7782,249.0454" style="stroke: #A80036; stroke-width: 1.0;"/><text fill="#000000" font-family="sans-serif" font-size="13" lengthAdjust="spacingAndGlyphs" textLength="81" x="347" y="309.0669">(1)day_close</text><!--link q5 to _rejected--><path d="M474.8423,266.2831 C457.7589,313.4483 421.1107,414.6292 402.831,465.097 " fill="none" id="q5-_rejected" style="stroke: #A80036; stroke-width: 1.0;"/><polygon fill="#A80036" points="401.1206,469.8192,407.9466,462.7195,402.8234,465.1181,400.4248,459.9949,401.1206,469.8192" style="stroke: #A80036; stroke-width: 1.0;"/><text fill="#000000" font-family="sans-serif" font-size="13" lengthAdjust="spacingAndGlyphs" textLength="25" x="446" y="372.5669">(5)*</text><!--link q6 to q7--><path d="M576.4438,393.0911 C573.5223,413.7035 569.3751,442.9647 566.2735,464.8484 " fill="none" id="q6-q7" style="stroke: #A80036; stroke-width: 1.0;"/><polygon fill="#A80036" points="565.5488,469.961,570.7723,461.6115,566.2505,465.0105,562.8515,460.4887,565.5488,469.961" style="stroke: #A80036; stroke-width: 1.0;"/><text fill="#000000" font-family="sans-serif" font-size="13" lengthAdjust="spacingAndGlyphs" textLength="68" x="573" y="436.0669">(1)_accept</text><!--link q6 to _rejected--><path d="M554.7557,385.2078 C533.2972,399.8203 501.6589,421.3308 474,440 C460.9796,448.7885 446.7733,458.3329 433.8986,466.9657 " fill="none" id="q6-_rejected" style="stroke: #A80036; stroke-width: 1.0;"/><polygon fill="#A80036" points="429.5871,469.856,439.2901,468.1671,433.7402,467.0719,434.8354,461.522,429.5871,469.856" style="stroke: #A80036; stroke-width: 1.0;"/><text fill="#000000" font-family="sans-serif" font-size="13" lengthAdjust="spacingAndGlyphs" textLength="25" x="498" y="436.0669">(2)*</text><!--link q4 to _rejected--><path d="M269.1062,389.5438 C293.7881,410.7236 331.6055,443.175 358.7688,466.4841 " fill="none" id="q4-_rejected" style="stroke: #A80036; stroke-width: 1.0;"/><polygon fill="#A80036" points="362.6964,469.8544,358.4714,460.9578,358.902,466.5983,353.2615,467.0289,362.6964,469.8544" style="stroke: #A80036; stroke-width: 1.0;"/><text fill="#000000" font-family="sans-serif" font-size="13" lengthAdjust="spacingAndGlyphs" textLength="25" x="327" y="436.0669">(2)*</text><!--link *start to q1--><path d="M31,28.2737 C31,41.3608 31,64.5555 31,83.5207 " fill="none" id="*start-q1" style="stroke: #A80036; stroke-width: 1.0;"/><polygon fill="#A80036" points="31,88.7458,35,79.7458,31,83.7458,27,79.7458,31,88.7458" style="stroke: #A80036; stroke-width: 1.0;"/><!--link q7 to *end--><path d="M536.8441,515.1247 C511.4143,535.4686 473.2052,566.0358 453.9691,581.4247 " fill="none" id="q7-*end" style="stroke: #A80036; stroke-width: 1.0;"/><polygon fill="#A80036" points="449.9439,584.6449,459.4705,582.1463,453.8483,581.5215,454.4731,575.8993,449.9439,584.6449" style="stroke: #A80036; stroke-width: 1.0;"/><!--link _rejected to *end--><path d="M405.1369,520.2229 C414.5992,538.3904 427.0131,562.2252 434.7477,577.0755 " fill="none" id="_rejected-*end" style="stroke: #A80036; stroke-width: 1.0;"/><polygon fill="#A80036" points="437.1803,581.7461,436.5705,571.9161,434.8706,577.3115,429.4752,575.6117,437.1803,581.7461" style="stroke: #A80036; stroke-width: 1.0;"/><!--
@startuml 
state q1
state q2
state q5
state q6
state q4
q1 - -> q2:(1)_init
q1 - -> _rejected:(2)*
q2 - -> q4:(1)init
q2 - -> _rejected:(2)*
q5 - -> q6:(1)knockout[ _data.price > _data.KO_PRICE ]
q5 - -> q6:(2)knockout[ _data.price <= _data.KO_PRICE ]
q5 - -> q4:(3)day_open
q5 - -> q6:(4)terminate
q5 - -> _rejected:(5)*
q6 - -> q7:(1)_accept
q6 - -> _rejected:(2)*
q4 - -> q5:(1)day_close
q4 - -> _rejected:(2)*
[*] - -> q1
state q7
q7 - -> [*]
state _rejected
_rejected - -> [*]
state q1 {
}
state q2 {
}
state q5 {
}
state q6 {
}
state q4 {
}
@enduml

PlantUML version 1.2017.15(Tue Jul 04 01:45:34 JST 2017)
(GPL source distribution)
Java Runtime: OpenJDK Runtime Environment
JVM: OpenJDK 64-Bit Server VM
Java Version: 1.8.0_181-8u181-b13-0ubuntu0.18.04.1-b13
Operating System: Linux
OS Version: 4.15.0-34-generic
Default Encoding: UTF-8
Language: en
Country: US
--></g></svg>