<?xml version="1.0" encoding="UTF-8" standalone="no"?><svg xmlns="http://www.w3.org/2000/svg" xmlns:xlink="http://www.w3.org/1999/xlink" contentScriptType="application/ecmascript" contentStyleType="text/css" height="1420px" preserveAspectRatio="none" style="width:1436px;height:1420px;" version="1.1" viewBox="0 0 1436 1420" width="1436px" zoomAndPan="magnify"><defs><filter height="300%" id="f1rbmk04zpqdmr" width="300%" x="-1" y="-1"><feGaussianBlur result="blurOut" stdDeviation="2.0"/><feColorMatrix in="blurOut" result="blurOut2" type="matrix" values="0 0 0 0 0 0 0 0 0 0 0 0 0 0 0 0 0 0 .4 0"/><feOffset dx="4.0" dy="4.0" in="blurOut2" result="blurOut3"/><feBlend in="SourceGraphic" in2="blurOut3" mode="normal"/></filter></defs><g><rect fill="#FEFECE" filter="url(#f1rbmk04zpqdmr)" height="50" rx="12.5" ry="12.5" style="stroke: #A80036; stroke-width: 1.5;" width="84" x="615" y="1278"/><line style="stroke: #A80036; stroke-width: 1.5;" x1="615" x2="699" y1="1304.2969" y2="1304.2969"/><text fill="#000000" font-family="sans-serif" font-size="14" lengthAdjust="spacingAndGlyphs" textLength="64" x="625" y="1295.9951">_rejected</text><rect fill="#FEFECE" filter="url(#f1rbmk04zpqdmr)" height="50" rx="12.5" ry="12.5" style="stroke: #A80036; stroke-width: 1.5;" width="50" x="363" y="1278"/><line style="stroke: #A80036; stroke-width: 1.5;" x1="363" x2="413" y1="1304.2969" y2="1304.2969"/><text fill="#000000" font-family="sans-serif" font-size="14" lengthAdjust="spacingAndGlyphs" textLength="27" x="374.5" y="1295.9951">q12</text><ellipse cx="1157" cy="795" fill="#000000" filter="url(#f1rbmk04zpqdmr)" rx="10" ry="10" style="stroke: none; stroke-width: 1.0;"/><ellipse cx="522" cy="1399" fill="none" filter="url(#f1rbmk04zpqdmr)" rx="10" ry="10" style="stroke: #000000; stroke-width: 1.0;"/><ellipse cx="522.5" cy="1399.5" fill="#000000" rx="6" ry="6" style="stroke: none; stroke-width: 1.0;"/><rect fill="#FEFECE" filter="url(#f1rbmk04zpqdmr)" height="50" rx="12.5" ry="12.5" style="stroke: #A80036; stroke-width: 1.5;" width="50" x="1132" y="897"/><line style="stroke: #A80036; stroke-width: 1.5;" x1="1132" x2="1182" y1="923.2969" y2="923.2969"/><text fill="#000000" font-family="sans-serif" font-size="14" lengthAdjust="spacingAndGlyphs" textLength="18" x="1148" y="914.9951">q3</text><rect fill="#FEFECE" filter="url(#f1rbmk04zpqdmr)" height="50" rx="12.5" ry="12.5" style="stroke: #A80036; stroke-width: 1.5;" width="50" x="164" y="135"/><line style="stroke: #A80036; stroke-width: 1.5;" x1="164" x2="214" y1="161.2969" y2="161.2969"/><text fill="#000000" font-family="sans-serif" font-size="14" lengthAdjust="spacingAndGlyphs" textLength="18" x="180" y="152.9951">q7</text><rect fill="#FEFECE" filter="url(#f1rbmk04zpqdmr)" height="50" rx="12.5" ry="12.5" style="stroke: #A80036; stroke-width: 1.5;" width="50" x="188" y="1024"/><line style="stroke: #A80036; stroke-width: 1.5;" x1="188" x2="238" y1="1050.2969" y2="1050.2969"/><text fill="#000000" font-family="sans-serif" font-size="14" lengthAdjust="spacingAndGlyphs" textLength="27" x="199.5" y="1041.9951">q14</text><rect fill="#FEFECE" filter="url(#f1rbmk04zpqdmr)" height="50" rx="12.5" ry="12.5" style="stroke: #A80036; stroke-width: 1.5;" width="50" x="98" y="1151"/><line style="stroke: #A80036; stroke-width: 1.5;" x1="98" x2="148" y1="1177.2969" y2="1177.2969"/><text fill="#000000" font-family="sans-serif" font-size="14" lengthAdjust="spacingAndGlyphs" textLength="27" x="109.5" y="1168.9951">q10</text><rect fill="#FEFECE" filter="url(#f1rbmk04zpqdmr)" height="50" rx="12.5" ry="12.5" style="stroke: #A80036; stroke-width: 1.5;" width="50" x="410" y="516"/><line style="stroke: #A80036; stroke-width: 1.5;" x1="410" x2="460" y1="542.2969" y2="542.2969"/><text fill="#000000" font-family="sans-serif" font-size="14" lengthAdjust="spacingAndGlyphs" textLength="27" x="421.5" y="533.9951">q13</text><rect fill="#FEFECE" filter="url(#f1rbmk04zpqdmr)" height="50" rx="12.5" ry="12.5" style="stroke: #A80036; stroke-width: 1.5;" width="50" x="478" y="643"/><line style="stroke: #A80036; stroke-width: 1.5;" x1="478" x2="528" y1="669.2969" y2="669.2969"/><text fill="#000000" font-family="sans-serif" font-size="14" lengthAdjust="spacingAndGlyphs" textLength="27" x="489.5" y="660.9951">q15</text><rect fill="#FEFECE" filter="url(#f1rbmk04zpqdmr)" height="50" rx="12.5" ry="12.5" style="stroke: #A80036; stroke-width: 1.5;" width="50" x="982" y="897"/><line style="stroke: #A80036; stroke-width: 1.5;" x1="982" x2="1032" y1="923.2969" y2="923.2969"/><text fill="#000000" font-family="sans-serif" font-size="14" lengthAdjust="spacingAndGlyphs" textLength="18" x="998" y="914.9951">q8</text><rect fill="#FEFECE" filter="url(#f1rbmk04zpqdmr)" height="50" rx="12.5" ry="12.5" style="stroke: #A80036; stroke-width: 1.5;" width="50" x="410" y="389"/><line style="stroke: #A80036; stroke-width: 1.5;" x1="410" x2="460" y1="415.2969" y2="415.2969"/><text fill="#000000" font-family="sans-serif" font-size="14" lengthAdjust="spacingAndGlyphs" textLength="27" x="421.5" y="406.9951">q11</text><rect fill="#FEFECE" filter="url(#f1rbmk04zpqdmr)" height="50" rx="12.5" ry="12.5" style="stroke: #A80036; stroke-width: 1.5;" width="50" x="1082" y="8"/><line style="stroke: #A80036; stroke-width: 1.5;" x1="1082" x2="1132" y1="34.2969" y2="34.2969"/><text fill="#000000" font-family="sans-serif" font-size="14" lengthAdjust="spacingAndGlyphs" textLength="18" x="1098" y="25.9951">q6</text><rect fill="#FEFECE" filter="url(#f1rbmk04zpqdmr)" height="50" rx="12.5" ry="12.5" style="stroke: #A80036; stroke-width: 1.5;" width="50" x="419" y="897"/><line style="stroke: #A80036; stroke-width: 1.5;" x1="419" x2="469" y1="923.2969" y2="923.2969"/><text fill="#000000" font-family="sans-serif" font-size="14" lengthAdjust="spacingAndGlyphs" textLength="27" x="430.5" y="914.9951">q18</text><rect fill="#FEFECE" filter="url(#f1rbmk04zpqdmr)" height="50" rx="12.5" ry="12.5" style="stroke: #A80036; stroke-width: 1.5;" width="50" x="386" y="1151"/><line style="stroke: #A80036; stroke-width: 1.5;" x1="386" x2="436" y1="1177.2969" y2="1177.2969"/><text fill="#000000" font-family="sans-serif" font-size="14" lengthAdjust="spacingAndGlyphs" textLength="27" x="397.5" y="1168.9951">q17</text><rect fill="#FEFECE" filter="url(#f1rbmk04zpqdmr)" height="50" rx="12.5" ry="12.5" style="stroke: #A80036; stroke-width: 1.5;" width="50" x="1030" y="1024"/><line style="stroke: #A80036; stroke-width: 1.5;" x1="1030" x2="1080" y1="1050.2969" y2="1050.2969"/><text fill="#000000" font-family="sans-serif" font-size="14" lengthAdjust="spacingAndGlyphs" textLength="18" x="1046" y="1041.9951">q4</text><rect fill="#FEFECE" filter="url(#f1rbmk04zpqdmr)" height="50" rx="12.5" ry="12.5" style="stroke: #A80036; stroke-width: 1.5;" width="50" x="410" y="262"/><line style="stroke: #A80036; stroke-width: 1.5;" x1="410" x2="460" y1="288.2969" y2="288.2969"/><text fill="#000000" font-family="sans-serif" font-size="14" lengthAdjust="spacingAndGlyphs" textLength="18" x="426" y="279.9951">q9</text><rect fill="#FEFECE" filter="url(#f1rbmk04zpqdmr)" height="50" rx="12.5" ry="12.5" style="stroke: #A80036; stroke-width: 1.5;" width="50" x="507" y="770"/><line style="stroke: #A80036; stroke-width: 1.5;" x1="507" x2="557" y1="796.2969" y2="796.2969"/><text fill="#000000" font-family="sans-serif" font-size="14" lengthAdjust="spacingAndGlyphs" textLength="27" x="518.5" y="787.9951">q16</text><rect fill="#FEFECE" filter="url(#f1rbmk04zpqdmr)" height="50" rx="12.5" ry="12.5" style="stroke: #A80036; stroke-width: 1.5;" width="50" x="1094" y="1151"/><line style="stroke: #A80036; stroke-width: 1.5;" x1="1094" x2="1144" y1="1177.2969" y2="1177.2969"/><text fill="#000000" font-family="sans-serif" font-size="14" lengthAdjust="spacingAndGlyphs" textLength="18" x="1110" y="1168.9951">q5</text><rect fill="#FEFECE" filter="url(#f1rbmk04zpqdmr)" height="50" rx="12.5" ry="12.5" style="stroke: #A80036; stroke-width: 1.5;" width="50" x="419" y="1024"/><line style="stroke: #A80036; stroke-width: 1.5;" x1="419" x2="469" y1="1050.2969" y2="1050.2969"/><text fill="#000000" font-family="sans-serif" font-size="14" lengthAdjust="spacingAndGlyphs" textLength="27" x="430.5" y="1041.9951">q19</text><!--link q3 to q4--><path d="M1136.8481,947.0911 C1120.0139,968.0514 1095.9969,997.9549 1078.3315,1019.95 " fill="none" id="q3-q4" style="stroke: #A80036; stroke-width: 1.0;"/><polygon fill="#A80036" points="1075.1101,1023.961,1083.8645,1019.4487,1078.241,1020.0626,1077.6271,1014.4392,1075.1101,1023.961" style="stroke: #A80036; stroke-width: 1.0;"/><text fill="#000000" font-family="sans-serif" font-size="13" lengthAdjust="spacingAndGlyphs" textLength="37" x="1113" y="990.0669">(1)init</text><!--link q3 to _rejected--><path d="M1164.3929,947.2077 C1182.4884,1014.6036 1220.1003,1197.2779 1113,1248 C1041.3322,1281.9415 805.7792,1296.3416 704.2527,1301.0773 " fill="none" id="q3-_rejected" style="stroke: #A80036; stroke-width: 1.0;"/><polygon fill="#A80036" points="699.2269,1301.3089,708.4016,1304.8901,704.2216,1301.0786,708.0331,1296.8986,699.2269,1301.3089" style="stroke: #A80036; stroke-width: 1.0;"/><text fill="#000000" font-family="sans-serif" font-size="13" lengthAdjust="spacingAndGlyphs" textLength="25" x="1186" y="1117.0669">(2)*</text><!--link q7 to q9--><path d="M214.3998,173.1129 C260.185,196.75 356.326,246.3837 405.1632,271.5964 " fill="none" id="q7-q9" style="stroke: #A80036; stroke-width: 1.0;"/><polygon fill="#A80036" points="409.7384,273.9584,403.5762,266.2754,405.2956,271.6647,399.9063,273.384,409.7384,273.9584" style="stroke: #A80036; stroke-width: 1.0;"/><text fill="#000000" font-family="sans-serif" font-size="13" lengthAdjust="spacingAndGlyphs" textLength="80" x="328" y="228.0669">(1)day_open</text><!--link q7 to q10--><path d="M163.5417,177.9106 C135.4016,200.0242 94,240.4663 94,287 C94,287 94,287 94,1049 C94,1082.7122 103.8323,1120.2235 112.0467,1145.6797 " fill="none" id="q7-q10" style="stroke: #A80036; stroke-width: 1.0;"/><polygon fill="#A80036" points="113.6646,1150.6055,114.6564,1140.8067,112.1043,1145.8552,107.0559,1143.3031,113.6646,1150.6055" style="stroke: #A80036; stroke-width: 1.0;"/><text fill="#000000" font-family="sans-serif" font-size="13" lengthAdjust="spacingAndGlyphs" textLength="81" x="95" y="672.5669">(2)terminate</text><!--link q7 to _rejected--><path d="M163.9383,165.0775 C113.8192,176.8509 6,211.0094 6,287 C6,287 6,287 6,1176 C6,1220.9417 36.3119,1228.9151 77,1248 C148.2759,1281.4323 351.6447,1270.3569 430,1278 C492.124,1284.0598 563.6881,1292.1211 609.5869,1297.4305 " fill="none" id="q7-_rejected" style="stroke: #A80036; stroke-width: 1.0;"/><polygon fill="#A80036" points="614.7773,1298.0318,606.2976,1293.0224,609.8105,1297.4562,605.3767,1300.9692,614.7773,1298.0318" style="stroke: #A80036; stroke-width: 1.0;"/><text fill="#000000" font-family="sans-serif" font-size="13" lengthAdjust="spacingAndGlyphs" textLength="25" x="7" y="736.0669">(3)*</text><!--link q14 to q10--><path d="M187.7263,1065.8602 C174.651,1075.6734 159.3131,1089.0448 149,1104 C140.3318,1116.57 134.2072,1132.3591 130.0891,1145.9463 " fill="none" id="q14-q10" style="stroke: #A80036; stroke-width: 1.0;"/><polygon fill="#A80036" points="128.6617,1150.8424,135.0208,1143.3216,130.0611,1146.0422,127.3405,1141.0826,128.6617,1150.8424" style="stroke: #A80036; stroke-width: 1.0;"/><text fill="#000000" font-family="sans-serif" font-size="13" lengthAdjust="spacingAndGlyphs" textLength="76" x="150" y="1117.0669">(1)knockout</text><!--link q14 to _rejected--><path d="M221.0509,1074.1853 C237.0924,1122.7192 274.0742,1226.3352 304,1248 C328.4076,1265.6699 519.1632,1288.2055 609.6578,1298.0382 " fill="none" id="q14-_rejected" style="stroke: #A80036; stroke-width: 1.0;"/><polygon fill="#A80036" points="614.681,1298.5822,606.1639,1293.6365,609.7101,1298.0439,605.3027,1301.59,614.681,1298.5822" style="stroke: #A80036; stroke-width: 1.0;"/><text fill="#000000" font-family="sans-serif" font-size="13" lengthAdjust="spacingAndGlyphs" textLength="25" x="273" y="1180.5669">(2)*</text><!--link q10 to q12--><path d="M98.576,1201.1714 C87.2531,1215.9086 78.5645,1234.2608 90,1248 C123.8675,1288.6902 288.6624,1299.395 357.5934,1302.1126 " fill="none" id="q10-q12" style="stroke: #A80036; stroke-width: 1.0;"/><polygon fill="#A80036" points="362.7816,1302.3091,353.9395,1297.9713,357.7852,1302.1198,353.6366,1305.9655,362.7816,1302.3091" style="stroke: #A80036; stroke-width: 1.0;"/><text fill="#000000" font-family="sans-serif" font-size="13" lengthAdjust="spacingAndGlyphs" textLength="68" x="91" y="1244.0669">(1)_accept</text><!--link q10 to _rejected--><path d="M142.7118,1201.348 C156.8162,1217.5393 177.2703,1237.4153 200,1248 C209.2462,1252.3057 494.5497,1284.7409 609.5987,1297.6872 " fill="none" id="q10-_rejected" style="stroke: #A80036; stroke-width: 1.0;"/><polygon fill="#A80036" points="614.6154,1298.2515,606.119,1293.2704,609.6467,1297.6925,605.2246,1301.2202,614.6154,1298.2515" style="stroke: #A80036; stroke-width: 1.0;"/><text fill="#000000" font-family="sans-serif" font-size="13" lengthAdjust="spacingAndGlyphs" textLength="25" x="201" y="1244.0669">(2)*</text><!--link q13 to q7--><path d="M418.8351,515.9641 C375.2414,448.447 255.3799,262.8079 208.3239,189.9285 " fill="none" id="q13-q7" style="stroke: #A80036; stroke-width: 1.0;"/><polygon fill="#A80036" points="205.3313,185.2935,206.8528,195.0241,208.0435,189.494,213.5736,190.6846,205.3313,185.2935" style="stroke: #A80036; stroke-width: 1.0;"/><text fill="#000000" font-family="sans-serif" font-size="13" lengthAdjust="spacingAndGlyphs" textLength="104" x="316" y="355.0669">(1)_under_strike</text><!--link q13 to q15--><path d="M448.4346,566.0911 C459.5643,586.8774 475.4033,616.4592 487.1516,638.4008 " fill="none" id="q13-q15" style="stroke: #A80036; stroke-width: 1.0;"/><polygon fill="#A80036" points="489.5933,642.961,488.8712,633.1386,487.2331,638.5531,481.8186,636.915,489.5933,642.961" style="stroke: #A80036; stroke-width: 1.0;"/><text fill="#000000" font-family="sans-serif" font-size="13" lengthAdjust="spacingAndGlyphs" textLength="95" x="475" y="609.0669">(2)_over_strike</text><!--link q13 to _rejected--><path d="M460.2283,546.3496 C530.7835,562.0309 725,610.4258 725,668 C725,668 725,668 725,858.5 C725,1032.5216 734.1972,1081.0774 685,1248 C682.5166,1256.4261 678.7521,1265.0961 674.7818,1272.9896 " fill="none" id="q13-_rejected" style="stroke: #A80036; stroke-width: 1.0;"/><polygon fill="#A80036" points="672.2927,1277.795,679.984,1271.6433,674.5924,1273.3553,672.8804,1267.9637,672.2927,1277.795" style="stroke: #A80036; stroke-width: 1.0;"/><text fill="#000000" font-family="sans-serif" font-size="13" lengthAdjust="spacingAndGlyphs" textLength="25" x="726" y="926.5669">(3)*</text><!--link q15 to q16--><path d="M508.7295,693.0911 C513.4362,713.7035 520.1179,742.9647 525.115,764.8484 " fill="none" id="q15-q16" style="stroke: #A80036; stroke-width: 1.0;"/><polygon fill="#A80036" points="526.2824,769.961,528.1784,760.2964,525.1693,765.0865,520.3791,762.0774,526.2824,769.961" style="stroke: #A80036; stroke-width: 1.0;"/><text fill="#000000" font-family="sans-serif" font-size="13" lengthAdjust="spacingAndGlyphs" textLength="80" x="521" y="736.0669">(1)day_open</text><!--link q15 to q17--><path d="M486.0738,693.0608 C476.3951,707.0893 463.8552,724.7692 452,740 C395.6519,812.3926 349.7376,810.9272 318,897 C298.4135,950.1189 301.0069,1054.5339 339,1121 C348.6917,1137.955 365.918,1151.4007 381.0908,1160.7531 " fill="none" id="q15-q17" style="stroke: #A80036; stroke-width: 1.0;"/><polygon fill="#A80036" points="385.7231,1163.5235,380.0522,1155.4711,381.432,1160.9571,375.946,1162.3369,385.7231,1163.5235" style="stroke: #A80036; stroke-width: 1.0;"/><text fill="#000000" font-family="sans-serif" font-size="13" lengthAdjust="spacingAndGlyphs" textLength="81" x="319" y="926.5669">(2)terminate</text><!--link q15 to _rejected--><path d="M528.0883,673.4163 C553.3593,680.3056 591.2189,694.8542 610,723 C670.7953,814.109 662.3204,1166.9996 658.3049,1272.8318 " fill="none" id="q15-_rejected" style="stroke: #A80036; stroke-width: 1.0;"/><polygon fill="#A80036" points="658.1057,1277.9781,662.4509,1269.1396,658.2991,1272.9818,654.4569,1268.8301,658.1057,1277.9781" style="stroke: #A80036; stroke-width: 1.0;"/><text fill="#000000" font-family="sans-serif" font-size="13" lengthAdjust="spacingAndGlyphs" textLength="25" x="659" y="990.0669">(3)*</text><!--link q8 to q4--><path d="M1001.0623,947.1543 C998.8905,961.3732 998.1975,979.2086 1004,994 C1008.6604,1005.8801 1017.2265,1016.7245 1026.0251,1025.5852 " fill="none" id="q8-q4" style="stroke: #A80036; stroke-width: 1.0;"/><polygon fill="#A80036" points="1029.7994,1029.2584,1026.1396,1020.1148,1026.2163,1025.7711,1020.5599,1025.8478,1029.7994,1029.2584" style="stroke: #A80036; stroke-width: 1.0;"/><text fill="#000000" font-family="sans-serif" font-size="13" lengthAdjust="spacingAndGlyphs" textLength="80" x="1005" y="990.0669">(1)day_open</text><!--link q8 to _rejected--><path d="M1000.1792,947.2351 C980.2785,1020.0874 922.2299,1226.9088 899,1248 C870.8433,1273.5644 766.4382,1290.0255 704.336,1297.7815 " fill="none" id="q8-_rejected" style="stroke: #A80036; stroke-width: 1.0;"/><polygon fill="#A80036" points="699.2014,1298.415,708.6235,1301.2828,704.1638,1297.8027,707.6438,1293.343,699.2014,1298.415" style="stroke: #A80036; stroke-width: 1.0;"/><text fill="#000000" font-family="sans-serif" font-size="13" lengthAdjust="spacingAndGlyphs" textLength="25" x="955" y="1117.0669">(2)*</text><!--link q11 to q13--><path d="M435,439.0911 C435,459.7035 435,488.9647 435,510.8484 " fill="none" id="q11-q13" style="stroke: #A80036; stroke-width: 1.0;"/><polygon fill="#A80036" points="435,515.961,439,506.961,435,510.961,431,506.961,435,515.961" style="stroke: #A80036; stroke-width: 1.0;"/><text fill="#000000" font-family="sans-serif" font-size="13" lengthAdjust="spacingAndGlyphs" textLength="111" x="436" y="482.0669">(1)_not_knockout</text><!--link q11 to q14--><path d="M413.0963,439.0576 C370.8935,489.0172 279.0377,606.2922 240,723 C205.2004,827.0373 207.5451,959.6843 210.7922,1018.5286 " fill="none" id="q11-q14" style="stroke: #A80036; stroke-width: 1.0;"/><polygon fill="#A80036" points="211.0877,1023.6521,214.5627,1014.4366,210.7997,1018.6604,206.5759,1014.8974,211.0877,1023.6521" style="stroke: #A80036; stroke-width: 1.0;"/><text fill="#000000" font-family="sans-serif" font-size="13" lengthAdjust="spacingAndGlyphs" textLength="83" x="241" y="736.0669">(2)_knockout</text><!--link q11 to _rejected--><path d="M460.0982,417.2729 C541.965,428.6403 796,469.6613 796,541 C796,541 796,541 796,731.5 C796,942.2183 781.7192,996.7273 730,1201 C724.5479,1222.5339 725.0008,1229.3074 713,1248 C707.0529,1257.2634 699.2829,1266.1571 691.4327,1273.9921 " fill="none" id="q11-_rejected" style="stroke: #A80036; stroke-width: 1.0;"/><polygon fill="#A80036" points="687.5801,1277.7503,696.8156,1274.3291,691.1592,1274.2589,691.2294,1268.6025,687.5801,1277.7503" style="stroke: #A80036; stroke-width: 1.0;"/><text fill="#000000" font-family="sans-serif" font-size="13" lengthAdjust="spacingAndGlyphs" textLength="25" x="794" y="863.0669">(3)*</text><!--link q6 to q7--><path d="M1081.9696,36.4628 C952.5966,54.3608 360.2991,136.3018 219.2243,155.8186 " fill="none" id="q6-q7" style="stroke: #A80036; stroke-width: 1.0;"/><polygon fill="#A80036" points="214.008,156.5403,223.4712,159.2693,218.9608,155.8552,222.375,151.3448,214.008,156.5403" style="stroke: #A80036; stroke-width: 1.0;"/><text fill="#000000" font-family="sans-serif" font-size="13" lengthAdjust="spacingAndGlyphs" textLength="104" x="703" y="101.0669">(1)_under_strike</text><!--link q6 to q8--><path d="M1083.3012,58.0179 C1062.9937,82.1568 1037,120.7254 1037,160 C1037,160 1037,160 1037,795 C1037,828.7707 1026.8287,866.2724 1018.331,891.7104 " fill="none" id="q6-q8" style="stroke: #A80036; stroke-width: 1.0;"/><polygon fill="#A80036" points="1016.6573,896.6324,1023.3418,889.3993,1018.267,891.8986,1015.7677,886.8238,1016.6573,896.6324" style="stroke: #A80036; stroke-width: 1.0;"/><text fill="#000000" font-family="sans-serif" font-size="13" lengthAdjust="spacingAndGlyphs" textLength="95" x="1038" y="482.0669">(2)_over_strike</text><!--link q6 to _rejected--><path d="M1132.0624,38.2772 C1202.6484,53.8552 1398,102.1902 1398,160 C1398,160 1398,160 1398,1176 C1398,1246.6526 867.91,1288.6419 704.4262,1299.9117 " fill="none" id="q6-_rejected" style="stroke: #A80036; stroke-width: 1.0;"/><polygon fill="#A80036" points="699.2313,1300.268,708.4839,1303.6428,704.2196,1299.9259,707.9365,1295.6615,699.2313,1300.268" style="stroke: #A80036; stroke-width: 1.0;"/><text fill="#000000" font-family="sans-serif" font-size="13" lengthAdjust="spacingAndGlyphs" textLength="25" x="1399" y="672.5669">(3)*</text><!--link q18 to q13--><path d="M422.8718,896.9547 C396.2981,863.6488 352.0815,801.7667 335,740 C316.9522,674.739 370.3896,605.6433 405.9572,568.4973 " fill="none" id="q18-q13" style="stroke: #A80036; stroke-width: 1.0;"/><polygon fill="#A80036" points="409.7697,564.5658,400.6327,568.2421,406.2889,568.1552,406.3757,573.8114,409.7697,564.5658" style="stroke: #A80036; stroke-width: 1.0;"/><text fill="#000000" font-family="sans-serif" font-size="13" lengthAdjust="spacingAndGlyphs" textLength="111" x="336" y="736.0669">(1)_not_knockout</text><!--link q18 to q19--><path d="M444,947.0911 C444,967.7035 444,996.9647 444,1018.8484 " fill="none" id="q18-q19" style="stroke: #A80036; stroke-width: 1.0;"/><polygon fill="#A80036" points="444,1023.961,448,1014.961,444,1018.961,440,1014.961,444,1023.961" style="stroke: #A80036; stroke-width: 1.0;"/><text fill="#000000" font-family="sans-serif" font-size="13" lengthAdjust="spacingAndGlyphs" textLength="83" x="445" y="990.0669">(2)_knockout</text><!--link q18 to _rejected--><path d="M425.9159,947.2191 C384.7812,1007.8663 293.8385,1163.1212 375,1248 C406.6449,1281.0943 537.9398,1295.0083 609.6783,1300.2317 " fill="none" id="q18-_rejected" style="stroke: #A80036; stroke-width: 1.0;"/><polygon fill="#A80036" points="614.7384,1300.5929,606.0462,1295.962,609.7511,1300.2368,605.4763,1303.9417,614.7384,1300.5929" style="stroke: #A80036; stroke-width: 1.0;"/><text fill="#000000" font-family="sans-serif" font-size="13" lengthAdjust="spacingAndGlyphs" textLength="25" x="351" y="1117.0669">(3)*</text><!--link q17 to q12--><path d="M396.2415,1201.1741 C391.6971,1210.2609 387.29,1220.7977 385,1231 C381.9764,1244.4708 382.117,1259.7066 383.2556,1272.6829 " fill="none" id="q17-q12" style="stroke: #A80036; stroke-width: 1.0;"/><polygon fill="#A80036" points="383.7567,1277.7215,386.846,1268.3697,383.2617,1272.7461,378.8853,1269.1617,383.7567,1277.7215" style="stroke: #A80036; stroke-width: 1.0;"/><text fill="#000000" font-family="sans-serif" font-size="13" lengthAdjust="spacingAndGlyphs" textLength="68" x="386" y="1244.0669">(1)_accept</text><!--link q17 to _rejected--><path d="M435.1692,1201.1323 C450.9993,1216.4124 472.805,1235.352 495,1248 C531.2793,1268.674 576.5681,1283.2281 610.0299,1292.1491 " fill="none" id="q17-_rejected" style="stroke: #A80036; stroke-width: 1.0;"/><polygon fill="#A80036" points="614.8786,1293.4245,607.1923,1287.2665,610.0431,1292.1525,605.1571,1295.0033,614.8786,1293.4245" style="stroke: #A80036; stroke-width: 1.0;"/><text fill="#000000" font-family="sans-serif" font-size="13" lengthAdjust="spacingAndGlyphs" textLength="25" x="496" y="1244.0669">(2)*</text><!--link q4 to q5--><path d="M1062.3735,1074.3266 C1066.9149,1088.4382 1073.3332,1106.1127 1081,1121 C1085.4386,1129.6188 1091.0264,1138.4689 1096.5409,1146.4816 " fill="none" id="q4-q5" style="stroke: #A80036; stroke-width: 1.0;"/><polygon fill="#A80036" points="1099.5892,1150.8401,1097.709,1141.1724,1096.7236,1146.7428,1091.1532,1145.7574,1099.5892,1150.8401" style="stroke: #A80036; stroke-width: 1.0;"/><text fill="#000000" font-family="sans-serif" font-size="13" lengthAdjust="spacingAndGlyphs" textLength="81" x="1082" y="1117.0669">(1)day_close</text><!--link q4 to _rejected--><path d="M1051.9602,1074.0312 C1045.3443,1116.9004 1025.4839,1203.9947 970,1248 C929.6325,1280.0162 781.569,1294.5911 704.4371,1300.1328 " fill="none" id="q4-_rejected" style="stroke: #A80036; stroke-width: 1.0;"/><polygon fill="#A80036" points="699.0086,1300.5163,708.2682,1303.872,703.9962,1300.1639,707.7043,1295.8919,699.0086,1300.5163" style="stroke: #A80036; stroke-width: 1.0;"/><text fill="#000000" font-family="sans-serif" font-size="13" lengthAdjust="spacingAndGlyphs" textLength="25" x="1033" y="1180.5669">(2)*</text><!--link q9 to q11--><path d="M435,312.0911 C435,332.7035 435,361.9647 435,383.8484 " fill="none" id="q9-q11" style="stroke: #A80036; stroke-width: 1.0;"/><polygon fill="#A80036" points="435,388.961,439,379.961,435,383.961,431,379.961,435,388.961" style="stroke: #A80036; stroke-width: 1.0;"/><text fill="#000000" font-family="sans-serif" font-size="13" lengthAdjust="spacingAndGlyphs" textLength="81" x="436" y="355.0669">(1)day_close</text><!--link q9 to _rejected--><path d="M460.1023,288.6098 C554.6591,295.3484 884,325.1932 884,414 C884,414 884,414 884,731.5 C884,947.0964 829.6555,996.294 762,1201 C754.9296,1222.3931 757.3939,1230.6659 743,1248 C732.2264,1260.9744 717.5798,1271.9025 703.4281,1280.513 " fill="none" id="q9-_rejected" style="stroke: #A80036; stroke-width: 1.0;"/><polygon fill="#A80036" points="699.0569,1283.1105,708.8373,1281.9515,703.3553,1280.5563,704.7505,1275.0742,699.0569,1283.1105" style="stroke: #A80036; stroke-width: 1.0;"/><text fill="#000000" font-family="sans-serif" font-size="13" lengthAdjust="spacingAndGlyphs" textLength="25" x="884" y="799.5669">(2)*</text><!--link q16 to q18--><path d="M506.773,807.0355 C489.9797,816.3855 468.8903,830.9644 457,850 C449.3365,862.2687 445.9186,877.8704 444.4856,891.4116 " fill="none" id="q16-q18" style="stroke: #A80036; stroke-width: 1.0;"/><polygon fill="#A80036" points="444.0146,896.6826,448.8,888.0745,444.4597,891.7025,440.8317,887.3622,444.0146,896.6826" style="stroke: #A80036; stroke-width: 1.0;"/><text fill="#000000" font-family="sans-serif" font-size="13" lengthAdjust="spacingAndGlyphs" textLength="81" x="458" y="863.0669">(1)day_close</text><!--link q16 to _rejected--><path d="M537.5073,820.2452 C558.256,915.3504 630.5553,1246.6948 631,1248 C633.8208,1256.2791 637.5373,1264.9573 641.2749,1272.9099 " fill="none" id="q16-_rejected" style="stroke: #A80036; stroke-width: 1.0;"/><polygon fill="#A80036" points="643.597,1277.7578,643.3165,1267.9129,641.437,1273.2484,636.1015,1271.3689,643.597,1277.7578" style="stroke: #A80036; stroke-width: 1.0;"/><text fill="#000000" font-family="sans-serif" font-size="13" lengthAdjust="spacingAndGlyphs" textLength="25" x="594" y="1053.5669">(2)*</text><!--link q5 to q6--><path d="M1144.2364,1166.9598 C1185.2888,1150.4454 1262,1111.2571 1262,1049 C1262,160 1262,160 1262,160 C1262,96.0569 1182.0984,58.4656 1137.0305,42.3484 " fill="none" id="q5-q6" style="stroke: #A80036; stroke-width: 1.0;"/><polygon fill="#A80036" points="1132.2484,40.6719,1139.4183,47.4241,1136.9669,42.3261,1142.0649,39.8746,1132.2484,40.6719" style="stroke: #A80036; stroke-width: 1.0;"/><text fill="#000000" font-family="sans-serif" font-size="13" lengthAdjust="spacingAndGlyphs" textLength="111" x="1263" y="609.0669">(1)_not_knockout</text><!--link q5 to _rejected--><path d="M1104.4652,1201.207 C1093.7609,1217.3371 1077.6744,1237.1978 1058,1248 C997.9244,1280.9844 796.5845,1295.6353 704.1353,1300.7413 " fill="none" id="q5-_rejected" style="stroke: #A80036; stroke-width: 1.0;"/><polygon fill="#A80036" points="699.0104,1301.0207,708.2149,1304.5246,704.003,1300.7484,707.7792,1296.5365,699.0104,1301.0207" style="stroke: #A80036; stroke-width: 1.0;"/><text fill="#000000" font-family="sans-serif" font-size="13" lengthAdjust="spacingAndGlyphs" textLength="25" x="1079" y="1244.0669">(2)*</text><!--link q19 to q17--><path d="M428.5174,1074.1508 C423.6593,1083.2355 418.8305,1093.777 416,1104 C412.2808,1117.4324 410.8497,1132.7853 410.4204,1145.8537 " fill="none" id="q19-q17" style="stroke: #A80036; stroke-width: 1.0;"/><polygon fill="#A80036" points="410.2994,1150.9273,414.513,1142.0253,410.4187,1145.9287,406.5153,1141.8344,410.2994,1150.9273" style="stroke: #A80036; stroke-width: 1.0;"/><text fill="#000000" font-family="sans-serif" font-size="13" lengthAdjust="spacingAndGlyphs" textLength="76" x="417" y="1117.0669">(1)knockout</text><!--link q19 to _rejected--><path d="M469.013,1070.1029 C479.0936,1079.6313 490.1654,1091.5385 498,1104 C522.3939,1142.8005 510.7623,1160.9247 533,1201 C545.8992,1224.246 550.2573,1230.1957 570,1248 C582.0416,1258.8593 596.4776,1268.9306 610.0976,1277.4081 " fill="none" id="q19-_rejected" style="stroke: #A80036; stroke-width: 1.0;"/><polygon fill="#A80036" points="614.6806,1280.2208,609.1022,1272.1041,610.4191,1277.6055,604.9177,1278.9224,614.6806,1280.2208" style="stroke: #A80036; stroke-width: 1.0;"/><text fill="#000000" font-family="sans-serif" font-size="13" lengthAdjust="spacingAndGlyphs" textLength="25" x="534" y="1180.5669">(2)*</text><!--link *start to q3--><path d="M1157,805.3929 C1157,824.0758 1157,863.9843 1157,891.8818 " fill="none" id="*start-q3" style="stroke: #A80036; stroke-width: 1.0;"/><polygon fill="#A80036" points="1157,896.9432,1161,887.9432,1157,891.9432,1153,887.9432,1157,896.9432" style="stroke: #A80036; stroke-width: 1.0;"/><!--link q12 to *end--><path d="M413.2044,1321.0569 C441.7991,1341.5426 487.3049,1374.1438 509.2887,1389.8934 " fill="none" id="q12-*end" style="stroke: #A80036; stroke-width: 1.0;"/><polygon fill="#A80036" points="513.6082,1392.988,508.6216,1384.4948,509.5437,1390.076,503.9625,1390.9981,513.6082,1392.988" style="stroke: #A80036; stroke-width: 1.0;"/><!--link _rejected to *end--><path d="M621.5303,1328.2229 C592.7694,1348.6751 553.9087,1376.3094 534.3433,1390.2225 " fill="none" id="_rejected-*end" style="stroke: #A80036; stroke-width: 1.0;"/><polygon fill="#A80036" points="530.248,1393.1348,539.9007,1391.1791,534.3228,1390.2373,535.2646,1384.6594,530.248,1393.1348" style="stroke: #A80036; stroke-width: 1.0;"/><!--
@startuml 
state q3
state q7
state q14
state q10
state q13
state q15
state q8
state q11
state q6
state q18
state q17
state q4
state q9
state q16
state q5
state q19
q3 - -> q4:(1)init
q3 - -> _rejected:(2)*
q7 - -> q9:(1)day_open
q7 - -> q10:(2)terminate
q7 - -> _rejected:(3)*
q14 - -> q10:(1)knockout
q14 - -> _rejected:(2)*
q10 - -> q12:(1)_accept
q10 - -> _rejected:(2)*
q13 - -> q7:(1)_under_strike
q13 - -> q15:(2)_over_strike
q13 - -> _rejected:(3)*
q15 - -> q16:(1)day_open
q15 - -> q17:(2)terminate
q15 - -> _rejected:(3)*
q8 - -> q4:(1)day_open
q8 - -> _rejected:(2)*
q11 - -> q13:(1)_not_knockout
q11 - -> q14:(2)_knockout
q11 - -> _rejected:(3)*
q6 - -> q7:(1)_under_strike
q6 - -> q8:(2)_over_strike
q6 - -> _rejected:(3)*
q18 - -> q13:(1)_not_knockout
q18 - -> q19:(2)_knockout
q18 - -> _rejected:(3)*
q17 - -> q12:(1)_accept
q17 - -> _rejected:(2)*
q4 - -> q5:(1)day_close
q4 - -> _rejected:(2)*
q9 - -> q11:(1)day_close
q9 - -> _rejected:(2)*
q16 - -> q18:(1)day_close
q16 - -> _rejected:(2)*
q5 - -> q6:(1)_not_knockout
q5 - -> _rejected:(2)*
q19 - -> q17:(1)knockout
q19 - -> _rejected:(2)*
[*] - -> q3
state q12
q12 - -> [*]
state _rejected
_rejected - -> [*]
state q3 {
}
state q7 {
}
state q14 {
}
state q10 {
}
state q13 {
}
state q15 {
}
state q8 {
}
state q11 {
}
state q6 {
}
state q18 {
}
state q17 {
}
state q4 {
}
state q9 {
}
state q16 {
}
state q5 {
}
state q19 {
}
@enduml

PlantUML version 1.2017.15(Tue Jul 04 01:45:34 JST 2017)
(GPL source distribution)
Java Runtime: OpenJDK Runtime Environment
JVM: OpenJDK 64-Bit Server VM
Java Version: 1.8.0_191-8u191-b12-0ubuntu0.18.04.1-b12
Operating System: Linux
OS Version: 4.15.0-39-generic
Default Encoding: UTF-8
Language: en
Country: US
--></g></svg>