<?xml version="1.0" encoding="UTF-8" standalone="no"?><svg xmlns="http://www.w3.org/2000/svg" xmlns:xlink="http://www.w3.org/1999/xlink" contentScriptType="application/ecmascript" contentStyleType="text/css" height="612px" preserveAspectRatio="none" style="width:556px;height:612px;" version="1.1" viewBox="0 0 556 612" width="556px" zoomAndPan="magnify"><defs><filter height="300%" id="f1sp00zgj11ji4" width="300%" x="-1" y="-1"><feGaussianBlur result="blurOut" stdDeviation="2.0"/><feColorMatrix in="blurOut" result="blurOut2" type="matrix" values="0 0 0 0 0 0 0 0 0 0 0 0 0 0 0 0 0 0 .4 0"/><feOffset dx="4.0" dy="4.0" in="blurOut2" result="blurOut3"/><feBlend in="SourceGraphic" in2="blurOut3" mode="normal"/></filter></defs><g><rect fill="#FEFECE" filter="url(#f1sp00zgj11ji4)" height="50" rx="12.5" ry="12.5" style="stroke: #A80036; stroke-width: 1.5;" width="50" x="47.7243" y="470"/><line style="stroke: #A80036; stroke-width: 1.5;" x1="47.7243" x2="97.7243" y1="496.2969" y2="496.2969"/><text fill="#000000" font-family="sans-serif" font-size="14" lengthAdjust="spacingAndGlyphs" textLength="18" x="63.7243" y="487.9951">q7</text><ellipse cx="499.7243" cy="18" fill="#000000" filter="url(#f1sp00zgj11ji4)" rx="10" ry="10" style="stroke: none; stroke-width: 1.0;"/><ellipse cx="72.7243" cy="591" fill="none" filter="url(#f1sp00zgj11ji4)" rx="10" ry="10" style="stroke: #000000; stroke-width: 1.0;"/><ellipse cx="73.2243" cy="591.5" fill="#000000" rx="6" ry="6" style="stroke: none; stroke-width: 1.0;"/><rect fill="#FEFECE" filter="url(#f1sp00zgj11ji4)" height="50" rx="12.5" ry="12.5" style="stroke: #A80036; stroke-width: 1.5;" width="50" x="474.7243" y="89"/><line style="stroke: #A80036; stroke-width: 1.5;" x1="474.7243" x2="524.7243" y1="115.2969" y2="115.2969"/><text fill="#000000" font-family="sans-serif" font-size="14" lengthAdjust="spacingAndGlyphs" textLength="18" x="490.7243" y="106.9951">q1</text><rect fill="#FEFECE" filter="url(#f1sp00zgj11ji4)" height="50" rx="12.5" ry="12.5" style="stroke: #A80036; stroke-width: 1.5;" width="50" x="474.7243" y="216"/><line style="stroke: #A80036; stroke-width: 1.5;" x1="474.7243" x2="524.7243" y1="242.2969" y2="242.2969"/><text fill="#000000" font-family="sans-serif" font-size="14" lengthAdjust="spacingAndGlyphs" textLength="18" x="490.7243" y="233.9951">q2</text><rect fill="#FEFECE" filter="url(#f1sp00zgj11ji4)" height="50" rx="12.5" ry="12.5" style="stroke: #A80036; stroke-width: 1.5;" width="50" x="168.7243" y="216"/><line style="stroke: #A80036; stroke-width: 1.5;" x1="168.7243" x2="218.7243" y1="242.2969" y2="242.2969"/><text fill="#000000" font-family="sans-serif" font-size="14" lengthAdjust="spacingAndGlyphs" textLength="18" x="184.7243" y="233.9951">q5</text><rect fill="#FEFECE" filter="url(#f1sp00zgj11ji4)" height="50" rx="12.5" ry="12.5" style="stroke: #A80036; stroke-width: 1.5;" width="50" x="47.7243" y="343"/><line style="stroke: #A80036; stroke-width: 1.5;" x1="47.7243" x2="97.7243" y1="369.2969" y2="369.2969"/><text fill="#000000" font-family="sans-serif" font-size="14" lengthAdjust="spacingAndGlyphs" textLength="18" x="63.7243" y="360.9951">q6</text><rect fill="#FEFECE" filter="url(#f1sp00zgj11ji4)" height="50" rx="12.5" ry="12.5" style="stroke: #A80036; stroke-width: 1.5;" width="50" x="351.7243" y="343"/><line style="stroke: #A80036; stroke-width: 1.5;" x1="351.7243" x2="401.7243" y1="369.2969" y2="369.2969"/><text fill="#000000" font-family="sans-serif" font-size="14" lengthAdjust="spacingAndGlyphs" textLength="18" x="367.7243" y="360.9951">q4</text><!--link q1 to q2--><path d="M499.7243,139.0911 C499.7243,159.7035 499.7243,188.9647 499.7243,210.8484 " fill="none" id="q1-q2" style="stroke: #A80036; stroke-width: 1.0;"/><polygon fill="#A80036" points="499.7243,215.961,503.7243,206.961,499.7243,210.961,495.7243,206.961,499.7243,215.961" style="stroke: #A80036; stroke-width: 1.0;"/><text fill="#000000" font-family="sans-serif" font-size="13" lengthAdjust="spacingAndGlyphs" textLength="44" x="500.7243" y="182.0669">(1)_init</text><!--link q2 to q4--><path d="M489.7747,266.2721 C483.0983,281.045 473.2368,299.3994 460.7243,313 C445.4058,329.6507 424.0271,343.5557 406.6714,353.2189 " fill="none" id="q2-q4" style="stroke: #A80036; stroke-width: 1.0;"/><polygon fill="#A80036" points="401.8912,355.8307,411.7071,355.0256,406.279,353.4333,407.8713,348.0052,401.8912,355.8307" style="stroke: #A80036; stroke-width: 1.0;"/><text fill="#000000" font-family="sans-serif" font-size="13" lengthAdjust="spacingAndGlyphs" textLength="37" x="473.7243" y="309.0669">(1)init</text><!--link q5 to q6--><path d="M168.6939,244.802 C123.164,252.2845 29.7288,270.444 10.7243,296 C-4.2256,316.1036 20.3844,337.6949 42.8773,351.933 " fill="none" id="q5-q6" style="stroke: #A80036; stroke-width: 1.0;"/><polygon fill="#A80036" points="47.3353,354.68,41.7715,346.5533,43.0785,352.0571,37.5747,353.3641,47.3353,354.68" style="stroke: #A80036; stroke-width: 1.0;"/><text fill="#000000" font-family="sans-serif" font-size="13" lengthAdjust="spacingAndGlyphs" textLength="76" x="11.7243" y="309.0669">(1)knockout</text><!--link q5 to q6--><path d="M168.5805,260.238 C156.0563,270.316 141.0065,283.2009 128.7243,296 C116.0055,309.2541 103.3151,325.2799 93.2387,338.8441 " fill="none" id="q5-q6" style="stroke: #A80036; stroke-width: 1.0;"/><polygon fill="#A80036" points="90.1984,342.9689,98.7582,338.0976,93.1651,338.9441,92.3186,333.351,90.1984,342.9689" style="stroke: #A80036; stroke-width: 1.0;"/><text fill="#000000" font-family="sans-serif" font-size="13" lengthAdjust="spacingAndGlyphs" textLength="81" x="129.7243" y="309.0669">(3)terminate</text><!--link q5 to q4--><path d="M209.5258,266.2452 C220.0085,281.377 234.9033,300.117 251.7243,313 C280.6078,335.1215 319.7768,350.4844 346.5232,359.243 " fill="none" id="q5-q4" style="stroke: #A80036; stroke-width: 1.0;"/><polygon fill="#A80036" points="351.3675,360.8017,344.0254,354.2372,346.6078,359.2701,341.5749,361.8526,351.3675,360.8017" style="stroke: #A80036; stroke-width: 1.0;"/><text fill="#000000" font-family="sans-serif" font-size="13" lengthAdjust="spacingAndGlyphs" textLength="80" x="252.7243" y="309.0669">(2)day_open</text><!--link q4 to q5--><path d="M368.214,342.7386 C361.9149,327.4085 351.9437,308.4616 337.7243,296 C304.8649,267.2028 255.3485,252.7665 223.7863,246.0863 " fill="none" id="q4-q5" style="stroke: #A80036; stroke-width: 1.0;"/><polygon fill="#A80036" points="218.8803,245.0798,226.8926,250.8072,223.7783,246.0848,228.5006,242.9704,218.8803,245.0798" style="stroke: #A80036; stroke-width: 1.0;"/><text fill="#000000" font-family="sans-serif" font-size="13" lengthAdjust="spacingAndGlyphs" textLength="81" x="353.7243" y="309.0669">(1)day_close</text><!--link q6 to q7--><path d="M72.7243,393.0911 C72.7243,413.7035 72.7243,442.9647 72.7243,464.8484 " fill="none" id="q6-q7" style="stroke: #A80036; stroke-width: 1.0;"/><polygon fill="#A80036" points="72.7243,469.961,76.7243,460.961,72.7243,464.961,68.7243,460.961,72.7243,469.961" style="stroke: #A80036; stroke-width: 1.0;"/><text fill="#000000" font-family="sans-serif" font-size="13" lengthAdjust="spacingAndGlyphs" textLength="68" x="73.7243" y="436.0669">(1)_accept</text><!--link *start to q1--><path d="M499.7243,28.2737 C499.7243,41.3608 499.7243,64.5555 499.7243,83.5207 " fill="none" id="*start-q1" style="stroke: #A80036; stroke-width: 1.0;"/><polygon fill="#A80036" points="499.7243,88.7458,503.7243,79.7458,499.7243,83.7458,495.7243,79.7458,499.7243,88.7458" style="stroke: #A80036; stroke-width: 1.0;"/><!--link q7 to *end--><path d="M72.7243,520.2229 C72.7243,537.8366 72.7243,560.7774 72.7243,575.6928 " fill="none" id="q7-*end" style="stroke: #A80036; stroke-width: 1.0;"/><polygon fill="#A80036" points="72.7243,580.8002,76.7243,571.8002,72.7243,575.8002,68.7243,571.8002,72.7243,580.8002" style="stroke: #A80036; stroke-width: 1.0;"/><!--
@startuml 
state q1
state q2
state q5
state q6
state q4
q1 - -> q2:(1)_init
q2 - -> q4:(1)init
q5 - -> q6:(1)knockout
q5 - -> q4:(2)day_open
q5 - -> q6:(3)terminate
q6 - -> q7:(1)_accept
q4 - -> q5:(1)day_close
[*] - -> q1
state q7
q7 - -> [*]
state q1 {
}
state q2 {
}
state q5 {
}
state q6 {
}
state q4 {
}
@enduml

PlantUML version 1.2017.15(Tue Jul 04 01:45:34 JST 2017)
(GPL source distribution)
Java Runtime: OpenJDK Runtime Environment
JVM: OpenJDK 64-Bit Server VM
Java Version: 1.8.0_181-8u181-b13-0ubuntu0.18.04.1-b13
Operating System: Linux
OS Version: 4.15.0-34-generic
Default Encoding: UTF-8
Language: en
Country: US
--></g></svg>