<?xml version="1.0" encoding="UTF-8" standalone="no"?><svg xmlns="http://www.w3.org/2000/svg" xmlns:xlink="http://www.w3.org/1999/xlink" contentScriptType="application/ecmascript" contentStyleType="text/css" height="1072px" preserveAspectRatio="none" style="width:1113px;height:1072px;" version="1.1" viewBox="0 0 1113 1072" width="1113px" zoomAndPan="magnify"><defs><filter height="300%" id="f153t7lw2wrij" width="300%" x="-1" y="-1"><feGaussianBlur result="blurOut" stdDeviation="2.0"/><feColorMatrix in="blurOut" result="blurOut2" type="matrix" values="0 0 0 0 0 0 0 0 0 0 0 0 0 0 0 0 0 0 .4 0"/><feOffset dx="4.0" dy="4.0" in="blurOut2" result="blurOut3"/><feBlend in="SourceGraphic" in2="blurOut3" mode="normal"/></filter></defs><g><rect fill="#FEFECE" filter="url(#f153t7lw2wrij)" height="50" rx="12.5" ry="12.5" style="stroke: #A80036; stroke-width: 1.5;" width="50" x="338.0669" y="930"/><line style="stroke: #A80036; stroke-width: 1.5;" x1="338.0669" x2="388.0669" y1="956.2969" y2="956.2969"/><text fill="#000000" font-family="sans-serif" font-size="14" lengthAdjust="spacingAndGlyphs" textLength="27" x="349.5669" y="947.9951">q12</text><ellipse cx="620.0669" cy="33" fill="#000000" filter="url(#f153t7lw2wrij)" rx="10" ry="10" style="stroke: none; stroke-width: 1.0;"/><ellipse cx="363.0669" cy="1051" fill="none" filter="url(#f153t7lw2wrij)" rx="10" ry="10" style="stroke: #000000; stroke-width: 1.0;"/><ellipse cx="363.5669" cy="1051.5" fill="#000000" rx="6" ry="6" style="stroke: none; stroke-width: 1.0;"/><rect fill="#FEFECE" filter="url(#f153t7lw2wrij)" height="50" rx="12.5" ry="12.5" style="stroke: #A80036; stroke-width: 1.5;" width="50" x="725.0669" y="295"/><line style="stroke: #A80036; stroke-width: 1.5;" x1="725.0669" x2="775.0669" y1="321.2969" y2="321.2969"/><text fill="#000000" font-family="sans-serif" font-size="14" lengthAdjust="spacingAndGlyphs" textLength="18" x="741.0669" y="312.9951">q3</text><rect fill="#FEFECE" filter="url(#f153t7lw2wrij)" height="50" rx="12.5" ry="12.5" style="stroke: #A80036; stroke-width: 1.5;" width="50" x="637.0669" y="676"/><line style="stroke: #A80036; stroke-width: 1.5;" x1="637.0669" x2="687.0669" y1="702.2969" y2="702.2969"/><text fill="#000000" font-family="sans-serif" font-size="14" lengthAdjust="spacingAndGlyphs" textLength="27" x="648.5669" y="693.9951">q14</text><rect fill="#FEFECE" filter="url(#f153t7lw2wrij)" height="50" rx="12.5" ry="12.5" style="stroke: #A80036; stroke-width: 1.5;" width="50" x="595.0669" y="135"/><line style="stroke: #A80036; stroke-width: 1.5;" x1="595.0669" x2="645.0669" y1="161.2969" y2="161.2969"/><text fill="#000000" font-family="sans-serif" font-size="14" lengthAdjust="spacingAndGlyphs" textLength="18" x="611.0669" y="152.9951">q1</text><rect fill="#FEFECE" filter="url(#f153t7lw2wrij)" height="50" rx="12.5" ry="12.5" style="stroke: #A80036; stroke-width: 1.5;" width="50" x="886.0669" y="549"/><line style="stroke: #A80036; stroke-width: 1.5;" x1="886.0669" x2="936.0669" y1="575.2969" y2="575.2969"/><text fill="#000000" font-family="sans-serif" font-size="14" lengthAdjust="spacingAndGlyphs" textLength="18" x="902.0669" y="566.9951">q5</text><rect fill="#FEFECE" filter="url(#f153t7lw2wrij)" height="50" rx="12.5" ry="12.5" style="stroke: #A80036; stroke-width: 1.5;" width="50" x="113.0669" y="215"/><line style="stroke: #A80036; stroke-width: 1.5;" x1="113.0669" x2="163.0669" y1="241.2969" y2="241.2969"/><text fill="#000000" font-family="sans-serif" font-size="14" lengthAdjust="spacingAndGlyphs" textLength="27" x="124.5669" y="232.9951">q19</text><rect fill="#FEFECE" filter="url(#f153t7lw2wrij)" height="50" rx="12.5" ry="12.5" style="stroke: #A80036; stroke-width: 1.5;" width="50" x="561.0669" y="295"/><line style="stroke: #A80036; stroke-width: 1.5;" x1="561.0669" x2="611.0669" y1="321.2969" y2="321.2969"/><text fill="#000000" font-family="sans-serif" font-size="14" lengthAdjust="spacingAndGlyphs" textLength="18" x="577.0669" y="312.9951">q7</text><rect fill="#FEFECE" filter="url(#f153t7lw2wrij)" height="50" rx="12.5" ry="12.5" style="stroke: #A80036; stroke-width: 1.5;" width="50" x="268.0669" y="422"/><line style="stroke: #A80036; stroke-width: 1.5;" x1="268.0669" x2="318.0669" y1="448.2969" y2="448.2969"/><text fill="#000000" font-family="sans-serif" font-size="14" lengthAdjust="spacingAndGlyphs" textLength="27" x="279.5669" y="439.9951">q17</text><rect fill="#FEFECE" filter="url(#f153t7lw2wrij)" height="50" rx="12.5" ry="12.5" style="stroke: #A80036; stroke-width: 1.5;" width="50" x="73.0669" y="422"/><line style="stroke: #A80036; stroke-width: 1.5;" x1="73.0669" x2="123.0669" y1="448.2969" y2="448.2969"/><text fill="#000000" font-family="sans-serif" font-size="14" lengthAdjust="spacingAndGlyphs" textLength="27" x="84.5669" y="439.9951">q16</text><rect fill="#FEFECE" filter="url(#f153t7lw2wrij)" height="50" rx="12.5" ry="12.5" style="stroke: #A80036; stroke-width: 1.5;" width="50" x="527.0669" y="803"/><line style="stroke: #A80036; stroke-width: 1.5;" x1="527.0669" x2="577.0669" y1="829.2969" y2="829.2969"/><text fill="#000000" font-family="sans-serif" font-size="14" lengthAdjust="spacingAndGlyphs" textLength="27" x="538.5669" y="820.9951">q10</text><rect fill="#FEFECE" filter="url(#f153t7lw2wrij)" height="50" rx="12.5" ry="12.5" style="stroke: #A80036; stroke-width: 1.5;" width="50" x="826.0669" y="295"/><line style="stroke: #A80036; stroke-width: 1.5;" x1="826.0669" x2="876.0669" y1="321.2969" y2="321.2969"/><text fill="#000000" font-family="sans-serif" font-size="14" lengthAdjust="spacingAndGlyphs" textLength="18" x="842.0669" y="312.9951">q8</text><rect fill="#FEFECE" filter="url(#f153t7lw2wrij)" height="50" rx="12.5" ry="12.5" style="stroke: #A80036; stroke-width: 1.5;" width="50" x="618.0669" y="422"/><line style="stroke: #A80036; stroke-width: 1.5;" x1="618.0669" x2="668.0669" y1="448.2969" y2="448.2969"/><text fill="#000000" font-family="sans-serif" font-size="14" lengthAdjust="spacingAndGlyphs" textLength="18" x="634.0669" y="439.9951">q9</text><rect fill="#FEFECE" filter="url(#f153t7lw2wrij)" height="50" rx="12.5" ry="12.5" style="stroke: #A80036; stroke-width: 1.5;" width="50" x="331.0669" y="135"/><line style="stroke: #A80036; stroke-width: 1.5;" x1="331.0669" x2="381.0669" y1="161.2969" y2="161.2969"/><text fill="#000000" font-family="sans-serif" font-size="14" lengthAdjust="spacingAndGlyphs" textLength="27" x="342.5669" y="152.9951">q13</text><rect fill="#FEFECE" filter="url(#f153t7lw2wrij)" height="50" rx="12.5" ry="12.5" style="stroke: #A80036; stroke-width: 1.5;" width="50" x="268.0669" y="295"/><line style="stroke: #A80036; stroke-width: 1.5;" x1="268.0669" x2="318.0669" y1="321.2969" y2="321.2969"/><text fill="#000000" font-family="sans-serif" font-size="14" lengthAdjust="spacingAndGlyphs" textLength="27" x="279.5669" y="312.9951">q15</text><rect fill="#FEFECE" filter="url(#f153t7lw2wrij)" height="50" rx="12.5" ry="12.5" style="stroke: #A80036; stroke-width: 1.5;" width="50" x="670.0669" y="549"/><line style="stroke: #A80036; stroke-width: 1.5;" x1="670.0669" x2="720.0669" y1="575.2969" y2="575.2969"/><text fill="#000000" font-family="sans-serif" font-size="14" lengthAdjust="spacingAndGlyphs" textLength="27" x="681.5669" y="566.9951">q11</text><rect fill="#FEFECE" filter="url(#f153t7lw2wrij)" height="50" rx="12.5" ry="12.5" style="stroke: #A80036; stroke-width: 1.5;" width="50" x="827.0669" y="135"/><line style="stroke: #A80036; stroke-width: 1.5;" x1="827.0669" x2="877.0669" y1="161.2969" y2="161.2969"/><text fill="#000000" font-family="sans-serif" font-size="14" lengthAdjust="spacingAndGlyphs" textLength="18" x="843.0669" y="152.9951">q6</text><rect fill="#FEFECE" filter="url(#f153t7lw2wrij)" height="50" rx="12.5" ry="12.5" style="stroke: #A80036; stroke-width: 1.5;" width="50" x="113.0669" y="8"/><line style="stroke: #A80036; stroke-width: 1.5;" x1="113.0669" x2="163.0669" y1="34.2969" y2="34.2969"/><text fill="#000000" font-family="sans-serif" font-size="14" lengthAdjust="spacingAndGlyphs" textLength="27" x="124.5669" y="25.9951">q18</text><rect fill="#FEFECE" filter="url(#f153t7lw2wrij)" height="50" rx="12.5" ry="12.5" style="stroke: #A80036; stroke-width: 1.5;" width="50" x="825.0669" y="422"/><line style="stroke: #A80036; stroke-width: 1.5;" x1="825.0669" x2="875.0669" y1="448.2969" y2="448.2969"/><text fill="#000000" font-family="sans-serif" font-size="14" lengthAdjust="spacingAndGlyphs" textLength="18" x="841.0669" y="439.9951">q4</text><!--link q3 to q4--><path d="M765.9585,345.3153 C775.1416,359.4234 787.1973,377.0982 799.0669,392 C806.0392,400.7533 814.0776,409.8278 821.6806,418.0213 " fill="none" id="q3-q4" style="stroke: #A80036; stroke-width: 1.0;"/><polygon fill="#A80036" points="825.3714,421.9675,822.1452,412.662,821.9561,418.3157,816.3024,418.1266,825.3714,421.9675" style="stroke: #A80036; stroke-width: 1.0;"/><text fill="#000000" font-family="sans-serif" font-size="13" lengthAdjust="spacingAndGlyphs" textLength="37" x="800.0669" y="388.0669">(1)init</text><!--link q14 to q10--><path d="M640.3345,726.0911 C622.1799,747.0514 596.2793,776.9549 577.2284,798.95 " fill="none" id="q14-q10" style="stroke: #A80036; stroke-width: 1.0;"/><polygon fill="#A80036" points="573.7543,802.961,582.6702,798.7769,577.0278,799.1816,576.6232,793.5392,573.7543,802.961" style="stroke: #A80036; stroke-width: 1.0;"/><text fill="#000000" font-family="sans-serif" font-size="13" lengthAdjust="spacingAndGlyphs" textLength="76" x="614.0669" y="769.0669">(1)knockout</text><!--link q1 to q3--><path d="M611.698,185.1621 C605.7698,207.9661 601.356,241.5016 617.0669,265 C639.8447,299.068 688.0275,312.0585 719.7134,316.9955 " fill="none" id="q1-q3" style="stroke: #A80036; stroke-width: 1.0;"/><polygon fill="#A80036" points="725.0388,317.774,716.7122,312.5139,720.0914,317.0506,715.5548,320.4298,725.0388,317.774" style="stroke: #A80036; stroke-width: 1.0;"/><text fill="#000000" font-family="sans-serif" font-size="13" lengthAdjust="spacingAndGlyphs" textLength="44" x="618.0669" y="244.5669">(1)_init</text><!--link q5 to q6--><path d="M933.7299,548.9498 C940.3189,540.1183 946.656,529.7072 950.0669,519 C991.0779,390.2634 1018.3338,331.5961 950.0669,215 C935.5259,190.1647 905.2051,175.6892 882.117,167.8804 " fill="none" id="q5-q6" style="stroke: #A80036; stroke-width: 1.0;"/><polygon fill="#A80036" points="877.3083,166.3139,884.6267,172.9048,882.0624,167.8626,887.1047,165.2983,877.3083,166.3139" style="stroke: #A80036; stroke-width: 1.0;"/><text fill="#000000" font-family="sans-serif" font-size="13" lengthAdjust="spacingAndGlyphs" textLength="111" x="990.0669" y="388.0669">(1)_not_knockout</text><!--link q19 to q17--><path d="M136.5375,265.2719 C135.9115,298.0563 139.6163,355.3758 169.0669,392 C192.4076,421.026 234.2363,435.1797 262.8007,441.7587 " fill="none" id="q19-q17" style="stroke: #A80036; stroke-width: 1.0;"/><polygon fill="#A80036" points="267.9725,442.9009,260.0469,437.0541,263.0902,441.8226,258.3216,444.8658,267.9725,442.9009" style="stroke: #A80036; stroke-width: 1.0;"/><text fill="#000000" font-family="sans-serif" font-size="13" lengthAdjust="spacingAndGlyphs" textLength="76" x="147.0669" y="324.5669">(1)knockout</text><!--link q7 to q9--><path d="M597.3283,345.0911 C606.6186,365.7905 619.8234,395.2118 629.6585,417.125 " fill="none" id="q7-q9" style="stroke: #A80036; stroke-width: 1.0;"/><polygon fill="#A80036" points="631.829,421.961,631.7929,412.1122,629.7816,417.3994,624.4944,415.3881,631.829,421.961" style="stroke: #A80036; stroke-width: 1.0;"/><text fill="#000000" font-family="sans-serif" font-size="13" lengthAdjust="spacingAndGlyphs" textLength="80" x="618.0669" y="388.0669">(1)day_open</text><!--link q7 to q10--><path d="M575.122,345.2514 C565.1827,370.5064 552.0669,410.7081 552.0669,447 C552.0669,447 552.0669,447 552.0669,701 C552.0669,733.9351 552.0669,771.6746 552.0669,797.3985 " fill="none" id="q7-q10" style="stroke: #A80036; stroke-width: 1.0;"/><polygon fill="#A80036" points="552.0669,802.6992,556.0669,793.6992,552.0669,797.6992,548.0669,793.6992,552.0669,802.6992" style="stroke: #A80036; stroke-width: 1.0;"/><text fill="#000000" font-family="sans-serif" font-size="13" lengthAdjust="spacingAndGlyphs" textLength="81" x="553.0669" y="578.5669">(2)terminate</text><!--link q17 to q12--><path d="M306.2653,472.0158 C318.2509,497.0918 334.0669,537.1611 334.0669,574 C334.0669,574 334.0669,574 334.0669,828 C334.0669,861.7122 343.8992,899.2235 352.1136,924.6797 " fill="none" id="q17-q12" style="stroke: #A80036; stroke-width: 1.0;"/><polygon fill="#A80036" points="353.7315,929.6055,354.7232,919.8067,352.1712,924.8552,347.1227,922.3032,353.7315,929.6055" style="stroke: #A80036; stroke-width: 1.0;"/><text fill="#000000" font-family="sans-serif" font-size="13" lengthAdjust="spacingAndGlyphs" textLength="68" x="335.0669" y="705.5669">(1)_accept</text><!--link q16 to q18--><path d="M77.2113,421.8947 C44.7402,379.6508 -11.8202,291.4689 12.0669,215 C31.0611,154.1946 78.285,95.8268 109.2171,62.2334 " fill="none" id="q16-q18" style="stroke: #A80036; stroke-width: 1.0;"/><polygon fill="#A80036" points="112.9055,58.261,103.8503,62.1345,109.5033,61.925,109.7128,67.578,112.9055,58.261" style="stroke: #A80036; stroke-width: 1.0;"/><text fill="#000000" font-family="sans-serif" font-size="13" lengthAdjust="spacingAndGlyphs" textLength="81" x="13.0669" y="244.5669">(1)day_close</text><!--link q10 to q12--><path d="M526.9692,844.8646 C492.2324,868.2063 429.6122,910.2844 392.6458,935.1243 " fill="none" id="q10-q12" style="stroke: #A80036; stroke-width: 1.0;"/><polygon fill="#A80036" points="388.2685,938.0656,397.9696,936.3659,392.4185,935.2769,393.5076,929.7258,388.2685,938.0656" style="stroke: #A80036; stroke-width: 1.0;"/><text fill="#000000" font-family="sans-serif" font-size="13" lengthAdjust="spacingAndGlyphs" textLength="68" x="469.0669" y="896.0669">(1)_accept</text><!--link q8 to q4--><path d="M848.8507,345.1691 C848.1283,354.5275 847.4213,365.2411 847.0669,375 C846.5743,388.5653 847.0381,403.5653 847.7362,416.3471 " fill="none" id="q8-q4" style="stroke: #A80036; stroke-width: 1.0;"/><polygon fill="#A80036" points="848.0476,421.6785,851.516,412.4606,847.756,416.687,843.5296,412.9271,848.0476,421.6785" style="stroke: #A80036; stroke-width: 1.0;"/><text fill="#000000" font-family="sans-serif" font-size="13" lengthAdjust="spacingAndGlyphs" textLength="80" x="848.0669" y="388.0669">(1)day_open</text><!--link q9 to q11--><path d="M653.3405,472.0911 C661.8158,492.7905 673.8623,522.2118 682.8346,544.125 " fill="none" id="q9-q11" style="stroke: #A80036; stroke-width: 1.0;"/><polygon fill="#A80036" points="684.8148,548.961,685.106,539.1164,682.9201,544.3339,677.7027,542.148,684.8148,548.961" style="stroke: #A80036; stroke-width: 1.0;"/><text fill="#000000" font-family="sans-serif" font-size="13" lengthAdjust="spacingAndGlyphs" textLength="81" x="673.0669" y="515.0669">(1)day_close</text><!--link q13 to q7--><path d="M381.1322,176.4017 C396.9249,186.9901 417.5643,201.3002 435.0669,215 C461.6033,235.7708 464.7333,245.2902 492.0669,265 C512.5674,279.7824 537.2877,294.123 556.2318,304.4527 " fill="none" id="q13-q7" style="stroke: #A80036; stroke-width: 1.0;"/><polygon fill="#A80036" points="560.9175,306.9903,554.9085,299.1869,556.5209,304.6091,551.0987,306.2215,560.9175,306.9903" style="stroke: #A80036; stroke-width: 1.0;"/><text fill="#000000" font-family="sans-serif" font-size="13" lengthAdjust="spacingAndGlyphs" textLength="104" x="493.0669" y="244.5669">(1)_under_strike</text><!--link q13 to q15--><path d="M330.9804,174.3674 C317,183.9018 300.876,197.8163 293.0669,215 C282.454,238.3535 283.5086,267.7588 286.6105,289.5065 " fill="none" id="q13-q15" style="stroke: #A80036; stroke-width: 1.0;"/><polygon fill="#A80036" points="287.3911,294.5823,289.9764,285.0788,286.631,289.6404,282.0694,286.295,287.3911,294.5823" style="stroke: #A80036; stroke-width: 1.0;"/><text fill="#000000" font-family="sans-serif" font-size="13" lengthAdjust="spacingAndGlyphs" textLength="95" x="294.0669" y="244.5669">(2)_over_strike</text><!--link q15 to q16--><path d="M267.9592,333.8766 C248.8101,344.6544 221.9252,360.2077 199.0669,375 C174.4247,390.9467 147.3908,410.3235 127.4979,424.9571 " fill="none" id="q15-q16" style="stroke: #A80036; stroke-width: 1.0;"/><polygon fill="#A80036" points="123.3648,428.0048,132.9824,425.8829,127.389,425.0374,128.2345,419.4441,123.3648,428.0048" style="stroke: #A80036; stroke-width: 1.0;"/><text fill="#000000" font-family="sans-serif" font-size="13" lengthAdjust="spacingAndGlyphs" textLength="80" x="200.0669" y="388.0669">(1)day_open</text><!--link q15 to q17--><path d="M291.1596,345.3179 C290.335,359.1151 289.6443,376.4923 290.0669,392 C290.2828,399.9222 290.6734,408.4792 291.1028,416.4297 " fill="none" id="q15-q17" style="stroke: #A80036; stroke-width: 1.0;"/><polygon fill="#A80036" points="291.4047,421.8217,294.8952,412.6121,291.1251,416.8295,286.9077,413.0594,291.4047,421.8217" style="stroke: #A80036; stroke-width: 1.0;"/><text fill="#000000" font-family="sans-serif" font-size="13" lengthAdjust="spacingAndGlyphs" textLength="81" x="291.0669" y="388.0669">(2)terminate</text><!--link q11 to q13--><path d="M669.681,561.2622 C606.3847,528.9665 444.4021,442.8458 413.0669,392 C371.5575,324.6448 421.6247,289.1642 394.0669,215 C390.7584,206.096 385.6814,197.2638 380.3049,189.3675 " fill="none" id="q11-q13" style="stroke: #A80036; stroke-width: 1.0;"/><polygon fill="#A80036" points="377.2964,185.0824,379.1941,194.7467,380.1694,189.1746,385.7416,190.1499,377.2964,185.0824" style="stroke: #A80036; stroke-width: 1.0;"/><text fill="#000000" font-family="sans-serif" font-size="13" lengthAdjust="spacingAndGlyphs" textLength="111" x="414.0669" y="388.0669">(1)_not_knockout</text><!--link q11 to q14--><path d="M688.5472,599.0911 C683.1912,619.7035 675.5879,648.9647 669.9016,670.8484 " fill="none" id="q11-q14" style="stroke: #A80036; stroke-width: 1.0;"/><polygon fill="#A80036" points="668.5731,675.961,674.7079,668.2562,669.8305,671.1217,666.965,666.2443,668.5731,675.961" style="stroke: #A80036; stroke-width: 1.0;"/><text fill="#000000" font-family="sans-serif" font-size="13" lengthAdjust="spacingAndGlyphs" textLength="83" x="681.0669" y="642.0669">(2)_knockout</text><!--link q6 to q7--><path d="M826.9064,169.9555 C802.4858,180.0241 764.7219,196.6813 734.0669,215 C702.1722,234.0596 697.3329,243.4474 667.0669,265 C650.1077,277.0768 630.8345,290.1877 615.3439,300.5786 " fill="none" id="q6-q7" style="stroke: #A80036; stroke-width: 1.0;"/><polygon fill="#A80036" points="611.0801,303.4341,620.7838,301.7495,615.2345,300.6518,616.3322,295.1025,611.0801,303.4341" style="stroke: #A80036; stroke-width: 1.0;"/><text fill="#000000" font-family="sans-serif" font-size="13" lengthAdjust="spacingAndGlyphs" textLength="104" x="735.0669" y="244.5669">(1)_under_strike</text><!--link q6 to q8--><path d="M850.4047,185.1783 C849.8629,194.5376 849.3327,205.2496 849.0669,215 C848.3801,240.2027 849.0188,268.8147 849.7515,289.7993 " fill="none" id="q6-q8" style="stroke: #A80036; stroke-width: 1.0;"/><polygon fill="#A80036" points="849.939,294.9633,853.6095,285.824,849.7574,289.9666,845.6148,286.1145,849.939,294.9633" style="stroke: #A80036; stroke-width: 1.0;"/><text fill="#000000" font-family="sans-serif" font-size="13" lengthAdjust="spacingAndGlyphs" textLength="95" x="850.0669" y="244.5669">(2)_over_strike</text><!--link q18 to q13--><path d="M163.0743,47.5685 C203.5395,71.1423 283.1913,117.5449 326.4377,142.7389 " fill="none" id="q18-q13" style="stroke: #A80036; stroke-width: 1.0;"/><polygon fill="#A80036" points="331.0164,145.4063,325.2535,137.4195,326.6961,142.8893,321.2263,144.3319,331.0164,145.4063" style="stroke: #A80036; stroke-width: 1.0;"/><text fill="#000000" font-family="sans-serif" font-size="13" lengthAdjust="spacingAndGlyphs" textLength="111" x="261.0669" y="101.0669">(1)_not_knockout</text><!--link q18 to q19--><path d="M138.0669,58.3823 C138.0669,96.5852 138.0669,168.7357 138.0669,209.6597 " fill="none" id="q18-q19" style="stroke: #A80036; stroke-width: 1.0;"/><polygon fill="#A80036" points="138.0669,214.7342,142.0669,205.7342,138.0669,209.7342,134.0669,205.7342,138.0669,214.7342" style="stroke: #A80036; stroke-width: 1.0;"/><text fill="#000000" font-family="sans-serif" font-size="13" lengthAdjust="spacingAndGlyphs" textLength="83" x="139.0669" y="101.0669">(2)_knockout</text><!--link q4 to q5--><path d="M851.284,472.0098 C852.773,486.3464 856.023,504.3464 863.0669,519 C867.8799,529.0125 875.0245,538.6166 882.3398,546.9182 " fill="none" id="q4-q5" style="stroke: #A80036; stroke-width: 1.0;"/><polygon fill="#A80036" points="885.9351,550.8849,882.8547,541.5301,882.5773,547.1802,876.9272,546.9027,885.9351,550.8849" style="stroke: #A80036; stroke-width: 1.0;"/><text fill="#000000" font-family="sans-serif" font-size="13" lengthAdjust="spacingAndGlyphs" textLength="81" x="864.0669" y="515.0669">(1)day_close</text><!--link *start to q1--><path d="M620.0669,43.3929 C620.0669,62.0758 620.0669,101.9843 620.0669,129.8818 " fill="none" id="*start-q1" style="stroke: #A80036; stroke-width: 1.0;"/><polygon fill="#A80036" points="620.0669,134.9432,624.0669,125.9432,620.0669,129.9432,616.0669,125.9432,620.0669,134.9432" style="stroke: #A80036; stroke-width: 1.0;"/><!--link q12 to *end--><path d="M363.0669,980.2229 C363.0669,997.8366 363.0669,1020.7774 363.0669,1035.6928 " fill="none" id="q12-*end" style="stroke: #A80036; stroke-width: 1.0;"/><polygon fill="#A80036" points="363.0669,1040.8002,367.0669,1031.8002,363.0669,1035.8002,359.0669,1031.8002,363.0669,1040.8002" style="stroke: #A80036; stroke-width: 1.0;"/><!--
@startuml 
state q3
state q14
state q1
state q5
state q19
state q7
state q17
state q16
state q10
state q8
state q9
state q13
state q15
state q11
state q6
state q18
state q4
q3 - -> q4:(1)init
q14 - -> q10:(1)knockout
q1 - -> q3:(1)_init
q5 - -> q6:(1)_not_knockout
q19 - -> q17:(1)knockout
q7 - -> q9:(1)day_open
q7 - -> q10:(2)terminate
q17 - -> q12:(1)_accept
q16 - -> q18:(1)day_close
q10 - -> q12:(1)_accept
q8 - -> q4:(1)day_open
q9 - -> q11:(1)day_close
q13 - -> q7:(1)_under_strike
q13 - -> q15:(2)_over_strike
q15 - -> q16:(1)day_open
q15 - -> q17:(2)terminate
q11 - -> q13:(1)_not_knockout
q11 - -> q14:(2)_knockout
q6 - -> q7:(1)_under_strike
q6 - -> q8:(2)_over_strike
q18 - -> q13:(1)_not_knockout
q18 - -> q19:(2)_knockout
q4 - -> q5:(1)day_close
[*] - -> q1
state q12
q12 - -> [*]
state q3 {
}
state q14 {
}
state q1 {
}
state q5 {
}
state q19 {
}
state q7 {
}
state q17 {
}
state q16 {
}
state q10 {
}
state q8 {
}
state q9 {
}
state q13 {
}
state q15 {
}
state q11 {
}
state q6 {
}
state q18 {
}
state q4 {
}
@enduml

PlantUML version 1.2017.15(Tue Jul 04 01:45:34 JST 2017)
(GPL source distribution)
Java Runtime: OpenJDK Runtime Environment
JVM: OpenJDK 64-Bit Server VM
Java Version: 1.8.0_181-8u181-b13-0ubuntu0.18.04.1-b13
Operating System: Linux
OS Version: 4.15.0-34-generic
Default Encoding: UTF-8
Language: en
Country: US
--></g></svg>