<?xml version="1.0" encoding="UTF-8" standalone="no"?><svg xmlns="http://www.w3.org/2000/svg" xmlns:xlink="http://www.w3.org/1999/xlink" contentScriptType="application/ecmascript" contentStyleType="text/css" height="658px" preserveAspectRatio="none" style="width:592px;height:658px;" version="1.1" viewBox="0 0 592 658" width="592px" zoomAndPan="magnify"><defs><filter height="300%" id="f1em7yz9oxuzii" width="300%" x="-1" y="-1"><feGaussianBlur result="blurOut" stdDeviation="2.0"/><feColorMatrix in="blurOut" result="blurOut2" type="matrix" values="0 0 0 0 0 0 0 0 0 0 0 0 0 0 0 0 0 0 .4 0"/><feOffset dx="4.0" dy="4.0" in="blurOut2" result="blurOut3"/><feBlend in="SourceGraphic" in2="blurOut3" mode="normal"/></filter></defs><g><rect fill="#FEFECE" filter="url(#f1em7yz9oxuzii)" height="50" rx="12.5" ry="12.5" style="stroke: #A80036; stroke-width: 1.5;" width="50" x="6" y="516"/><line style="stroke: #A80036; stroke-width: 1.5;" x1="6" x2="56" y1="542.2969" y2="542.2969"/><text fill="#000000" font-family="sans-serif" font-size="14" lengthAdjust="spacingAndGlyphs" textLength="18" x="22" y="533.9951">q9</text><ellipse cx="550" cy="160" fill="#000000" filter="url(#f1em7yz9oxuzii)" rx="10" ry="10" style="stroke: none; stroke-width: 1.0;"/><ellipse cx="31" cy="637" fill="none" filter="url(#f1em7yz9oxuzii)" rx="10" ry="10" style="stroke: #000000; stroke-width: 1.0;"/><ellipse cx="31.5" cy="637.5" fill="#000000" rx="6" ry="6" style="stroke: none; stroke-width: 1.0;"/><rect fill="#FEFECE" filter="url(#f1em7yz9oxuzii)" height="50" rx="12.5" ry="12.5" style="stroke: #A80036; stroke-width: 1.5;" width="50" x="525" y="262"/><line style="stroke: #A80036; stroke-width: 1.5;" x1="525" x2="575" y1="288.2969" y2="288.2969"/><text fill="#000000" font-family="sans-serif" font-size="14" lengthAdjust="spacingAndGlyphs" textLength="18" x="541" y="279.9951">q1</text><rect fill="#FEFECE" filter="url(#f1em7yz9oxuzii)" height="50" rx="12.5" ry="12.5" style="stroke: #A80036; stroke-width: 1.5;" width="50" x="492" y="389"/><line style="stroke: #A80036; stroke-width: 1.5;" x1="492" x2="542" y1="415.2969" y2="415.2969"/><text fill="#000000" font-family="sans-serif" font-size="14" lengthAdjust="spacingAndGlyphs" textLength="18" x="508" y="406.9951">q2</text><rect fill="#FEFECE" filter="url(#f1em7yz9oxuzii)" height="50" rx="12.5" ry="12.5" style="stroke: #A80036; stroke-width: 1.5;" width="50" x="181" y="8"/><line style="stroke: #A80036; stroke-width: 1.5;" x1="181" x2="231" y1="34.2969" y2="34.2969"/><text fill="#000000" font-family="sans-serif" font-size="14" lengthAdjust="spacingAndGlyphs" textLength="18" x="197" y="25.9951">q5</text><rect fill="#FEFECE" filter="url(#f1em7yz9oxuzii)" height="50" rx="12.5" ry="12.5" style="stroke: #A80036; stroke-width: 1.5;" width="50" x="6" y="389"/><line style="stroke: #A80036; stroke-width: 1.5;" x1="6" x2="56" y1="415.2969" y2="415.2969"/><text fill="#000000" font-family="sans-serif" font-size="14" lengthAdjust="spacingAndGlyphs" textLength="18" x="22" y="406.9951">q7</text><rect fill="#FEFECE" filter="url(#f1em7yz9oxuzii)" height="50" rx="12.5" ry="12.5" style="stroke: #A80036; stroke-width: 1.5;" width="50" x="235" y="389"/><line style="stroke: #A80036; stroke-width: 1.5;" x1="235" x2="285" y1="415.2969" y2="415.2969"/><text fill="#000000" font-family="sans-serif" font-size="14" lengthAdjust="spacingAndGlyphs" textLength="27" x="246.5" y="406.9951">q10</text><rect fill="#FEFECE" filter="url(#f1em7yz9oxuzii)" height="50" rx="12.5" ry="12.5" style="stroke: #A80036; stroke-width: 1.5;" width="50" x="171" y="262"/><line style="stroke: #A80036; stroke-width: 1.5;" x1="171" x2="221" y1="288.2969" y2="288.2969"/><text fill="#000000" font-family="sans-serif" font-size="14" lengthAdjust="spacingAndGlyphs" textLength="18" x="187" y="279.9951">q8</text><rect fill="#FEFECE" filter="url(#f1em7yz9oxuzii)" height="50" rx="12.5" ry="12.5" style="stroke: #A80036; stroke-width: 1.5;" width="50" x="181" y="135"/><line style="stroke: #A80036; stroke-width: 1.5;" x1="181" x2="231" y1="161.2969" y2="161.2969"/><text fill="#000000" font-family="sans-serif" font-size="14" lengthAdjust="spacingAndGlyphs" textLength="18" x="197" y="152.9951">q6</text><rect fill="#FEFECE" filter="url(#f1em7yz9oxuzii)" height="50" rx="12.5" ry="12.5" style="stroke: #A80036; stroke-width: 1.5;" width="50" x="382" y="516"/><line style="stroke: #A80036; stroke-width: 1.5;" x1="382" x2="432" y1="542.2969" y2="542.2969"/><text fill="#000000" font-family="sans-serif" font-size="14" lengthAdjust="spacingAndGlyphs" textLength="18" x="398" y="533.9951">q4</text><!--link q1 to q2--><path d="M543.4803,312.0911 C538.1243,332.7035 530.521,361.9647 524.8347,383.8484 " fill="none" id="q1-q2" style="stroke: #A80036; stroke-width: 1.0;"/><polygon fill="#A80036" points="523.5062,388.961,529.641,381.2562,524.7636,384.1217,521.8981,379.2443,523.5062,388.961" style="stroke: #A80036; stroke-width: 1.0;"/><text fill="#000000" font-family="sans-serif" font-size="13" lengthAdjust="spacingAndGlyphs" textLength="44" x="536" y="355.0669">(1)_init</text><!--link q2 to q4--><path d="M495.2675,439.0911 C477.113,460.0514 451.2123,489.9549 432.1614,511.95 " fill="none" id="q2-q4" style="stroke: #A80036; stroke-width: 1.0;"/><polygon fill="#A80036" points="428.6873,515.961,437.6032,511.7769,431.9608,512.1816,431.5562,506.5392,428.6873,515.961" style="stroke: #A80036; stroke-width: 1.0;"/><text fill="#000000" font-family="sans-serif" font-size="13" lengthAdjust="spacingAndGlyphs" textLength="37" x="469" y="482.0669">(1)init</text><!--link q5 to q6--><path d="M206,58.0911 C206,78.7035 206,107.9647 206,129.8484 " fill="none" id="q5-q6" style="stroke: #A80036; stroke-width: 1.0;"/><polygon fill="#A80036" points="206,134.961,210,125.961,206,129.961,202,125.961,206,134.961" style="stroke: #A80036; stroke-width: 1.0;"/><text fill="#000000" font-family="sans-serif" font-size="13" lengthAdjust="spacingAndGlyphs" textLength="111" x="207" y="101.0669">(1)_not_knockout</text><!--link q5 to q7--><path d="M180.8935,51.4272 C142.8582,81.0139 71.9029,143.138 42,215 C18.7187,270.9491 22.1438,343.4837 26.6305,383.7246 " fill="none" id="q5-q7" style="stroke: #A80036; stroke-width: 1.0;"/><polygon fill="#A80036" points="27.239,388.9451,30.1699,379.5425,26.66,383.9787,22.2237,380.4688,27.239,388.9451" style="stroke: #A80036; stroke-width: 1.0;"/><text fill="#000000" font-family="sans-serif" font-size="13" lengthAdjust="spacingAndGlyphs" textLength="83" x="43" y="228.0669">(2)_knockout</text><!--link q7 to q9--><path d="M31,439.0911 C31,459.7035 31,488.9647 31,510.8484 " fill="none" id="q7-q9" style="stroke: #A80036; stroke-width: 1.0;"/><polygon fill="#A80036" points="31,515.961,35,506.961,31,510.961,27,506.961,31,515.961" style="stroke: #A80036; stroke-width: 1.0;"/><text fill="#000000" font-family="sans-serif" font-size="13" lengthAdjust="spacingAndGlyphs" textLength="68" x="32" y="482.0669">(1)_accept</text><!--link q10 to q4--><path d="M269.129,439.093 C275.6147,454.1674 285.5637,472.9006 299,486 C321.0832,507.5294 353.2832,522.4353 376.7759,531.2446 " fill="none" id="q10-q4" style="stroke: #A80036; stroke-width: 1.0;"/><polygon fill="#A80036" points="381.65,533.0321,374.5777,526.1777,376.9558,531.3104,371.823,533.6884,381.65,533.0321" style="stroke: #A80036; stroke-width: 1.0;"/><text fill="#000000" font-family="sans-serif" font-size="13" lengthAdjust="spacingAndGlyphs" textLength="80" x="300" y="482.0669">(1)day_open</text><!--link q8 to q7--><path d="M170.9401,306.2886 C141.1738,329.1996 91.6026,367.3544 60.1486,391.5644 " fill="none" id="q8-q7" style="stroke: #A80036; stroke-width: 1.0;"/><polygon fill="#A80036" points="56.0249,394.7384,65.5967,392.4186,59.9871,391.6886,60.717,386.0791,56.0249,394.7384" style="stroke: #A80036; stroke-width: 1.0;"/><text fill="#000000" font-family="sans-serif" font-size="13" lengthAdjust="spacingAndGlyphs" textLength="88" x="124" y="355.0669">(1)_terminate</text><!--link q8 to q10--><path d="M208.6443,312.0911 C219.1193,332.8774 234.0267,362.4592 245.0839,384.4008 " fill="none" id="q8-q10" style="stroke: #A80036; stroke-width: 1.0;"/><polygon fill="#A80036" points="247.3819,388.961,246.9036,379.1238,245.1317,384.4959,239.7595,382.724,247.3819,388.961" style="stroke: #A80036; stroke-width: 1.0;"/><text fill="#000000" font-family="sans-serif" font-size="13" lengthAdjust="spacingAndGlyphs" textLength="116" x="232" y="355.0669">(2)_not_terminate</text><!--link q6 to q8--><path d="M180.7043,172.8483 C165.2574,182.2179 146.83,196.5013 138,215 C128.1004,235.7394 147.4149,255.8011 166.363,269.4564 " fill="none" id="q6-q8" style="stroke: #A80036; stroke-width: 1.0;"/><polygon fill="#A80036" points="170.6431,272.4422,165.5502,264.0123,166.5423,269.5815,160.9731,270.5736,170.6431,272.4422" style="stroke: #A80036; stroke-width: 1.0;"/><text fill="#000000" font-family="sans-serif" font-size="13" lengthAdjust="spacingAndGlyphs" textLength="95" x="139" y="228.0669">(1)_over_strike</text><!--link q6 to q8--><path d="M227.9271,185.1601 C237.1061,198.7635 244.509,216.0094 239,232 C235.8355,241.1855 230.437,250.011 224.5138,257.8013 " fill="none" id="q6-q8" style="stroke: #A80036; stroke-width: 1.0;"/><polygon fill="#A80036" points="221.18,262.0185,229.8993,257.4387,224.2807,258.0961,223.6233,252.4775,221.18,262.0185" style="stroke: #A80036; stroke-width: 1.0;"/><text fill="#000000" font-family="sans-serif" font-size="13" lengthAdjust="spacingAndGlyphs" textLength="104" x="241" y="228.0669">(2)_under_strike</text><!--link q4 to q5--><path d="M407,515.6992 C407,490.0677 407,449.2778 407,414 C407,160 407,160 407,160 C407,80.2241 292.442,48.5185 236.2957,37.7699 " fill="none" id="q4-q5" style="stroke: #A80036; stroke-width: 1.0;"/><polygon fill="#A80036" points="231.0504,36.7942,239.1671,42.3727,235.9661,37.7086,240.6301,34.5076,231.0504,36.7942" style="stroke: #A80036; stroke-width: 1.0;"/><text fill="#000000" font-family="sans-serif" font-size="13" lengthAdjust="spacingAndGlyphs" textLength="81" x="408" y="291.5669">(1)day_close</text><!--link *start to q1--><path d="M550,170.3929 C550,189.0758 550,228.9843 550,256.8818 " fill="none" id="*start-q1" style="stroke: #A80036; stroke-width: 1.0;"/><polygon fill="#A80036" points="550,261.9432,554,252.9432,550,256.9432,546,252.9432,550,261.9432" style="stroke: #A80036; stroke-width: 1.0;"/><!--link q9 to *end--><path d="M31,566.2229 C31,583.8366 31,606.7774 31,621.6928 " fill="none" id="q9-*end" style="stroke: #A80036; stroke-width: 1.0;"/><polygon fill="#A80036" points="31,626.8002,35,617.8002,31,621.8002,27,617.8002,31,626.8002" style="stroke: #A80036; stroke-width: 1.0;"/><!--
@startuml 
state q1
state q2
state q5
state q7
state q10
state q8
state q6
state q4
q1 - -> q2:(1)_init
q2 - -> q4:(1)init
q5 - -> q6:(1)_not_knockout
q5 - -> q7:(2)_knockout
q7 - -> q9:(1)_accept
q10 - -> q4:(1)day_open
q8 - -> q7:(1)_terminate
q8 - -> q10:(2)_not_terminate
q6 - -> q8:(1)_over_strike
q6 - -> q8:(2)_under_strike
q4 - -> q5:(1)day_close
[*] - -> q1
state q9
q9 - -> [*]
state q1 {
}
state q2 {
}
state q5 {
}
state q7 {
}
state q10 {
}
state q8 {
}
state q6 {
}
state q4 {
}
@enduml

PlantUML version 1.2017.15(Tue Jul 04 01:45:34 JST 2017)
(GPL source distribution)
Java Runtime: OpenJDK Runtime Environment
JVM: OpenJDK 64-Bit Server VM
Java Version: 1.8.0_181-8u181-b13-0ubuntu0.18.04.1-b13
Operating System: Linux
OS Version: 4.15.0-34-generic
Default Encoding: UTF-8
Language: en
Country: US
--></g></svg>