<?xml version="1.0" encoding="UTF-8" standalone="no"?><svg xmlns="http://www.w3.org/2000/svg" xmlns:xlink="http://www.w3.org/1999/xlink" contentScriptType="application/ecmascript" contentStyleType="text/css" height="485px" preserveAspectRatio="none" style="width:303px;height:485px;" version="1.1" viewBox="0 0 303 485" width="303px" zoomAndPan="magnify"><defs><filter height="300%" id="f13cl1gvjzsni7" width="300%" x="-1" y="-1"><feGaussianBlur result="blurOut" stdDeviation="2.0"/><feColorMatrix in="blurOut" result="blurOut2" type="matrix" values="0 0 0 0 0 0 0 0 0 0 0 0 0 0 0 0 0 0 .4 0"/><feOffset dx="4.0" dy="4.0" in="blurOut2" result="blurOut3"/><feBlend in="SourceGraphic" in2="blurOut3" mode="normal"/></filter></defs><g><rect fill="#FEFECE" filter="url(#f13cl1gvjzsni7)" height="50" rx="12.5" ry="12.5" style="stroke: #A80036; stroke-width: 1.5;" width="84" x="116.7306" y="343"/><line style="stroke: #A80036; stroke-width: 1.5;" x1="116.7306" x2="200.7306" y1="369.2969" y2="369.2969"/><text fill="#000000" font-family="sans-serif" font-size="14" lengthAdjust="spacingAndGlyphs" textLength="64" x="126.7306" y="360.9951">_rejected</text><rect fill="#FEFECE" filter="url(#f13cl1gvjzsni7)" height="50" rx="12.5" ry="12.5" style="stroke: #A80036; stroke-width: 1.5;" width="50" x="241.7306" y="343"/><line style="stroke: #A80036; stroke-width: 1.5;" x1="241.7306" x2="291.7306" y1="369.2969" y2="369.2969"/><text fill="#000000" font-family="sans-serif" font-size="14" lengthAdjust="spacingAndGlyphs" textLength="18" x="257.7306" y="360.9951">q6</text><ellipse cx="109.7306" cy="18" fill="#000000" filter="url(#f13cl1gvjzsni7)" rx="10" ry="10" style="stroke: none; stroke-width: 1.0;"/><ellipse cx="208.7306" cy="464" fill="none" filter="url(#f13cl1gvjzsni7)" rx="10" ry="10" style="stroke: #000000; stroke-width: 1.0;"/><ellipse cx="209.2306" cy="464.5" fill="#000000" rx="6" ry="6" style="stroke: none; stroke-width: 1.0;"/><rect fill="#FEFECE" filter="url(#f13cl1gvjzsni7)" height="50" rx="12.5" ry="12.5" style="stroke: #A80036; stroke-width: 1.5;" width="50" x="27.7306" y="216"/><line style="stroke: #A80036; stroke-width: 1.5;" x1="27.7306" x2="77.7306" y1="242.2969" y2="242.2969"/><text fill="#000000" font-family="sans-serif" font-size="14" lengthAdjust="spacingAndGlyphs" textLength="18" x="43.7306" y="233.9951">q4</text><rect fill="#FEFECE" filter="url(#f13cl1gvjzsni7)" height="50" rx="12.5" ry="12.5" style="stroke: #A80036; stroke-width: 1.5;" width="50" x="84.7306" y="89"/><line style="stroke: #A80036; stroke-width: 1.5;" x1="84.7306" x2="134.7306" y1="115.2969" y2="115.2969"/><text fill="#000000" font-family="sans-serif" font-size="14" lengthAdjust="spacingAndGlyphs" textLength="18" x="100.7306" y="106.9951">q2</text><rect fill="#FEFECE" filter="url(#f13cl1gvjzsni7)" height="50" rx="12.5" ry="12.5" style="stroke: #A80036; stroke-width: 1.5;" width="50" x="209.7306" y="216"/><line style="stroke: #A80036; stroke-width: 1.5;" x1="209.7306" x2="259.7306" y1="242.2969" y2="242.2969"/><text fill="#000000" font-family="sans-serif" font-size="14" lengthAdjust="spacingAndGlyphs" textLength="18" x="225.7306" y="233.9951">q5</text><!--link q4 to q2--><path d="M56.1466,215.8708 C58.6889,201.66 62.9259,183.8243 69.7306,169 C73.7618,160.2179 79.3038,151.4295 84.9786,143.5366 " fill="none" id="q4-q2" style="stroke: #A80036; stroke-width: 1.0;"/><polygon fill="#A80036" points="88.1361,139.2495,79.5781,144.124,85.1709,143.2754,86.0195,148.8682,88.1361,139.2495" style="stroke: #A80036; stroke-width: 1.0;"/><text fill="#000000" font-family="sans-serif" font-size="13" lengthAdjust="spacingAndGlyphs" textLength="50" x="70.7306" y="182.0669">(1)pong</text><!--link q2 to q4--><path d="M84.4456,120.025 C60.4573,127.2328 25.7648,141.8818 9.7306,169 C0.3156,184.9234 10.8378,202.7761 23.8265,216.7208 " fill="none" id="q2-q4" style="stroke: #A80036; stroke-width: 1.0;"/><polygon fill="#A80036" points="27.5408,220.5454,24.1403,211.3022,24.0574,216.9585,18.4012,216.8756,27.5408,220.5454" style="stroke: #A80036; stroke-width: 1.0;"/><text fill="#000000" font-family="sans-serif" font-size="13" lengthAdjust="spacingAndGlyphs" textLength="45" x="10.7306" y="182.0669">(1)ping</text><!--link q4 to _rejected--><path d="M64.8396,266.3252 C72.376,280.767 82.876,298.767 94.7306,313 C102.5244,322.3575 112.0046,331.437 121.2543,339.4325 " fill="none" id="q4-_rejected" style="stroke: #A80036; stroke-width: 1.0;"/><polygon fill="#A80036" points="125.1988,342.7904,120.9386,333.9106,121.3915,339.5493,115.7529,340.0022,125.1988,342.7904" style="stroke: #A80036; stroke-width: 1.0;"/><text fill="#000000" font-family="sans-serif" font-size="13" lengthAdjust="spacingAndGlyphs" textLength="25" x="95.7306" y="309.0669">(2)*</text><!--link q2 to q5--><path d="M134.854,134.0222 C147.0003,144.0892 161.5496,156.733 173.7306,169 C187.0167,182.3799 200.6861,198.2821 211.7086,211.7342 " fill="none" id="q2-q5" style="stroke: #A80036; stroke-width: 1.0;"/><polygon fill="#A80036" points="215.0411,215.8248,212.4576,206.3208,211.883,211.9484,206.2554,211.3738,215.0411,215.8248" style="stroke: #A80036; stroke-width: 1.0;"/><text fill="#000000" font-family="sans-serif" font-size="13" lengthAdjust="spacingAndGlyphs" textLength="42" x="189.7306" y="182.0669">(2)quit</text><!--link q2 to _rejected--><path d="M117.6915,139.0262 C120.4831,148.369 123.4803,159.1094 125.7306,169 C139.2261,228.315 149.6005,298.7547 154.8761,337.9144 " fill="none" id="q2-_rejected" style="stroke: #A80036; stroke-width: 1.0;"/><polygon fill="#A80036" points="155.5557,342.996,158.3272,333.5452,154.8928,338.0401,150.3979,334.6057,155.5557,342.996" style="stroke: #A80036; stroke-width: 1.0;"/><text fill="#000000" font-family="sans-serif" font-size="13" lengthAdjust="spacingAndGlyphs" textLength="25" x="144.7306" y="245.5669">(3)*</text><!--link q5 to q6--><path d="M241.0528,266.0911 C246.2464,286.7035 253.6193,315.9647 259.1333,337.8484 " fill="none" id="q5-q6" style="stroke: #A80036; stroke-width: 1.0;"/><polygon fill="#A80036" points="260.4216,342.961,262.101,333.2564,259.1997,338.1126,254.3435,335.2113,260.4216,342.961" style="stroke: #A80036; stroke-width: 1.0;"/><text fill="#000000" font-family="sans-serif" font-size="13" lengthAdjust="spacingAndGlyphs" textLength="18" x="252.7306" y="309.0669">(1)</text><!--link q5 to _rejected--><path d="M219.7154,266.0911 C207.2764,286.8774 189.5739,316.4592 176.4435,338.4008 " fill="none" id="q5-_rejected" style="stroke: #A80036; stroke-width: 1.0;"/><polygon fill="#A80036" points="173.7146,342.961,181.7685,337.2923,176.2822,338.6706,174.9039,333.1842,173.7146,342.961" style="stroke: #A80036; stroke-width: 1.0;"/><text fill="#000000" font-family="sans-serif" font-size="13" lengthAdjust="spacingAndGlyphs" textLength="25" x="201.7306" y="309.0669">(2)*</text><!--link *start to q2--><path d="M109.7306,28.2737 C109.7306,41.3608 109.7306,64.5555 109.7306,83.5207 " fill="none" id="*start-q2" style="stroke: #A80036; stroke-width: 1.0;"/><polygon fill="#A80036" points="109.7306,88.7458,113.7306,79.7458,109.7306,83.7458,105.7306,79.7458,109.7306,88.7458" style="stroke: #A80036; stroke-width: 1.0;"/><!--link q6 to *end--><path d="M251.4918,393.2229 C240.3949,411.5901 225.7985,435.7497 216.8495,450.5618 " fill="none" id="q6-*end" style="stroke: #A80036; stroke-width: 1.0;"/><polygon fill="#A80036" points="214.0444,455.2048,222.1222,449.5702,216.6301,450.9253,215.275,445.4331,214.0444,455.2048" style="stroke: #A80036; stroke-width: 1.0;"/><!--link _rejected to *end--><path d="M171.8675,393.2229 C181.3298,411.3904 193.7437,435.2252 201.4783,450.0755 " fill="none" id="_rejected-*end" style="stroke: #A80036; stroke-width: 1.0;"/><polygon fill="#A80036" points="203.9109,454.7461,203.3011,444.9161,201.6012,450.3115,196.2058,448.6117,203.9109,454.7461" style="stroke: #A80036; stroke-width: 1.0;"/><!--
@startuml 
state q4
state q2
state q5
q4 - -> q2:(1)pong
q4 - -> _rejected:(2)*
q2 - -> q4:(1)ping
q2 - -> q5:(2)quit
q2 - -> _rejected:(3)*
q5 - -> q6:(1) 
q5 - -> _rejected:(2)*
[*] - -> q2
state q6
q6 - -> [*]
state _rejected
_rejected - -> [*]
state q4 {
}
state q2 {
}
state q5 {
}
@enduml

PlantUML version 1.2017.15(Tue Jul 04 01:45:34 JST 2017)
(GPL source distribution)
Java Runtime: OpenJDK Runtime Environment
JVM: OpenJDK 64-Bit Server VM
Java Version: 1.8.0_191-8u191-b12-2ubuntu0.18.04.1-b12
Operating System: Linux
OS Version: 4.15.0-46-generic
Default Encoding: UTF-8
Language: en
Country: US
--></g></svg>